<svg xmlns="http://www.w3.org/2000/svg" height="502" width="960.0" font-size="16" font-family="sans-serif" stroke-width="2">
<g transform="translate(10.0 0)">
<text fill="hsl(0, 100%, 40%)" y="22">countdown.shallow.10000.heftia 945  μs</text>
<g>
<title>945  μs ±  25 μs</title>
<rect y="28" rx="5" height="22" width="301.50480713901027" fill="hsl(0, 100%, 80%)" stroke="hsl(0, 100%, 55%)" />
<g stroke="hsl(0, 100%, 40%)"><line x1="293.68733826678726" x2="309.32227601123327" y1="39" y2="39" />
<line x1="293.68733826678726" x2="293.68733826678726" y1="33" y2="45" />
<line x1="309.32227601123327" x2="309.32227601123327" y1="33" y2="45" />
</g>
</g>
<text fill="hsl(40, 100%, 40%)" y="77">countdown.shallow.10000.heftia.ev 335  μs</text>
<g>
<title>335  μs ±  17 μs</title>
<rect y="83" rx="5" height="22" width="106.85988307857454" fill="hsl(40, 100%, 80%)" stroke="hsl(40, 100%, 55%)" />
<g stroke="hsl(40, 100%, 40%)"><line x1="101.4604868648702" x2="112.25927929227888" y1="94" y2="94" />
<line x1="101.4604868648702" x2="101.4604868648702" y1="88" y2="100" />
<line x1="112.25927929227888" x2="112.25927929227888" y1="88" y2="100" />
</g>
</g>
<text fill="hsl(80, 100%, 40%)" y="132">countdown.shallow.10000.freer 470  μs</text>
<g>
<title>470  μs ±  43 μs</title>
<rect y="138" rx="5" height="22" width="149.8870286509796" fill="hsl(80, 100%, 80%)" stroke="hsl(80, 100%, 55%)" />
<g stroke="hsl(80, 100%, 40%)"><line x1="136.09580103575786" x2="163.67825626620134" y1="149" y2="149" />
<line x1="136.09580103575786" x2="136.09580103575786" y1="143" y2="155" />
<line x1="163.67825626620134" x2="163.67825626620134" y1="143" y2="155" />
</g>
</g>
<g fill="hsl(120, 100%, 40%)">
<text y="187">countdown.shallow.10000.polyemy</text>
<text y="187" x="880.7053126408256" text-anchor="end">2.76 ms</text>
</g>
<g>
<title>2.76 ms ± 186 μs</title>
<rect y="193" rx="5" height="22" width="880.7053126408256" fill="hsl(120, 100%, 80%)" stroke="hsl(120, 100%, 55%)" />
<g stroke="hsl(120, 100%, 40%)"><line x1="821.4106252816512" x2="940.0" y1="204" y2="204" />
<line x1="821.4106252816512" x2="821.4106252816512" y1="198" y2="210" />
<line x1="940.0" x2="940.0" y1="198" y2="210" />
</g>
</g>
<g fill="hsl(160, 100%, 40%)">
<text y="242">countdown.shallow.10000.fused</text>
<text y="242" x="672.9410792406625" text-anchor="end">2.11 ms</text>
</g>
<g>
<title>2.11 ms ±  87 μs</title>
<rect y="248" rx="5" height="22" width="672.9410792406625" fill="hsl(160, 100%, 80%)" stroke="hsl(160, 100%, 55%)" />
<g stroke="hsl(160, 100%, 40%)"><line x1="645.2817942238613" x2="700.6003642574636" y1="259" y2="259" />
<line x1="645.2817942238613" x2="645.2817942238613" y1="253" y2="265" />
<line x1="700.6003642574636" x2="700.6003642574636" y1="253" y2="265" />
</g>
</g>
<text fill="hsl(200, 100%, 40%)" y="297">countdown.shallow.10000.effectful 259  μs</text>
<g>
<title>259  μs ±  16 μs</title>
<rect y="303" rx="5" height="22" width="82.7458661535136" fill="hsl(200, 100%, 80%)" stroke="hsl(200, 100%, 55%)" />
<g stroke="hsl(200, 100%, 40%)"><line x1="77.78766317812622" x2="87.70406912890098" y1="314" y2="314" />
<line x1="77.78766317812622" x2="77.78766317812622" y1="308" y2="320" />
<line x1="87.70406912890098" x2="87.70406912890098" y1="308" y2="320" />
</g>
</g>
<text fill="hsl(240, 100%, 40%)" y="352">countdown.shallow.10000.eff 80.8 μs</text>
<g>
<title>80.8 μs ± 3.5 μs</title>
<rect y="358" rx="5" height="22" width="25.779053711019962" fill="hsl(240, 100%, 80%)" stroke="hsl(240, 100%, 55%)" />
<g stroke="hsl(240, 100%, 40%)"><line x1="24.672707976618334" x2="26.88539944542159" y1="369" y2="369" />
<line x1="24.672707976618334" x2="24.672707976618334" y1="363" y2="375" />
<line x1="26.88539944542159" x2="26.88539944542159" y1="363" y2="375" />
</g>
</g>
<text fill="hsl(280, 100%, 40%)" y="407">countdown.shallow.10000.ev 297  μs</text>
<g>
<title>297  μs ±  26 μs</title>
<rect y="413" rx="5" height="22" width="94.70989258775144" fill="hsl(280, 100%, 80%)" stroke="hsl(280, 100%, 55%)" />
<g stroke="hsl(280, 100%, 40%)"><line x1="86.28849267321283" x2="103.13129250229005" y1="424" y2="424" />
<line x1="86.28849267321283" x2="86.28849267321283" y1="418" y2="430" />
<line x1="103.13129250229005" x2="103.13129250229005" y1="418" y2="430" />
</g>
</g>
<text fill="hsl(320, 100%, 40%)" y="462">countdown.shallow.10000.mtl 851  μs</text>
<g>
<title>851  μs ±  54 μs</title>
<rect y="468" rx="5" height="22" width="271.2658361535969" fill="hsl(320, 100%, 80%)" stroke="hsl(320, 100%, 55%)" />
<g stroke="hsl(320, 100%, 40%)"><line x1="254.1885324648005" x2="288.3431398423933" y1="479" y2="479" />
<line x1="254.1885324648005" x2="254.1885324648005" y1="473" y2="485" />
<line x1="288.3431398423933" x2="288.3431398423933" y1="473" y2="485" />
</g>
</g>
</g>
</svg>
