<svg xmlns="http://www.w3.org/2000/svg" height="502" width="960.0" font-size="16" font-family="sans-serif" stroke-width="2">
<g transform="translate(10.0 0)">
<g fill="hsl(0, 100%, 40%)">
<text y="22">countdown.shallow.10000.heftia</text>
<text y="22" x="358.2304440381606" text-anchor="end">3.46 ms</text>
</g>
<g>
<title>3.46 ms ± 265 μs</title>
<rect y="28" rx="5" height="22" width="358.2304440381606" fill="hsl(0, 100%, 80%)" stroke="hsl(0, 100%, 55%)" />
<g stroke="hsl(0, 100%, 40%)"><line x1="330.7570971075216" x2="385.70379096879964" y1="39" y2="39" />
<line x1="330.7570971075216" x2="330.7570971075216" y1="33" y2="45" />
<line x1="385.70379096879964" x2="385.70379096879964" y1="33" y2="45" />
</g>
</g>
<g fill="hsl(40, 100%, 40%)">
<text y="77">countdown.shallow.10000.heftia.ev</text>
<text y="77" x="721.3689680959444" text-anchor="end">6.96 ms</text>
</g>
<g>
<title>6.96 ms ± 355 μs</title>
<rect y="83" rx="5" height="22" width="721.3689680959444" fill="hsl(40, 100%, 80%)" stroke="hsl(40, 100%, 55%)" />
<g stroke="hsl(40, 100%, 40%)"><line x1="684.5551068285912" x2="758.1828293632976" y1="94" y2="94" />
<line x1="684.5551068285912" x2="684.5551068285912" y1="88" y2="100" />
<line x1="758.1828293632976" x2="758.1828293632976" y1="88" y2="100" />
</g>
</g>
<text fill="hsl(80, 100%, 40%)" y="132">countdown.shallow.10000.freer 1.95 ms</text>
<g>
<title>1.95 ms ± 178 μs</title>
<rect y="138" rx="5" height="22" width="202.42910360984578" fill="hsl(80, 100%, 80%)" stroke="hsl(80, 100%, 55%)" />
<g stroke="hsl(80, 100%, 40%)"><line x1="183.9915967813453" x2="220.86661043834627" y1="149" y2="149" />
<line x1="183.9915967813453" x2="183.9915967813453" y1="143" y2="155" />
<line x1="220.86661043834627" x2="220.86661043834627" y1="143" y2="155" />
</g>
</g>
<g fill="hsl(120, 100%, 40%)">
<text y="187">countdown.shallow.10000.polyemy</text>
<text y="187" x="892.8075824374107" text-anchor="end">8.62 ms</text>
</g>
<g>
<title>8.62 ms ± 455 μs</title>
<rect y="193" rx="5" height="22" width="892.8075824374107" fill="hsl(120, 100%, 80%)" stroke="hsl(120, 100%, 55%)" />
<g stroke="hsl(120, 100%, 40%)"><line x1="845.6151648748214" x2="940.0" y1="204" y2="204" />
<line x1="845.6151648748214" x2="845.6151648748214" y1="198" y2="210" />
<line x1="940.0" x2="940.0" y1="198" y2="210" />
</g>
</g>
<g fill="hsl(160, 100%, 40%)">
<text y="242">countdown.shallow.10000.fused</text>
<text y="242" x="548.8895791433664" text-anchor="end">5.30 ms</text>
</g>
<g>
<title>5.30 ms ± 142 μs</title>
<rect y="248" rx="5" height="22" width="548.8895791433664" fill="hsl(160, 100%, 80%)" stroke="hsl(160, 100%, 55%)" />
<g stroke="hsl(160, 100%, 40%)"><line x1="534.1848303620216" x2="563.5943279247113" y1="259" y2="259" />
<line x1="534.1848303620216" x2="534.1848303620216" y1="253" y2="265" />
<line x1="563.5943279247113" x2="563.5943279247113" y1="253" y2="265" />
</g>
</g>
<g fill="hsl(200, 100%, 40%)">
<text y="297">countdown.shallow.10000.effectful</text>
<text y="297" x="714.4623516354138" text-anchor="end">6.89 ms</text>
</g>
<g>
<title>6.89 ms ± 464 μs</title>
<rect y="303" rx="5" height="22" width="714.4623516354138" fill="hsl(200, 100%, 80%)" stroke="hsl(200, 100%, 55%)" />
<g stroke="hsl(200, 100%, 40%)"><line x1="666.3822243813116" x2="762.542478889516" y1="314" y2="314" />
<line x1="666.3822243813116" x2="666.3822243813116" y1="308" y2="320" />
<line x1="762.542478889516" x2="762.542478889516" y1="308" y2="320" />
</g>
</g>
<g fill="hsl(240, 100%, 40%)">
<text y="352">countdown.shallow.10000.eff</text>
<text y="352" x="375.29398383926303" text-anchor="end">3.62 ms</text>
</g>
<g>
<title>3.62 ms ± 210 μs</title>
<rect y="358" rx="5" height="22" width="375.29398383926303" fill="hsl(240, 100%, 80%)" stroke="hsl(240, 100%, 55%)" />
<g stroke="hsl(240, 100%, 40%)"><line x1="353.58159874539575" x2="397.0063689331303" y1="369" y2="369" />
<line x1="353.58159874539575" x2="353.58159874539575" y1="363" y2="375" />
<line x1="397.0063689331303" x2="397.0063689331303" y1="363" y2="375" />
</g>
</g>
<text fill="hsl(280, 100%, 40%)" y="407">countdown.shallow.10000.ev 2.10 ms</text>
<g>
<title>2.10 ms ± 191 μs</title>
<rect y="413" rx="5" height="22" width="217.67915923127654" fill="hsl(280, 100%, 80%)" stroke="hsl(280, 100%, 55%)" />
<g stroke="hsl(280, 100%, 40%)"><line x1="197.88540321121837" x2="237.4729152513347" y1="424" y2="424" />
<line x1="197.88540321121837" x2="197.88540321121837" y1="418" y2="430" />
<line x1="237.4729152513347" x2="237.4729152513347" y1="418" y2="430" />
</g>
</g>
<text fill="hsl(320, 100%, 40%)" y="462">countdown.shallow.10000.mtl 2.28 ms</text>
<g>
<title>2.28 ms ± 207 μs</title>
<rect y="468" rx="5" height="22" width="236.26499751812622" fill="hsl(320, 100%, 80%)" stroke="hsl(320, 100%, 55%)" />
<g stroke="hsl(320, 100%, 40%)"><line x1="214.82861914448395" x2="257.7013758917685" y1="479" y2="479" />
<line x1="214.82861914448395" x2="214.82861914448395" y1="473" y2="485" />
<line x1="257.7013758917685" x2="257.7013758917685" y1="473" y2="485" />
</g>
</g>
</g>
</svg>
