<svg xmlns="http://www.w3.org/2000/svg" height="557" width="960.0" font-size="16" font-family="sans-serif" stroke-width="2">
<g transform="translate(10.0 0)">
<text fill="hsl(0, 100%, 40%)" y="22">catch.deep.10000.heftia.5+5+0 1.33 ms</text>
<g>
<title>1.33 ms ± 104 μs</title>
<rect y="28" rx="5" height="22" width="42.408137155130724" fill="hsl(0, 100%, 80%)" stroke="hsl(0, 100%, 55%)" />
<g stroke="hsl(0, 100%, 40%)"><line x1="39.09486925076545" x2="45.721405059496" y1="39" y2="39" />
<line x1="39.09486925076545" x2="39.09486925076545" y1="33" y2="45" />
<line x1="45.721405059496" x2="45.721405059496" y1="33" y2="45" />
</g>
</g>
<text fill="hsl(36, 100%, 40%)" y="77">catch.deep.10000.heftia.5+4+1 2.16 ms</text>
<g>
<title>2.16 ms ± 173 μs</title>
<rect y="83" rx="5" height="22" width="68.94313167048315" fill="hsl(36, 100%, 80%)" stroke="hsl(36, 100%, 55%)" />
<g stroke="hsl(36, 100%, 40%)"><line x1="63.41738923446823" x2="74.46887410649808" y1="94" y2="94" />
<line x1="63.41738923446823" x2="63.41738923446823" y1="88" y2="100" />
<line x1="74.46887410649808" x2="74.46887410649808" y1="88" y2="100" />
</g>
</g>
<text fill="hsl(72, 100%, 40%)" y="132">catch.deep.10000.heftia.5+3+2 3.20 ms</text>
<g>
<title>3.20 ms ± 210 μs</title>
<rect y="138" rx="5" height="22" width="102.43266097659291" fill="hsl(72, 100%, 80%)" stroke="hsl(72, 100%, 55%)" />
<g stroke="hsl(72, 100%, 40%)"><line x1="95.71254366299563" x2="109.1527782901902" y1="149" y2="149" />
<line x1="95.71254366299563" x2="95.71254366299563" y1="143" y2="155" />
<line x1="109.1527782901902" x2="109.1527782901902" y1="143" y2="155" />
</g>
</g>
<text fill="hsl(108, 100%, 40%)" y="187">catch.deep.10000.heftia.5+2+3 4.44 ms</text>
<g>
<title>4.44 ms ± 165 μs</title>
<rect y="193" rx="5" height="22" width="141.87939778472932" fill="hsl(108, 100%, 80%)" stroke="hsl(108, 100%, 55%)" />
<g stroke="hsl(108, 100%, 40%)"><line x1="136.6164364970506" x2="147.14235907240803" y1="204" y2="204" />
<line x1="136.6164364970506" x2="136.6164364970506" y1="198" y2="210" />
<line x1="147.14235907240803" x2="147.14235907240803" y1="198" y2="210" />
</g>
</g>
<text fill="hsl(144, 100%, 40%)" y="242">catch.deep.10000.heftia.5+1+4 5.94 ms</text>
<g>
<title>5.94 ms ± 381 μs</title>
<rect y="248" rx="5" height="22" width="190.10085069110627" fill="hsl(144, 100%, 80%)" stroke="hsl(144, 100%, 55%)" />
<g stroke="hsl(144, 100%, 40%)"><line x1="177.8984280208599" x2="202.30327336135264" y1="259" y2="259" />
<line x1="177.8984280208599" x2="177.8984280208599" y1="253" y2="265" />
<line x1="202.30327336135264" x2="202.30327336135264" y1="253" y2="265" />
</g>
</g>
<text fill="hsl(180, 100%, 40%)" y="297">catch.deep.10000.heftia.5+0+5 6.52 ms</text>
<g>
<title>6.52 ms ± 316 μs</title>
<rect y="303" rx="5" height="22" width="208.61096568834182" fill="hsl(180, 100%, 80%)" stroke="hsl(180, 100%, 55%)" />
<g stroke="hsl(180, 100%, 40%)"><line x1="198.49380495266428" x2="218.72812642401937" y1="314" y2="314" />
<line x1="198.49380495266428" x2="198.49380495266428" y1="308" y2="320" />
<line x1="218.72812642401937" x2="218.72812642401937" y1="308" y2="320" />
</g>
</g>
<g fill="hsl(216, 100%, 40%)">
<text y="352">catch.deep.10000.polysemy.5+5</text>
<text y="352" x="424.53003987739663" text-anchor="end">13.3 ms</text>
</g>
<g>
<title>13.3 ms ± 952 μs</title>
<rect y="358" rx="5" height="22" width="424.53003987739663" fill="hsl(216, 100%, 80%)" stroke="hsl(216, 100%, 55%)" />
<g stroke="hsl(216, 100%, 40%)"><line x1="394.0722464420389" x2="454.9878333127544" y1="369" y2="369" />
<line x1="394.0722464420389" x2="394.0722464420389" y1="363" y2="375" />
<line x1="454.9878333127544" x2="454.9878333127544" y1="363" y2="375" />
</g>
</g>
<g fill="hsl(252, 100%, 40%)">
<text y="407">catch.deep.10000.fused.5+5</text>
<text y="407" x="896.4329789094398" text-anchor="end">28.0 ms</text>
</g>
<g>
<title>28.0 ms ± 1.4 ms</title>
<rect y="413" rx="5" height="22" width="896.4329789094398" fill="hsl(252, 100%, 80%)" stroke="hsl(252, 100%, 55%)" />
<g stroke="hsl(252, 100%, 40%)"><line x1="852.8659578188797" x2="940.0" y1="424" y2="424" />
<line x1="852.8659578188797" x2="852.8659578188797" y1="418" y2="430" />
<line x1="940.0" x2="940.0" y1="418" y2="430" />
</g>
</g>
<text fill="hsl(288, 100%, 40%)" y="462">catch.deep.10000.effectful.5+5 1.55 ms</text>
<g>
<title>1.55 ms ± 119 μs</title>
<rect y="468" rx="5" height="22" width="49.54240326472408" fill="hsl(288, 100%, 80%)" stroke="hsl(288, 100%, 55%)" />
<g stroke="hsl(288, 100%, 40%)"><line x1="45.73368603785952" x2="53.35112049158864" y1="479" y2="479" />
<line x1="45.73368603785952" x2="45.73368603785952" y1="473" y2="485" />
<line x1="53.35112049158864" x2="53.35112049158864" y1="473" y2="485" />
</g>
</g>
<g fill="hsl(324, 100%, 40%)">
<text y="517">catch.deep.10000.mtl.5+5</text>
<text y="517" x="262.94798353541785" text-anchor="end">8.22 ms</text>
</g>
<g>
<title>8.22 ms ± 406 μs</title>
<rect y="523" rx="5" height="22" width="262.94798353541785" fill="hsl(324, 100%, 80%)" stroke="hsl(324, 100%, 55%)" />
<g stroke="hsl(324, 100%, 40%)"><line x1="249.97219301222162" x2="275.9237740586141" y1="534" y2="534" />
<line x1="249.97219301222162" x2="249.97219301222162" y1="528" y2="540" />
<line x1="275.9237740586141" x2="275.9237740586141" y1="528" y2="540" />
</g>
</g>
</g>
</svg>
