<svg xmlns="http://www.w3.org/2000/svg" height="282" width="960.0" font-size="16" font-family="sans-serif" stroke-width="2">
<g transform="translate(10.0 0)">
<g fill="hsl(0, 100%, 40%)">
<text y="22">catch.shallow.10000.heftia</text>
<text y="22" x="440.53486282945283" text-anchor="end">2.18 ms</text>
</g>
<g>
<title>2.18 ms ± 172 μs</title>
<rect y="28" rx="5" height="22" width="440.53486282945283" fill="hsl(0, 100%, 80%)" stroke="hsl(0, 100%, 55%)" />
<g stroke="hsl(0, 100%, 40%)"><line x1="405.7377220979699" x2="475.3320035609358" y1="39" y2="39" />
<line x1="405.7377220979699" x2="405.7377220979699" y1="33" y2="45" />
<line x1="475.3320035609358" x2="475.3320035609358" y1="33" y2="45" />
</g>
</g>
<g fill="hsl(72, 100%, 40%)">
<text y="77">catch.shallow.10000.polysemy</text>
<text y="77" x="611.4319990207031" text-anchor="end">3.02 ms</text>
</g>
<g>
<title>3.02 ms ± 289 μs</title>
<rect y="83" rx="5" height="22" width="611.4319990207031" fill="hsl(72, 100%, 80%)" stroke="hsl(72, 100%, 55%)" />
<g stroke="hsl(72, 100%, 40%)"><line x1="553.0727271299868" x2="669.7912709114194" y1="94" y2="94" />
<line x1="553.0727271299868" x2="553.0727271299868" y1="88" y2="100" />
<line x1="669.7912709114194" x2="669.7912709114194" y1="88" y2="100" />
</g>
</g>
<g fill="hsl(144, 100%, 40%)">
<text y="132">catch.shallow.10000.fused</text>
<text y="132" x="902.0542122465425" text-anchor="end">4.46 ms</text>
</g>
<g>
<title>4.46 ms ± 188 μs</title>
<rect y="138" rx="5" height="22" width="902.0542122465425" fill="hsl(144, 100%, 80%)" stroke="hsl(144, 100%, 55%)" />
<g stroke="hsl(144, 100%, 40%)"><line x1="864.1084244930851" x2="940.0" y1="149" y2="149" />
<line x1="864.1084244930851" x2="864.1084244930851" y1="143" y2="155" />
<line x1="940.0" x2="940.0" y1="143" y2="155" />
</g>
</g>
<text fill="hsl(216, 100%, 40%)" y="187">catch.shallow.10000.effectful 1.43 ms</text>
<g>
<title>1.43 ms ± 128 μs</title>
<rect y="193" rx="5" height="22" width="289.4299417943912" fill="hsl(216, 100%, 80%)" stroke="hsl(216, 100%, 55%)" />
<g stroke="hsl(216, 100%, 40%)"><line x1="263.57861469414996" x2="315.28126889463243" y1="204" y2="204" />
<line x1="263.57861469414996" x2="263.57861469414996" y1="198" y2="210" />
<line x1="315.28126889463243" x2="315.28126889463243" y1="198" y2="210" />
</g>
</g>
<text fill="hsl(288, 100%, 40%)" y="242">catch.shallow.10000.mtl 402  μs</text>
<g>
<title>402  μs ±  28 μs</title>
<rect y="248" rx="5" height="22" width="81.35104416612175" fill="hsl(288, 100%, 80%)" stroke="hsl(288, 100%, 55%)" />
<g stroke="hsl(288, 100%, 40%)"><line x1="75.68797272503863" x2="87.01411560720487" y1="259" y2="259" />
<line x1="75.68797272503863" x2="75.68797272503863" y1="253" y2="265" />
<line x1="87.01411560720487" x2="87.01411560720487" y1="253" y2="265" />
</g>
</g>
</g>
</svg>
