<svg xmlns="http://www.w3.org/2000/svg" height="282" width="960.0" font-size="16" font-family="sans-serif" stroke-width="2">
<g transform="translate(10.0 0)">
<text fill="hsl(0, 100%, 40%)" y="22">catch.shallow.10000.heftia 1.28 ms</text>
<g>
<title>1.28 ms ±  47 μs</title>
<rect y="28" rx="5" height="22" width="245.12746570669213" fill="hsl(0, 100%, 80%)" stroke="hsl(0, 100%, 55%)" />
<g stroke="hsl(0, 100%, 40%)"><line x1="236.0550044674049" x2="254.19992694597937" y1="39" y2="39" />
<line x1="236.0550044674049" x2="236.0550044674049" y1="33" y2="45" />
<line x1="254.19992694597937" x2="254.19992694597937" y1="33" y2="45" />
</g>
</g>
<g fill="hsl(72, 100%, 40%)">
<text y="77">catch.shallow.10000.polysemy</text>
<text y="77" x="562.288494454903" text-anchor="end">2.94 ms</text>
</g>
<g>
<title>2.94 ms ± 218 μs</title>
<rect y="83" rx="5" height="22" width="562.288494454903" fill="hsl(72, 100%, 80%)" stroke="hsl(72, 100%, 55%)" />
<g stroke="hsl(72, 100%, 40%)"><line x1="520.7076355663287" x2="603.8693533434773" y1="94" y2="94" />
<line x1="520.7076355663287" x2="520.7076355663287" y1="88" y2="100" />
<line x1="603.8693533434773" x2="603.8693533434773" y1="88" y2="100" />
</g>
</g>
<g fill="hsl(144, 100%, 40%)">
<text y="132">catch.shallow.10000.fused</text>
<text y="132" x="856.4641495104614" text-anchor="end">4.48 ms</text>
</g>
<g>
<title>4.48 ms ± 437 μs</title>
<rect y="138" rx="5" height="22" width="856.4641495104614" fill="hsl(144, 100%, 80%)" stroke="hsl(144, 100%, 55%)" />
<g stroke="hsl(144, 100%, 40%)"><line x1="772.9282990209229" x2="940.0" y1="149" y2="149" />
<line x1="772.9282990209229" x2="772.9282990209229" y1="143" y2="155" />
<line x1="940.0" x2="940.0" y1="143" y2="155" />
</g>
</g>
<text fill="hsl(216, 100%, 40%)" y="187">catch.shallow.10000.effectful 1.47 ms</text>
<g>
<title>1.47 ms ± 100 μs</title>
<rect y="193" rx="5" height="22" width="281.6202977886036" fill="hsl(216, 100%, 80%)" stroke="hsl(216, 100%, 55%)" />
<g stroke="hsl(216, 100%, 40%)"><line x1="262.5338717955518" x2="300.70672378165534" y1="204" y2="204" />
<line x1="262.5338717955518" x2="262.5338717955518" y1="198" y2="210" />
<line x1="300.70672378165534" x2="300.70672378165534" y1="198" y2="210" />
</g>
</g>
<text fill="hsl(288, 100%, 40%)" y="242">catch.shallow.10000.mtl 411  μs</text>
<g>
<title>411  μs ±  22 μs</title>
<rect y="248" rx="5" height="22" width="78.50690551366517" fill="hsl(288, 100%, 80%)" stroke="hsl(288, 100%, 55%)" />
<g stroke="hsl(288, 100%, 40%)"><line x1="74.27195165543911" x2="82.74185937189124" y1="259" y2="259" />
<line x1="74.27195165543911" x2="74.27195165543911" y1="253" y2="265" />
<line x1="82.74185937189124" x2="82.74185937189124" y1="253" y2="265" />
</g>
</g>
</g>
</svg>
