<svg xmlns="http://www.w3.org/2000/svg" height="282" width="960.0" font-size="16" font-family="sans-serif" stroke-width="2">
<g transform="translate(10.0 0)">
<text fill="hsl(0, 100%, 40%)" y="22">catch.shallow.10000.heftia 1.10 ms</text>
<g>
<title>1.10 ms ±  87 μs</title>
<rect y="28" rx="5" height="22" width="216.02014585922493" fill="hsl(0, 100%, 80%)" stroke="hsl(0, 100%, 55%)" />
<g stroke="hsl(0, 100%, 40%)"><line x1="198.94206516113627" x2="233.09822655731358" y1="39" y2="39" />
<line x1="198.94206516113627" x2="198.94206516113627" y1="33" y2="45" />
<line x1="233.09822655731358" x2="233.09822655731358" y1="33" y2="45" />
</g>
</g>
<g fill="hsl(72, 100%, 40%)">
<text y="77">catch.shallow.10000.polysemy</text>
<text y="77" x="603.1257024804868" text-anchor="end">3.07 ms</text>
</g>
<g>
<title>3.07 ms ± 300 μs</title>
<rect y="83" rx="5" height="22" width="603.1257024804868" fill="hsl(72, 100%, 80%)" stroke="hsl(72, 100%, 55%)" />
<g stroke="hsl(72, 100%, 40%)"><line x1="544.2218145917275" x2="662.0295903692461" y1="94" y2="94" />
<line x1="544.2218145917275" x2="544.2218145917275" y1="88" y2="100" />
<line x1="662.0295903692461" x2="662.0295903692461" y1="88" y2="100" />
</g>
</g>
<g fill="hsl(144, 100%, 40%)">
<text y="132">catch.shallow.10000.fused</text>
<text y="132" x="859.7393786981656" text-anchor="end">4.38 ms</text>
</g>
<g>
<title>4.38 ms ± 409 μs</title>
<rect y="138" rx="5" height="22" width="859.7393786981656" fill="hsl(144, 100%, 80%)" stroke="hsl(144, 100%, 55%)" />
<g stroke="hsl(144, 100%, 40%)"><line x1="779.4787573963313" x2="940.0" y1="149" y2="149" />
<line x1="779.4787573963313" x2="779.4787573963313" y1="143" y2="155" />
<line x1="940.0" x2="940.0" y1="143" y2="155" />
</g>
</g>
<text fill="hsl(216, 100%, 40%)" y="187">catch.shallow.10000.effectful 1.28 ms</text>
<g>
<title>1.28 ms ± 107 μs</title>
<rect y="193" rx="5" height="22" width="250.5269213374233" fill="hsl(216, 100%, 80%)" stroke="hsl(216, 100%, 55%)" />
<g stroke="hsl(216, 100%, 40%)"><line x1="229.4994174764657" x2="271.55442519838084" y1="204" y2="204" />
<line x1="229.4994174764657" x2="229.4994174764657" y1="198" y2="210" />
<line x1="271.55442519838084" x2="271.55442519838084" y1="198" y2="210" />
</g>
</g>
<text fill="hsl(288, 100%, 40%)" y="242">catch.shallow.10000.mtl 355  μs</text>
<g>
<title>355  μs ±  21 μs</title>
<rect y="248" rx="5" height="22" width="69.78839752693248" fill="hsl(288, 100%, 80%)" stroke="hsl(288, 100%, 55%)" />
<g stroke="hsl(288, 100%, 40%)"><line x1="65.60616053656923" x2="73.97063451729574" y1="259" y2="259" />
<line x1="65.60616053656923" x2="65.60616053656923" y1="253" y2="265" />
<line x1="73.97063451729574" x2="73.97063451729574" y1="253" y2="265" />
</g>
</g>
</g>
</svg>
