<svg xmlns="http://www.w3.org/2000/svg" height="557" width="960.0" font-size="16" font-family="sans-serif" stroke-width="2">
<g transform="translate(10.0 0)">
<text fill="hsl(0, 100%, 40%)" y="22">catch.deep.10000.heftia.5+5+0 1.34 ms</text>
<g>
<title>1.34 ms ±  87 μs</title>
<rect y="28" rx="5" height="22" width="41.657802900454" fill="hsl(0, 100%, 80%)" stroke="hsl(0, 100%, 55%)" />
<g stroke="hsl(0, 100%, 40%)"><line x1="38.95872444409392" x2="44.356881356814085" y1="39" y2="39" />
<line x1="38.95872444409392" x2="38.95872444409392" y1="33" y2="45" />
<line x1="44.356881356814085" x2="44.356881356814085" y1="33" y2="45" />
</g>
</g>
<text fill="hsl(36, 100%, 40%)" y="77">catch.deep.10000.heftia.5+4+1 2.09 ms</text>
<g>
<title>2.09 ms ± 203 μs</title>
<rect y="83" rx="5" height="22" width="64.73532065076192" fill="hsl(36, 100%, 80%)" stroke="hsl(36, 100%, 55%)" />
<g stroke="hsl(36, 100%, 40%)"><line x1="58.43221808773493" x2="71.03842321378892" y1="94" y2="94" />
<line x1="58.43221808773493" x2="58.43221808773493" y1="88" y2="100" />
<line x1="71.03842321378892" x2="71.03842321378892" y1="88" y2="100" />
</g>
</g>
<text fill="hsl(72, 100%, 40%)" y="132">catch.deep.10000.heftia.5+3+2 2.98 ms</text>
<g>
<title>2.98 ms ± 208 μs</title>
<rect y="138" rx="5" height="22" width="92.22723439250682" fill="hsl(72, 100%, 80%)" stroke="hsl(72, 100%, 55%)" />
<g stroke="hsl(72, 100%, 40%)"><line x1="85.79680043287016" x2="98.65766835214347" y1="149" y2="149" />
<line x1="85.79680043287016" x2="85.79680043287016" y1="143" y2="155" />
<line x1="98.65766835214347" x2="98.65766835214347" y1="143" y2="155" />
</g>
</g>
<text fill="hsl(108, 100%, 40%)" y="187">catch.deep.10000.heftia.5+2+3 4.20 ms</text>
<g>
<title>4.20 ms ± 130 μs</title>
<rect y="193" rx="5" height="22" width="130.02677327442706" fill="hsl(108, 100%, 80%)" stroke="hsl(108, 100%, 55%)" />
<g stroke="hsl(108, 100%, 40%)"><line x1="126.01495593199674" x2="134.03859061685736" y1="204" y2="204" />
<line x1="126.01495593199674" x2="126.01495593199674" y1="198" y2="210" />
<line x1="134.03859061685736" x2="134.03859061685736" y1="198" y2="210" />
</g>
</g>
<text fill="hsl(144, 100%, 40%)" y="242">catch.deep.10000.heftia.5+1+4 5.62 ms</text>
<g>
<title>5.62 ms ± 202 μs</title>
<rect y="248" rx="5" height="22" width="173.97597120461887" fill="hsl(144, 100%, 80%)" stroke="hsl(144, 100%, 55%)" />
<g stroke="hsl(144, 100%, 40%)"><line x1="167.72461659428572" x2="180.22732581495202" y1="259" y2="259" />
<line x1="167.72461659428572" x2="167.72461659428572" y1="253" y2="265" />
<line x1="180.22732581495202" x2="180.22732581495202" y1="253" y2="265" />
</g>
</g>
<text fill="hsl(180, 100%, 40%)" y="297">catch.deep.10000.heftia.5+0+5 6.30 ms</text>
<g>
<title>6.30 ms ± 326 μs</title>
<rect y="303" rx="5" height="22" width="195.02914523392812" fill="hsl(180, 100%, 80%)" stroke="hsl(180, 100%, 55%)" />
<g stroke="hsl(180, 100%, 40%)"><line x1="184.92553318056835" x2="205.1327572872879" y1="314" y2="314" />
<line x1="184.92553318056835" x2="184.92553318056835" y1="308" y2="320" />
<line x1="205.1327572872879" x2="205.1327572872879" y1="308" y2="320" />
</g>
</g>
<g fill="hsl(216, 100%, 40%)">
<text y="352">catch.deep.10000.polysemy.5+5</text>
<text y="352" x="405.34754457958394" text-anchor="end">13.1 ms</text>
</g>
<g>
<title>13.1 ms ± 1.1 ms</title>
<rect y="358" rx="5" height="22" width="405.34754457958394" fill="hsl(216, 100%, 80%)" stroke="hsl(216, 100%, 55%)" />
<g stroke="hsl(216, 100%, 40%)"><line x1="370.2893398266547" x2="440.40574933251315" y1="369" y2="369" />
<line x1="370.2893398266547" x2="370.2893398266547" y1="363" y2="375" />
<line x1="440.40574933251315" x2="440.40574933251315" y1="363" y2="375" />
</g>
</g>
<g fill="hsl(252, 100%, 40%)">
<text y="407">catch.deep.10000.fused.5+5</text>
<text y="407" x="873.2287899637013" text-anchor="end">28.2 ms</text>
</g>
<g>
<title>28.2 ms ± 2.2 ms</title>
<rect y="413" rx="5" height="22" width="873.2287899637013" fill="hsl(252, 100%, 80%)" stroke="hsl(252, 100%, 55%)" />
<g stroke="hsl(252, 100%, 40%)"><line x1="806.4575799274025" x2="940.0" y1="424" y2="424" />
<line x1="806.4575799274025" x2="806.4575799274025" y1="418" y2="430" />
<line x1="940.0" x2="940.0" y1="418" y2="430" />
</g>
</g>
<text fill="hsl(288, 100%, 40%)" y="462">catch.deep.10000.effectful.5+5 1.51 ms</text>
<g>
<title>1.51 ms ± 101 μs</title>
<rect y="468" rx="5" height="22" width="46.878124420231224" fill="hsl(288, 100%, 80%)" stroke="hsl(288, 100%, 55%)" />
<g stroke="hsl(288, 100%, 40%)"><line x1="43.7586665871097" x2="49.997582253352746" y1="479" y2="479" />
<line x1="43.7586665871097" x2="43.7586665871097" y1="473" y2="485" />
<line x1="49.997582253352746" x2="49.997582253352746" y1="473" y2="485" />
</g>
</g>
<g fill="hsl(324, 100%, 40%)">
<text y="517">catch.deep.10000.mtl.5+5</text>
<text y="517" x="259.759651876724" text-anchor="end">8.39 ms</text>
</g>
<g>
<title>8.39 ms ± 837 μs</title>
<rect y="523" rx="5" height="22" width="259.759651876724" fill="hsl(324, 100%, 80%)" stroke="hsl(324, 100%, 55%)" />
<g stroke="hsl(324, 100%, 40%)"><line x1="233.82709729365055" x2="285.69220645979743" y1="534" y2="534" />
<line x1="233.82709729365055" x2="233.82709729365055" y1="528" y2="540" />
<line x1="285.69220645979743" x2="285.69220645979743" y1="528" y2="540" />
</g>
</g>
</g>
</svg>
