<svg xmlns="http://www.w3.org/2000/svg" height="282" width="960.0" font-size="16" font-family="sans-serif" stroke-width="2">
<g transform="translate(10.0 0)">
<text fill="hsl(0, 100%, 40%)" y="22">catch.shallow.10000.heftia 1.28 ms</text>
<g>
<title>1.28 ms ±  97 μs</title>
<rect y="28" rx="5" height="22" width="265.14168980714305" fill="hsl(0, 100%, 80%)" stroke="hsl(0, 100%, 55%)" />
<g stroke="hsl(0, 100%, 40%)"><line x1="245.14528777449885" x2="285.13809183978725" y1="39" y2="39" />
<line x1="245.14528777449885" x2="245.14528777449885" y1="33" y2="45" />
<line x1="285.13809183978725" x2="285.13809183978725" y1="33" y2="45" />
</g>
</g>
<g fill="hsl(72, 100%, 40%)">
<text y="77">catch.shallow.10000.polysemy</text>
<text y="77" x="618.9007256064244" text-anchor="end">2.99 ms</text>
</g>
<g>
<title>2.99 ms ± 194 μs</title>
<rect y="83" rx="5" height="22" width="618.9007256064244" fill="hsl(72, 100%, 80%)" stroke="hsl(72, 100%, 55%)" />
<g stroke="hsl(72, 100%, 40%)"><line x1="578.7761822128394" x2="659.0252690000094" y1="94" y2="94" />
<line x1="578.7761822128394" x2="578.7761822128394" y1="88" y2="100" />
<line x1="659.0252690000094" x2="659.0252690000094" y1="88" y2="100" />
</g>
</g>
<g fill="hsl(144, 100%, 40%)">
<text y="132">catch.shallow.10000.fused</text>
<text y="132" x="904.3492343813709" text-anchor="end">4.37 ms</text>
</g>
<g>
<title>4.37 ms ± 172 μs</title>
<rect y="138" rx="5" height="22" width="904.3492343813709" fill="hsl(144, 100%, 80%)" stroke="hsl(144, 100%, 55%)" />
<g stroke="hsl(144, 100%, 40%)"><line x1="868.6984687627419" x2="940.0" y1="149" y2="149" />
<line x1="868.6984687627419" x2="868.6984687627419" y1="143" y2="155" />
<line x1="940.0" x2="940.0" y1="143" y2="155" />
</g>
</g>
<text fill="hsl(216, 100%, 40%)" y="187">catch.shallow.10000.effectful 1.41 ms</text>
<g>
<title>1.41 ms ± 103 μs</title>
<rect y="193" rx="5" height="22" width="292.2578306021151" fill="hsl(216, 100%, 80%)" stroke="hsl(216, 100%, 55%)" />
<g stroke="hsl(216, 100%, 40%)"><line x1="270.91210068583536" x2="313.6035605183949" y1="204" y2="204" />
<line x1="270.91210068583536" x2="270.91210068583536" y1="198" y2="210" />
<line x1="313.6035605183949" x2="313.6035605183949" y1="198" y2="210" />
</g>
</g>
<text fill="hsl(288, 100%, 40%)" y="242">catch.shallow.10000.mtl 402  μs</text>
<g>
<title>402  μs ±  30 μs</title>
<rect y="248" rx="5" height="22" width="83.12044441983643" fill="hsl(288, 100%, 80%)" stroke="hsl(288, 100%, 55%)" />
<g stroke="hsl(288, 100%, 40%)"><line x1="77.00279998255479" x2="89.23808885711807" y1="259" y2="259" />
<line x1="77.00279998255479" x2="77.00279998255479" y1="253" y2="265" />
<line x1="89.23808885711807" x2="89.23808885711807" y1="253" y2="265" />
</g>
</g>
</g>
</svg>
