<svg xmlns="http://www.w3.org/2000/svg" height="557" width="960.0" font-size="16" font-family="sans-serif" stroke-width="2">
<g transform="translate(10.0 0)">
<text fill="hsl(0, 100%, 40%)" y="22">catch.deep.10000.heftia.5+5+0 1.34 ms</text>
<g>
<title>1.34 ms ±  95 μs</title>
<rect y="28" rx="5" height="22" width="42.230974816200735" fill="hsl(0, 100%, 80%)" stroke="hsl(0, 100%, 55%)" />
<g stroke="hsl(0, 100%, 40%)"><line x1="39.22783180324886" x2="45.23411782915261" y1="39" y2="39" />
<line x1="39.22783180324886" x2="39.22783180324886" y1="33" y2="45" />
<line x1="45.23411782915261" x2="45.23411782915261" y1="33" y2="45" />
</g>
</g>
<text fill="hsl(36, 100%, 40%)" y="77">catch.deep.10000.heftia.5+4+1 2.03 ms</text>
<g>
<title>2.03 ms ± 129 μs</title>
<rect y="83" rx="5" height="22" width="64.08408049492047" fill="hsl(36, 100%, 80%)" stroke="hsl(36, 100%, 55%)" />
<g stroke="hsl(36, 100%, 40%)"><line x1="60.00890503367585" x2="68.15925595616508" y1="94" y2="94" />
<line x1="60.00890503367585" x2="60.00890503367585" y1="88" y2="100" />
<line x1="68.15925595616508" x2="68.15925595616508" y1="88" y2="100" />
</g>
</g>
<text fill="hsl(72, 100%, 40%)" y="132">catch.deep.10000.heftia.5+3+2 2.97 ms</text>
<g>
<title>2.97 ms ± 261 μs</title>
<rect y="138" rx="5" height="22" width="93.74414579782345" fill="hsl(72, 100%, 80%)" stroke="hsl(72, 100%, 55%)" />
<g stroke="hsl(72, 100%, 40%)"><line x1="85.51656355266232" x2="101.97172804298458" y1="149" y2="149" />
<line x1="85.51656355266232" x2="85.51656355266232" y1="143" y2="155" />
<line x1="101.97172804298458" x2="101.97172804298458" y1="143" y2="155" />
</g>
</g>
<text fill="hsl(108, 100%, 40%)" y="187">catch.deep.10000.heftia.5+2+3 4.34 ms</text>
<g>
<title>4.34 ms ± 193 μs</title>
<rect y="193" rx="5" height="22" width="136.99865369236667" fill="hsl(108, 100%, 80%)" stroke="hsl(108, 100%, 55%)" />
<g stroke="hsl(108, 100%, 40%)"><line x1="130.91444262941954" x2="143.0828647553138" y1="204" y2="204" />
<line x1="130.91444262941954" x2="130.91444262941954" y1="198" y2="210" />
<line x1="143.0828647553138" x2="143.0828647553138" y1="198" y2="210" />
</g>
</g>
<text fill="hsl(144, 100%, 40%)" y="242">catch.deep.10000.heftia.5+1+4 5.72 ms</text>
<g>
<title>5.72 ms ± 397 μs</title>
<rect y="248" rx="5" height="22" width="180.58542544267738" fill="hsl(144, 100%, 80%)" stroke="hsl(144, 100%, 55%)" />
<g stroke="hsl(144, 100%, 40%)"><line x1="168.05740990656315" x2="193.1134409787916" y1="259" y2="259" />
<line x1="168.05740990656315" x2="168.05740990656315" y1="253" y2="265" />
<line x1="193.1134409787916" x2="193.1134409787916" y1="253" y2="265" />
</g>
</g>
<text fill="hsl(180, 100%, 40%)" y="297">catch.deep.10000.heftia.5+0+5 6.68 ms</text>
<g>
<title>6.68 ms ± 111 μs</title>
<rect y="303" rx="5" height="22" width="211.09327280696036" fill="hsl(180, 100%, 80%)" stroke="hsl(180, 100%, 55%)" />
<g stroke="hsl(180, 100%, 40%)"><line x1="207.5853204842457" x2="214.60122512967502" y1="314" y2="314" />
<line x1="207.5853204842457" x2="207.5853204842457" y1="308" y2="320" />
<line x1="214.60122512967502" x2="214.60122512967502" y1="308" y2="320" />
</g>
</g>
<g fill="hsl(216, 100%, 40%)">
<text y="352">catch.deep.10000.polysemy.5+5</text>
<text y="352" x="396.5972246661876" text-anchor="end">12.6 ms</text>
</g>
<g>
<title>12.6 ms ± 825 μs</title>
<rect y="358" rx="5" height="22" width="396.5972246661876" fill="hsl(216, 100%, 80%)" stroke="hsl(216, 100%, 55%)" />
<g stroke="hsl(216, 100%, 40%)"><line x1="370.5480730345118" x2="422.64637629786347" y1="369" y2="369" />
<line x1="370.5480730345118" x2="370.5480730345118" y1="363" y2="375" />
<line x1="422.64637629786347" x2="422.64637629786347" y1="363" y2="375" />
</g>
</g>
<g fill="hsl(252, 100%, 40%)">
<text y="407">catch.deep.10000.fused.5+5</text>
<text y="407" x="857.4133281998677" text-anchor="end">27.1 ms</text>
</g>
<g>
<title>27.1 ms ± 2.6 ms</title>
<rect y="413" rx="5" height="22" width="857.4133281998677" fill="hsl(252, 100%, 80%)" stroke="hsl(252, 100%, 55%)" />
<g stroke="hsl(252, 100%, 40%)"><line x1="774.8266563997354" x2="940.0" y1="424" y2="424" />
<line x1="774.8266563997354" x2="774.8266563997354" y1="418" y2="430" />
<line x1="940.0" x2="940.0" y1="418" y2="430" />
</g>
</g>
<text fill="hsl(288, 100%, 40%)" y="462">catch.deep.10000.effectful.5+5 1.53 ms</text>
<g>
<title>1.53 ms ± 100 μs</title>
<rect y="468" rx="5" height="22" width="48.23849219616735" fill="hsl(288, 100%, 80%)" stroke="hsl(288, 100%, 55%)" />
<g stroke="hsl(288, 100%, 40%)"><line x1="45.077076003926614" x2="51.399908388408086" y1="479" y2="479" />
<line x1="45.077076003926614" x2="45.077076003926614" y1="473" y2="485" />
<line x1="51.399908388408086" x2="51.399908388408086" y1="473" y2="485" />
</g>
</g>
<text fill="hsl(324, 100%, 40%)" y="517">catch.deep.10000.mtl.5+5 8.04 ms</text>
<g>
<title>8.04 ms ± 448 μs</title>
<rect y="523" rx="5" height="22" width="253.76517479575853" fill="hsl(324, 100%, 80%)" stroke="hsl(324, 100%, 55%)" />
<g stroke="hsl(324, 100%, 40%)"><line x1="239.61880915301535" x2="267.9115404385017" y1="534" y2="534" />
<line x1="239.61880915301535" x2="239.61880915301535" y1="528" y2="540" />
<line x1="267.9115404385017" x2="267.9115404385017" y1="528" y2="540" />
</g>
</g>
</g>
</svg>
