<svg xmlns="http://www.w3.org/2000/svg" height="282" width="960.0" font-size="16" font-family="sans-serif" stroke-width="2">
<g transform="translate(10.0 0)">
<text fill="hsl(0, 100%, 40%)" y="22">catch.shallow.10000.heftia 1.36 ms</text>
<g>
<title>1.36 ms ± 104 μs</title>
<rect y="28" rx="5" height="22" width="266.91699607830725" fill="hsl(0, 100%, 80%)" stroke="hsl(0, 100%, 55%)" />
<g stroke="hsl(0, 100%, 40%)"><line x1="246.52703931191775" x2="287.30695284469675" y1="39" y2="39" />
<line x1="246.52703931191775" x2="246.52703931191775" y1="33" y2="45" />
<line x1="287.30695284469675" x2="287.30695284469675" y1="33" y2="45" />
</g>
</g>
<g fill="hsl(72, 100%, 40%)">
<text y="77">catch.shallow.10000.polysemy</text>
<text y="77" x="600.3293796847564" text-anchor="end">3.05 ms</text>
</g>
<g>
<title>3.05 ms ±  87 μs</title>
<rect y="83" rx="5" height="22" width="600.3293796847564" fill="hsl(72, 100%, 80%)" stroke="hsl(72, 100%, 55%)" />
<g stroke="hsl(72, 100%, 40%)"><line x1="583.1265029555351" x2="617.5322564139777" y1="94" y2="94" />
<line x1="583.1265029555351" x2="583.1265029555351" y1="88" y2="100" />
<line x1="617.5322564139777" x2="617.5322564139777" y1="88" y2="100" />
</g>
</g>
<g fill="hsl(144, 100%, 40%)">
<text y="132">catch.shallow.10000.fused</text>
<text y="132" x="879.9424513494172" text-anchor="end">4.47 ms</text>
</g>
<g>
<title>4.47 ms ± 305 μs</title>
<rect y="138" rx="5" height="22" width="879.9424513494172" fill="hsl(144, 100%, 80%)" stroke="hsl(144, 100%, 55%)" />
<g stroke="hsl(144, 100%, 40%)"><line x1="819.8849026988344" x2="940.0" y1="149" y2="149" />
<line x1="819.8849026988344" x2="819.8849026988344" y1="143" y2="155" />
<line x1="940.0" x2="940.0" y1="143" y2="155" />
</g>
</g>
<text fill="hsl(216, 100%, 40%)" y="187">catch.shallow.10000.effectful 1.50 ms</text>
<g>
<title>1.50 ms ±  47 μs</title>
<rect y="193" rx="5" height="22" width="294.89389623752214" fill="hsl(216, 100%, 80%)" stroke="hsl(216, 100%, 55%)" />
<g stroke="hsl(216, 100%, 40%)"><line x1="285.5982607548481" x2="304.18953172019616" y1="204" y2="204" />
<line x1="285.5982607548481" x2="285.5982607548481" y1="198" y2="210" />
<line x1="304.18953172019616" x2="304.18953172019616" y1="198" y2="210" />
</g>
</g>
<text fill="hsl(288, 100%, 40%)" y="242">catch.shallow.10000.mtl 402  μs</text>
<g>
<title>402  μs ±  18 μs</title>
<rect y="248" rx="5" height="22" width="79.06505801713107" fill="hsl(288, 100%, 80%)" stroke="hsl(288, 100%, 55%)" />
<g stroke="hsl(288, 100%, 40%)"><line x1="75.58990822475141" x2="82.54020780951072" y1="259" y2="259" />
<line x1="75.58990822475141" x2="75.58990822475141" y1="253" y2="265" />
<line x1="82.54020780951072" x2="82.54020780951072" y1="253" y2="265" />
</g>
</g>
</g>
</svg>
