<svg xmlns="http://www.w3.org/2000/svg" height="282" width="960.0" font-size="16" font-family="sans-serif" stroke-width="2">
<g transform="translate(10.0 0)">
<g fill="hsl(0, 100%, 40%)">
<text y="22">catch.shallow.1000.heftia</text>
<text y="22" x="292.89993384043913" text-anchor="end">98.6 μs</text>
</g>
<g>
<title>98.6 μs ± 6.6 μs</title>
<rect y="28" rx="5" height="22" width="292.89993384043913" fill="hsl(0, 100%, 80%)" stroke="hsl(0, 100%, 55%)" />
<g stroke="hsl(0, 100%, 40%)"><line x1="273.3952221917295" x2="312.4046454891488" y1="39" y2="39" />
<line x1="273.3952221917295" x2="273.3952221917295" y1="33" y2="45" />
<line x1="312.4046454891488" x2="312.4046454891488" y1="33" y2="45" />
</g>
</g>
<g fill="hsl(72, 100%, 40%)">
<text y="77">catch.shallow.1000.polysemy</text>
<text y="77" x="690.4587449439111" text-anchor="end">232  μs</text>
</g>
<g>
<title>232  μs ±  22 μs</title>
<rect y="83" rx="5" height="22" width="690.4587449439111" fill="hsl(72, 100%, 80%)" stroke="hsl(72, 100%, 55%)" />
<g stroke="hsl(72, 100%, 40%)"><line x1="624.1560107422375" x2="756.7614791455848" y1="94" y2="94" />
<line x1="624.1560107422375" x2="624.1560107422375" y1="88" y2="100" />
<line x1="756.7614791455848" x2="756.7614791455848" y1="88" y2="100" />
</g>
</g>
<g fill="hsl(144, 100%, 40%)">
<text y="132">catch.shallow.1000.fused</text>
<text y="132" x="871.742645247298" text-anchor="end">293  μs</text>
</g>
<g>
<title>293  μs ±  23 μs</title>
<rect y="138" rx="5" height="22" width="871.742645247298" fill="hsl(144, 100%, 80%)" stroke="hsl(144, 100%, 55%)" />
<g stroke="hsl(144, 100%, 40%)"><line x1="803.485290494596" x2="940.0" y1="149" y2="149" />
<line x1="803.485290494596" x2="803.485290494596" y1="143" y2="155" />
<line x1="940.0" x2="940.0" y1="143" y2="155" />
</g>
</g>
<g fill="hsl(216, 100%, 40%)">
<text y="187">catch.shallow.1000.effectful</text>
<text y="187" x="327.7535683403256" text-anchor="end">110  μs</text>
</g>
<g>
<title>110  μs ± 2.7 μs</title>
<rect y="193" rx="5" height="22" width="327.7535683403256" fill="hsl(216, 100%, 80%)" stroke="hsl(216, 100%, 55%)" />
<g stroke="hsl(216, 100%, 40%)"><line x1="319.8023687657034" x2="335.7047679149478" y1="204" y2="204" />
<line x1="319.8023687657034" x2="319.8023687657034" y1="198" y2="210" />
<line x1="335.7047679149478" x2="335.7047679149478" y1="198" y2="210" />
</g>
</g>
<text fill="hsl(288, 100%, 40%)" y="242">catch.shallow.1000.mtl 37.2 μs</text>
<g>
<title>37.2 μs ± 1.4 μs</title>
<rect y="248" rx="5" height="22" width="110.38395166452698" fill="hsl(288, 100%, 80%)" stroke="hsl(288, 100%, 55%)" />
<g stroke="hsl(288, 100%, 40%)"><line x1="106.29300036814944" x2="114.47490296090452" y1="259" y2="259" />
<line x1="106.29300036814944" x2="106.29300036814944" y1="253" y2="265" />
<line x1="114.47490296090452" x2="114.47490296090452" y1="253" y2="265" />
</g>
</g>
</g>
</svg>
