<svg xmlns="http://www.w3.org/2000/svg" height="282" width="960.0" font-size="16" font-family="sans-serif" stroke-width="2">
<g transform="translate(10.0 0)">
<g fill="hsl(0, 100%, 40%)">
<text y="22">catch.shallow.10000.heftia</text>
<text y="22" x="310.6698569266521" text-anchor="end">1.69 ms</text>
</g>
<g>
<title>1.69 ms ± 115 μs</title>
<rect y="28" rx="5" height="22" width="310.6698569266521" fill="hsl(0, 100%, 80%)" stroke="hsl(0, 100%, 55%)" />
<g stroke="hsl(0, 100%, 40%)"><line x1="289.6195764502189" x2="331.72013740308523" y1="39" y2="39" />
<line x1="289.6195764502189" x2="289.6195764502189" y1="33" y2="45" />
<line x1="331.72013740308523" x2="331.72013740308523" y1="33" y2="45" />
</g>
</g>
<g fill="hsl(72, 100%, 40%)">
<text y="77">catch.shallow.10000.polysemy</text>
<text y="77" x="564.5516872552665" text-anchor="end">3.07 ms</text>
</g>
<g>
<title>3.07 ms ± 259 μs</title>
<rect y="83" rx="5" height="22" width="564.5516872552665" fill="hsl(72, 100%, 80%)" stroke="hsl(72, 100%, 55%)" />
<g stroke="hsl(72, 100%, 40%)"><line x1="516.9864495737315" x2="612.1169249368015" y1="94" y2="94" />
<line x1="516.9864495737315" x2="516.9864495737315" y1="88" y2="100" />
<line x1="612.1169249368015" x2="612.1169249368015" y1="88" y2="100" />
</g>
</g>
<g fill="hsl(144, 100%, 40%)">
<text y="132">catch.shallow.10000.fused</text>
<text y="132" x="860.330338051952" text-anchor="end">4.68 ms</text>
</g>
<g>
<title>4.68 ms ± 434 μs</title>
<rect y="138" rx="5" height="22" width="860.330338051952" fill="hsl(144, 100%, 80%)" stroke="hsl(144, 100%, 55%)" />
<g stroke="hsl(144, 100%, 40%)"><line x1="780.660676103904" x2="940.0" y1="149" y2="149" />
<line x1="780.660676103904" x2="780.660676103904" y1="143" y2="155" />
<line x1="940.0" x2="940.0" y1="143" y2="155" />
</g>
</g>
<text fill="hsl(216, 100%, 40%)" y="187">catch.shallow.10000.effectful 1.52 ms</text>
<g>
<title>1.52 ms ±  66 μs</title>
<rect y="193" rx="5" height="22" width="279.0012714280788" fill="hsl(216, 100%, 80%)" stroke="hsl(216, 100%, 55%)" />
<g stroke="hsl(216, 100%, 40%)"><line x1="266.8583132550096" x2="291.14422960114797" y1="204" y2="204" />
<line x1="266.8583132550096" x2="266.8583132550096" y1="198" y2="210" />
<line x1="291.14422960114797" x2="291.14422960114797" y1="198" y2="210" />
</g>
</g>
<text fill="hsl(288, 100%, 40%)" y="242">catch.shallow.10000.mtl 395  μs</text>
<g>
<title>395  μs ±  24 μs</title>
<rect y="248" rx="5" height="22" width="72.63987641008103" fill="hsl(288, 100%, 80%)" stroke="hsl(288, 100%, 55%)" />
<g stroke="hsl(288, 100%, 40%)"><line x1="68.26918161852603" x2="77.01057120163603" y1="259" y2="259" />
<line x1="68.26918161852603" x2="68.26918161852603" y1="253" y2="265" />
<line x1="77.01057120163603" x2="77.01057120163603" y1="253" y2="265" />
</g>
</g>
</g>
</svg>
