<svg xmlns="http://www.w3.org/2000/svg" height="557" width="960.0" font-size="16" font-family="sans-serif" stroke-width="2">
<g transform="translate(10.0 0)">
<text fill="hsl(0, 100%, 40%)" y="22">catch.deep.10000.heftia.5+5+0 1.67 ms</text>
<g>
<title>1.67 ms ±  92 μs</title>
<rect y="28" rx="5" height="22" width="48.41087867524136" fill="hsl(0, 100%, 80%)" stroke="hsl(0, 100%, 55%)" />
<g stroke="hsl(0, 100%, 40%)"><line x1="45.74744422015261" x2="51.074313130330104" y1="39" y2="39" />
<line x1="45.74744422015261" x2="45.74744422015261" y1="33" y2="45" />
<line x1="51.074313130330104" x2="51.074313130330104" y1="33" y2="45" />
</g>
</g>
<text fill="hsl(36, 100%, 40%)" y="77">catch.deep.10000.heftia.5+4+1 2.65 ms</text>
<g>
<title>2.65 ms ± 139 μs</title>
<rect y="83" rx="5" height="22" width="76.98836395743487" fill="hsl(36, 100%, 80%)" stroke="hsl(36, 100%, 55%)" />
<g stroke="hsl(36, 100%, 40%)"><line x1="72.95344966816202" x2="81.02327824670772" y1="94" y2="94" />
<line x1="72.95344966816202" x2="72.95344966816202" y1="88" y2="100" />
<line x1="81.02327824670772" x2="81.02327824670772" y1="88" y2="100" />
</g>
</g>
<text fill="hsl(72, 100%, 40%)" y="132">catch.deep.10000.heftia.5+3+2 3.63 ms</text>
<g>
<title>3.63 ms ± 231 μs</title>
<rect y="138" rx="5" height="22" width="105.45553264742675" fill="hsl(72, 100%, 80%)" stroke="hsl(72, 100%, 55%)" />
<g stroke="hsl(72, 100%, 40%)"><line x1="98.75591188608821" x2="112.15515340876529" y1="149" y2="149" />
<line x1="98.75591188608821" x2="98.75591188608821" y1="143" y2="155" />
<line x1="112.15515340876529" x2="112.15515340876529" y1="143" y2="155" />
</g>
</g>
<text fill="hsl(108, 100%, 40%)" y="187">catch.deep.10000.heftia.5+2+3 5.09 ms</text>
<g>
<title>5.09 ms ± 351 μs</title>
<rect y="193" rx="5" height="22" width="147.86180187959204" fill="hsl(108, 100%, 80%)" stroke="hsl(108, 100%, 55%)" />
<g stroke="hsl(108, 100%, 40%)"><line x1="137.66149675337863" x2="158.06210700580544" y1="204" y2="204" />
<line x1="137.66149675337863" x2="137.66149675337863" y1="198" y2="210" />
<line x1="158.06210700580544" x2="158.06210700580544" y1="198" y2="210" />
</g>
</g>
<text fill="hsl(144, 100%, 40%)" y="242">catch.deep.10000.heftia.5+1+4 6.51 ms</text>
<g>
<title>6.51 ms ± 604 μs</title>
<rect y="248" rx="5" height="22" width="189.13873859785528" fill="hsl(144, 100%, 80%)" stroke="hsl(144, 100%, 55%)" />
<g stroke="hsl(144, 100%, 40%)"><line x1="171.589288859806" x2="206.68818833590456" y1="259" y2="259" />
<line x1="171.589288859806" x2="171.589288859806" y1="253" y2="265" />
<line x1="206.68818833590456" x2="206.68818833590456" y1="253" y2="265" />
</g>
</g>
<text fill="hsl(180, 100%, 40%)" y="297">catch.deep.10000.heftia.5+0+5 8.41 ms</text>
<g>
<title>8.41 ms ± 750 μs</title>
<rect y="303" rx="5" height="22" width="244.50839898141433" fill="hsl(180, 100%, 80%)" stroke="hsl(180, 100%, 55%)" />
<g stroke="hsl(180, 100%, 40%)"><line x1="222.71493409195455" x2="266.3018638708741" y1="314" y2="314" />
<line x1="222.71493409195455" x2="222.71493409195455" y1="308" y2="320" />
<line x1="266.3018638708741" x2="266.3018638708741" y1="308" y2="320" />
</g>
</g>
<g fill="hsl(216, 100%, 40%)">
<text y="352">catch.deep.10000.polysemy.5+5</text>
<text y="352" x="389.8157525333486" text-anchor="end">13.4 ms</text>
</g>
<g>
<title>13.4 ms ± 771 μs</title>
<rect y="358" rx="5" height="22" width="389.8157525333486" fill="hsl(216, 100%, 80%)" stroke="hsl(216, 100%, 55%)" />
<g stroke="hsl(216, 100%, 40%)"><line x1="367.4065931206418" x2="412.2249119460554" y1="369" y2="369" />
<line x1="367.4065931206418" x2="367.4065931206418" y1="363" y2="375" />
<line x1="412.2249119460554" x2="412.2249119460554" y1="363" y2="375" />
</g>
</g>
<g fill="hsl(252, 100%, 40%)">
<text y="407">catch.deep.10000.fused.5+5</text>
<text y="407" x="860.7773323807071" text-anchor="end">29.6 ms</text>
</g>
<g>
<title>29.6 ms ± 2.7 ms</title>
<rect y="413" rx="5" height="22" width="860.7773323807071" fill="hsl(252, 100%, 80%)" stroke="hsl(252, 100%, 55%)" />
<g stroke="hsl(252, 100%, 40%)"><line x1="781.5546647614142" x2="940.0" y1="424" y2="424" />
<line x1="781.5546647614142" x2="781.5546647614142" y1="418" y2="430" />
<line x1="940.0" x2="940.0" y1="418" y2="430" />
</g>
</g>
<text fill="hsl(288, 100%, 40%)" y="462">catch.deep.10000.effectful.5+5 1.50 ms</text>
<g>
<title>1.50 ms ±  44 μs</title>
<rect y="468" rx="5" height="22" width="43.46221436492335" fill="hsl(288, 100%, 80%)" stroke="hsl(288, 100%, 55%)" />
<g stroke="hsl(288, 100%, 40%)"><line x1="42.170586133239816" x2="44.75384259660688" y1="479" y2="479" />
<line x1="42.170586133239816" x2="42.170586133239816" y1="473" y2="485" />
<line x1="44.75384259660688" x2="44.75384259660688" y1="473" y2="485" />
</g>
</g>
<g fill="hsl(324, 100%, 40%)">
<text y="517">catch.deep.10000.mtl.5+5</text>
<text y="517" x="265.6760580246311" text-anchor="end">9.14 ms</text>
</g>
<g>
<title>9.14 ms ± 354 μs</title>
<rect y="523" rx="5" height="22" width="265.6760580246311" fill="hsl(324, 100%, 80%)" stroke="hsl(324, 100%, 55%)" />
<g stroke="hsl(324, 100%, 40%)"><line x1="255.39697625867151" x2="275.9551397905907" y1="534" y2="534" />
<line x1="255.39697625867151" x2="255.39697625867151" y1="528" y2="540" />
<line x1="275.9551397905907" x2="275.9551397905907" y1="528" y2="540" />
</g>
</g>
</g>
</svg>
