<svg xmlns="http://www.w3.org/2000/svg" height="557" width="960.0" font-size="16" font-family="sans-serif" stroke-width="2">
<g transform="translate(10.0 0)">
<text fill="hsl(0, 100%, 40%)" y="22">catch.deep.10000.heftia.5+5+0 1.10 ms</text>
<g>
<title>1.10 ms ±  43 μs</title>
<rect y="28" rx="5" height="22" width="37.085234621222114" fill="hsl(0, 100%, 80%)" stroke="hsl(0, 100%, 55%)" />
<g stroke="hsl(0, 100%, 40%)"><line x1="35.631574190116154" x2="38.53889505232807" y1="39" y2="39" />
<line x1="35.631574190116154" x2="35.631574190116154" y1="33" y2="45" />
<line x1="38.53889505232807" x2="38.53889505232807" y1="33" y2="45" />
</g>
</g>
<text fill="hsl(36, 100%, 40%)" y="77">catch.deep.10000.heftia.5+4+1 2.00 ms</text>
<g>
<title>2.00 ms ±  47 μs</title>
<rect y="83" rx="5" height="22" width="67.53360770247994" fill="hsl(36, 100%, 80%)" stroke="hsl(36, 100%, 55%)" />
<g stroke="hsl(36, 100%, 40%)"><line x1="65.9436979615975" x2="69.12351744336239" y1="94" y2="94" />
<line x1="65.9436979615975" x2="65.9436979615975" y1="88" y2="100" />
<line x1="69.12351744336239" x2="69.12351744336239" y1="88" y2="100" />
</g>
</g>
<text fill="hsl(72, 100%, 40%)" y="132">catch.deep.10000.heftia.5+3+2 2.96 ms</text>
<g>
<title>2.96 ms ± 168 μs</title>
<rect y="138" rx="5" height="22" width="99.90468833692228" fill="hsl(72, 100%, 80%)" stroke="hsl(72, 100%, 55%)" />
<g stroke="hsl(72, 100%, 40%)"><line x1="94.23698420837987" x2="105.57239246546469" y1="149" y2="149" />
<line x1="94.23698420837987" x2="94.23698420837987" y1="143" y2="155" />
<line x1="105.57239246546469" x2="105.57239246546469" y1="143" y2="155" />
</g>
</g>
<text fill="hsl(108, 100%, 40%)" y="187">catch.deep.10000.heftia.5+2+3 4.31 ms</text>
<g>
<title>4.31 ms ± 203 μs</title>
<rect y="193" rx="5" height="22" width="145.62291141679762" fill="hsl(108, 100%, 80%)" stroke="hsl(108, 100%, 55%)" />
<g stroke="hsl(108, 100%, 40%)"><line x1="138.7726075097688" x2="152.47321532382645" y1="204" y2="204" />
<line x1="138.7726075097688" x2="138.7726075097688" y1="198" y2="210" />
<line x1="152.47321532382645" x2="152.47321532382645" y1="198" y2="210" />
</g>
</g>
<text fill="hsl(144, 100%, 40%)" y="242">catch.deep.10000.heftia.5+1+4 5.52 ms</text>
<g>
<title>5.52 ms ± 374 μs</title>
<rect y="248" rx="5" height="22" width="186.57352596946737" fill="hsl(144, 100%, 80%)" stroke="hsl(144, 100%, 55%)" />
<g stroke="hsl(144, 100%, 40%)"><line x1="173.9407300052257" x2="199.20632193370903" y1="259" y2="259" />
<line x1="173.9407300052257" x2="173.9407300052257" y1="253" y2="265" />
<line x1="199.20632193370903" x2="199.20632193370903" y1="253" y2="265" />
</g>
</g>
<text fill="hsl(180, 100%, 40%)" y="297">catch.deep.10000.heftia.5+0+5 6.80 ms</text>
<g>
<title>6.80 ms ± 507 μs</title>
<rect y="303" rx="5" height="22" width="229.706887085434" fill="hsl(180, 100%, 80%)" stroke="hsl(180, 100%, 55%)" />
<g stroke="hsl(180, 100%, 40%)"><line x1="212.56351017872882" x2="246.8502639921392" y1="314" y2="314" />
<line x1="212.56351017872882" x2="212.56351017872882" y1="308" y2="320" />
<line x1="246.8502639921392" x2="246.8502639921392" y1="308" y2="320" />
</g>
</g>
<g fill="hsl(216, 100%, 40%)">
<text y="352">catch.deep.10000.polysemy.5+5</text>
<text y="352" x="415.9104663443725" text-anchor="end">12.3 ms</text>
</g>
<g>
<title>12.3 ms ± 737 μs</title>
<rect y="358" rx="5" height="22" width="415.9104663443725" fill="hsl(216, 100%, 80%)" stroke="hsl(216, 100%, 55%)" />
<g stroke="hsl(216, 100%, 40%)"><line x1="391.0131355918423" x2="440.8077970969027" y1="369" y2="369" />
<line x1="391.0131355918423" x2="391.0131355918423" y1="363" y2="375" />
<line x1="440.8077970969027" x2="440.8077970969027" y1="363" y2="375" />
</g>
</g>
<g fill="hsl(252, 100%, 40%)">
<text y="407">catch.deep.10000.fused.5+5</text>
<text y="407" x="898.9949524960654" text-anchor="end">26.6 ms</text>
</g>
<g>
<title>26.6 ms ± 1.2 ms</title>
<rect y="413" rx="5" height="22" width="898.9949524960654" fill="hsl(252, 100%, 80%)" stroke="hsl(252, 100%, 55%)" />
<g stroke="hsl(252, 100%, 40%)"><line x1="857.9899049921307" x2="940.0" y1="424" y2="424" />
<line x1="857.9899049921307" x2="857.9899049921307" y1="418" y2="430" />
<line x1="940.0" x2="940.0" y1="418" y2="430" />
</g>
</g>
<text fill="hsl(288, 100%, 40%)" y="462">catch.deep.10000.effectful.5+5 1.31 ms</text>
<g>
<title>1.31 ms ± 121 μs</title>
<rect y="468" rx="5" height="22" width="44.26039468008959" fill="hsl(288, 100%, 80%)" stroke="hsl(288, 100%, 55%)" />
<g stroke="hsl(288, 100%, 40%)"><line x1="40.16151436807822" x2="48.35927499210096" y1="479" y2="479" />
<line x1="40.16151436807822" x2="40.16151436807822" y1="473" y2="485" />
<line x1="48.35927499210096" x2="48.35927499210096" y1="473" y2="485" />
</g>
</g>
<g fill="hsl(324, 100%, 40%)">
<text y="517">catch.deep.10000.mtl.5+5</text>
<text y="517" x="261.1264966800291" text-anchor="end">7.73 ms</text>
</g>
<g>
<title>7.73 ms ± 581 μs</title>
<rect y="523" rx="5" height="22" width="261.1264966800291" fill="hsl(324, 100%, 80%)" stroke="hsl(324, 100%, 55%)" />
<g stroke="hsl(324, 100%, 40%)"><line x1="241.48463306845065" x2="280.76836029160756" y1="534" y2="534" />
<line x1="241.48463306845065" x2="241.48463306845065" y1="528" y2="540" />
<line x1="280.76836029160756" x2="280.76836029160756" y1="528" y2="540" />
</g>
</g>
</g>
</svg>
