<svg xmlns="http://www.w3.org/2000/svg" height="557" width="960.0" font-size="16" font-family="sans-serif" stroke-width="2">
<g transform="translate(10.0 0)">
<text fill="hsl(0, 100%, 40%)" y="22">catch.deep.10000.heftia.5+5+0 1.31 ms</text>
<g>
<title>1.31 ms ±  97 μs</title>
<rect y="28" rx="5" height="22" width="42.69666658758974" fill="hsl(0, 100%, 80%)" stroke="hsl(0, 100%, 55%)" />
<g stroke="hsl(0, 100%, 40%)"><line x1="39.548265467883624" x2="45.845067707295854" y1="39" y2="39" />
<line x1="39.548265467883624" x2="39.548265467883624" y1="33" y2="45" />
<line x1="45.845067707295854" x2="45.845067707295854" y1="33" y2="45" />
</g>
</g>
<text fill="hsl(36, 100%, 40%)" y="77">catch.deep.10000.heftia.5+4+1 2.11 ms</text>
<g>
<title>2.11 ms ± 118 μs</title>
<rect y="83" rx="5" height="22" width="68.73529925361419" fill="hsl(36, 100%, 80%)" stroke="hsl(36, 100%, 55%)" />
<g stroke="hsl(36, 100%, 40%)"><line x1="64.89027205560691" x2="72.58032645162146" y1="94" y2="94" />
<line x1="64.89027205560691" x2="64.89027205560691" y1="88" y2="100" />
<line x1="72.58032645162146" x2="72.58032645162146" y1="88" y2="100" />
</g>
</g>
<text fill="hsl(72, 100%, 40%)" y="132">catch.deep.10000.heftia.5+3+2 3.13 ms</text>
<g>
<title>3.13 ms ± 247 μs</title>
<rect y="138" rx="5" height="22" width="101.77043148071529" fill="hsl(72, 100%, 80%)" stroke="hsl(72, 100%, 55%)" />
<g stroke="hsl(72, 100%, 40%)"><line x1="93.73919107454887" x2="109.8016718868817" y1="149" y2="149" />
<line x1="93.73919107454887" x2="93.73919107454887" y1="143" y2="155" />
<line x1="109.8016718868817" x2="109.8016718868817" y1="143" y2="155" />
</g>
</g>
<text fill="hsl(108, 100%, 40%)" y="187">catch.deep.10000.heftia.5+2+3 4.37 ms</text>
<g>
<title>4.37 ms ± 282 μs</title>
<rect y="193" rx="5" height="22" width="142.3530883286973" fill="hsl(108, 100%, 80%)" stroke="hsl(108, 100%, 55%)" />
<g stroke="hsl(108, 100%, 40%)"><line x1="133.1872835645047" x2="151.51889309288993" y1="204" y2="204" />
<line x1="133.1872835645047" x2="133.1872835645047" y1="198" y2="210" />
<line x1="151.51889309288993" x2="151.51889309288993" y1="198" y2="210" />
</g>
</g>
<text fill="hsl(144, 100%, 40%)" y="242">catch.deep.10000.heftia.5+1+4 5.46 ms</text>
<g>
<title>5.46 ms ± 197 μs</title>
<rect y="248" rx="5" height="22" width="177.70578151370066" fill="hsl(144, 100%, 80%)" stroke="hsl(144, 100%, 55%)" />
<g stroke="hsl(144, 100%, 40%)"><line x1="171.30816243201073" x2="184.10340059539058" y1="259" y2="259" />
<line x1="171.30816243201073" x2="171.30816243201073" y1="253" y2="265" />
<line x1="184.10340059539058" x2="184.10340059539058" y1="253" y2="265" />
</g>
</g>
<text fill="hsl(180, 100%, 40%)" y="297">catch.deep.10000.heftia.5+0+5 6.46 ms</text>
<g>
<title>6.46 ms ±  86 μs</title>
<rect y="303" rx="5" height="22" width="210.30801836001564" fill="hsl(180, 100%, 80%)" stroke="hsl(180, 100%, 55%)" />
<g stroke="hsl(180, 100%, 40%)"><line x1="207.50630018051362" x2="213.10973653951766" y1="314" y2="314" />
<line x1="207.50630018051362" x2="207.50630018051362" y1="308" y2="320" />
<line x1="213.10973653951766" x2="213.10973653951766" y1="308" y2="320" />
</g>
</g>
<g fill="hsl(216, 100%, 40%)">
<text y="352">catch.deep.10000.polysemy.5+5</text>
<text y="352" x="415.4780771850371" text-anchor="end">12.8 ms</text>
</g>
<g>
<title>12.8 ms ± 1.1 ms</title>
<rect y="358" rx="5" height="22" width="415.4780771850371" fill="hsl(216, 100%, 80%)" stroke="hsl(216, 100%, 55%)" />
<g stroke="hsl(216, 100%, 40%)"><line x1="380.5297412260667" x2="450.4264131440075" y1="369" y2="369" />
<line x1="380.5297412260667" x2="380.5297412260667" y1="363" y2="375" />
<line x1="450.4264131440075" x2="450.4264131440075" y1="363" y2="375" />
</g>
</g>
<g fill="hsl(252, 100%, 40%)">
<text y="407">catch.deep.10000.fused.5+5</text>
<text y="407" x="890.2785949450993" text-anchor="end">27.4 ms</text>
</g>
<g>
<title>27.4 ms ± 1.5 ms</title>
<rect y="413" rx="5" height="22" width="890.2785949450993" fill="hsl(252, 100%, 80%)" stroke="hsl(252, 100%, 55%)" />
<g stroke="hsl(252, 100%, 40%)"><line x1="840.5571898901985" x2="940.0" y1="424" y2="424" />
<line x1="840.5571898901985" x2="840.5571898901985" y1="418" y2="430" />
<line x1="940.0" x2="940.0" y1="418" y2="430" />
</g>
</g>
<text fill="hsl(288, 100%, 40%)" y="462">catch.deep.10000.effectful.5+5 1.48 ms</text>
<g>
<title>1.48 ms ± 122 μs</title>
<rect y="468" rx="5" height="22" width="48.09892124283558" fill="hsl(288, 100%, 80%)" stroke="hsl(288, 100%, 55%)" />
<g stroke="hsl(288, 100%, 40%)"><line x1="44.14222426099828" x2="52.05561822467288" y1="479" y2="479" />
<line x1="44.14222426099828" x2="44.14222426099828" y1="473" y2="485" />
<line x1="52.05561822467288" x2="52.05561822467288" y1="473" y2="485" />
</g>
</g>
<text fill="hsl(324, 100%, 40%)" y="517">catch.deep.10000.mtl.5+5 7.78 ms</text>
<g>
<title>7.78 ms ± 772 μs</title>
<rect y="523" rx="5" height="22" width="253.0980233757557" fill="hsl(324, 100%, 80%)" stroke="hsl(324, 100%, 55%)" />
<g stroke="hsl(324, 100%, 40%)"><line x1="227.9831058956985" x2="278.2129408558129" y1="534" y2="534" />
<line x1="227.9831058956985" x2="227.9831058956985" y1="528" y2="540" />
<line x1="278.2129408558129" x2="278.2129408558129" y1="528" y2="540" />
</g>
</g>
</g>
</svg>
