<svg xmlns="http://www.w3.org/2000/svg" height="282" width="960.0" font-size="16" font-family="sans-serif" stroke-width="2">
<g transform="translate(10.0 0)">
<text fill="hsl(0, 100%, 40%)" y="22">catch.shallow.10000.heftia 1.33 ms</text>
<g>
<title>1.33 ms ± 110 μs</title>
<rect y="28" rx="5" height="22" width="267.69478633912587" fill="hsl(0, 100%, 80%)" stroke="hsl(0, 100%, 55%)" />
<g stroke="hsl(0, 100%, 40%)"><line x1="245.498774258565" x2="289.89079841968675" y1="39" y2="39" />
<line x1="245.498774258565" x2="245.498774258565" y1="33" y2="45" />
<line x1="289.89079841968675" x2="289.89079841968675" y1="33" y2="45" />
</g>
</g>
<g fill="hsl(72, 100%, 40%)">
<text y="77">catch.shallow.10000.polysemy</text>
<text y="77" x="607.8624703958968" text-anchor="end">3.01 ms</text>
</g>
<g>
<title>3.01 ms ± 178 μs</title>
<rect y="83" rx="5" height="22" width="607.8624703958968" fill="hsl(72, 100%, 80%)" stroke="hsl(72, 100%, 55%)" />
<g stroke="hsl(72, 100%, 40%)"><line x1="571.994690892169" x2="643.7302498996246" y1="94" y2="94" />
<line x1="571.994690892169" x2="571.994690892169" y1="88" y2="100" />
<line x1="643.7302498996246" x2="643.7302498996246" y1="88" y2="100" />
</g>
</g>
<g fill="hsl(144, 100%, 40%)">
<text y="132">catch.shallow.10000.fused</text>
<text y="132" x="901.1049890329307" text-anchor="end">4.46 ms</text>
</g>
<g>
<title>4.46 ms ± 193 μs</title>
<rect y="138" rx="5" height="22" width="901.1049890329307" fill="hsl(144, 100%, 80%)" stroke="hsl(144, 100%, 55%)" />
<g stroke="hsl(144, 100%, 40%)"><line x1="862.2099780658614" x2="940.0" y1="149" y2="149" />
<line x1="862.2099780658614" x2="862.2099780658614" y1="143" y2="155" />
<line x1="940.0" x2="940.0" y1="143" y2="155" />
</g>
</g>
<g fill="hsl(216, 100%, 40%)">
<text y="187">catch.shallow.10000.effectful</text>
<text y="187" x="366.218200906625" text-anchor="end">1.81 ms</text>
</g>
<g>
<title>1.81 ms ± 176 μs</title>
<rect y="193" rx="5" height="22" width="366.218200906625" fill="hsl(216, 100%, 80%)" stroke="hsl(216, 100%, 55%)" />
<g stroke="hsl(216, 100%, 40%)"><line x1="330.7406730823714" x2="401.69572873087856" y1="204" y2="204" />
<line x1="330.7406730823714" x2="330.7406730823714" y1="198" y2="210" />
<line x1="401.69572873087856" x2="401.69572873087856" y1="198" y2="210" />
</g>
</g>
<text fill="hsl(288, 100%, 40%)" y="242">catch.shallow.10000.mtl 416  μs</text>
<g>
<title>416  μs ±  26 μs</title>
<rect y="248" rx="5" height="22" width="83.99589608078502" fill="hsl(288, 100%, 80%)" stroke="hsl(288, 100%, 55%)" />
<g stroke="hsl(288, 100%, 40%)"><line x1="78.79328455165862" x2="89.19850760991142" y1="259" y2="259" />
<line x1="78.79328455165862" x2="78.79328455165862" y1="253" y2="265" />
<line x1="89.19850760991142" x2="89.19850760991142" y1="253" y2="265" />
</g>
</g>
</g>
</svg>
