<svg xmlns="http://www.w3.org/2000/svg" height="557" width="960.0" font-size="16" font-family="sans-serif" stroke-width="2">
<g transform="translate(10.0 0)">
<text fill="hsl(0, 100%, 40%)" y="22">catch.deep.10000.heftia.5+5+0 4.88 ms</text>
<g>
<title>4.88 ms ± 303 μs</title>
<rect y="28" rx="5" height="22" width="164.6722656788917" fill="hsl(0, 100%, 80%)" stroke="hsl(0, 100%, 55%)" />
<g stroke="hsl(0, 100%, 40%)"><line x1="154.45946069562115" x2="174.88507066216226" y1="39" y2="39" />
<line x1="154.45946069562115" x2="154.45946069562115" y1="33" y2="45" />
<line x1="174.88507066216226" x2="174.88507066216226" y1="33" y2="45" />
</g>
</g>
<text fill="hsl(36, 100%, 40%)" y="77">catch.deep.10000.heftia.5+4+1 6.80 ms</text>
<g>
<title>6.80 ms ± 588 μs</title>
<rect y="83" rx="5" height="22" width="229.38206385607864" fill="hsl(36, 100%, 80%)" stroke="hsl(36, 100%, 55%)" />
<g stroke="hsl(36, 100%, 40%)"><line x1="209.56039402951032" x2="249.20373368264697" y1="94" y2="94" />
<line x1="209.56039402951032" x2="209.56039402951032" y1="88" y2="100" />
<line x1="249.20373368264697" x2="249.20373368264697" y1="88" y2="100" />
</g>
</g>
<text fill="hsl(72, 100%, 40%)" y="132">catch.deep.10000.heftia.5+3+2 6.94 ms</text>
<g>
<title>6.94 ms ± 679 μs</title>
<rect y="138" rx="5" height="22" width="233.96137797650186" fill="hsl(72, 100%, 80%)" stroke="hsl(72, 100%, 55%)" />
<g stroke="hsl(72, 100%, 40%)"><line x1="211.06626795965315" x2="256.8564879933506" y1="149" y2="149" />
<line x1="211.06626795965315" x2="211.06626795965315" y1="143" y2="155" />
<line x1="256.8564879933506" x2="256.8564879933506" y1="143" y2="155" />
</g>
</g>
<text fill="hsl(108, 100%, 40%)" y="187">catch.deep.10000.heftia.5+2+3 8.27 ms</text>
<g>
<title>8.27 ms ± 693 μs</title>
<rect y="193" rx="5" height="22" width="278.9259640885074" fill="hsl(108, 100%, 80%)" stroke="hsl(108, 100%, 55%)" />
<g stroke="hsl(108, 100%, 40%)"><line x1="255.57133041263452" x2="302.2805977643802" y1="204" y2="204" />
<line x1="255.57133041263452" x2="255.57133041263452" y1="198" y2="210" />
<line x1="302.2805977643802" x2="302.2805977643802" y1="198" y2="210" />
</g>
</g>
<g fill="hsl(144, 100%, 40%)">
<text y="242">catch.deep.10000.heftia.5+1+4</text>
<text y="242" x="310.52963658367617" text-anchor="end">9.21 ms</text>
</g>
<g>
<title>9.21 ms ± 474 μs</title>
<rect y="248" rx="5" height="22" width="310.52963658367617" fill="hsl(144, 100%, 80%)" stroke="hsl(144, 100%, 55%)" />
<g stroke="hsl(144, 100%, 40%)"><line x1="294.5407557873782" x2="326.5185173799741" y1="259" y2="259" />
<line x1="294.5407557873782" x2="294.5407557873782" y1="253" y2="265" />
<line x1="326.5185173799741" x2="326.5185173799741" y1="253" y2="265" />
</g>
</g>
<g fill="hsl(180, 100%, 40%)">
<text y="297">catch.deep.10000.heftia.5+0+5</text>
<text y="297" x="335.3208285284249" text-anchor="end">9.95 ms</text>
</g>
<g>
<title>9.95 ms ± 905 μs</title>
<rect y="303" rx="5" height="22" width="335.3208285284249" fill="hsl(180, 100%, 80%)" stroke="hsl(180, 100%, 55%)" />
<g stroke="hsl(180, 100%, 40%)"><line x1="304.799287575253" x2="365.8423694815968" y1="314" y2="314" />
<line x1="304.799287575253" x2="304.799287575253" y1="308" y2="320" />
<line x1="365.8423694815968" x2="365.8423694815968" y1="308" y2="320" />
</g>
</g>
<g fill="hsl(216, 100%, 40%)">
<text y="352">catch.deep.10000.polysemy.5+5</text>
<text y="352" x="450.8543470776034" text-anchor="end">13.4 ms</text>
</g>
<g>
<title>13.4 ms ± 1.1 ms</title>
<rect y="358" rx="5" height="22" width="450.8543470776034" fill="hsl(216, 100%, 80%)" stroke="hsl(216, 100%, 55%)" />
<g stroke="hsl(216, 100%, 40%)"><line x1="414.5573655243875" x2="487.1513286308193" y1="369" y2="369" />
<line x1="414.5573655243875" x2="414.5573655243875" y1="363" y2="375" />
<line x1="487.1513286308193" x2="487.1513286308193" y1="363" y2="375" />
</g>
</g>
<g fill="hsl(252, 100%, 40%)">
<text y="407">catch.deep.10000.fused.5+5</text>
<text y="407" x="916.2271384545542" text-anchor="end">27.2 ms</text>
</g>
<g>
<title>27.2 ms ± 705 μs</title>
<rect y="413" rx="5" height="22" width="916.2271384545542" fill="hsl(252, 100%, 80%)" stroke="hsl(252, 100%, 55%)" />
<g stroke="hsl(252, 100%, 40%)"><line x1="892.4542769091083" x2="940.0" y1="424" y2="424" />
<line x1="892.4542769091083" x2="892.4542769091083" y1="418" y2="430" />
<line x1="940.0" x2="940.0" y1="418" y2="430" />
</g>
</g>
<text fill="hsl(288, 100%, 40%)" y="462">catch.deep.10000.effectful.5+5 1.47 ms</text>
<g>
<title>1.47 ms ± 108 μs</title>
<rect y="468" rx="5" height="22" width="49.59291321901984" fill="hsl(288, 100%, 80%)" stroke="hsl(288, 100%, 55%)" />
<g stroke="hsl(288, 100%, 40%)"><line x1="45.95404574405416" x2="53.23178069398552" y1="479" y2="479" />
<line x1="45.95404574405416" x2="45.95404574405416" y1="473" y2="485" />
<line x1="53.23178069398552" x2="53.23178069398552" y1="473" y2="485" />
</g>
</g>
<g fill="hsl(324, 100%, 40%)">
<text y="517">catch.deep.10000.mtl.5+5</text>
<text y="517" x="277.06508422109073" text-anchor="end">8.22 ms</text>
</g>
<g>
<title>8.22 ms ± 539 μs</title>
<rect y="523" rx="5" height="22" width="277.06508422109073" fill="hsl(324, 100%, 80%)" stroke="hsl(324, 100%, 55%)" />
<g stroke="hsl(324, 100%, 40%)"><line x1="258.8953970885257" x2="295.23477135365573" y1="534" y2="534" />
<line x1="258.8953970885257" x2="258.8953970885257" y1="528" y2="540" />
<line x1="295.23477135365573" x2="295.23477135365573" y1="528" y2="540" />
</g>
</g>
</g>
</svg>
