<svg xmlns="http://www.w3.org/2000/svg" height="557" width="960.0" font-size="16" font-family="sans-serif" stroke-width="2">
<g transform="translate(10.0 0)">
<text fill="hsl(0, 100%, 40%)" y="22">catch.deep.10000.heftia.5+5+0 1.33 ms</text>
<g>
<title>1.33 ms ± 104 μs</title>
<rect y="28" rx="5" height="22" width="41.89097370551949" fill="hsl(0, 100%, 80%)" stroke="hsl(0, 100%, 55%)" />
<g stroke="hsl(0, 100%, 40%)"><line x1="38.605366303318156" x2="45.17658110772083" y1="39" y2="39" />
<line x1="38.605366303318156" x2="38.605366303318156" y1="33" y2="45" />
<line x1="45.17658110772083" x2="45.17658110772083" y1="33" y2="45" />
</g>
</g>
<text fill="hsl(36, 100%, 40%)" y="77">catch.deep.10000.heftia.5+4+1 2.10 ms</text>
<g>
<title>2.10 ms ±  95 μs</title>
<rect y="83" rx="5" height="22" width="66.20254742243563" fill="hsl(36, 100%, 80%)" stroke="hsl(36, 100%, 55%)" />
<g stroke="hsl(36, 100%, 40%)"><line x1="63.21874505655454" x2="69.18634978831672" y1="94" y2="94" />
<line x1="63.21874505655454" x2="63.21874505655454" y1="88" y2="100" />
<line x1="69.18634978831672" x2="69.18634978831672" y1="88" y2="100" />
</g>
</g>
<text fill="hsl(72, 100%, 40%)" y="132">catch.deep.10000.heftia.5+3+2 2.99 ms</text>
<g>
<title>2.99 ms ± 200 μs</title>
<rect y="138" rx="5" height="22" width="94.11307333669448" fill="hsl(72, 100%, 80%)" stroke="hsl(72, 100%, 55%)" />
<g stroke="hsl(72, 100%, 40%)"><line x1="87.80025382545819" x2="100.42589284793078" y1="149" y2="149" />
<line x1="87.80025382545819" x2="87.80025382545819" y1="143" y2="155" />
<line x1="100.42589284793078" x2="100.42589284793078" y1="143" y2="155" />
</g>
</g>
<text fill="hsl(108, 100%, 40%)" y="187">catch.deep.10000.heftia.5+2+3 4.12 ms</text>
<g>
<title>4.12 ms ± 313 μs</title>
<rect y="193" rx="5" height="22" width="129.89233416910085" fill="hsl(108, 100%, 80%)" stroke="hsl(108, 100%, 55%)" />
<g stroke="hsl(108, 100%, 40%)"><line x1="120.03511851367571" x2="139.74954982452599" y1="204" y2="204" />
<line x1="120.03511851367571" x2="120.03511851367571" y1="198" y2="210" />
<line x1="139.74954982452599" x2="139.74954982452599" y1="198" y2="210" />
</g>
</g>
<text fill="hsl(144, 100%, 40%)" y="242">catch.deep.10000.heftia.5+1+4 5.81 ms</text>
<g>
<title>5.81 ms ± 340 μs</title>
<rect y="248" rx="5" height="22" width="182.85832062765988" fill="hsl(144, 100%, 80%)" stroke="hsl(144, 100%, 55%)" />
<g stroke="hsl(144, 100%, 40%)"><line x1="172.13850291455475" x2="193.578138340765" y1="259" y2="259" />
<line x1="172.13850291455475" x2="172.13850291455475" y1="253" y2="265" />
<line x1="193.578138340765" x2="193.578138340765" y1="253" y2="265" />
</g>
</g>
<text fill="hsl(180, 100%, 40%)" y="297">catch.deep.10000.heftia.5+0+5 6.71 ms</text>
<g>
<title>6.71 ms ± 176 μs</title>
<rect y="303" rx="5" height="22" width="211.31722999159604" fill="hsl(180, 100%, 80%)" stroke="hsl(180, 100%, 55%)" />
<g stroke="hsl(180, 100%, 40%)"><line x1="205.78510458037277" x2="216.8493554028193" y1="314" y2="314" />
<line x1="205.78510458037277" x2="205.78510458037277" y1="308" y2="320" />
<line x1="216.8493554028193" x2="216.8493554028193" y1="308" y2="320" />
</g>
</g>
<g fill="hsl(216, 100%, 40%)">
<text y="352">catch.deep.10000.polysemy.5+5</text>
<text y="352" x="403.45605523417515" text-anchor="end">12.8 ms</text>
</g>
<g>
<title>12.8 ms ± 1.0 ms</title>
<rect y="358" rx="5" height="22" width="403.45605523417515" fill="hsl(216, 100%, 80%)" stroke="hsl(216, 100%, 55%)" />
<g stroke="hsl(216, 100%, 40%)"><line x1="370.9202281463875" x2="435.9918823219628" y1="369" y2="369" />
<line x1="370.9202281463875" x2="370.9202281463875" y1="363" y2="375" />
<line x1="435.9918823219628" x2="435.9918823219628" y1="363" y2="375" />
</g>
</g>
<g fill="hsl(252, 100%, 40%)">
<text y="407">catch.deep.10000.fused.5+5</text>
<text y="407" x="876.4143219716924" text-anchor="end">27.8 ms</text>
</g>
<g>
<title>27.8 ms ± 2.0 ms</title>
<rect y="413" rx="5" height="22" width="876.4143219716924" fill="hsl(252, 100%, 80%)" stroke="hsl(252, 100%, 55%)" />
<g stroke="hsl(252, 100%, 40%)"><line x1="812.8286439433848" x2="940.0" y1="424" y2="424" />
<line x1="812.8286439433848" x2="812.8286439433848" y1="418" y2="430" />
<line x1="940.0" x2="940.0" y1="418" y2="430" />
</g>
</g>
<text fill="hsl(288, 100%, 40%)" y="462">catch.deep.10000.effectful.5+5 1.50 ms</text>
<g>
<title>1.50 ms ±  88 μs</title>
<rect y="468" rx="5" height="22" width="47.21467572874775" fill="hsl(288, 100%, 80%)" stroke="hsl(288, 100%, 55%)" />
<g stroke="hsl(288, 100%, 40%)"><line x1="44.43235134311394" x2="49.99700011438156" y1="479" y2="479" />
<line x1="44.43235134311394" x2="44.43235134311394" y1="473" y2="485" />
<line x1="49.99700011438156" x2="49.99700011438156" y1="473" y2="485" />
</g>
</g>
<g fill="hsl(324, 100%, 40%)">
<text y="517">catch.deep.10000.mtl.5+5</text>
<text y="517" x="265.579873646932" text-anchor="end">8.43 ms</text>
</g>
<g>
<title>8.43 ms ± 734 μs</title>
<rect y="523" rx="5" height="22" width="265.579873646932" fill="hsl(324, 100%, 80%)" stroke="hsl(324, 100%, 55%)" />
<g stroke="hsl(324, 100%, 40%)"><line x1="242.47316249998113" x2="288.6865847938829" y1="534" y2="534" />
<line x1="242.47316249998113" x2="242.47316249998113" y1="528" y2="540" />
<line x1="288.6865847938829" x2="288.6865847938829" y1="528" y2="540" />
</g>
</g>
</g>
</svg>
