<svg xmlns="http://www.w3.org/2000/svg" height="557" width="960.0" font-size="16" font-family="sans-serif" stroke-width="2">
<g transform="translate(10.0 0)">
<text fill="hsl(0, 100%, 40%)" y="22">catch.deep.10000.heftia.5+5+0 1.28 ms</text>
<g>
<title>1.28 ms ±  42 μs</title>
<rect y="28" rx="5" height="22" width="41.99433982513925" fill="hsl(0, 100%, 80%)" stroke="hsl(0, 100%, 55%)" />
<g stroke="hsl(0, 100%, 40%)"><line x1="40.60324002066091" x2="43.385439629617586" y1="39" y2="39" />
<line x1="40.60324002066091" x2="40.60324002066091" y1="33" y2="45" />
<line x1="43.385439629617586" x2="43.385439629617586" y1="33" y2="45" />
</g>
</g>
<text fill="hsl(36, 100%, 40%)" y="77">catch.deep.10000.heftia.5+4+1 2.01 ms</text>
<g>
<title>2.01 ms ± 103 μs</title>
<rect y="83" rx="5" height="22" width="65.79802190860109" fill="hsl(36, 100%, 80%)" stroke="hsl(36, 100%, 55%)" />
<g stroke="hsl(36, 100%, 40%)"><line x1="62.41531543941937" x2="69.1807283777828" y1="94" y2="94" />
<line x1="62.41531543941937" x2="62.41531543941937" y1="88" y2="100" />
<line x1="69.1807283777828" x2="69.1807283777828" y1="88" y2="100" />
</g>
</g>
<text fill="hsl(72, 100%, 40%)" y="132">catch.deep.10000.heftia.5+3+2 2.85 ms</text>
<g>
<title>2.85 ms ± 248 μs</title>
<rect y="138" rx="5" height="22" width="93.38466524370726" fill="hsl(72, 100%, 80%)" stroke="hsl(72, 100%, 55%)" />
<g stroke="hsl(72, 100%, 40%)"><line x1="85.24393550395901" x2="101.52539498345551" y1="149" y2="149" />
<line x1="85.24393550395901" x2="85.24393550395901" y1="143" y2="155" />
<line x1="101.52539498345551" x2="101.52539498345551" y1="143" y2="155" />
</g>
</g>
<text fill="hsl(108, 100%, 40%)" y="187">catch.deep.10000.heftia.5+2+3 4.16 ms</text>
<g>
<title>4.16 ms ± 413 μs</title>
<rect y="193" rx="5" height="22" width="136.44710570157181" fill="hsl(108, 100%, 80%)" stroke="hsl(108, 100%, 55%)" />
<g stroke="hsl(108, 100%, 40%)"><line x1="122.89974558745104" x2="149.9944658156926" y1="204" y2="204" />
<line x1="122.89974558745104" x2="122.89974558745104" y1="198" y2="210" />
<line x1="149.9944658156926" x2="149.9944658156926" y1="198" y2="210" />
</g>
</g>
<text fill="hsl(144, 100%, 40%)" y="242">catch.deep.10000.heftia.5+1+4 5.46 ms</text>
<g>
<title>5.46 ms ± 474 μs</title>
<rect y="248" rx="5" height="22" width="179.0670450553589" fill="hsl(144, 100%, 80%)" stroke="hsl(144, 100%, 55%)" />
<g stroke="hsl(144, 100%, 40%)"><line x1="163.54036481025022" x2="194.59372530046758" y1="259" y2="259" />
<line x1="163.54036481025022" x2="163.54036481025022" y1="253" y2="265" />
<line x1="194.59372530046758" x2="194.59372530046758" y1="253" y2="265" />
</g>
</g>
<text fill="hsl(180, 100%, 40%)" y="297">catch.deep.10000.heftia.5+0+5 6.28 ms</text>
<g>
<title>6.28 ms ± 280 μs</title>
<rect y="303" rx="5" height="22" width="205.9910516008088" fill="hsl(180, 100%, 80%)" stroke="hsl(180, 100%, 55%)" />
<g stroke="hsl(180, 100%, 40%)"><line x1="196.79713039280495" x2="215.18497280881263" y1="314" y2="314" />
<line x1="196.79713039280495" x2="196.79713039280495" y1="308" y2="320" />
<line x1="215.18497280881263" x2="215.18497280881263" y1="308" y2="320" />
</g>
</g>
<g fill="hsl(216, 100%, 40%)">
<text y="352">catch.deep.10000.polysemy.5+5</text>
<text y="352" x="429.685088720804" text-anchor="end">13.1 ms</text>
</g>
<g>
<title>13.1 ms ± 389 μs</title>
<rect y="358" rx="5" height="22" width="429.685088720804" fill="hsl(216, 100%, 80%)" stroke="hsl(216, 100%, 55%)" />
<g stroke="hsl(216, 100%, 40%)"><line x1="416.9431213585144" x2="442.4270560830936" y1="369" y2="369" />
<line x1="416.9431213585144" x2="416.9431213585144" y1="363" y2="375" />
<line x1="442.4270560830936" x2="442.4270560830936" y1="363" y2="375" />
</g>
</g>
<g fill="hsl(252, 100%, 40%)">
<text y="407">catch.deep.10000.fused.5+5</text>
<text y="407" x="869.7431786894188" text-anchor="end">26.5 ms</text>
</g>
<g>
<title>26.5 ms ± 2.1 ms</title>
<rect y="413" rx="5" height="22" width="869.7431786894188" fill="hsl(252, 100%, 80%)" stroke="hsl(252, 100%, 55%)" />
<g stroke="hsl(252, 100%, 40%)"><line x1="799.4863573788375" x2="940.0" y1="424" y2="424" />
<line x1="799.4863573788375" x2="799.4863573788375" y1="418" y2="430" />
<line x1="940.0" x2="940.0" y1="418" y2="430" />
</g>
</g>
<text fill="hsl(288, 100%, 40%)" y="462">catch.deep.10000.effectful.5+5 1.77 ms</text>
<g>
<title>1.77 ms ±  98 μs</title>
<rect y="468" rx="5" height="22" width="58.07097889600199" fill="hsl(288, 100%, 80%)" stroke="hsl(288, 100%, 55%)" />
<g stroke="hsl(288, 100%, 40%)"><line x1="54.87186562984368" x2="61.270092162160296" y1="479" y2="479" />
<line x1="54.87186562984368" x2="54.87186562984368" y1="473" y2="485" />
<line x1="61.270092162160296" x2="61.270092162160296" y1="473" y2="485" />
</g>
</g>
<g fill="hsl(324, 100%, 40%)">
<text y="517">catch.deep.10000.mtl.5+5</text>
<text y="517" x="263.0526485798864" text-anchor="end">8.02 ms</text>
</g>
<g>
<title>8.02 ms ± 779 μs</title>
<rect y="523" rx="5" height="22" width="263.0526485798864" fill="hsl(324, 100%, 80%)" stroke="hsl(324, 100%, 55%)" />
<g stroke="hsl(324, 100%, 40%)"><line x1="237.49248078891995" x2="288.61281637085284" y1="534" y2="534" />
<line x1="237.49248078891995" x2="237.49248078891995" y1="528" y2="540" />
<line x1="288.61281637085284" x2="288.61281637085284" y1="528" y2="540" />
</g>
</g>
</g>
</svg>
