<svg xmlns="http://www.w3.org/2000/svg" height="282" width="960.0" font-size="16" font-family="sans-serif" stroke-width="2">
<g transform="translate(10.0 0)">
<text fill="hsl(0, 100%, 40%)" y="22">catch.shallow.10000.heftia 1.29 ms</text>
<g>
<title>1.29 ms ± 112 μs</title>
<rect y="28" rx="5" height="22" width="251.20935882074835" fill="hsl(0, 100%, 80%)" stroke="hsl(0, 100%, 55%)" />
<g stroke="hsl(0, 100%, 40%)"><line x1="229.35420853714436" x2="273.06450910435234" y1="39" y2="39" />
<line x1="229.35420853714436" x2="229.35420853714436" y1="33" y2="45" />
<line x1="273.06450910435234" x2="273.06450910435234" y1="33" y2="45" />
</g>
</g>
<g fill="hsl(72, 100%, 40%)">
<text y="77">catch.shallow.10000.polysemy</text>
<text y="77" x="568.2237663208934" text-anchor="end">2.91 ms</text>
</g>
<g>
<title>2.91 ms ± 223 μs</title>
<rect y="83" rx="5" height="22" width="568.2237663208934" fill="hsl(72, 100%, 80%)" stroke="hsl(72, 100%, 55%)" />
<g stroke="hsl(72, 100%, 40%)"><line x1="524.7271525858044" x2="611.7203800559824" y1="94" y2="94" />
<line x1="524.7271525858044" x2="524.7271525858044" y1="88" y2="100" />
<line x1="611.7203800559824" x2="611.7203800559824" y1="88" y2="100" />
</g>
</g>
<g fill="hsl(144, 100%, 40%)">
<text y="132">catch.shallow.10000.fused</text>
<text y="132" x="875.4976785550534" text-anchor="end">4.49 ms</text>
</g>
<g>
<title>4.49 ms ± 331 μs</title>
<rect y="138" rx="5" height="22" width="875.4976785550534" fill="hsl(144, 100%, 80%)" stroke="hsl(144, 100%, 55%)" />
<g stroke="hsl(144, 100%, 40%)"><line x1="810.9953571101069" x2="940.0" y1="149" y2="149" />
<line x1="810.9953571101069" x2="810.9953571101069" y1="143" y2="155" />
<line x1="940.0" x2="940.0" y1="143" y2="155" />
</g>
</g>
<text fill="hsl(216, 100%, 40%)" y="187">catch.shallow.10000.effectful 1.48 ms</text>
<g>
<title>1.48 ms ±  91 μs</title>
<rect y="193" rx="5" height="22" width="288.9211234811739" fill="hsl(216, 100%, 80%)" stroke="hsl(216, 100%, 55%)" />
<g stroke="hsl(216, 100%, 40%)"><line x1="271.1465387566922" x2="306.69570820565554" y1="204" y2="204" />
<line x1="271.1465387566922" x2="271.1465387566922" y1="198" y2="210" />
<line x1="306.69570820565554" x2="306.69570820565554" y1="198" y2="210" />
</g>
</g>
<text fill="hsl(288, 100%, 40%)" y="242">catch.shallow.10000.mtl 429  μs</text>
<g>
<title>429  μs ±  32 μs</title>
<rect y="248" rx="5" height="22" width="83.65016460364704" fill="hsl(288, 100%, 80%)" stroke="hsl(288, 100%, 55%)" />
<g stroke="hsl(288, 100%, 40%)"><line x1="77.31577141304466" x2="89.98455779424943" y1="259" y2="259" />
<line x1="77.31577141304466" x2="77.31577141304466" y1="253" y2="265" />
<line x1="89.98455779424943" x2="89.98455779424943" y1="253" y2="265" />
</g>
</g>
</g>
</svg>
