<svg xmlns="http://www.w3.org/2000/svg" height="282" width="960.0" font-size="16" font-family="sans-serif" stroke-width="2">
<g transform="translate(10.0 0)">
<text fill="hsl(0, 100%, 40%)" y="22">catch.shallow.10000.heftia 1.26 ms</text>
<g>
<title>1.26 ms ± 103 μs</title>
<rect y="28" rx="5" height="22" width="245.43444238830367" fill="hsl(0, 100%, 80%)" stroke="hsl(0, 100%, 55%)" />
<g stroke="hsl(0, 100%, 40%)"><line x1="225.44332728080875" x2="265.4255574957986" y1="39" y2="39" />
<line x1="225.44332728080875" x2="225.44332728080875" y1="33" y2="45" />
<line x1="265.4255574957986" x2="265.4255574957986" y1="33" y2="45" />
</g>
</g>
<g fill="hsl(72, 100%, 40%)">
<text y="77">catch.shallow.10000.polysemy</text>
<text y="77" x="597.8989068013369" text-anchor="end">3.07 ms</text>
</g>
<g>
<title>3.07 ms ± 268 μs</title>
<rect y="83" rx="5" height="22" width="597.8989068013369" fill="hsl(72, 100%, 80%)" stroke="hsl(72, 100%, 55%)" />
<g stroke="hsl(72, 100%, 40%)"><line x1="545.7787288758648" x2="650.0190847268091" y1="94" y2="94" />
<line x1="545.7787288758648" x2="545.7787288758648" y1="88" y2="100" />
<line x1="650.0190847268091" x2="650.0190847268091" y1="88" y2="100" />
</g>
</g>
<g fill="hsl(144, 100%, 40%)">
<text y="132">catch.shallow.10000.fused</text>
<text y="132" x="897.2344395357417" text-anchor="end">4.61 ms</text>
</g>
<g>
<title>4.61 ms ± 220 μs</title>
<rect y="138" rx="5" height="22" width="897.2344395357417" fill="hsl(144, 100%, 80%)" stroke="hsl(144, 100%, 55%)" />
<g stroke="hsl(144, 100%, 40%)"><line x1="854.4688790714833" x2="940.0" y1="149" y2="149" />
<line x1="854.4688790714833" x2="854.4688790714833" y1="143" y2="155" />
<line x1="940.0" x2="940.0" y1="143" y2="155" />
</g>
</g>
<text fill="hsl(216, 100%, 40%)" y="187">catch.shallow.10000.effectful 1.51 ms</text>
<g>
<title>1.51 ms ± 106 μs</title>
<rect y="193" rx="5" height="22" width="294.29175384951327" fill="hsl(216, 100%, 80%)" stroke="hsl(216, 100%, 55%)" />
<g stroke="hsl(216, 100%, 40%)"><line x1="273.7598147802567" x2="314.82369291876984" y1="204" y2="204" />
<line x1="273.7598147802567" x2="273.7598147802567" y1="198" y2="210" />
<line x1="314.82369291876984" x2="314.82369291876984" y1="198" y2="210" />
</g>
</g>
<text fill="hsl(288, 100%, 40%)" y="242">catch.shallow.10000.mtl 397  μs</text>
<g>
<title>397  μs ±  34 μs</title>
<rect y="248" rx="5" height="22" width="77.18194690957877" fill="hsl(288, 100%, 80%)" stroke="hsl(288, 100%, 55%)" />
<g stroke="hsl(288, 100%, 40%)"><line x1="70.56018363520013" x2="83.8037101839574" y1="259" y2="259" />
<line x1="70.56018363520013" x2="70.56018363520013" y1="253" y2="265" />
<line x1="83.8037101839574" x2="83.8037101839574" y1="253" y2="265" />
</g>
</g>
</g>
</svg>
