<svg xmlns="http://www.w3.org/2000/svg" height="557" width="960.0" font-size="16" font-family="sans-serif" stroke-width="2">
<g transform="translate(10.0 0)">
<text fill="hsl(0, 100%, 40%)" y="22">catch.deep.10000.heftia.5+5+0 1.31 ms</text>
<g>
<title>1.31 ms ± 114 μs</title>
<rect y="28" rx="5" height="22" width="42.85936136511212" fill="hsl(0, 100%, 80%)" stroke="hsl(0, 100%, 55%)" />
<g stroke="hsl(0, 100%, 40%)"><line x1="39.12255708440118" x2="46.59616564582306" y1="39" y2="39" />
<line x1="39.12255708440118" x2="39.12255708440118" y1="33" y2="45" />
<line x1="46.59616564582306" x2="46.59616564582306" y1="33" y2="45" />
</g>
</g>
<text fill="hsl(36, 100%, 40%)" y="77">catch.deep.10000.heftia.5+4+1 2.07 ms</text>
<g>
<title>2.07 ms ± 129 μs</title>
<rect y="83" rx="5" height="22" width="68.03432489561257" fill="hsl(36, 100%, 80%)" stroke="hsl(36, 100%, 55%)" />
<g stroke="hsl(36, 100%, 40%)"><line x1="63.81480874524216" x2="72.25384104598298" y1="94" y2="94" />
<line x1="63.81480874524216" x2="63.81480874524216" y1="88" y2="100" />
<line x1="72.25384104598298" x2="72.25384104598298" y1="88" y2="100" />
</g>
</g>
<text fill="hsl(72, 100%, 40%)" y="132">catch.deep.10000.heftia.5+3+2 3.12 ms</text>
<g>
<title>3.12 ms ± 267 μs</title>
<rect y="138" rx="5" height="22" width="102.25394042415785" fill="hsl(72, 100%, 80%)" stroke="hsl(72, 100%, 55%)" />
<g stroke="hsl(72, 100%, 40%)"><line x1="93.50031459844338" x2="111.00756624987231" y1="149" y2="149" />
<line x1="93.50031459844338" x2="93.50031459844338" y1="143" y2="155" />
<line x1="111.00756624987231" x2="111.00756624987231" y1="143" y2="155" />
</g>
</g>
<text fill="hsl(108, 100%, 40%)" y="187">catch.deep.10000.heftia.5+2+3 4.29 ms</text>
<g>
<title>4.29 ms ± 161 μs</title>
<rect y="193" rx="5" height="22" width="140.5961719843255" fill="hsl(108, 100%, 80%)" stroke="hsl(108, 100%, 55%)" />
<g stroke="hsl(108, 100%, 40%)"><line x1="135.29781666653807" x2="145.89452730211295" y1="204" y2="204" />
<line x1="135.29781666653807" x2="135.29781666653807" y1="198" y2="210" />
<line x1="145.89452730211295" x2="145.89452730211295" y1="198" y2="210" />
</g>
</g>
<text fill="hsl(144, 100%, 40%)" y="242">catch.deep.10000.heftia.5+1+4 5.86 ms</text>
<g>
<title>5.86 ms ± 316 μs</title>
<rect y="248" rx="5" height="22" width="192.18980266160364" fill="hsl(144, 100%, 80%)" stroke="hsl(144, 100%, 55%)" />
<g stroke="hsl(144, 100%, 40%)"><line x1="181.82276930289274" x2="202.55683602031453" y1="259" y2="259" />
<line x1="181.82276930289274" x2="181.82276930289274" y1="253" y2="265" />
<line x1="202.55683602031453" x2="202.55683602031453" y1="253" y2="265" />
</g>
</g>
<text fill="hsl(180, 100%, 40%)" y="297">catch.deep.10000.heftia.5+0+5 6.71 ms</text>
<g>
<title>6.71 ms ± 199 μs</title>
<rect y="303" rx="5" height="22" width="220.30543599512097" fill="hsl(180, 100%, 80%)" stroke="hsl(180, 100%, 55%)" />
<g stroke="hsl(180, 100%, 40%)"><line x1="213.76395257870678" x2="226.84691941153517" y1="314" y2="314" />
<line x1="213.76395257870678" x2="213.76395257870678" y1="308" y2="320" />
<line x1="226.84691941153517" x2="226.84691941153517" y1="308" y2="320" />
</g>
</g>
<g fill="hsl(216, 100%, 40%)">
<text y="352">catch.deep.10000.polysemy.5+5</text>
<text y="352" x="422.1034503857091" text-anchor="end">12.9 ms</text>
</g>
<g>
<title>12.9 ms ± 862 μs</title>
<rect y="358" rx="5" height="22" width="422.1034503857091" fill="hsl(216, 100%, 80%)" stroke="hsl(216, 100%, 55%)" />
<g stroke="hsl(216, 100%, 40%)"><line x1="393.824701203248" x2="450.38219956817017" y1="369" y2="369" />
<line x1="393.824701203248" x2="393.824701203248" y1="363" y2="375" />
<line x1="450.38219956817017" x2="450.38219956817017" y1="363" y2="375" />
</g>
</g>
<g fill="hsl(252, 100%, 40%)">
<text y="407">catch.deep.10000.fused.5+5</text>
<text y="407" x="873.162008388439" text-anchor="end">26.6 ms</text>
</g>
<g>
<title>26.6 ms ± 2.0 ms</title>
<rect y="413" rx="5" height="22" width="873.162008388439" fill="hsl(252, 100%, 80%)" stroke="hsl(252, 100%, 55%)" />
<g stroke="hsl(252, 100%, 40%)"><line x1="806.3240167768779" x2="940.0" y1="424" y2="424" />
<line x1="806.3240167768779" x2="806.3240167768779" y1="418" y2="430" />
<line x1="940.0" x2="940.0" y1="418" y2="430" />
</g>
</g>
<text fill="hsl(288, 100%, 40%)" y="462">catch.deep.10000.effectful.5+5 1.52 ms</text>
<g>
<title>1.52 ms ±  50 μs</title>
<rect y="468" rx="5" height="22" width="49.87690286400699" fill="hsl(288, 100%, 80%)" stroke="hsl(288, 100%, 55%)" />
<g stroke="hsl(288, 100%, 40%)"><line x1="48.222594864406915" x2="51.53121086360707" y1="479" y2="479" />
<line x1="48.222594864406915" x2="48.222594864406915" y1="473" y2="485" />
<line x1="51.53121086360707" x2="51.53121086360707" y1="473" y2="485" />
</g>
</g>
<g fill="hsl(324, 100%, 40%)">
<text y="517">catch.deep.10000.mtl.5+5</text>
<text y="517" x="275.5127203791939" text-anchor="end">8.40 ms</text>
</g>
<g>
<title>8.40 ms ± 386 μs</title>
<rect y="523" rx="5" height="22" width="275.5127203791939" fill="hsl(324, 100%, 80%)" stroke="hsl(324, 100%, 55%)" />
<g stroke="hsl(324, 100%, 40%)"><line x1="262.86235161458444" x2="288.1630891438034" y1="534" y2="534" />
<line x1="262.86235161458444" x2="262.86235161458444" y1="528" y2="540" />
<line x1="288.1630891438034" x2="288.1630891438034" y1="528" y2="540" />
</g>
</g>
</g>
</svg>
