<svg xmlns="http://www.w3.org/2000/svg" height="282" width="960.0" font-size="16" font-family="sans-serif" stroke-width="2">
<g transform="translate(10.0 0)">
<text fill="hsl(0, 100%, 40%)" y="22">catch.shallow.10000.heftia 1.29 ms</text>
<g>
<title>1.29 ms ±  91 μs</title>
<rect y="28" rx="5" height="22" width="263.0766533856404" fill="hsl(0, 100%, 80%)" stroke="hsl(0, 100%, 55%)" />
<g stroke="hsl(0, 100%, 40%)"><line x1="244.49284555054234" x2="281.6604612207384" y1="39" y2="39" />
<line x1="244.49284555054234" x2="244.49284555054234" y1="33" y2="45" />
<line x1="281.6604612207384" x2="281.6604612207384" y1="33" y2="45" />
</g>
</g>
<g fill="hsl(72, 100%, 40%)">
<text y="77">catch.shallow.10000.polysemy</text>
<text y="77" x="594.0936133464696" text-anchor="end">2.90 ms</text>
</g>
<g>
<title>2.90 ms ± 275 μs</title>
<rect y="83" rx="5" height="22" width="594.0936133464696" fill="hsl(72, 100%, 80%)" stroke="hsl(72, 100%, 55%)" />
<g stroke="hsl(72, 100%, 40%)"><line x1="537.7763568221322" x2="650.410869870807" y1="94" y2="94" />
<line x1="537.7763568221322" x2="537.7763568221322" y1="88" y2="100" />
<line x1="650.410869870807" x2="650.410869870807" y1="88" y2="100" />
</g>
</g>
<g fill="hsl(144, 100%, 40%)">
<text y="132">catch.shallow.10000.fused</text>
<text y="132" x="887.4117325562755" text-anchor="end">4.34 ms</text>
</g>
<g>
<title>4.34 ms ± 257 μs</title>
<rect y="138" rx="5" height="22" width="887.4117325562755" fill="hsl(144, 100%, 80%)" stroke="hsl(144, 100%, 55%)" />
<g stroke="hsl(144, 100%, 40%)"><line x1="834.823465112551" x2="940.0" y1="149" y2="149" />
<line x1="834.823465112551" x2="834.823465112551" y1="143" y2="155" />
<line x1="940.0" x2="940.0" y1="143" y2="155" />
</g>
</g>
<g fill="hsl(216, 100%, 40%)">
<text y="187">catch.shallow.10000.effectful</text>
<text y="187" x="301.45954697751796" text-anchor="end">1.47 ms</text>
</g>
<g>
<title>1.47 ms ± 117 μs</title>
<rect y="193" rx="5" height="22" width="301.45954697751796" fill="hsl(216, 100%, 80%)" stroke="hsl(216, 100%, 55%)" />
<g stroke="hsl(216, 100%, 40%)"><line x1="277.47515264883594" x2="325.4439413062" y1="204" y2="204" />
<line x1="277.47515264883594" x2="277.47515264883594" y1="198" y2="210" />
<line x1="325.4439413062" x2="325.4439413062" y1="198" y2="210" />
</g>
</g>
<text fill="hsl(288, 100%, 40%)" y="242">catch.shallow.10000.mtl 428  μs</text>
<g>
<title>428  μs ±  25 μs</title>
<rect y="248" rx="5" height="22" width="87.49432003429362" fill="hsl(288, 100%, 80%)" stroke="hsl(288, 100%, 55%)" />
<g stroke="hsl(288, 100%, 40%)"><line x1="82.42665386322324" x2="92.56198620536401" y1="259" y2="259" />
<line x1="82.42665386322324" x2="82.42665386322324" y1="253" y2="265" />
<line x1="92.56198620536401" x2="92.56198620536401" y1="253" y2="265" />
</g>
</g>
</g>
</svg>
