<svg xmlns="http://www.w3.org/2000/svg" height="557" width="960.0" font-size="16" font-family="sans-serif" stroke-width="2">
<g transform="translate(10.0 0)">
<text fill="hsl(0, 100%, 40%)" y="22">catch.deep.10000.heftia.5+5+0 1.31 ms</text>
<g>
<title>1.31 ms ± 125 μs</title>
<rect y="28" rx="5" height="22" width="43.41074031157764" fill="hsl(0, 100%, 80%)" stroke="hsl(0, 100%, 55%)" />
<g stroke="hsl(0, 100%, 40%)"><line x1="39.28628196917674" x2="47.53519865397854" y1="39" y2="39" />
<line x1="39.28628196917674" x2="39.28628196917674" y1="33" y2="45" />
<line x1="47.53519865397854" x2="47.53519865397854" y1="33" y2="45" />
</g>
</g>
<text fill="hsl(36, 100%, 40%)" y="77">catch.deep.10000.heftia.5+4+1 2.01 ms</text>
<g>
<title>2.01 ms ±  97 μs</title>
<rect y="83" rx="5" height="22" width="66.5115220347726" fill="hsl(36, 100%, 80%)" stroke="hsl(36, 100%, 55%)" />
<g stroke="hsl(36, 100%, 40%)"><line x1="63.3041360296564" x2="69.71890803988879" y1="94" y2="94" />
<line x1="63.3041360296564" x2="63.3041360296564" y1="88" y2="100" />
<line x1="69.71890803988879" x2="69.71890803988879" y1="88" y2="100" />
</g>
</g>
<text fill="hsl(72, 100%, 40%)" y="132">catch.deep.10000.heftia.5+3+2 2.95 ms</text>
<g>
<title>2.95 ms ± 179 μs</title>
<rect y="138" rx="5" height="22" width="97.27401364801635" fill="hsl(72, 100%, 80%)" stroke="hsl(72, 100%, 55%)" />
<g stroke="hsl(72, 100%, 40%)"><line x1="91.34885843283959" x2="103.19916886319311" y1="149" y2="149" />
<line x1="91.34885843283959" x2="91.34885843283959" y1="143" y2="155" />
<line x1="103.19916886319311" x2="103.19916886319311" y1="143" y2="155" />
</g>
</g>
<text fill="hsl(108, 100%, 40%)" y="187">catch.deep.10000.heftia.5+2+3 4.26 ms</text>
<g>
<title>4.26 ms ± 333 μs</title>
<rect y="193" rx="5" height="22" width="140.78541091913016" fill="hsl(108, 100%, 80%)" stroke="hsl(108, 100%, 55%)" />
<g stroke="hsl(108, 100%, 40%)"><line x1="129.7893053499535" x2="151.7815164883068" y1="204" y2="204" />
<line x1="129.7893053499535" x2="129.7893053499535" y1="198" y2="210" />
<line x1="151.7815164883068" x2="151.7815164883068" y1="198" y2="210" />
</g>
</g>
<text fill="hsl(144, 100%, 40%)" y="242">catch.deep.10000.heftia.5+1+4 5.62 ms</text>
<g>
<title>5.62 ms ± 112 μs</title>
<rect y="248" rx="5" height="22" width="185.58100723983148" fill="hsl(144, 100%, 80%)" stroke="hsl(144, 100%, 55%)" />
<g stroke="hsl(144, 100%, 40%)"><line x1="181.8987208807375" x2="189.26329359892546" y1="259" y2="259" />
<line x1="181.8987208807375" x2="181.8987208807375" y1="253" y2="265" />
<line x1="189.26329359892546" x2="189.26329359892546" y1="253" y2="265" />
</g>
</g>
<text fill="hsl(180, 100%, 40%)" y="297">catch.deep.10000.heftia.5+0+5 6.60 ms</text>
<g>
<title>6.60 ms ± 167 μs</title>
<rect y="303" rx="5" height="22" width="218.03905860046277" fill="hsl(180, 100%, 80%)" stroke="hsl(180, 100%, 55%)" />
<g stroke="hsl(180, 100%, 40%)"><line x1="212.53362613259318" x2="223.54449106833235" y1="314" y2="314" />
<line x1="212.53362613259318" x2="212.53362613259318" y1="308" y2="320" />
<line x1="223.54449106833235" x2="223.54449106833235" y1="308" y2="320" />
</g>
</g>
<g fill="hsl(216, 100%, 40%)">
<text y="352">catch.deep.10000.polysemy.5+5</text>
<text y="352" x="418.0178015393577" text-anchor="end">12.7 ms</text>
</g>
<g>
<title>12.7 ms ± 1.1 ms</title>
<rect y="358" rx="5" height="22" width="418.0178015393577" fill="hsl(216, 100%, 80%)" stroke="hsl(216, 100%, 55%)" />
<g stroke="hsl(216, 100%, 40%)"><line x1="382.49060777715" x2="453.54499530156545" y1="369" y2="369" />
<line x1="382.49060777715" x2="382.49060777715" y1="363" y2="375" />
<line x1="453.54499530156545" x2="453.54499530156545" y1="363" y2="375" />
</g>
</g>
<g fill="hsl(252, 100%, 40%)">
<text y="407">catch.deep.10000.fused.5+5</text>
<text y="407" x="881.8723056510194" text-anchor="end">26.7 ms</text>
</g>
<g>
<title>26.7 ms ± 1.8 ms</title>
<rect y="413" rx="5" height="22" width="881.8723056510194" fill="hsl(252, 100%, 80%)" stroke="hsl(252, 100%, 55%)" />
<g stroke="hsl(252, 100%, 40%)"><line x1="823.7446113020387" x2="940.0" y1="424" y2="424" />
<line x1="823.7446113020387" x2="823.7446113020387" y1="418" y2="430" />
<line x1="940.0" x2="940.0" y1="418" y2="430" />
</g>
</g>
<text fill="hsl(288, 100%, 40%)" y="462">catch.deep.10000.effectful.5+5 1.44 ms</text>
<g>
<title>1.44 ms ± 116 μs</title>
<rect y="468" rx="5" height="22" width="47.4798249108627" fill="hsl(288, 100%, 80%)" stroke="hsl(288, 100%, 55%)" />
<g stroke="hsl(288, 100%, 40%)"><line x1="43.63390931190298" x2="51.325740509822424" y1="479" y2="479" />
<line x1="43.63390931190298" x2="43.63390931190298" y1="473" y2="485" />
<line x1="51.325740509822424" x2="51.325740509822424" y1="473" y2="485" />
</g>
</g>
<g fill="hsl(324, 100%, 40%)">
<text y="517">catch.deep.10000.mtl.5+5</text>
<text y="517" x="258.7428811324201" text-anchor="end">7.84 ms</text>
</g>
<g>
<title>7.84 ms ± 253 μs</title>
<rect y="523" rx="5" height="22" width="258.7428811324201" fill="hsl(324, 100%, 80%)" stroke="hsl(324, 100%, 55%)" />
<g stroke="hsl(324, 100%, 40%)"><line x1="250.393708808344" x2="267.0920534564962" y1="534" y2="534" />
<line x1="250.393708808344" x2="250.393708808344" y1="528" y2="540" />
<line x1="267.0920534564962" x2="267.0920534564962" y1="528" y2="540" />
</g>
</g>
</g>
</svg>
