<svg xmlns="http://www.w3.org/2000/svg" height="282" width="960.0" font-size="16" font-family="sans-serif" stroke-width="2">
<g transform="translate(10.0 0)">
<g fill="hsl(0, 100%, 40%)">
<text y="22">catch.shallow.1000.heftia</text>
<text y="22" x="286.85421783051345" text-anchor="end">93.5 μs</text>
</g>
<g>
<title>93.5 μs ± 5.7 μs</title>
<rect y="28" rx="5" height="22" width="286.85421783051345" fill="hsl(0, 100%, 80%)" stroke="hsl(0, 100%, 55%)" />
<g stroke="hsl(0, 100%, 40%)"><line x1="269.4012249988422" x2="304.3072106621847" y1="39" y2="39" />
<line x1="269.4012249988422" x2="269.4012249988422" y1="33" y2="45" />
<line x1="304.3072106621847" x2="304.3072106621847" y1="33" y2="45" />
</g>
</g>
<g fill="hsl(72, 100%, 40%)">
<text y="77">catch.shallow.1000.polysemy</text>
<text y="77" x="683.1607012663006" text-anchor="end">223  μs</text>
</g>
<g>
<title>223  μs ±  19 μs</title>
<rect y="83" rx="5" height="22" width="683.1607012663006" fill="hsl(72, 100%, 80%)" stroke="hsl(72, 100%, 55%)" />
<g stroke="hsl(72, 100%, 40%)"><line x1="625.1473219432842" x2="741.1740805893171" y1="94" y2="94" />
<line x1="625.1473219432842" x2="625.1473219432842" y1="88" y2="100" />
<line x1="741.1740805893171" x2="741.1740805893171" y1="88" y2="100" />
</g>
</g>
<g fill="hsl(144, 100%, 40%)">
<text y="132">catch.shallow.1000.fused</text>
<text y="132" x="865.7693226297827" text-anchor="end">282  μs</text>
</g>
<g>
<title>282  μs ±  24 μs</title>
<rect y="138" rx="5" height="22" width="865.7693226297827" fill="hsl(144, 100%, 80%)" stroke="hsl(144, 100%, 55%)" />
<g stroke="hsl(144, 100%, 40%)"><line x1="791.5386452595653" x2="940.0" y1="149" y2="149" />
<line x1="791.5386452595653" x2="791.5386452595653" y1="143" y2="155" />
<line x1="940.0" x2="940.0" y1="143" y2="155" />
</g>
</g>
<g fill="hsl(216, 100%, 40%)">
<text y="187">catch.shallow.1000.effectful</text>
<text y="187" x="310.8409921740962" text-anchor="end">101  μs</text>
</g>
<g>
<title>101  μs ± 6.2 μs</title>
<rect y="193" rx="5" height="22" width="310.8409921740962" fill="hsl(216, 100%, 80%)" stroke="hsl(216, 100%, 55%)" />
<g stroke="hsl(216, 100%, 40%)"><line x1="291.81445441074163" x2="329.86752993745074" y1="204" y2="204" />
<line x1="291.81445441074163" x2="291.81445441074163" y1="198" y2="210" />
<line x1="329.86752993745074" x2="329.86752993745074" y1="198" y2="210" />
</g>
</g>
<text fill="hsl(288, 100%, 40%)" y="242">catch.shallow.1000.mtl 33.4 μs</text>
<g>
<title>33.4 μs ± 2.9 μs</title>
<rect y="248" rx="5" height="22" width="102.47116053153836" fill="hsl(288, 100%, 80%)" stroke="hsl(288, 100%, 55%)" />
<g stroke="hsl(288, 100%, 40%)"><line x1="93.69712181401906" x2="111.24519924905766" y1="259" y2="259" />
<line x1="93.69712181401906" x2="93.69712181401906" y1="253" y2="265" />
<line x1="111.24519924905766" x2="111.24519924905766" y1="253" y2="265" />
</g>
</g>
</g>
</svg>
