<svg xmlns="http://www.w3.org/2000/svg" height="557" width="960.0" font-size="16" font-family="sans-serif" stroke-width="2">
<g transform="translate(10.0 0)">
<text fill="hsl(0, 100%, 40%)" y="22">catch.deep.10000.heftia.5+5+0 1.24 ms</text>
<g>
<title>1.24 ms ± 104 μs</title>
<rect y="28" rx="5" height="22" width="41.848022575802695" fill="hsl(0, 100%, 80%)" stroke="hsl(0, 100%, 55%)" />
<g stroke="hsl(0, 100%, 40%)"><line x1="38.32543220556844" x2="45.37061294603695" y1="39" y2="39" />
<line x1="38.32543220556844" x2="38.32543220556844" y1="33" y2="45" />
<line x1="45.37061294603695" x2="45.37061294603695" y1="33" y2="45" />
</g>
</g>
<text fill="hsl(36, 100%, 40%)" y="77">catch.deep.10000.heftia.5+4+1 2.06 ms</text>
<g>
<title>2.06 ms ± 115 μs</title>
<rect y="83" rx="5" height="22" width="69.81385614134524" fill="hsl(36, 100%, 80%)" stroke="hsl(36, 100%, 55%)" />
<g stroke="hsl(36, 100%, 40%)"><line x1="65.90470911448253" x2="73.72300316820795" y1="94" y2="94" />
<line x1="65.90470911448253" x2="65.90470911448253" y1="88" y2="100" />
<line x1="73.72300316820795" x2="73.72300316820795" y1="88" y2="100" />
</g>
</g>
<text fill="hsl(72, 100%, 40%)" y="132">catch.deep.10000.heftia.5+3+2 3.01 ms</text>
<g>
<title>3.01 ms ± 175 μs</title>
<rect y="138" rx="5" height="22" width="102.06314231487637" fill="hsl(72, 100%, 80%)" stroke="hsl(72, 100%, 55%)" />
<g stroke="hsl(72, 100%, 40%)"><line x1="96.12007656198871" x2="108.00620806776404" y1="149" y2="149" />
<line x1="96.12007656198871" x2="96.12007656198871" y1="143" y2="155" />
<line x1="108.00620806776404" x2="108.00620806776404" y1="143" y2="155" />
</g>
</g>
<text fill="hsl(108, 100%, 40%)" y="187">catch.deep.10000.heftia.5+2+3 4.42 ms</text>
<g>
<title>4.42 ms ± 412 μs</title>
<rect y="193" rx="5" height="22" width="149.69530561402104" fill="hsl(108, 100%, 80%)" stroke="hsl(108, 100%, 55%)" />
<g stroke="hsl(108, 100%, 40%)"><line x1="135.72882166932726" x2="163.66178955871482" y1="204" y2="204" />
<line x1="135.72882166932726" x2="135.72882166932726" y1="198" y2="210" />
<line x1="163.66178955871482" x2="163.66178955871482" y1="198" y2="210" />
</g>
</g>
<text fill="hsl(144, 100%, 40%)" y="242">catch.deep.10000.heftia.5+1+4 5.60 ms</text>
<g>
<title>5.60 ms ± 291 μs</title>
<rect y="248" rx="5" height="22" width="189.53898857911187" fill="hsl(144, 100%, 80%)" stroke="hsl(144, 100%, 55%)" />
<g stroke="hsl(144, 100%, 40%)"><line x1="179.68443856148332" x2="199.39353859674043" y1="259" y2="259" />
<line x1="179.68443856148332" x2="179.68443856148332" y1="253" y2="265" />
<line x1="199.39353859674043" x2="199.39353859674043" y1="253" y2="265" />
</g>
</g>
<text fill="hsl(180, 100%, 40%)" y="297">catch.deep.10000.heftia.5+0+5 6.86 ms</text>
<g>
<title>6.86 ms ± 552 μs</title>
<rect y="303" rx="5" height="22" width="232.39465523131003" fill="hsl(180, 100%, 80%)" stroke="hsl(180, 100%, 55%)" />
<g stroke="hsl(180, 100%, 40%)"><line x1="213.71187444997577" x2="251.07743601264428" y1="314" y2="314" />
<line x1="213.71187444997577" x2="213.71187444997577" y1="308" y2="320" />
<line x1="251.07743601264428" x2="251.07743601264428" y1="308" y2="320" />
</g>
</g>
<g fill="hsl(216, 100%, 40%)">
<text y="352">catch.deep.10000.polysemy.5+5</text>
<text y="352" x="434.34853808041686" text-anchor="end">12.8 ms</text>
</g>
<g>
<title>12.8 ms ± 1.1 ms</title>
<rect y="358" rx="5" height="22" width="434.34853808041686" fill="hsl(216, 100%, 80%)" stroke="hsl(216, 100%, 55%)" />
<g stroke="hsl(216, 100%, 40%)"><line x1="398.52730592079513" x2="470.1697702400386" y1="369" y2="369" />
<line x1="398.52730592079513" x2="398.52730592079513" y1="363" y2="375" />
<line x1="470.1697702400386" x2="470.1697702400386" y1="363" y2="375" />
</g>
</g>
<g fill="hsl(252, 100%, 40%)">
<text y="407">catch.deep.10000.fused.5+5</text>
<text y="407" x="920.3497318423159" text-anchor="end">27.2 ms</text>
</g>
<g>
<title>27.2 ms ± 580 μs</title>
<rect y="413" rx="5" height="22" width="920.3497318423159" fill="hsl(252, 100%, 80%)" stroke="hsl(252, 100%, 55%)" />
<g stroke="hsl(252, 100%, 40%)"><line x1="900.6994636846318" x2="940.0" y1="424" y2="424" />
<line x1="900.6994636846318" x2="900.6994636846318" y1="418" y2="430" />
<line x1="940.0" x2="940.0" y1="418" y2="430" />
</g>
</g>
<text fill="hsl(288, 100%, 40%)" y="462">catch.deep.10000.effectful.5+5 1.55 ms</text>
<g>
<title>1.55 ms ± 122 μs</title>
<rect y="468" rx="5" height="22" width="52.38172819888735" fill="hsl(288, 100%, 80%)" stroke="hsl(288, 100%, 55%)" />
<g stroke="hsl(288, 100%, 40%)"><line x1="48.23899814004889" x2="56.52445825772581" y1="479" y2="479" />
<line x1="48.23899814004889" x2="48.23899814004889" y1="473" y2="485" />
<line x1="56.52445825772581" x2="56.52445825772581" y1="473" y2="485" />
</g>
</g>
<g fill="hsl(324, 100%, 40%)">
<text y="517">catch.deep.10000.mtl.5+5</text>
<text y="517" x="273.84827252212426" text-anchor="end">8.09 ms</text>
</g>
<g>
<title>8.09 ms ± 706 μs</title>
<rect y="523" rx="5" height="22" width="273.84827252212426" fill="hsl(324, 100%, 80%)" stroke="hsl(324, 100%, 55%)" />
<g stroke="hsl(324, 100%, 40%)"><line x1="249.952423443236" x2="297.7441216010125" y1="534" y2="534" />
<line x1="249.952423443236" x2="249.952423443236" y1="528" y2="540" />
<line x1="297.7441216010125" x2="297.7441216010125" y1="528" y2="540" />
</g>
</g>
</g>
</svg>
