<svg xmlns="http://www.w3.org/2000/svg" height="227" width="960.0" font-size="16" font-family="sans-serif" stroke-width="2">
<g transform="translate(10.0 0)">
<text fill="hsl(0, 100%, 40%)" y="22">coroutine.deep.1000.heftia.5+5 166  μs</text>
<g>
<title>166  μs ±  11 μs</title>
<rect y="28" rx="5" height="22" width="26.011036911672363" fill="hsl(0, 100%, 80%)" stroke="hsl(0, 100%, 55%)" />
<g stroke="hsl(0, 100%, 40%)"><line x1="24.266762352954682" x2="27.755311470390044" y1="39" y2="39" />
<line x1="24.266762352954682" x2="24.266762352954682" y1="33" y2="45" />
<line x1="27.755311470390044" x2="27.755311470390044" y1="33" y2="45" />
</g>
</g>
<text fill="hsl(90, 100%, 40%)" y="77">coroutine.deep.1000.freer.5+5 134  μs</text>
<g>
<title>134  μs ±  11 μs</title>
<rect y="83" rx="5" height="22" width="20.9918923074242" fill="hsl(90, 100%, 80%)" stroke="hsl(90, 100%, 55%)" />
<g stroke="hsl(90, 100%, 40%)"><line x1="19.34030070575034" x2="22.643483909098062" y1="94" y2="94" />
<line x1="19.34030070575034" x2="19.34030070575034" y1="88" y2="100" />
<line x1="22.643483909098062" x2="22.643483909098062" y1="88" y2="100" />
</g>
</g>
<g fill="hsl(180, 100%, 40%)">
<text y="132">coroutine.deep.1000.eff.5+5</text>
<text y="132" x="673.851343020128" text-anchor="end">4.29 ms</text>
</g>
<g>
<title>4.29 ms ± 253 μs</title>
<rect y="138" rx="5" height="22" width="673.851343020128" fill="hsl(180, 100%, 80%)" stroke="hsl(180, 100%, 55%)" />
<g stroke="hsl(180, 100%, 40%)"><line x1="634.1179487109287" x2="713.5847373293273" y1="149" y2="149" />
<line x1="634.1179487109287" x2="634.1179487109287" y1="143" y2="155" />
<line x1="713.5847373293273" x2="713.5847373293273" y1="143" y2="155" />
</g>
</g>
<g fill="hsl(270, 100%, 40%)">
<text y="187">coroutine.deep.1000.mp.5+5</text>
<text y="187" x="883.1506637413108" text-anchor="end">5.62 ms</text>
</g>
<g>
<title>5.62 ms ± 362 μs</title>
<rect y="193" rx="5" height="22" width="883.1506637413108" fill="hsl(270, 100%, 80%)" stroke="hsl(270, 100%, 55%)" />
<g stroke="hsl(270, 100%, 40%)"><line x1="826.3013274826217" x2="940.0" y1="204" y2="204" />
<line x1="826.3013274826217" x2="826.3013274826217" y1="198" y2="210" />
<line x1="940.0" x2="940.0" y1="198" y2="210" />
</g>
</g>
</g>
</svg>
