<svg xmlns="http://www.w3.org/2000/svg" height="227" width="960.0" font-size="16" font-family="sans-serif" stroke-width="2">
<g transform="translate(10.0 0)">
<text fill="hsl(0, 100%, 40%)" y="22">coroutine.shallow.1000.heftia 96.3 μs</text>
<g>
<title>96.3 μs ± 6.9 μs</title>
<rect y="28" rx="5" height="22" width="13.582494462919907" fill="hsl(0, 100%, 80%)" stroke="hsl(0, 100%, 55%)" />
<g stroke="hsl(0, 100%, 40%)"><line x1="12.603910079435515" x2="14.5610788464043" y1="39" y2="39" />
<line x1="12.603910079435515" x2="12.603910079435515" y1="33" y2="45" />
<line x1="14.5610788464043" x2="14.5610788464043" y1="33" y2="45" />
</g>
</g>
<text fill="hsl(90, 100%, 40%)" y="77">coroutine.shallow.1000.freer 102  μs</text>
<g>
<title>102  μs ± 6.4 μs</title>
<rect y="83" rx="5" height="22" width="14.360965007043434" fill="hsl(90, 100%, 80%)" stroke="hsl(90, 100%, 55%)" />
<g stroke="hsl(90, 100%, 40%)"><line x1="13.461928319679846" x2="15.260001694407023" y1="94" y2="94" />
<line x1="13.461928319679846" x2="13.461928319679846" y1="88" y2="100" />
<line x1="15.260001694407023" x2="15.260001694407023" y1="88" y2="100" />
</g>
</g>
<g fill="hsl(180, 100%, 40%)">
<text y="132">coroutine.shallow.1000.eff</text>
<text y="132" x="569.7571113828309" text-anchor="end">4.04 ms</text>
</g>
<g>
<title>4.04 ms ± 379 μs</title>
<rect y="138" rx="5" height="22" width="569.7571113828309" fill="hsl(180, 100%, 80%)" stroke="hsl(180, 100%, 55%)" />
<g stroke="hsl(180, 100%, 40%)"><line x1="516.3466819106774" x2="623.1675408549844" y1="149" y2="149" />
<line x1="516.3466819106774" x2="516.3466819106774" y1="143" y2="155" />
<line x1="623.1675408549844" x2="623.1675408549844" y1="143" y2="155" />
</g>
</g>
<g fill="hsl(270, 100%, 40%)">
<text y="187">coroutine.shallow.1000.mp</text>
<text y="187" x="881.6752569671196" text-anchor="end">6.25 ms</text>
</g>
<g>
<title>6.25 ms ± 413 μs</title>
<rect y="193" rx="5" height="22" width="881.6752569671196" fill="hsl(270, 100%, 80%)" stroke="hsl(270, 100%, 55%)" />
<g stroke="hsl(270, 100%, 40%)"><line x1="823.3505139342392" x2="940.0" y1="204" y2="204" />
<line x1="823.3505139342392" x2="823.3505139342392" y1="198" y2="210" />
<line x1="940.0" x2="940.0" y1="198" y2="210" />
</g>
</g>
</g>
</svg>
