<svg xmlns="http://www.w3.org/2000/svg" height="227" width="960.0" font-size="16" font-family="sans-serif" stroke-width="2">
<g transform="translate(10.0 0)">
<text fill="hsl(0, 100%, 40%)" y="22">coroutine.shallow.1000.heftia 96.7 μs</text>
<g>
<title>96.7 μs ± 6.4 μs</title>
<rect y="28" rx="5" height="22" width="15.49646466654273" fill="hsl(0, 100%, 80%)" stroke="hsl(0, 100%, 55%)" />
<g stroke="hsl(0, 100%, 40%)"><line x1="14.469023931952089" x2="16.52390540113337" y1="39" y2="39" />
<line x1="14.469023931952089" x2="14.469023931952089" y1="33" y2="45" />
<line x1="16.52390540113337" x2="16.52390540113337" y1="33" y2="45" />
</g>
</g>
<text fill="hsl(90, 100%, 40%)" y="77">coroutine.shallow.1000.freer 97.0 μs</text>
<g>
<title>97.0 μs ± 5.9 μs</title>
<rect y="83" rx="5" height="22" width="15.539903790587099" fill="hsl(90, 100%, 80%)" stroke="hsl(90, 100%, 55%)" />
<g stroke="hsl(90, 100%, 40%)"><line x1="14.591804837601781" x2="16.488002743572416" y1="94" y2="94" />
<line x1="14.591804837601781" x2="14.591804837601781" y1="88" y2="100" />
<line x1="16.488002743572416" x2="16.488002743572416" y1="88" y2="100" />
</g>
</g>
<g fill="hsl(180, 100%, 40%)">
<text y="132">coroutine.shallow.1000.eff</text>
<text y="132" x="617.1812564629157" text-anchor="end">3.85 ms</text>
</g>
<g>
<title>3.85 ms ± 260 μs</title>
<rect y="138" rx="5" height="22" width="617.1812564629157" fill="hsl(180, 100%, 80%)" stroke="hsl(180, 100%, 55%)" />
<g stroke="hsl(180, 100%, 40%)"><line x1="575.6081290339654" x2="658.754383891866" y1="149" y2="149" />
<line x1="575.6081290339654" x2="575.6081290339654" y1="143" y2="155" />
<line x1="658.754383891866" x2="658.754383891866" y1="143" y2="155" />
</g>
</g>
<g fill="hsl(270, 100%, 40%)">
<text y="187">coroutine.shallow.1000.mp</text>
<text y="187" x="878.8956074020349" text-anchor="end">5.49 ms</text>
</g>
<g>
<title>5.49 ms ± 381 μs</title>
<rect y="193" rx="5" height="22" width="878.8956074020349" fill="hsl(270, 100%, 80%)" stroke="hsl(270, 100%, 55%)" />
<g stroke="hsl(270, 100%, 40%)"><line x1="817.7912148040698" x2="940.0" y1="204" y2="204" />
<line x1="817.7912148040698" x2="817.7912148040698" y1="198" y2="210" />
<line x1="940.0" x2="940.0" y1="198" y2="210" />
</g>
</g>
</g>
</svg>
