<svg xmlns="http://www.w3.org/2000/svg" height="227" width="960.0" font-size="16" font-family="sans-serif" stroke-width="2">
<g transform="translate(10.0 0)">
<text fill="hsl(0, 100%, 40%)" y="22">coroutine.deep.1000.heftia.5+5 173  μs</text>
<g>
<title>173  μs ±  14 μs</title>
<rect y="28" rx="5" height="22" width="26.94990459109302" fill="hsl(0, 100%, 80%)" stroke="hsl(0, 100%, 55%)" />
<g stroke="hsl(0, 100%, 40%)"><line x1="24.8136430147123" x2="29.08616616747374" y1="39" y2="39" />
<line x1="24.8136430147123" x2="24.8136430147123" y1="33" y2="45" />
<line x1="29.08616616747374" x2="29.08616616747374" y1="33" y2="45" />
</g>
</g>
<text fill="hsl(90, 100%, 40%)" y="77">coroutine.deep.1000.freer.5+5 134  μs</text>
<g>
<title>134  μs ±  13 μs</title>
<rect y="83" rx="5" height="22" width="20.811234604785902" fill="hsl(90, 100%, 80%)" stroke="hsl(90, 100%, 55%)" />
<g stroke="hsl(90, 100%, 40%)"><line x1="18.798430035027568" x2="22.824039174544236" y1="94" y2="94" />
<line x1="18.798430035027568" x2="18.798430035027568" y1="88" y2="100" />
<line x1="22.824039174544236" x2="22.824039174544236" y1="88" y2="100" />
</g>
</g>
<g fill="hsl(180, 100%, 40%)">
<text y="132">coroutine.deep.1000.eff.5+5</text>
<text y="132" x="678.2788801604682" text-anchor="end">4.35 ms</text>
</g>
<g>
<title>4.35 ms ± 352 μs</title>
<rect y="138" rx="5" height="22" width="678.2788801604682" fill="hsl(180, 100%, 80%)" stroke="hsl(180, 100%, 55%)" />
<g stroke="hsl(180, 100%, 40%)"><line x1="623.4374301887914" x2="733.1203301321451" y1="149" y2="149" />
<line x1="623.4374301887914" x2="623.4374301887914" y1="143" y2="155" />
<line x1="733.1203301321451" x2="733.1203301321451" y1="143" y2="155" />
</g>
</g>
<g fill="hsl(270, 100%, 40%)">
<text y="187">coroutine.deep.1000.mp.5+5</text>
<text y="187" x="881.7489872280677" text-anchor="end">5.66 ms</text>
</g>
<g>
<title>5.66 ms ± 374 μs</title>
<rect y="193" rx="5" height="22" width="881.7489872280677" fill="hsl(270, 100%, 80%)" stroke="hsl(270, 100%, 55%)" />
<g stroke="hsl(270, 100%, 40%)"><line x1="823.4979744561354" x2="940.0" y1="204" y2="204" />
<line x1="823.4979744561354" x2="823.4979744561354" y1="198" y2="210" />
<line x1="940.0" x2="940.0" y1="198" y2="210" />
</g>
</g>
</g>
</svg>
