<svg xmlns="http://www.w3.org/2000/svg" height="227" width="960.0" font-size="16" font-family="sans-serif" stroke-width="2">
<g transform="translate(10.0 0)">
<text fill="hsl(0, 100%, 40%)" y="22">coroutine.shallow.1000.heftia 96.3 μs</text>
<g>
<title>96.3 μs ± 6.9 μs</title>
<rect y="28" rx="5" height="22" width="15.42145965762116" fill="hsl(0, 100%, 80%)" stroke="hsl(0, 100%, 55%)" />
<g stroke="hsl(0, 100%, 40%)"><line x1="14.320502674913232" x2="16.522416640329087" y1="39" y2="39" />
<line x1="14.320502674913232" x2="14.320502674913232" y1="33" y2="45" />
<line x1="16.522416640329087" x2="16.522416640329087" y1="33" y2="45" />
</g>
</g>
<text fill="hsl(90, 100%, 40%)" y="77">coroutine.shallow.1000.freer 103  μs</text>
<g>
<title>103  μs ± 5.1 μs</title>
<rect y="83" rx="5" height="22" width="16.419829847336615" fill="hsl(90, 100%, 80%)" stroke="hsl(90, 100%, 55%)" />
<g stroke="hsl(90, 100%, 40%)"><line x1="15.605633067859298" x2="17.234026626813932" y1="94" y2="94" />
<line x1="15.605633067859298" x2="15.605633067859298" y1="88" y2="100" />
<line x1="17.234026626813932" x2="17.234026626813932" y1="88" y2="100" />
</g>
</g>
<g fill="hsl(180, 100%, 40%)">
<text y="132">coroutine.shallow.1000.eff</text>
<text y="132" x="632.7502398738699" text-anchor="end">3.95 ms</text>
</g>
<g>
<title>3.95 ms ± 386 μs</title>
<rect y="138" rx="5" height="22" width="632.7502398738699" fill="hsl(180, 100%, 80%)" stroke="hsl(180, 100%, 55%)" />
<g stroke="hsl(180, 100%, 40%)"><line x1="570.9889457697332" x2="694.5115339780066" y1="149" y2="149" />
<line x1="570.9889457697332" x2="570.9889457697332" y1="143" y2="155" />
<line x1="694.5115339780066" x2="694.5115339780066" y1="143" y2="155" />
</g>
</g>
<g fill="hsl(270, 100%, 40%)">
<text y="187">coroutine.shallow.1000.mp</text>
<text y="187" x="877.2236512251446" text-anchor="end">5.48 ms</text>
</g>
<g>
<title>5.48 ms ± 392 μs</title>
<rect y="193" rx="5" height="22" width="877.2236512251446" fill="hsl(270, 100%, 80%)" stroke="hsl(270, 100%, 55%)" />
<g stroke="hsl(270, 100%, 40%)"><line x1="814.4473024502893" x2="940.0" y1="204" y2="204" />
<line x1="814.4473024502893" x2="814.4473024502893" y1="198" y2="210" />
<line x1="940.0" x2="940.0" y1="198" y2="210" />
</g>
</g>
</g>
</svg>
