<svg xmlns="http://www.w3.org/2000/svg" height="227" width="960.0" font-size="16" font-family="sans-serif" stroke-width="2">
<g transform="translate(10.0 0)">
<text fill="hsl(0, 100%, 40%)" y="22">coroutine.deep.1000.heftia.5+5 176  μs</text>
<g>
<title>176  μs ± 8.8 μs</title>
<rect y="28" rx="5" height="22" width="27.639980793944297" fill="hsl(0, 100%, 80%)" stroke="hsl(0, 100%, 55%)" />
<g stroke="hsl(0, 100%, 40%)"><line x1="26.25508899770135" x2="29.024872590187243" y1="39" y2="39" />
<line x1="26.25508899770135" x2="26.25508899770135" y1="33" y2="45" />
<line x1="29.024872590187243" x2="29.024872590187243" y1="33" y2="45" />
</g>
</g>
<text fill="hsl(90, 100%, 40%)" y="77">coroutine.deep.1000.freer.5+5 140  μs</text>
<g>
<title>140  μs ± 7.7 μs</title>
<rect y="83" rx="5" height="22" width="21.95113827480008" fill="hsl(90, 100%, 80%)" stroke="hsl(90, 100%, 55%)" />
<g stroke="hsl(90, 100%, 40%)"><line x1="20.749810705904515" x2="23.152465843695644" y1="94" y2="94" />
<line x1="20.749810705904515" x2="20.749810705904515" y1="88" y2="100" />
<line x1="23.152465843695644" x2="23.152465843695644" y1="88" y2="100" />
</g>
</g>
<g fill="hsl(180, 100%, 40%)">
<text y="132">coroutine.deep.1000.eff.5+5</text>
<text y="132" x="703.8450796340298" text-anchor="end">4.48 ms</text>
</g>
<g>
<title>4.48 ms ± 431 μs</title>
<rect y="138" rx="5" height="22" width="703.8450796340298" fill="hsl(180, 100%, 80%)" stroke="hsl(180, 100%, 55%)" />
<g stroke="hsl(180, 100%, 40%)"><line x1="636.2295057309874" x2="771.4606535370723" y1="149" y2="149" />
<line x1="636.2295057309874" x2="636.2295057309874" y1="143" y2="155" />
<line x1="771.4606535370723" x2="771.4606535370723" y1="143" y2="155" />
</g>
</g>
<g fill="hsl(270, 100%, 40%)">
<text y="187">coroutine.deep.1000.mp.5+5</text>
<text y="187" x="875.337895704511" text-anchor="end">5.58 ms</text>
</g>
<g>
<title>5.58 ms ± 412 μs</title>
<rect y="193" rx="5" height="22" width="875.337895704511" fill="hsl(270, 100%, 80%)" stroke="hsl(270, 100%, 55%)" />
<g stroke="hsl(270, 100%, 40%)"><line x1="810.6757914090219" x2="940.0" y1="204" y2="204" />
<line x1="810.6757914090219" x2="810.6757914090219" y1="198" y2="210" />
<line x1="940.0" x2="940.0" y1="198" y2="210" />
</g>
</g>
</g>
</svg>
