<svg xmlns="http://www.w3.org/2000/svg" height="227" width="960.0" font-size="16" font-family="sans-serif" stroke-width="2">
<g transform="translate(10.0 0)">
<text fill="hsl(0, 100%, 40%)" y="22">coroutine.shallow.1000.heftia 105  μs</text>
<g>
<title>105  μs ± 6.0 μs</title>
<rect y="28" rx="5" height="22" width="16.633419630704" fill="hsl(0, 100%, 80%)" stroke="hsl(0, 100%, 55%)" />
<g stroke="hsl(0, 100%, 40%)"><line x1="15.683607182702188" x2="17.583232078705816" y1="39" y2="39" />
<line x1="15.683607182702188" x2="15.683607182702188" y1="33" y2="45" />
<line x1="17.583232078705816" x2="17.583232078705816" y1="33" y2="45" />
</g>
</g>
<text fill="hsl(90, 100%, 40%)" y="77">coroutine.shallow.1000.freer 98.1 μs</text>
<g>
<title>98.1 μs ± 3.6 μs</title>
<rect y="83" rx="5" height="22" width="15.531587484861097" fill="hsl(90, 100%, 80%)" stroke="hsl(90, 100%, 55%)" />
<g stroke="hsl(90, 100%, 40%)"><line x1="14.957838000678208" x2="16.105336969043986" y1="94" y2="94" />
<line x1="14.957838000678208" x2="14.957838000678208" y1="88" y2="100" />
<line x1="16.105336969043986" x2="16.105336969043986" y1="88" y2="100" />
</g>
</g>
<g fill="hsl(180, 100%, 40%)">
<text y="132">coroutine.shallow.1000.eff</text>
<text y="132" x="619.0232476052863" text-anchor="end">3.91 ms</text>
</g>
<g>
<title>3.91 ms ± 320 μs</title>
<rect y="138" rx="5" height="22" width="619.0232476052863" fill="hsl(180, 100%, 80%)" stroke="hsl(180, 100%, 55%)" />
<g stroke="hsl(180, 100%, 40%)"><line x1="568.3601089026273" x2="669.6863863079453" y1="149" y2="149" />
<line x1="568.3601089026273" x2="568.3601089026273" y1="143" y2="155" />
<line x1="669.6863863079453" x2="669.6863863079453" y1="143" y2="155" />
</g>
</g>
<g fill="hsl(270, 100%, 40%)">
<text y="187">coroutine.shallow.1000.mp</text>
<text y="187" x="879.921985133829" text-anchor="end">5.56 ms</text>
</g>
<g>
<title>5.56 ms ± 379 μs</title>
<rect y="193" rx="5" height="22" width="879.921985133829" fill="hsl(270, 100%, 80%)" stroke="hsl(270, 100%, 55%)" />
<g stroke="hsl(270, 100%, 40%)"><line x1="819.843970267658" x2="940.0" y1="204" y2="204" />
<line x1="819.843970267658" x2="819.843970267658" y1="198" y2="210" />
<line x1="940.0" x2="940.0" y1="198" y2="210" />
</g>
</g>
</g>
</svg>
