<svg xmlns="http://www.w3.org/2000/svg" height="227" width="960.0" font-size="16" font-family="sans-serif" stroke-width="2">
<g transform="translate(10.0 0)">
<text fill="hsl(0, 100%, 40%)" y="22">coroutine.shallow.1000.heftia 96.0 μs</text>
<g>
<title>96.0 μs ± 7.2 μs</title>
<rect y="28" rx="5" height="22" width="15.44182391261293" fill="hsl(0, 100%, 80%)" stroke="hsl(0, 100%, 55%)" />
<g stroke="hsl(0, 100%, 40%)"><line x1="14.280564344299972" x2="16.60308348092589" y1="39" y2="39" />
<line x1="14.280564344299972" x2="14.280564344299972" y1="33" y2="45" />
<line x1="16.60308348092589" x2="16.60308348092589" y1="33" y2="45" />
</g>
</g>
<text fill="hsl(90, 100%, 40%)" y="77">coroutine.shallow.1000.freer 96.3 μs</text>
<g>
<title>96.3 μs ± 6.0 μs</title>
<rect y="83" rx="5" height="22" width="15.49531698875629" fill="hsl(90, 100%, 80%)" stroke="hsl(90, 100%, 55%)" />
<g stroke="hsl(90, 100%, 40%)"><line x1="14.526739217444764" x2="16.463894760067816" y1="94" y2="94" />
<line x1="14.526739217444764" x2="14.526739217444764" y1="88" y2="100" />
<line x1="16.463894760067816" x2="16.463894760067816" y1="88" y2="100" />
</g>
</g>
<g fill="hsl(180, 100%, 40%)">
<text y="132">coroutine.shallow.1000.eff</text>
<text y="132" x="629.1430597562398" text-anchor="end">3.91 ms</text>
</g>
<g>
<title>3.91 ms ± 236 μs</title>
<rect y="138" rx="5" height="22" width="629.1430597562398" fill="hsl(180, 100%, 80%)" stroke="hsl(180, 100%, 55%)" />
<g stroke="hsl(180, 100%, 40%)"><line x1="591.1164273300719" x2="667.1696921824077" y1="149" y2="149" />
<line x1="591.1164273300719" x2="591.1164273300719" y1="143" y2="155" />
<line x1="667.1696921824077" x2="667.1696921824077" y1="143" y2="155" />
</g>
</g>
<g fill="hsl(270, 100%, 40%)">
<text y="187">coroutine.shallow.1000.mp</text>
<text y="187" x="910.9793057026017" text-anchor="end">5.66 ms</text>
</g>
<g>
<title>5.66 ms ± 180 μs</title>
<rect y="193" rx="5" height="22" width="910.9793057026017" fill="hsl(270, 100%, 80%)" stroke="hsl(270, 100%, 55%)" />
<g stroke="hsl(270, 100%, 40%)"><line x1="881.9586114052033" x2="940.0" y1="204" y2="204" />
<line x1="881.9586114052033" x2="881.9586114052033" y1="198" y2="210" />
<line x1="940.0" x2="940.0" y1="198" y2="210" />
</g>
</g>
</g>
</svg>
