<svg xmlns="http://www.w3.org/2000/svg" height="227" width="960.0" font-size="16" font-family="sans-serif" stroke-width="2">
<g transform="translate(10.0 0)">
<text fill="hsl(0, 100%, 40%)" y="22">coroutine.shallow.1000.heftia 102  μs</text>
<g>
<title>102  μs ± 3.6 μs</title>
<rect y="28" rx="5" height="22" width="15.849831341315676" fill="hsl(0, 100%, 80%)" stroke="hsl(0, 100%, 55%)" />
<g stroke="hsl(0, 100%, 40%)"><line x1="15.290811559820641" x2="16.408851122810713" y1="39" y2="39" />
<line x1="15.290811559820641" x2="15.290811559820641" y1="33" y2="45" />
<line x1="16.408851122810713" x2="16.408851122810713" y1="33" y2="45" />
</g>
</g>
<text fill="hsl(90, 100%, 40%)" y="77">coroutine.shallow.1000.freer 98.5 μs</text>
<g>
<title>98.5 μs ± 8.3 μs</title>
<rect y="83" rx="5" height="22" width="15.311619714855501" fill="hsl(90, 100%, 80%)" stroke="hsl(90, 100%, 55%)" />
<g stroke="hsl(90, 100%, 40%)"><line x1="14.017515522982679" x2="16.605723906728322" y1="94" y2="94" />
<line x1="14.017515522982679" x2="14.017515522982679" y1="88" y2="100" />
<line x1="16.605723906728322" x2="16.605723906728322" y1="88" y2="100" />
</g>
</g>
<g fill="hsl(180, 100%, 40%)">
<text y="132">coroutine.shallow.1000.eff</text>
<text y="132" x="605.8328173252918" text-anchor="end">3.90 ms</text>
</g>
<g>
<title>3.90 ms ± 261 μs</title>
<rect y="138" rx="5" height="22" width="605.8328173252918" fill="hsl(180, 100%, 80%)" stroke="hsl(180, 100%, 55%)" />
<g stroke="hsl(180, 100%, 40%)"><line x1="565.346905584598" x2="646.3187290659856" y1="149" y2="149" />
<line x1="565.346905584598" x2="565.346905584598" y1="143" y2="155" />
<line x1="646.3187290659856" x2="646.3187290659856" y1="143" y2="155" />
</g>
</g>
<g fill="hsl(270, 100%, 40%)">
<text y="187">coroutine.shallow.1000.mp</text>
<text y="187" x="882.36040166189" text-anchor="end">5.68 ms</text>
</g>
<g>
<title>5.68 ms ± 371 μs</title>
<rect y="193" rx="5" height="22" width="882.36040166189" fill="hsl(270, 100%, 80%)" stroke="hsl(270, 100%, 55%)" />
<g stroke="hsl(270, 100%, 40%)"><line x1="824.72080332378" x2="940.0" y1="204" y2="204" />
<line x1="824.72080332378" x2="824.72080332378" y1="198" y2="210" />
<line x1="940.0" x2="940.0" y1="198" y2="210" />
</g>
</g>
</g>
</svg>
