<svg xmlns="http://www.w3.org/2000/svg" height="227" width="960.0" font-size="16" font-family="sans-serif" stroke-width="2">
<g transform="translate(10.0 0)">
<text fill="hsl(0, 100%, 40%)" y="22">coroutine.deep.1000.heftia.5+5 185  μs</text>
<g>
<title>185  μs ±  11 μs</title>
<rect y="28" rx="5" height="22" width="28.849022599537072" fill="hsl(0, 100%, 80%)" stroke="hsl(0, 100%, 55%)" />
<g stroke="hsl(0, 100%, 40%)"><line x1="27.148718416438168" x2="30.549326782635976" y1="39" y2="39" />
<line x1="27.148718416438168" x2="27.148718416438168" y1="33" y2="45" />
<line x1="30.549326782635976" x2="30.549326782635976" y1="33" y2="45" />
</g>
</g>
<text fill="hsl(90, 100%, 40%)" y="77">coroutine.deep.1000.freer.5+5 145  μs</text>
<g>
<title>145  μs ±  14 μs</title>
<rect y="83" rx="5" height="22" width="22.572392959381812" fill="hsl(90, 100%, 80%)" stroke="hsl(90, 100%, 55%)" />
<g stroke="hsl(90, 100%, 40%)"><line x1="20.338694327528067" x2="24.806091591235557" y1="94" y2="94" />
<line x1="20.338694327528067" x2="20.338694327528067" y1="88" y2="100" />
<line x1="24.806091591235557" x2="24.806091591235557" y1="88" y2="100" />
</g>
</g>
<g fill="hsl(180, 100%, 40%)">
<text y="132">coroutine.deep.1000.eff.5+5</text>
<text y="132" x="698.8573207828908" text-anchor="end">4.49 ms</text>
</g>
<g>
<title>4.49 ms ± 182 μs</title>
<rect y="138" rx="5" height="22" width="698.8573207828908" fill="hsl(180, 100%, 80%)" stroke="hsl(180, 100%, 55%)" />
<g stroke="hsl(180, 100%, 40%)"><line x1="670.5520146166601" x2="727.1626269491215" y1="149" y2="149" />
<line x1="670.5520146166601" x2="670.5520146166601" y1="143" y2="155" />
<line x1="727.1626269491215" x2="727.1626269491215" y1="143" y2="155" />
</g>
</g>
<g fill="hsl(270, 100%, 40%)">
<text y="187">coroutine.deep.1000.mp.5+5</text>
<text y="187" x="878.089400243762" text-anchor="end">5.64 ms</text>
</g>
<g>
<title>5.64 ms ± 398 μs</title>
<rect y="193" rx="5" height="22" width="878.089400243762" fill="hsl(270, 100%, 80%)" stroke="hsl(270, 100%, 55%)" />
<g stroke="hsl(270, 100%, 40%)"><line x1="816.1788004875241" x2="940.0" y1="204" y2="204" />
<line x1="816.1788004875241" x2="816.1788004875241" y1="198" y2="210" />
<line x1="940.0" x2="940.0" y1="198" y2="210" />
</g>
</g>
</g>
</svg>
