<svg xmlns="http://www.w3.org/2000/svg" height="227" width="960.0" font-size="16" font-family="sans-serif" stroke-width="2">
<g transform="translate(10.0 0)">
<text fill="hsl(0, 100%, 40%)" y="22">coroutine.deep.1000.heftia.5+5 137  μs</text>
<g>
<title>137  μs ±  11 μs</title>
<rect y="28" rx="5" height="22" width="20.883715639236712" fill="hsl(0, 100%, 80%)" stroke="hsl(0, 100%, 55%)" />
<g stroke="hsl(0, 100%, 40%)"><line x1="19.284598229017533" x2="22.48283304945589" y1="39" y2="39" />
<line x1="19.284598229017533" x2="19.284598229017533" y1="33" y2="45" />
<line x1="22.48283304945589" x2="22.48283304945589" y1="33" y2="45" />
</g>
</g>
<text fill="hsl(90, 100%, 40%)" y="77">coroutine.deep.1000.freer.5+5 140  μs</text>
<g>
<title>140  μs ±  12 μs</title>
<rect y="83" rx="5" height="22" width="21.27296055450239" fill="hsl(90, 100%, 80%)" stroke="hsl(90, 100%, 55%)" />
<g stroke="hsl(90, 100%, 40%)"><line x1="19.46607230787923" x2="23.07984880112555" y1="94" y2="94" />
<line x1="19.46607230787923" x2="19.46607230787923" y1="88" y2="100" />
<line x1="23.07984880112555" x2="23.07984880112555" y1="88" y2="100" />
</g>
</g>
<g fill="hsl(180, 100%, 40%)">
<text y="132">coroutine.deep.1000.eff.5+5</text>
<text y="132" x="676.1784096319643" text-anchor="end">4.45 ms</text>
</g>
<g>
<title>4.45 ms ± 174 μs</title>
<rect y="138" rx="5" height="22" width="676.1784096319643" fill="hsl(180, 100%, 80%)" stroke="hsl(180, 100%, 55%)" />
<g stroke="hsl(180, 100%, 40%)"><line x1="649.6575975737328" x2="702.6992216901958" y1="149" y2="149" />
<line x1="649.6575975737328" x2="649.6575975737328" y1="143" y2="155" />
<line x1="702.6992216901958" x2="702.6992216901958" y1="143" y2="155" />
</g>
</g>
<g fill="hsl(270, 100%, 40%)">
<text y="187">coroutine.deep.1000.mp.5+5</text>
<text y="187" x="880.0450714300039" text-anchor="end">5.79 ms</text>
</g>
<g>
<title>5.79 ms ± 394 μs</title>
<rect y="193" rx="5" height="22" width="880.0450714300039" fill="hsl(270, 100%, 80%)" stroke="hsl(270, 100%, 55%)" />
<g stroke="hsl(270, 100%, 40%)"><line x1="820.0901428600077" x2="940.0" y1="204" y2="204" />
<line x1="820.0901428600077" x2="820.0901428600077" y1="198" y2="210" />
<line x1="940.0" x2="940.0" y1="198" y2="210" />
</g>
</g>
</g>
</svg>
