<svg xmlns="http://www.w3.org/2000/svg" height="227" width="960.0" font-size="16" font-family="sans-serif" stroke-width="2">
<g transform="translate(10.0 0)">
<text fill="hsl(0, 100%, 40%)" y="22">coroutine.deep.1000.heftia.5+5 147  μs</text>
<g>
<title>147  μs ±  12 μs</title>
<rect y="28" rx="5" height="22" width="23.989440051625685" fill="hsl(0, 100%, 80%)" stroke="hsl(0, 100%, 55%)" />
<g stroke="hsl(0, 100%, 40%)"><line x1="21.99502014553575" x2="25.98385995771562" y1="39" y2="39" />
<line x1="21.99502014553575" x2="21.99502014553575" y1="33" y2="45" />
<line x1="25.98385995771562" x2="25.98385995771562" y1="33" y2="45" />
</g>
</g>
<text fill="hsl(90, 100%, 40%)" y="77">coroutine.deep.1000.freer.5+5 136  μs</text>
<g>
<title>136  μs ±  11 μs</title>
<rect y="83" rx="5" height="22" width="22.13495605401946" fill="hsl(90, 100%, 80%)" stroke="hsl(90, 100%, 55%)" />
<g stroke="hsl(90, 100%, 40%)"><line x1="20.367585071471893" x2="23.90232703656703" y1="94" y2="94" />
<line x1="20.367585071471893" x2="20.367585071471893" y1="88" y2="100" />
<line x1="23.90232703656703" x2="23.90232703656703" y1="88" y2="100" />
</g>
</g>
<g fill="hsl(180, 100%, 40%)">
<text y="132">coroutine.deep.1000.eff.5+5</text>
<text y="132" x="712.9428488604299" text-anchor="end">4.38 ms</text>
</g>
<g>
<title>4.38 ms ± 185 μs</title>
<rect y="138" rx="5" height="22" width="712.9428488604299" fill="hsl(180, 100%, 80%)" stroke="hsl(180, 100%, 55%)" />
<g stroke="hsl(180, 100%, 40%)"><line x1="682.826527110391" x2="743.0591706104688" y1="149" y2="149" />
<line x1="682.826527110391" x2="682.826527110391" y1="143" y2="155" />
<line x1="743.0591706104688" x2="743.0591706104688" y1="143" y2="155" />
</g>
</g>
<g fill="hsl(270, 100%, 40%)">
<text y="187">coroutine.deep.1000.mp.5+5</text>
<text y="187" x="872.3551234268502" text-anchor="end">5.36 ms</text>
</g>
<g>
<title>5.36 ms ± 415 μs</title>
<rect y="193" rx="5" height="22" width="872.3551234268502" fill="hsl(270, 100%, 80%)" stroke="hsl(270, 100%, 55%)" />
<g stroke="hsl(270, 100%, 40%)"><line x1="804.7102468537005" x2="940.0" y1="204" y2="204" />
<line x1="804.7102468537005" x2="804.7102468537005" y1="198" y2="210" />
<line x1="940.0" x2="940.0" y1="198" y2="210" />
</g>
</g>
</g>
</svg>
