<svg xmlns="http://www.w3.org/2000/svg" height="227" width="960.0" font-size="16" font-family="sans-serif" stroke-width="2">
<g transform="translate(10.0 0)">
<text fill="hsl(0, 100%, 40%)" y="22">coroutine.deep.1000.heftia.5+5 173  μs</text>
<g>
<title>173  μs ±  12 μs</title>
<rect y="28" rx="5" height="22" width="25.733468187049855" fill="hsl(0, 100%, 80%)" stroke="hsl(0, 100%, 55%)" />
<g stroke="hsl(0, 100%, 40%)"><line x1="23.90625242618012" x2="27.56068394791959" y1="39" y2="39" />
<line x1="23.90625242618012" x2="23.90625242618012" y1="33" y2="45" />
<line x1="27.56068394791959" x2="27.56068394791959" y1="33" y2="45" />
</g>
</g>
<text fill="hsl(90, 100%, 40%)" y="77">coroutine.deep.1000.freer.5+5 137  μs</text>
<g>
<title>137  μs ±  13 μs</title>
<rect y="83" rx="5" height="22" width="20.391142923799116" fill="hsl(90, 100%, 80%)" stroke="hsl(90, 100%, 55%)" />
<g stroke="hsl(90, 100%, 40%)"><line x1="18.49600512512162" x2="22.28628072247661" y1="94" y2="94" />
<line x1="18.49600512512162" x2="18.49600512512162" y1="88" y2="100" />
<line x1="22.28628072247661" x2="22.28628072247661" y1="88" y2="100" />
</g>
</g>
<g fill="hsl(180, 100%, 40%)">
<text y="132">coroutine.deep.1000.eff.5+5</text>
<text y="132" x="662.4071590596892" text-anchor="end">4.45 ms</text>
</g>
<g>
<title>4.45 ms ± 371 μs</title>
<rect y="138" rx="5" height="22" width="662.4071590596892" fill="hsl(180, 100%, 80%)" stroke="hsl(180, 100%, 55%)" />
<g stroke="hsl(180, 100%, 40%)"><line x1="607.1936170193567" x2="717.6207011000217" y1="149" y2="149" />
<line x1="607.1936170193567" x2="607.1936170193567" y1="143" y2="155" />
<line x1="717.6207011000217" x2="717.6207011000217" y1="143" y2="155" />
</g>
</g>
<g fill="hsl(270, 100%, 40%)">
<text y="187">coroutine.deep.1000.mp.5+5</text>
<text y="187" x="877.5706028143189" text-anchor="end">5.89 ms</text>
</g>
<g>
<title>5.89 ms ± 419 μs</title>
<rect y="193" rx="5" height="22" width="877.5706028143189" fill="hsl(270, 100%, 80%)" stroke="hsl(270, 100%, 55%)" />
<g stroke="hsl(270, 100%, 40%)"><line x1="815.1412056286379" x2="940.0" y1="204" y2="204" />
<line x1="815.1412056286379" x2="815.1412056286379" y1="198" y2="210" />
<line x1="940.0" x2="940.0" y1="198" y2="210" />
</g>
</g>
</g>
</svg>
