<svg xmlns="http://www.w3.org/2000/svg" height="227" width="960.0" font-size="16" font-family="sans-serif" stroke-width="2">
<g transform="translate(10.0 0)">
<text fill="hsl(0, 100%, 40%)" y="22">coroutine.deep.1000.heftia.5+5 275  μs</text>
<g>
<title>275  μs ±  24 μs</title>
<rect y="28" rx="5" height="22" width="45.483035461146414" fill="hsl(0, 100%, 80%)" stroke="hsl(0, 100%, 55%)" />
<g stroke="hsl(0, 100%, 40%)"><line x1="41.4953550740202" x2="49.470715848272626" y1="39" y2="39" />
<line x1="41.4953550740202" x2="41.4953550740202" y1="33" y2="45" />
<line x1="49.470715848272626" x2="49.470715848272626" y1="33" y2="45" />
</g>
</g>
<text fill="hsl(90, 100%, 40%)" y="77">coroutine.deep.1000.freer.5+5 152  μs</text>
<g>
<title>152  μs ± 6.7 μs</title>
<rect y="83" rx="5" height="22" width="25.06133493758637" fill="hsl(90, 100%, 80%)" stroke="hsl(90, 100%, 55%)" />
<g stroke="hsl(90, 100%, 40%)"><line x1="23.953261836888643" x2="26.169408038284097" y1="94" y2="94" />
<line x1="23.953261836888643" x2="23.953261836888643" y1="88" y2="100" />
<line x1="26.169408038284097" x2="26.169408038284097" y1="88" y2="100" />
</g>
</g>
<g fill="hsl(180, 100%, 40%)">
<text y="132">coroutine.deep.1000.eff.5+5</text>
<text y="132" x="741.3345098768009" text-anchor="end">4.49 ms</text>
</g>
<g>
<title>4.49 ms ± 248 μs</title>
<rect y="138" rx="5" height="22" width="741.3345098768009" fill="hsl(180, 100%, 80%)" stroke="hsl(180, 100%, 55%)" />
<g stroke="hsl(180, 100%, 40%)"><line x1="700.3152649465515" x2="782.3537548070503" y1="149" y2="149" />
<line x1="700.3152649465515" x2="700.3152649465515" y1="143" y2="155" />
<line x1="782.3537548070503" x2="782.3537548070503" y1="143" y2="155" />
</g>
</g>
<g fill="hsl(270, 100%, 40%)">
<text y="187">coroutine.deep.1000.mp.5+5</text>
<text y="187" x="896.2689963611664" text-anchor="end">5.43 ms</text>
</g>
<g>
<title>5.43 ms ± 265 μs</title>
<rect y="193" rx="5" height="22" width="896.2689963611664" fill="hsl(270, 100%, 80%)" stroke="hsl(270, 100%, 55%)" />
<g stroke="hsl(270, 100%, 40%)"><line x1="852.5379927223328" x2="940.0" y1="204" y2="204" />
<line x1="852.5379927223328" x2="852.5379927223328" y1="198" y2="210" />
<line x1="940.0" x2="940.0" y1="198" y2="210" />
</g>
</g>
</g>
</svg>
