<svg xmlns="http://www.w3.org/2000/svg" height="227" width="960.0" font-size="16" font-family="sans-serif" stroke-width="2">
<g transform="translate(10.0 0)">
<text fill="hsl(0, 100%, 40%)" y="22">coroutine.shallow.1000.heftia 96.4 μs</text>
<g>
<title>96.4 μs ± 6.7 μs</title>
<rect y="28" rx="5" height="22" width="16.563001688880664" fill="hsl(0, 100%, 80%)" stroke="hsl(0, 100%, 55%)" />
<g stroke="hsl(0, 100%, 40%)"><line x1="15.419156111717886" x2="17.706847266043443" y1="39" y2="39" />
<line x1="15.419156111717886" x2="15.419156111717886" y1="33" y2="45" />
<line x1="17.706847266043443" x2="17.706847266043443" y1="33" y2="45" />
</g>
</g>
<text fill="hsl(90, 100%, 40%)" y="77">coroutine.shallow.1000.freer 100  μs</text>
<g>
<title>100  μs ± 9.9 μs</title>
<rect y="83" rx="5" height="22" width="17.211057715582122" fill="hsl(90, 100%, 80%)" stroke="hsl(90, 100%, 55%)" />
<g stroke="hsl(90, 100%, 40%)"><line x1="15.51919187319614" x2="18.9029235579681" y1="94" y2="94" />
<line x1="15.51919187319614" x2="15.51919187319614" y1="88" y2="100" />
<line x1="18.9029235579681" x2="18.9029235579681" y1="88" y2="100" />
</g>
</g>
<g fill="hsl(180, 100%, 40%)">
<text y="132">coroutine.shallow.1000.eff</text>
<text y="132" x="690.2090807178969" text-anchor="end">4.02 ms</text>
</g>
<g>
<title>4.02 ms ± 373 μs</title>
<rect y="138" rx="5" height="22" width="690.2090807178969" fill="hsl(180, 100%, 80%)" stroke="hsl(180, 100%, 55%)" />
<g stroke="hsl(180, 100%, 40%)"><line x1="626.2279373417944" x2="754.1902240939994" y1="149" y2="149" />
<line x1="626.2279373417944" x2="626.2279373417944" y1="143" y2="155" />
<line x1="754.1902240939994" x2="754.1902240939994" y1="143" y2="155" />
</g>
</g>
<g fill="hsl(270, 100%, 40%)">
<text y="187">coroutine.shallow.1000.mp</text>
<text y="187" x="896.2947710425047" text-anchor="end">5.22 ms</text>
</g>
<g>
<title>5.22 ms ± 254 μs</title>
<rect y="193" rx="5" height="22" width="896.2947710425047" fill="hsl(270, 100%, 80%)" stroke="hsl(270, 100%, 55%)" />
<g stroke="hsl(270, 100%, 40%)"><line x1="852.5895420850095" x2="940.0" y1="204" y2="204" />
<line x1="852.5895420850095" x2="852.5895420850095" y1="198" y2="210" />
<line x1="940.0" x2="940.0" y1="198" y2="210" />
</g>
</g>
</g>
</svg>
