<svg xmlns="http://www.w3.org/2000/svg" height="227" width="960.0" font-size="16" font-family="sans-serif" stroke-width="2">
<g transform="translate(10.0 0)">
<text fill="hsl(0, 100%, 40%)" y="22">coroutine.shallow.1000.heftia 90.7 μs</text>
<g>
<title>90.7 μs ± 7.0 μs</title>
<rect y="28" rx="5" height="22" width="15.102176716817203" fill="hsl(0, 100%, 80%)" stroke="hsl(0, 100%, 55%)" />
<g stroke="hsl(0, 100%, 40%)"><line x1="13.931669384739672" x2="16.272684048894735" y1="39" y2="39" />
<line x1="13.931669384739672" x2="13.931669384739672" y1="33" y2="45" />
<line x1="16.272684048894735" x2="16.272684048894735" y1="33" y2="45" />
</g>
</g>
<text fill="hsl(90, 100%, 40%)" y="77">coroutine.shallow.1000.freer 94.7 μs</text>
<g>
<title>94.7 μs ± 6.5 μs</title>
<rect y="83" rx="5" height="22" width="15.760583845098632" fill="hsl(90, 100%, 80%)" stroke="hsl(90, 100%, 55%)" />
<g stroke="hsl(90, 100%, 40%)"><line x1="14.6815438095354" x2="16.83962388066186" y1="94" y2="94" />
<line x1="14.6815438095354" x2="14.6815438095354" y1="88" y2="100" />
<line x1="16.83962388066186" x2="16.83962388066186" y1="88" y2="100" />
</g>
</g>
<g fill="hsl(180, 100%, 40%)">
<text y="132">coroutine.shallow.1000.eff</text>
<text y="132" x="667.4567417428359" text-anchor="end">4.01 ms</text>
</g>
<g>
<title>4.01 ms ± 178 μs</title>
<rect y="138" rx="5" height="22" width="667.4567417428359" fill="hsl(180, 100%, 80%)" stroke="hsl(180, 100%, 55%)" />
<g stroke="hsl(180, 100%, 40%)"><line x1="637.7560229132256" x2="697.1574605724462" y1="149" y2="149" />
<line x1="637.7560229132256" x2="637.7560229132256" y1="143" y2="155" />
<line x1="697.1574605724462" x2="697.1574605724462" y1="143" y2="155" />
</g>
</g>
<g fill="hsl(270, 100%, 40%)">
<text y="187">coroutine.shallow.1000.mp</text>
<text y="187" x="871.4540483007416" text-anchor="end">5.24 ms</text>
</g>
<g>
<title>5.24 ms ± 412 μs</title>
<rect y="193" rx="5" height="22" width="871.4540483007416" fill="hsl(270, 100%, 80%)" stroke="hsl(270, 100%, 55%)" />
<g stroke="hsl(270, 100%, 40%)"><line x1="802.9080966014833" x2="940.0" y1="204" y2="204" />
<line x1="802.9080966014833" x2="802.9080966014833" y1="198" y2="210" />
<line x1="940.0" x2="940.0" y1="198" y2="210" />
</g>
</g>
</g>
</svg>
