<svg xmlns="http://www.w3.org/2000/svg" height="227" width="960.0" font-size="16" font-family="sans-serif" stroke-width="2">
<g transform="translate(10.0 0)">
<text fill="hsl(0, 100%, 40%)" y="22">coroutine.deep.1000.heftia.5+5 179  μs</text>
<g>
<title>179  μs ±  15 μs</title>
<rect y="28" rx="5" height="22" width="27.059770810668656" fill="hsl(0, 100%, 80%)" stroke="hsl(0, 100%, 55%)" />
<g stroke="hsl(0, 100%, 40%)"><line x1="24.820370819328367" x2="29.299170802008945" y1="39" y2="39" />
<line x1="24.820370819328367" x2="24.820370819328367" y1="33" y2="45" />
<line x1="29.299170802008945" x2="29.299170802008945" y1="33" y2="45" />
</g>
</g>
<text fill="hsl(90, 100%, 40%)" y="77">coroutine.deep.1000.freer.5+5 142  μs</text>
<g>
<title>142  μs ±  14 μs</title>
<rect y="83" rx="5" height="22" width="21.46020552338409" fill="hsl(90, 100%, 80%)" stroke="hsl(90, 100%, 55%)" />
<g stroke="hsl(90, 100%, 40%)"><line x1="19.347302298922834" x2="23.573108747845346" y1="94" y2="94" />
<line x1="19.347302298922834" x2="19.347302298922834" y1="88" y2="100" />
<line x1="23.573108747845346" x2="23.573108747845346" y1="88" y2="100" />
</g>
</g>
<g fill="hsl(180, 100%, 40%)">
<text y="132">coroutine.deep.1000.eff.5+5</text>
<text y="132" x="687.5983160637028" text-anchor="end">4.56 ms</text>
</g>
<g>
<title>4.56 ms ± 338 μs</title>
<rect y="138" rx="5" height="22" width="687.5983160637028" fill="hsl(180, 100%, 80%)" stroke="hsl(180, 100%, 55%)" />
<g stroke="hsl(180, 100%, 40%)"><line x1="636.7092208114343" x2="738.4874113159713" y1="149" y2="149" />
<line x1="636.7092208114343" x2="636.7092208114343" y1="143" y2="155" />
<line x1="738.4874113159713" x2="738.4874113159713" y1="143" y2="155" />
</g>
</g>
<g fill="hsl(270, 100%, 40%)">
<text y="187">coroutine.deep.1000.mp.5+5</text>
<text y="187" x="913.4270506465604" text-anchor="end">6.06 ms</text>
</g>
<g>
<title>6.06 ms ± 176 μs</title>
<rect y="193" rx="5" height="22" width="913.4270506465604" fill="hsl(270, 100%, 80%)" stroke="hsl(270, 100%, 55%)" />
<g stroke="hsl(270, 100%, 40%)"><line x1="886.8541012931207" x2="940.0" y1="204" y2="204" />
<line x1="886.8541012931207" x2="886.8541012931207" y1="198" y2="210" />
<line x1="940.0" x2="940.0" y1="198" y2="210" />
</g>
</g>
</g>
</svg>
