<svg xmlns="http://www.w3.org/2000/svg" height="227" width="960.0" font-size="16" font-family="sans-serif" stroke-width="2">
<g transform="translate(10.0 0)">
<text fill="hsl(0, 100%, 40%)" y="22">coroutine.shallow.1000.heftia 162  μs</text>
<g>
<title>162  μs ±  11 μs</title>
<rect y="28" rx="5" height="22" width="26.85959099744177" fill="hsl(0, 100%, 80%)" stroke="hsl(0, 100%, 55%)" />
<g stroke="hsl(0, 100%, 40%)"><line x1="24.994962544049418" x2="28.724219450834124" y1="39" y2="39" />
<line x1="24.994962544049418" x2="24.994962544049418" y1="33" y2="45" />
<line x1="28.724219450834124" x2="28.724219450834124" y1="33" y2="45" />
</g>
</g>
<text fill="hsl(90, 100%, 40%)" y="77">coroutine.shallow.1000.freer 103  μs</text>
<g>
<title>103  μs ± 5.3 μs</title>
<rect y="83" rx="5" height="22" width="17.09592296814668" fill="hsl(90, 100%, 80%)" stroke="hsl(90, 100%, 55%)" />
<g stroke="hsl(90, 100%, 40%)"><line x1="16.220355587405077" x2="17.971490348888285" y1="94" y2="94" />
<line x1="16.220355587405077" x2="16.220355587405077" y1="88" y2="100" />
<line x1="17.971490348888285" x2="17.971490348888285" y1="88" y2="100" />
</g>
</g>
<g fill="hsl(180, 100%, 40%)">
<text y="132">coroutine.shallow.1000.eff</text>
<text y="132" x="638.289175525425" text-anchor="end">3.86 ms</text>
</g>
<g>
<title>3.86 ms ± 223 μs</title>
<rect y="138" rx="5" height="22" width="638.289175525425" fill="hsl(180, 100%, 80%)" stroke="hsl(180, 100%, 55%)" />
<g stroke="hsl(180, 100%, 40%)"><line x1="601.3532362645241" x2="675.2251147863259" y1="149" y2="149" />
<line x1="601.3532362645241" x2="601.3532362645241" y1="143" y2="155" />
<line x1="675.2251147863259" x2="675.2251147863259" y1="143" y2="155" />
</g>
</g>
<g fill="hsl(270, 100%, 40%)">
<text y="187">coroutine.shallow.1000.mp</text>
<text y="187" x="881.7336971541316" text-anchor="end">5.33 ms</text>
</g>
<g>
<title>5.33 ms ± 352 μs</title>
<rect y="193" rx="5" height="22" width="881.7336971541316" fill="hsl(270, 100%, 80%)" stroke="hsl(270, 100%, 55%)" />
<g stroke="hsl(270, 100%, 40%)"><line x1="823.4673943082632" x2="940.0" y1="204" y2="204" />
<line x1="823.4673943082632" x2="823.4673943082632" y1="198" y2="210" />
<line x1="940.0" x2="940.0" y1="198" y2="210" />
</g>
</g>
</g>
</svg>
