<svg xmlns="http://www.w3.org/2000/svg" height="227" width="960.0" font-size="16" font-family="sans-serif" stroke-width="2">
<g transform="translate(10.0 0)">
<text fill="hsl(0, 100%, 40%)" y="22">coroutine.shallow.1000.heftia 94.2 μs</text>
<g>
<title>94.2 μs ± 8.6 μs</title>
<rect y="28" rx="5" height="22" width="16.12434303244082" fill="hsl(0, 100%, 80%)" stroke="hsl(0, 100%, 55%)" />
<g stroke="hsl(0, 100%, 40%)"><line x1="14.645306697072838" x2="17.6033793678088" y1="39" y2="39" />
<line x1="14.645306697072838" x2="14.645306697072838" y1="33" y2="45" />
<line x1="17.6033793678088" x2="17.6033793678088" y1="33" y2="45" />
</g>
</g>
<text fill="hsl(90, 100%, 40%)" y="77">coroutine.shallow.1000.freer 92.7 μs</text>
<g>
<title>92.7 μs ± 6.9 μs</title>
<rect y="83" rx="5" height="22" width="15.875583978970168" fill="hsl(90, 100%, 80%)" stroke="hsl(90, 100%, 55%)" />
<g stroke="hsl(90, 100%, 40%)"><line x1="14.700063169731537" x2="17.0511047882088" y1="94" y2="94" />
<line x1="14.700063169731537" x2="14.700063169731537" y1="88" y2="100" />
<line x1="17.0511047882088" x2="17.0511047882088" y1="88" y2="100" />
</g>
</g>
<g fill="hsl(180, 100%, 40%)">
<text y="132">coroutine.shallow.1000.eff</text>
<text y="132" x="678.9474387675788" text-anchor="end">3.96 ms</text>
</g>
<g>
<title>3.96 ms ± 246 μs</title>
<rect y="138" rx="5" height="22" width="678.9474387675788" fill="hsl(180, 100%, 80%)" stroke="hsl(180, 100%, 55%)" />
<g stroke="hsl(180, 100%, 40%)"><line x1="636.8245932146162" x2="721.0702843205413" y1="149" y2="149" />
<line x1="636.8245932146162" x2="636.8245932146162" y1="143" y2="155" />
<line x1="721.0702843205413" x2="721.0702843205413" y1="143" y2="155" />
</g>
</g>
<g fill="hsl(270, 100%, 40%)">
<text y="187">coroutine.shallow.1000.mp</text>
<text y="187" x="910.7827281677505" text-anchor="end">5.32 ms</text>
</g>
<g>
<title>5.32 ms ± 171 μs</title>
<rect y="193" rx="5" height="22" width="910.7827281677505" fill="hsl(270, 100%, 80%)" stroke="hsl(270, 100%, 55%)" />
<g stroke="hsl(270, 100%, 40%)"><line x1="881.565456335501" x2="940.0" y1="204" y2="204" />
<line x1="881.565456335501" x2="881.565456335501" y1="198" y2="210" />
<line x1="940.0" x2="940.0" y1="198" y2="210" />
</g>
</g>
</g>
</svg>
