<svg xmlns="http://www.w3.org/2000/svg" height="227" width="960.0" font-size="16" font-family="sans-serif" stroke-width="2">
<g transform="translate(10.0 0)">
<text fill="hsl(0, 100%, 40%)" y="22">coroutine.deep.1000.heftia.5+5 183  μs</text>
<g>
<title>183  μs ±  12 μs</title>
<rect y="28" rx="5" height="22" width="26.2330932946667" fill="hsl(0, 100%, 80%)" stroke="hsl(0, 100%, 55%)" />
<g stroke="hsl(0, 100%, 40%)"><line x1="24.453842994441032" x2="28.012343594892364" y1="39" y2="39" />
<line x1="24.453842994441032" x2="24.453842994441032" y1="33" y2="45" />
<line x1="28.012343594892364" x2="28.012343594892364" y1="33" y2="45" />
</g>
</g>
<text fill="hsl(90, 100%, 40%)" y="77">coroutine.deep.1000.freer.5+5 140  μs</text>
<g>
<title>140  μs ± 6.9 μs</title>
<rect y="83" rx="5" height="22" width="19.978167583218394" fill="hsl(90, 100%, 80%)" stroke="hsl(90, 100%, 55%)" />
<g stroke="hsl(90, 100%, 40%)"><line x1="18.9910434053372" x2="20.965291761099586" y1="94" y2="94" />
<line x1="18.9910434053372" x2="18.9910434053372" y1="88" y2="100" />
<line x1="20.965291761099586" x2="20.965291761099586" y1="88" y2="100" />
</g>
</g>
<g fill="hsl(180, 100%, 40%)">
<text y="132">coroutine.deep.1000.eff.5+5</text>
<text y="132" x="660.0479231005745" text-anchor="end">4.61 ms</text>
</g>
<g>
<title>4.61 ms ± 281 μs</title>
<rect y="138" rx="5" height="22" width="660.0479231005745" fill="hsl(180, 100%, 80%)" stroke="hsl(180, 100%, 55%)" />
<g stroke="hsl(180, 100%, 40%)"><line x1="619.8489865984694" x2="700.2468596026796" y1="149" y2="149" />
<line x1="619.8489865984694" x2="619.8489865984694" y1="143" y2="155" />
<line x1="700.2468596026796" x2="700.2468596026796" y1="143" y2="155" />
</g>
</g>
<g fill="hsl(270, 100%, 40%)">
<text y="187">coroutine.deep.1000.mp.5+5</text>
<text y="187" x="872.4661695830468" text-anchor="end">6.10 ms</text>
</g>
<g>
<title>6.10 ms ± 472 μs</title>
<rect y="193" rx="5" height="22" width="872.4661695830468" fill="hsl(270, 100%, 80%)" stroke="hsl(270, 100%, 55%)" />
<g stroke="hsl(270, 100%, 40%)"><line x1="804.9323391660937" x2="940.0" y1="204" y2="204" />
<line x1="804.9323391660937" x2="804.9323391660937" y1="198" y2="210" />
<line x1="940.0" x2="940.0" y1="198" y2="210" />
</g>
</g>
</g>
</svg>
