<svg xmlns="http://www.w3.org/2000/svg" height="227" width="960.0" font-size="16" font-family="sans-serif" stroke-width="2">
<g transform="translate(10.0 0)">
<text fill="hsl(0, 100%, 40%)" y="22">coroutine.shallow.1000.heftia 92.0 μs</text>
<g>
<title>92.0 μs ± 7.1 μs</title>
<rect y="28" rx="5" height="22" width="14.68731527058161" fill="hsl(0, 100%, 80%)" stroke="hsl(0, 100%, 55%)" />
<g stroke="hsl(0, 100%, 40%)"><line x1="13.556509834688738" x2="15.818120706474483" y1="39" y2="39" />
<line x1="13.556509834688738" x2="13.556509834688738" y1="33" y2="45" />
<line x1="15.818120706474483" x2="15.818120706474483" y1="33" y2="45" />
</g>
</g>
<text fill="hsl(90, 100%, 40%)" y="77">coroutine.shallow.1000.freer 102  μs</text>
<g>
<title>102  μs ± 8.4 μs</title>
<rect y="83" rx="5" height="22" width="16.26205722562158" fill="hsl(90, 100%, 80%)" stroke="hsl(90, 100%, 55%)" />
<g stroke="hsl(90, 100%, 40%)"><line x1="14.927577134278726" x2="17.59653731696443" y1="94" y2="94" />
<line x1="14.927577134278726" x2="14.927577134278726" y1="88" y2="100" />
<line x1="17.59653731696443" x2="17.59653731696443" y1="88" y2="100" />
</g>
</g>
<g fill="hsl(180, 100%, 40%)">
<text y="132">coroutine.shallow.1000.eff</text>
<text y="132" x="639.3249142583591" text-anchor="end">4.01 ms</text>
</g>
<g>
<title>4.01 ms ± 353 μs</title>
<rect y="138" rx="5" height="22" width="639.3249142583591" fill="hsl(180, 100%, 80%)" stroke="hsl(180, 100%, 55%)" />
<g stroke="hsl(180, 100%, 40%)"><line x1="583.0421255362884" x2="695.6077029804297" y1="149" y2="149" />
<line x1="583.0421255362884" x2="583.0421255362884" y1="143" y2="155" />
<line x1="695.6077029804297" x2="695.6077029804297" y1="143" y2="155" />
</g>
</g>
<g fill="hsl(270, 100%, 40%)">
<text y="187">coroutine.shallow.1000.mp</text>
<text y="187" x="885.1561946023138" text-anchor="end">5.55 ms</text>
</g>
<g>
<title>5.55 ms ± 344 μs</title>
<rect y="193" rx="5" height="22" width="885.1561946023138" fill="hsl(270, 100%, 80%)" stroke="hsl(270, 100%, 55%)" />
<g stroke="hsl(270, 100%, 40%)"><line x1="830.3123892046276" x2="940.0" y1="204" y2="204" />
<line x1="830.3123892046276" x2="830.3123892046276" y1="198" y2="210" />
<line x1="940.0" x2="940.0" y1="198" y2="210" />
</g>
</g>
</g>
</svg>
