<svg xmlns="http://www.w3.org/2000/svg" height="227" width="960.0" font-size="16" font-family="sans-serif" stroke-width="2">
<g transform="translate(10.0 0)">
<text fill="hsl(0, 100%, 40%)" y="22">coroutine.deep.1000.heftia.5+5 171  μs</text>
<g>
<title>171  μs ± 6.5 μs</title>
<rect y="28" rx="5" height="22" width="25.26166836564325" fill="hsl(0, 100%, 80%)" stroke="hsl(0, 100%, 55%)" />
<g stroke="hsl(0, 100%, 40%)"><line x1="24.300571426471837" x2="26.22276530481466" y1="39" y2="39" />
<line x1="24.300571426471837" x2="24.300571426471837" y1="33" y2="45" />
<line x1="26.22276530481466" x2="26.22276530481466" y1="33" y2="45" />
</g>
</g>
<text fill="hsl(90, 100%, 40%)" y="77">coroutine.deep.1000.freer.5+5 138  μs</text>
<g>
<title>138  μs ±  13 μs</title>
<rect y="83" rx="5" height="22" width="20.360943955944393" fill="hsl(90, 100%, 80%)" stroke="hsl(90, 100%, 55%)" />
<g stroke="hsl(90, 100%, 40%)"><line x1="18.42548856140955" x2="22.296399350479234" y1="94" y2="94" />
<line x1="18.42548856140955" x2="18.42548856140955" y1="88" y2="100" />
<line x1="22.296399350479234" x2="22.296399350479234" y1="88" y2="100" />
</g>
</g>
<g fill="hsl(180, 100%, 40%)">
<text y="132">coroutine.deep.1000.eff.5+5</text>
<text y="132" x="656.7330615623833" text-anchor="end">4.44 ms</text>
</g>
<g>
<title>4.44 ms ± 185 μs</title>
<rect y="138" rx="5" height="22" width="656.7330615623833" fill="hsl(180, 100%, 80%)" stroke="hsl(180, 100%, 55%)" />
<g stroke="hsl(180, 100%, 40%)"><line x1="629.393331536815" x2="684.0727915879517" y1="149" y2="149" />
<line x1="629.393331536815" x2="629.393331536815" y1="143" y2="155" />
<line x1="684.0727915879517" x2="684.0727915879517" y1="143" y2="155" />
</g>
</g>
<g fill="hsl(270, 100%, 40%)">
<text y="187">coroutine.deep.1000.mp.5+5</text>
<text y="187" x="863.3867731613489" text-anchor="end">5.84 ms</text>
</g>
<g>
<title>5.84 ms ± 518 μs</title>
<rect y="193" rx="5" height="22" width="863.3867731613489" fill="hsl(270, 100%, 80%)" stroke="hsl(270, 100%, 55%)" />
<g stroke="hsl(270, 100%, 40%)"><line x1="786.7735463226977" x2="940.0" y1="204" y2="204" />
<line x1="786.7735463226977" x2="786.7735463226977" y1="198" y2="210" />
<line x1="940.0" x2="940.0" y1="198" y2="210" />
</g>
</g>
</g>
</svg>
