<svg xmlns="http://www.w3.org/2000/svg" height="447" width="960.0" font-size="16" font-family="sans-serif" stroke-width="2">
<g transform="translate(10.0 0)">
<text fill="hsl(0, 100%, 40%)" y="22">countdown.shallow.10000.heftia 471  μs</text>
<g>
<title>471  μs ±  22 μs</title>
<rect y="28" rx="5" height="22" width="145.70263629718897" fill="hsl(0, 100%, 80%)" stroke="hsl(0, 100%, 55%)" />
<g stroke="hsl(0, 100%, 40%)"><line x1="138.80876990022614" x2="152.5965026941518" y1="39" y2="39" />
<line x1="138.80876990022614" x2="138.80876990022614" y1="33" y2="45" />
<line x1="152.5965026941518" x2="152.5965026941518" y1="33" y2="45" />
</g>
</g>
<text fill="hsl(45, 100%, 40%)" y="77">countdown.shallow.10000.freer 463  μs</text>
<g>
<title>463  μs ±  44 μs</title>
<rect y="83" rx="5" height="22" width="143.34899770259548" fill="hsl(45, 100%, 80%)" stroke="hsl(45, 100%, 55%)" />
<g stroke="hsl(45, 100%, 40%)"><line x1="129.7792055425337" x2="156.91878986265726" y1="94" y2="94" />
<line x1="129.7792055425337" x2="129.7792055425337" y1="88" y2="100" />
<line x1="156.91878986265726" x2="156.91878986265726" y1="88" y2="100" />
</g>
</g>
<g fill="hsl(90, 100%, 40%)">
<text y="132">countdown.shallow.10000.polyemy</text>
<text y="132" x="876.7995803341515" text-anchor="end">2.83 ms</text>
</g>
<g>
<title>2.83 ms ± 204 μs</title>
<rect y="138" rx="5" height="22" width="876.7995803341515" fill="hsl(90, 100%, 80%)" stroke="hsl(90, 100%, 55%)" />
<g stroke="hsl(90, 100%, 40%)"><line x1="813.599160668303" x2="940.0" y1="149" y2="149" />
<line x1="813.599160668303" x2="813.599160668303" y1="143" y2="155" />
<line x1="940.0" x2="940.0" y1="143" y2="155" />
</g>
</g>
<g fill="hsl(135, 100%, 40%)">
<text y="187">countdown.shallow.10000.fused</text>
<text y="187" x="706.0319481799627" text-anchor="end">2.28 ms</text>
</g>
<g>
<title>2.28 ms ± 201 μs</title>
<rect y="193" rx="5" height="22" width="706.0319481799627" fill="hsl(135, 100%, 80%)" stroke="hsl(135, 100%, 55%)" />
<g stroke="hsl(135, 100%, 40%)"><line x1="643.8332192448466" x2="768.2306771150787" y1="204" y2="204" />
<line x1="643.8332192448466" x2="643.8332192448466" y1="198" y2="210" />
<line x1="768.2306771150787" x2="768.2306771150787" y1="198" y2="210" />
</g>
</g>
<text fill="hsl(180, 100%, 40%)" y="242">countdown.shallow.10000.effectful 260  μs</text>
<g>
<title>260  μs ±  11 μs</title>
<rect y="248" rx="5" height="22" width="80.44727114806076" fill="hsl(180, 100%, 80%)" stroke="hsl(180, 100%, 55%)" />
<g stroke="hsl(180, 100%, 40%)"><line x1="76.9627362488617" x2="83.93180604725983" y1="259" y2="259" />
<line x1="76.9627362488617" x2="76.9627362488617" y1="253" y2="265" />
<line x1="83.93180604725983" x2="83.93180604725983" y1="253" y2="265" />
</g>
</g>
<text fill="hsl(225, 100%, 40%)" y="297">countdown.shallow.10000.eff 614  μs</text>
<g>
<title>614  μs ±  44 μs</title>
<rect y="303" rx="5" height="22" width="189.9889881062981" fill="hsl(225, 100%, 80%)" stroke="hsl(225, 100%, 55%)" />
<g stroke="hsl(225, 100%, 40%)"><line x1="176.5180867162884" x2="203.45988949630782" y1="314" y2="314" />
<line x1="176.5180867162884" x2="176.5180867162884" y1="308" y2="320" />
<line x1="203.45988949630782" x2="203.45988949630782" y1="308" y2="320" />
</g>
</g>
<text fill="hsl(270, 100%, 40%)" y="352">countdown.shallow.10000.ev 295  μs</text>
<g>
<title>295  μs ±  28 μs</title>
<rect y="358" rx="5" height="22" width="91.24916016662544" fill="hsl(270, 100%, 80%)" stroke="hsl(270, 100%, 55%)" />
<g stroke="hsl(270, 100%, 40%)"><line x1="82.65925613272472" x2="99.83906420052617" y1="369" y2="369" />
<line x1="82.65925613272472" x2="82.65925613272472" y1="363" y2="375" />
<line x1="99.83906420052617" x2="99.83906420052617" y1="363" y2="375" />
</g>
</g>
<g fill="hsl(315, 100%, 40%)">
<text y="407">countdown.shallow.10000.mtl</text>
<text y="407" x="290.82492618074514" text-anchor="end">939  μs</text>
</g>
<g>
<title>939  μs ±  93 μs</title>
<rect y="413" rx="5" height="22" width="290.82492618074514" fill="hsl(315, 100%, 80%)" stroke="hsl(315, 100%, 55%)" />
<g stroke="hsl(315, 100%, 40%)"><line x1="261.9222936275542" x2="319.72755873393606" y1="424" y2="424" />
<line x1="261.9222936275542" x2="261.9222936275542" y1="418" y2="430" />
<line x1="319.72755873393606" x2="319.72755873393606" y1="418" y2="430" />
</g>
</g>
</g>
</svg>
