<svg xmlns="http://www.w3.org/2000/svg" height="392" width="960.0" font-size="16" font-family="sans-serif" stroke-width="2">
<g transform="translate(10.0 0)">
<text fill="hsl(0, 100%, 40%)" y="22">countdown.shallow.10000.heftia 475  μs</text>
<g>
<title>475  μs ±  42 μs</title>
<rect y="28" rx="5" height="22" width="142.36175469746772" fill="hsl(0, 100%, 80%)" stroke="hsl(0, 100%, 55%)" />
<g stroke="hsl(0, 100%, 40%)"><line x1="129.66271965014784" x2="155.0607897447876" y1="39" y2="39" />
<line x1="129.66271965014784" x2="129.66271965014784" y1="33" y2="45" />
<line x1="155.0607897447876" x2="155.0607897447876" y1="33" y2="45" />
</g>
</g>
<text fill="hsl(51, 100%, 40%)" y="77">countdown.shallow.10000.freer 490  μs</text>
<g>
<title>490  μs ±  43 μs</title>
<rect y="83" rx="5" height="22" width="146.76817790954237" fill="hsl(51, 100%, 80%)" stroke="hsl(51, 100%, 55%)" />
<g stroke="hsl(51, 100%, 40%)"><line x1="133.78975511606276" x2="159.74660070302198" y1="94" y2="94" />
<line x1="133.78975511606276" x2="133.78975511606276" y1="88" y2="100" />
<line x1="159.74660070302198" x2="159.74660070302198" y1="88" y2="100" />
</g>
</g>
<g fill="hsl(102, 100%, 40%)">
<text y="132">countdown.shallow.10000.polyemy</text>
<text y="132" x="884.0179932901574" text-anchor="end">2.95 ms</text>
</g>
<g>
<title>2.95 ms ± 187 μs</title>
<rect y="138" rx="5" height="22" width="884.0179932901574" fill="hsl(102, 100%, 80%)" stroke="hsl(102, 100%, 55%)" />
<g stroke="hsl(102, 100%, 40%)"><line x1="828.0359865803148" x2="940.0" y1="149" y2="149" />
<line x1="828.0359865803148" x2="828.0359865803148" y1="143" y2="155" />
<line x1="940.0" x2="940.0" y1="143" y2="155" />
</g>
</g>
<g fill="hsl(154, 100%, 40%)">
<text y="187">countdown.shallow.10000.fused</text>
<text y="187" x="672.3691373741965" text-anchor="end">2.24 ms</text>
</g>
<g>
<title>2.24 ms ± 199 μs</title>
<rect y="193" rx="5" height="22" width="672.3691373741965" fill="hsl(154, 100%, 80%)" stroke="hsl(154, 100%, 55%)" />
<g stroke="hsl(154, 100%, 40%)"><line x1="612.819417244787" x2="731.918857503606" y1="204" y2="204" />
<line x1="612.819417244787" x2="612.819417244787" y1="198" y2="210" />
<line x1="731.918857503606" x2="731.918857503606" y1="198" y2="210" />
</g>
</g>
<text fill="hsl(205, 100%, 40%)" y="242">countdown.shallow.10000.effectful 261  μs</text>
<g>
<title>261  μs ±  18 μs</title>
<rect y="248" rx="5" height="22" width="78.13619080054231" fill="hsl(205, 100%, 80%)" stroke="hsl(205, 100%, 55%)" />
<g stroke="hsl(205, 100%, 40%)"><line x1="72.86672699747697" x2="83.40565460360764" y1="259" y2="259" />
<line x1="72.86672699747697" x2="72.86672699747697" y1="253" y2="265" />
<line x1="83.40565460360764" x2="83.40565460360764" y1="253" y2="265" />
</g>
</g>
<text fill="hsl(257, 100%, 40%)" y="297">countdown.shallow.10000.eff 527  μs</text>
<g>
<title>527  μs ±  31 μs</title>
<rect y="303" rx="5" height="22" width="158.0341596867475" fill="hsl(257, 100%, 80%)" stroke="hsl(257, 100%, 55%)" />
<g stroke="hsl(257, 100%, 40%)"><line x1="148.8013319128925" x2="167.2669874606025" y1="314" y2="314" />
<line x1="148.8013319128925" x2="148.8013319128925" y1="308" y2="320" />
<line x1="167.2669874606025" x2="167.2669874606025" y1="308" y2="320" />
</g>
</g>
<text fill="hsl(308, 100%, 40%)" y="352">countdown.shallow.10000.mtl 905  μs</text>
<g>
<title>905  μs ±  57 μs</title>
<rect y="358" rx="5" height="22" width="271.3431463316563" fill="hsl(308, 100%, 80%)" stroke="hsl(308, 100%, 55%)" />
<g stroke="hsl(308, 100%, 40%)"><line x1="254.13529958468638" x2="288.5509930786263" y1="369" y2="369" />
<line x1="254.13529958468638" x2="254.13529958468638" y1="363" y2="375" />
<line x1="288.5509930786263" x2="288.5509930786263" y1="363" y2="375" />
</g>
</g>
</g>
</svg>
