<svg xmlns="http://www.w3.org/2000/svg" height="447" width="960.0" font-size="16" font-family="sans-serif" stroke-width="2">
<g transform="translate(10.0 0)">
<text fill="hsl(0, 100%, 40%)" y="22">countdown.deep.10000.heftia.5+5 3.18 ms</text>
<g>
<title>3.18 ms ± 263 μs</title>
<rect y="28" rx="5" height="22" width="184.01391363136446" fill="hsl(0, 100%, 80%)" stroke="hsl(0, 100%, 55%)" />
<g stroke="hsl(0, 100%, 40%)"><line x1="168.81732302435938" x2="199.21050423836954" y1="39" y2="39" />
<line x1="168.81732302435938" x2="168.81732302435938" y1="33" y2="45" />
<line x1="199.21050423836954" x2="199.21050423836954" y1="33" y2="45" />
</g>
</g>
<text fill="hsl(45, 100%, 40%)" y="77">countdown.deep.10000.freer.5+5 1.41 ms</text>
<g>
<title>1.41 ms ±  90 μs</title>
<rect y="83" rx="5" height="22" width="81.48017530774852" fill="hsl(45, 100%, 80%)" stroke="hsl(45, 100%, 55%)" />
<g stroke="hsl(45, 100%, 40%)"><line x1="76.26248460370415" x2="86.6978660117929" y1="94" y2="94" />
<line x1="76.26248460370415" x2="76.26248460370415" y1="88" y2="100" />
<line x1="86.6978660117929" x2="86.6978660117929" y1="88" y2="100" />
</g>
</g>
<text fill="hsl(90, 100%, 40%)" y="132">countdown.deep.10000.polysemy.5+5 4.35 ms</text>
<g>
<title>4.35 ms ± 428 μs</title>
<rect y="138" rx="5" height="22" width="251.9372349383451" fill="hsl(90, 100%, 80%)" stroke="hsl(90, 100%, 55%)" />
<g stroke="hsl(90, 100%, 40%)"><line x1="227.15785227226883" x2="276.7166176044214" y1="149" y2="149" />
<line x1="227.15785227226883" x2="227.15785227226883" y1="143" y2="155" />
<line x1="276.7166176044214" x2="276.7166176044214" y1="143" y2="155" />
</g>
</g>
<g fill="hsl(135, 100%, 40%)">
<text y="187">countdown.deep.10000.fused.5+5</text>
<text y="187" x="904.3611423834332" text-anchor="end">15.6 ms</text>
</g>
<g>
<title>15.6 ms ± 616 μs</title>
<rect y="193" rx="5" height="22" width="904.3611423834332" fill="hsl(135, 100%, 80%)" stroke="hsl(135, 100%, 55%)" />
<g stroke="hsl(135, 100%, 40%)"><line x1="868.7222847668663" x2="940.0" y1="204" y2="204" />
<line x1="868.7222847668663" x2="868.7222847668663" y1="198" y2="210" />
<line x1="940.0" x2="940.0" y1="198" y2="210" />
</g>
</g>
<text fill="hsl(180, 100%, 40%)" y="242">countdown.deep.10000.effectful.5+5 260  μs</text>
<g>
<title>260  μs ±  18 μs</title>
<rect y="248" rx="5" height="22" width="15.0536201303142" fill="hsl(180, 100%, 80%)" stroke="hsl(180, 100%, 55%)" />
<g stroke="hsl(180, 100%, 40%)"><line x1="14.019889198673736" x2="16.087351061954664" y1="259" y2="259" />
<line x1="14.019889198673736" x2="14.019889198673736" y1="253" y2="265" />
<line x1="16.087351061954664" x2="16.087351061954664" y1="253" y2="265" />
</g>
</g>
<text fill="hsl(225, 100%, 40%)" y="297">countdown.deep.10000.eff.5+5 536  μs</text>
<g>
<title>536  μs ±  33 μs</title>
<rect y="303" rx="5" height="22" width="31.027832677944286" fill="hsl(225, 100%, 80%)" stroke="hsl(225, 100%, 55%)" />
<g stroke="hsl(225, 100%, 40%)"><line x1="29.129003305834008" x2="32.92666205005457" y1="314" y2="314" />
<line x1="29.129003305834008" x2="29.129003305834008" y1="308" y2="320" />
<line x1="32.92666205005457" x2="32.92666205005457" y1="308" y2="320" />
</g>
</g>
<text fill="hsl(270, 100%, 40%)" y="352">countdown.deep.10000.ev.5+5 302  μs</text>
<g>
<title>302  μs ±  23 μs</title>
<rect y="358" rx="5" height="22" width="17.462461781242627" fill="hsl(270, 100%, 80%)" stroke="hsl(270, 100%, 55%)" />
<g stroke="hsl(270, 100%, 40%)"><line x1="16.133260934313533" x2="18.79166262817172" y1="369" y2="369" />
<line x1="16.133260934313533" x2="16.133260934313533" y1="363" y2="375" />
<line x1="18.79166262817172" x2="18.79166262817172" y1="363" y2="375" />
</g>
</g>
<g fill="hsl(315, 100%, 40%)">
<text y="407">countdown.deep.10000.mtl.5+5</text>
<text y="407" x="557.5929916124198" text-anchor="end">9.64 ms</text>
</g>
<g>
<title>9.64 ms ± 847 μs</title>
<rect y="413" rx="5" height="22" width="557.5929916124198" fill="hsl(315, 100%, 80%)" stroke="hsl(315, 100%, 55%)" />
<g stroke="hsl(315, 100%, 40%)"><line x1="508.5573239570434" x2="606.6286592677963" y1="424" y2="424" />
<line x1="508.5573239570434" x2="508.5573239570434" y1="418" y2="430" />
<line x1="606.6286592677963" x2="606.6286592677963" y1="418" y2="430" />
</g>
</g>
</g>
</svg>
