<svg xmlns="http://www.w3.org/2000/svg" height="447" width="960.0" font-size="16" font-family="sans-serif" stroke-width="2">
<g transform="translate(10.0 0)">
<text fill="hsl(0, 100%, 40%)" y="22">countdown.deep.10000.heftia.5+5 2.31 ms</text>
<g>
<title>2.31 ms ± 186 μs</title>
<rect y="28" rx="5" height="22" width="123.9510202386163" fill="hsl(0, 100%, 80%)" stroke="hsl(0, 100%, 55%)" />
<g stroke="hsl(0, 100%, 40%)"><line x1="113.93703501517709" x2="133.9650054620555" y1="39" y2="39" />
<line x1="113.93703501517709" x2="113.93703501517709" y1="33" y2="45" />
<line x1="133.9650054620555" x2="133.9650054620555" y1="33" y2="45" />
</g>
</g>
<text fill="hsl(45, 100%, 40%)" y="77">countdown.deep.10000.freer.5+5 1.36 ms</text>
<g>
<title>1.36 ms ±  93 μs</title>
<rect y="83" rx="5" height="22" width="72.9665136147277" fill="hsl(45, 100%, 80%)" stroke="hsl(45, 100%, 55%)" />
<g stroke="hsl(45, 100%, 40%)"><line x1="67.94821109063923" x2="77.98481613881617" y1="94" y2="94" />
<line x1="67.94821109063923" x2="67.94821109063923" y1="88" y2="100" />
<line x1="77.98481613881617" x2="77.98481613881617" y1="88" y2="100" />
</g>
</g>
<text fill="hsl(90, 100%, 40%)" y="132">countdown.deep.10000.polysemy.5+5 4.60 ms</text>
<g>
<title>4.60 ms ± 280 μs</title>
<rect y="138" rx="5" height="22" width="247.28150877069166" fill="hsl(90, 100%, 80%)" stroke="hsl(90, 100%, 55%)" />
<g stroke="hsl(90, 100%, 40%)"><line x1="232.25148180178093" x2="262.3115357396024" y1="149" y2="149" />
<line x1="232.25148180178093" x2="232.25148180178093" y1="143" y2="155" />
<line x1="262.3115357396024" x2="262.3115357396024" y1="143" y2="155" />
</g>
</g>
<g fill="hsl(135, 100%, 40%)">
<text y="187">countdown.deep.10000.fused.5+5</text>
<text y="187" x="891.7134129884638" text-anchor="end">16.6 ms</text>
</g>
<g>
<title>16.6 ms ± 898 μs</title>
<rect y="193" rx="5" height="22" width="891.7134129884638" fill="hsl(135, 100%, 80%)" stroke="hsl(135, 100%, 55%)" />
<g stroke="hsl(135, 100%, 40%)"><line x1="843.4268259769276" x2="940.0" y1="204" y2="204" />
<line x1="843.4268259769276" x2="843.4268259769276" y1="198" y2="210" />
<line x1="940.0" x2="940.0" y1="198" y2="210" />
</g>
</g>
<text fill="hsl(180, 100%, 40%)" y="242">countdown.deep.10000.effectful.5+5 263  μs</text>
<g>
<title>263  μs ±  26 μs</title>
<rect y="248" rx="5" height="22" width="14.10868874093981" fill="hsl(180, 100%, 80%)" stroke="hsl(180, 100%, 55%)" />
<g stroke="hsl(180, 100%, 40%)"><line x1="12.719637251145874" x2="15.497740230733745" y1="259" y2="259" />
<line x1="12.719637251145874" x2="12.719637251145874" y1="253" y2="265" />
<line x1="15.497740230733745" x2="15.497740230733745" y1="253" y2="265" />
</g>
</g>
<text fill="hsl(225, 100%, 40%)" y="297">countdown.deep.10000.eff.5+5 630  μs</text>
<g>
<title>630  μs ±  22 μs</title>
<rect y="303" rx="5" height="22" width="33.83468363542557" fill="hsl(225, 100%, 80%)" stroke="hsl(225, 100%, 55%)" />
<g stroke="hsl(225, 100%, 40%)"><line x1="32.62706734184985" x2="35.04229992900129" y1="314" y2="314" />
<line x1="32.62706734184985" x2="32.62706734184985" y1="308" y2="320" />
<line x1="35.04229992900129" x2="35.04229992900129" y1="308" y2="320" />
</g>
</g>
<text fill="hsl(270, 100%, 40%)" y="352">countdown.deep.10000.ev.5+5 345  μs</text>
<g>
<title>345  μs ±  14 μs</title>
<rect y="358" rx="5" height="22" width="18.558441451082057" fill="hsl(270, 100%, 80%)" stroke="hsl(270, 100%, 55%)" />
<g stroke="hsl(270, 100%, 40%)"><line x1="17.812464370489216" x2="19.304418531674898" y1="369" y2="369" />
<line x1="17.812464370489216" x2="17.812464370489216" y1="363" y2="375" />
<line x1="19.304418531674898" x2="19.304418531674898" y1="363" y2="375" />
</g>
</g>
<g fill="hsl(315, 100%, 40%)">
<text y="407">countdown.deep.10000.mtl.5+5</text>
<text y="407" x="556.0047847870227" text-anchor="end">10.3 ms</text>
</g>
<g>
<title>10.3 ms ± 724 μs</title>
<rect y="413" rx="5" height="22" width="556.0047847870227" fill="hsl(315, 100%, 80%)" stroke="hsl(315, 100%, 55%)" />
<g stroke="hsl(315, 100%, 40%)"><line x1="517.111927158325" x2="594.8976424157204" y1="424" y2="424" />
<line x1="517.111927158325" x2="517.111927158325" y1="418" y2="430" />
<line x1="594.8976424157204" x2="594.8976424157204" y1="418" y2="430" />
</g>
</g>
</g>
</svg>
