<svg xmlns="http://www.w3.org/2000/svg" height="447" width="960.0" font-size="16" font-family="sans-serif" stroke-width="2">
<g transform="translate(10.0 0)">
<text fill="hsl(0, 100%, 40%)" y="22">countdown.deep.10000.heftia.5+5 2.19 ms</text>
<g>
<title>2.19 ms ±  59 μs</title>
<rect y="28" rx="5" height="22" width="112.75444322734684" fill="hsl(0, 100%, 80%)" stroke="hsl(0, 100%, 55%)" />
<g stroke="hsl(0, 100%, 40%)"><line x1="109.71058319906861" x2="115.79830325562507" y1="39" y2="39" />
<line x1="109.71058319906861" x2="109.71058319906861" y1="33" y2="45" />
<line x1="115.79830325562507" x2="115.79830325562507" y1="33" y2="45" />
</g>
</g>
<text fill="hsl(45, 100%, 40%)" y="77">countdown.deep.10000.freer.5+5 1.36 ms</text>
<g>
<title>1.36 ms ± 114 μs</title>
<rect y="83" rx="5" height="22" width="70.0464371449524" fill="hsl(45, 100%, 80%)" stroke="hsl(45, 100%, 55%)" />
<g stroke="hsl(45, 100%, 40%)"><line x1="64.16693776751741" x2="75.9259365223874" y1="94" y2="94" />
<line x1="64.16693776751741" x2="64.16693776751741" y1="88" y2="100" />
<line x1="75.9259365223874" x2="75.9259365223874" y1="88" y2="100" />
</g>
</g>
<text fill="hsl(90, 100%, 40%)" y="132">countdown.deep.10000.polysemy.5+5 4.46 ms</text>
<g>
<title>4.46 ms ± 243 μs</title>
<rect y="138" rx="5" height="22" width="229.89311108333322" fill="hsl(90, 100%, 80%)" stroke="hsl(90, 100%, 55%)" />
<g stroke="hsl(90, 100%, 40%)"><line x1="217.34402386130512" x2="242.44219830536133" y1="149" y2="149" />
<line x1="217.34402386130512" x2="217.34402386130512" y1="143" y2="155" />
<line x1="242.44219830536133" x2="242.44219830536133" y1="143" y2="155" />
</g>
</g>
<g fill="hsl(135, 100%, 40%)">
<text y="187">countdown.deep.10000.fused.5+5</text>
<text y="187" x="870.4684546616073" text-anchor="end">16.9 ms</text>
</g>
<g>
<title>16.9 ms ± 1.3 ms</title>
<rect y="193" rx="5" height="22" width="870.4684546616073" fill="hsl(135, 100%, 80%)" stroke="hsl(135, 100%, 55%)" />
<g stroke="hsl(135, 100%, 40%)"><line x1="800.9369093232146" x2="940.0" y1="204" y2="204" />
<line x1="800.9369093232146" x2="800.9369093232146" y1="198" y2="210" />
<line x1="940.0" x2="940.0" y1="198" y2="210" />
</g>
</g>
<text fill="hsl(180, 100%, 40%)" y="242">countdown.deep.10000.effectful.5+5 264  μs</text>
<g>
<title>264  μs ±  11 μs</title>
<rect y="248" rx="5" height="22" width="13.626438535201217" fill="hsl(180, 100%, 80%)" stroke="hsl(180, 100%, 55%)" />
<g stroke="hsl(180, 100%, 40%)"><line x1="13.077875451135846" x2="14.175001619266588" y1="259" y2="259" />
<line x1="13.077875451135846" x2="13.077875451135846" y1="253" y2="265" />
<line x1="14.175001619266588" x2="14.175001619266588" y1="253" y2="265" />
</g>
</g>
<text fill="hsl(225, 100%, 40%)" y="297">countdown.deep.10000.eff.5+5 626  μs</text>
<g>
<title>626  μs ±  42 μs</title>
<rect y="303" rx="5" height="22" width="32.29129603920206" fill="hsl(225, 100%, 80%)" stroke="hsl(225, 100%, 55%)" />
<g stroke="hsl(225, 100%, 40%)"><line x1="30.109999990999974" x2="34.472592087404145" y1="314" y2="314" />
<line x1="30.109999990999974" x2="30.109999990999974" y1="308" y2="320" />
<line x1="34.472592087404145" x2="34.472592087404145" y1="308" y2="320" />
</g>
</g>
<text fill="hsl(270, 100%, 40%)" y="352">countdown.deep.10000.ev.5+5 259  μs</text>
<g>
<title>259  μs ±  15 μs</title>
<rect y="358" rx="5" height="22" width="13.359967325357083" fill="hsl(270, 100%, 80%)" stroke="hsl(270, 100%, 55%)" />
<g stroke="hsl(270, 100%, 40%)"><line x1="12.603138378771344" x2="14.116796271942821" y1="369" y2="369" />
<line x1="12.603138378771344" x2="12.603138378771344" y1="363" y2="375" />
<line x1="14.116796271942821" x2="14.116796271942821" y1="363" y2="375" />
</g>
</g>
<g fill="hsl(315, 100%, 40%)">
<text y="407">countdown.deep.10000.mtl.5+5</text>
<text y="407" x="530.8287005710641" text-anchor="end">10.3 ms</text>
</g>
<g>
<title>10.3 ms ± 728 μs</title>
<rect y="413" rx="5" height="22" width="530.8287005710641" fill="hsl(315, 100%, 80%)" stroke="hsl(315, 100%, 55%)" />
<g stroke="hsl(315, 100%, 40%)"><line x1="493.27975292625314" x2="568.3776482158752" y1="424" y2="424" />
<line x1="493.27975292625314" x2="493.27975292625314" y1="418" y2="430" />
<line x1="568.3776482158752" x2="568.3776482158752" y1="418" y2="430" />
</g>
</g>
</g>
</svg>
