<svg xmlns="http://www.w3.org/2000/svg" height="447" width="960.0" font-size="16" font-family="sans-serif" stroke-width="2">
<g transform="translate(10.0 0)">
<text fill="hsl(0, 100%, 40%)" y="22">countdown.shallow.10000.heftia 488  μs</text>
<g>
<title>488  μs ±  33 μs</title>
<rect y="28" rx="5" height="22" width="146.22408517316327" fill="hsl(0, 100%, 80%)" stroke="hsl(0, 100%, 55%)" />
<g stroke="hsl(0, 100%, 40%)"><line x1="136.37967668635824" x2="156.0684936599683" y1="39" y2="39" />
<line x1="136.37967668635824" x2="136.37967668635824" y1="33" y2="45" />
<line x1="156.0684936599683" x2="156.0684936599683" y1="33" y2="45" />
</g>
</g>
<text fill="hsl(45, 100%, 40%)" y="77">countdown.shallow.10000.freer 464  μs</text>
<g>
<title>464  μs ±  44 μs</title>
<rect y="83" rx="5" height="22" width="139.23602561026559" fill="hsl(45, 100%, 80%)" stroke="hsl(45, 100%, 55%)" />
<g stroke="hsl(45, 100%, 40%)"><line x1="125.9468095973746" x2="152.52524162315657" y1="94" y2="94" />
<line x1="125.9468095973746" x2="125.9468095973746" y1="88" y2="100" />
<line x1="152.52524162315657" x2="152.52524162315657" y1="88" y2="100" />
</g>
</g>
<g fill="hsl(90, 100%, 40%)">
<text y="132">countdown.shallow.10000.polyemy</text>
<text y="132" x="884.6205436931004" text-anchor="end">2.95 ms</text>
</g>
<g>
<title>2.95 ms ± 185 μs</title>
<rect y="138" rx="5" height="22" width="884.6205436931004" fill="hsl(90, 100%, 80%)" stroke="hsl(90, 100%, 55%)" />
<g stroke="hsl(90, 100%, 40%)"><line x1="829.2410873862009" x2="940.0" y1="149" y2="149" />
<line x1="829.2410873862009" x2="829.2410873862009" y1="143" y2="155" />
<line x1="940.0" x2="940.0" y1="143" y2="155" />
</g>
</g>
<g fill="hsl(135, 100%, 40%)">
<text y="187">countdown.shallow.10000.fused</text>
<text y="187" x="671.383781349608" text-anchor="end">2.24 ms</text>
</g>
<g>
<title>2.24 ms ± 182 μs</title>
<rect y="193" rx="5" height="22" width="671.383781349608" fill="hsl(135, 100%, 80%)" stroke="hsl(135, 100%, 55%)" />
<g stroke="hsl(135, 100%, 40%)"><line x1="616.7173200385894" x2="726.0502426606265" y1="204" y2="204" />
<line x1="616.7173200385894" x2="616.7173200385894" y1="198" y2="210" />
<line x1="726.0502426606265" x2="726.0502426606265" y1="198" y2="210" />
</g>
</g>
<text fill="hsl(180, 100%, 40%)" y="242">countdown.shallow.10000.effectful 260  μs</text>
<g>
<title>260  μs ±  23 μs</title>
<rect y="248" rx="5" height="22" width="77.93049424263087" fill="hsl(180, 100%, 80%)" stroke="hsl(180, 100%, 55%)" />
<g stroke="hsl(180, 100%, 40%)"><line x1="71.02469959589111" x2="84.83628888937064" y1="259" y2="259" />
<line x1="71.02469959589111" x2="71.02469959589111" y1="253" y2="265" />
<line x1="84.83628888937064" x2="84.83628888937064" y1="253" y2="265" />
</g>
</g>
<text fill="hsl(225, 100%, 40%)" y="297">countdown.shallow.10000.eff 629  μs</text>
<g>
<title>629  μs ±  54 μs</title>
<rect y="303" rx="5" height="22" width="188.66840787196958" fill="hsl(225, 100%, 80%)" stroke="hsl(225, 100%, 55%)" />
<g stroke="hsl(225, 100%, 40%)"><line x1="172.4634807674463" x2="204.87333497649286" y1="314" y2="314" />
<line x1="172.4634807674463" x2="172.4634807674463" y1="308" y2="320" />
<line x1="204.87333497649286" x2="204.87333497649286" y1="308" y2="320" />
</g>
</g>
<text fill="hsl(270, 100%, 40%)" y="352">countdown.shallow.10000.ev 274  μs</text>
<g>
<title>274  μs ±  20 μs</title>
<rect y="358" rx="5" height="22" width="82.07135932321869" fill="hsl(270, 100%, 80%)" stroke="hsl(270, 100%, 55%)" />
<g stroke="hsl(270, 100%, 40%)"><line x1="75.99331093517165" x2="88.14940771126572" y1="369" y2="369" />
<line x1="75.99331093517165" x2="75.99331093517165" y1="363" y2="375" />
<line x1="88.14940771126572" x2="88.14940771126572" y1="363" y2="375" />
</g>
</g>
<text fill="hsl(315, 100%, 40%)" y="407">countdown.shallow.10000.mtl 891  μs</text>
<g>
<title>891  μs ±  44 μs</title>
<rect y="413" rx="5" height="22" width="267.0766554022587" fill="hsl(315, 100%, 80%)" stroke="hsl(315, 100%, 55%)" />
<g stroke="hsl(315, 100%, 40%)"><line x1="253.91312559892884" x2="280.2401852055886" y1="424" y2="424" />
<line x1="253.91312559892884" x2="253.91312559892884" y1="418" y2="430" />
<line x1="280.2401852055886" x2="280.2401852055886" y1="418" y2="430" />
</g>
</g>
</g>
</svg>
