<svg xmlns="http://www.w3.org/2000/svg" height="447" width="960.0" font-size="16" font-family="sans-serif" stroke-width="2">
<g transform="translate(10.0 0)">
<g fill="hsl(0, 100%, 40%)">
<text y="22">countdown.shallow.10000.heftia</text>
<text y="22" x="316.62211257894774" text-anchor="end">978  μs</text>
</g>
<g>
<title>978  μs ±  55 μs</title>
<rect y="28" rx="5" height="22" width="316.62211257894774" fill="hsl(0, 100%, 80%)" stroke="hsl(0, 100%, 55%)" />
<g stroke="hsl(0, 100%, 40%)"><line x1="298.90338234656843" x2="334.34084281132704" y1="39" y2="39" />
<line x1="298.90338234656843" x2="298.90338234656843" y1="33" y2="45" />
<line x1="334.34084281132704" x2="334.34084281132704" y1="33" y2="45" />
</g>
</g>
<text fill="hsl(45, 100%, 40%)" y="77">countdown.shallow.10000.freer 470  μs</text>
<g>
<title>470  μs ±  13 μs</title>
<rect y="83" rx="5" height="22" width="152.0489414193399" fill="hsl(45, 100%, 80%)" stroke="hsl(45, 100%, 55%)" />
<g stroke="hsl(45, 100%, 40%)"><line x1="147.89624915163782" x2="156.201633687042" y1="94" y2="94" />
<line x1="147.89624915163782" x2="147.89624915163782" y1="88" y2="100" />
<line x1="156.201633687042" x2="156.201633687042" y1="88" y2="100" />
</g>
</g>
<g fill="hsl(90, 100%, 40%)">
<text y="132">countdown.shallow.10000.polyemy</text>
<text y="132" x="864.0049155576245" text-anchor="end">2.67 ms</text>
</g>
<g>
<title>2.67 ms ± 235 μs</title>
<rect y="138" rx="5" height="22" width="864.0049155576245" fill="hsl(90, 100%, 80%)" stroke="hsl(90, 100%, 55%)" />
<g stroke="hsl(90, 100%, 40%)"><line x1="788.009831115249" x2="940.0" y1="149" y2="149" />
<line x1="788.009831115249" x2="788.009831115249" y1="143" y2="155" />
<line x1="940.0" x2="940.0" y1="143" y2="155" />
</g>
</g>
<g fill="hsl(135, 100%, 40%)">
<text y="187">countdown.shallow.10000.fused</text>
<text y="187" x="687.1602165464393" text-anchor="end">2.12 ms</text>
</g>
<g>
<title>2.12 ms ± 103 μs</title>
<rect y="193" rx="5" height="22" width="687.1602165464393" fill="hsl(135, 100%, 80%)" stroke="hsl(135, 100%, 55%)" />
<g stroke="hsl(135, 100%, 40%)"><line x1="653.9555658434728" x2="720.3648672494058" y1="204" y2="204" />
<line x1="653.9555658434728" x2="653.9555658434728" y1="198" y2="210" />
<line x1="720.3648672494058" x2="720.3648672494058" y1="198" y2="210" />
</g>
</g>
<text fill="hsl(180, 100%, 40%)" y="242">countdown.shallow.10000.effectful 285  μs</text>
<g>
<title>285  μs ±  25 μs</title>
<rect y="248" rx="5" height="22" width="92.26091472440869" fill="hsl(180, 100%, 80%)" stroke="hsl(180, 100%, 55%)" />
<g stroke="hsl(180, 100%, 40%)"><line x1="84.21484348596634" x2="100.30698596285104" y1="259" y2="259" />
<line x1="84.21484348596634" x2="84.21484348596634" y1="253" y2="265" />
<line x1="100.30698596285104" x2="100.30698596285104" y1="253" y2="265" />
</g>
</g>
<text fill="hsl(225, 100%, 40%)" y="297">countdown.shallow.10000.eff 551  μs</text>
<g>
<title>551  μs ±  33 μs</title>
<rect y="303" rx="5" height="22" width="178.4814099695595" fill="hsl(225, 100%, 80%)" stroke="hsl(225, 100%, 55%)" />
<g stroke="hsl(225, 100%, 40%)"><line x1="167.69493444859896" x2="189.26788549052006" y1="314" y2="314" />
<line x1="167.69493444859896" x2="167.69493444859896" y1="308" y2="320" />
<line x1="189.26788549052006" x2="189.26788549052006" y1="308" y2="320" />
</g>
</g>
<text fill="hsl(270, 100%, 40%)" y="352">countdown.shallow.10000.ev 303  μs</text>
<g>
<title>303  μs ±  27 μs</title>
<rect y="358" rx="5" height="22" width="98.22795595794067" fill="hsl(270, 100%, 80%)" stroke="hsl(270, 100%, 55%)" />
<g stroke="hsl(270, 100%, 40%)"><line x1="89.34385448063145" x2="107.11205743524988" y1="369" y2="369" />
<line x1="89.34385448063145" x2="89.34385448063145" y1="363" y2="375" />
<line x1="107.11205743524988" x2="107.11205743524988" y1="363" y2="375" />
</g>
</g>
<text fill="hsl(315, 100%, 40%)" y="407">countdown.shallow.10000.mtl 859  μs</text>
<g>
<title>859  μs ±  68 μs</title>
<rect y="413" rx="5" height="22" width="278.0326095531525" fill="hsl(315, 100%, 80%)" stroke="hsl(315, 100%, 55%)" />
<g stroke="hsl(315, 100%, 40%)"><line x1="256.09470709096433" x2="299.97051201534066" y1="424" y2="424" />
<line x1="256.09470709096433" x2="256.09470709096433" y1="418" y2="430" />
<line x1="299.97051201534066" x2="299.97051201534066" y1="418" y2="430" />
</g>
</g>
</g>
</svg>
