<svg xmlns="http://www.w3.org/2000/svg" height="447" width="960.0" font-size="16" font-family="sans-serif" stroke-width="2">
<g transform="translate(10.0 0)">
<text fill="hsl(0, 100%, 40%)" y="22">countdown.shallow.10000.heftia 459  μs</text>
<g>
<title>459  μs ±  31 μs</title>
<rect y="28" rx="5" height="22" width="148.22071697681125" fill="hsl(0, 100%, 80%)" stroke="hsl(0, 100%, 55%)" />
<g stroke="hsl(0, 100%, 40%)"><line x1="138.24624384966316" x2="158.19519010395933" y1="39" y2="39" />
<line x1="138.24624384966316" x2="138.24624384966316" y1="33" y2="45" />
<line x1="158.19519010395933" x2="158.19519010395933" y1="33" y2="45" />
</g>
</g>
<text fill="hsl(45, 100%, 40%)" y="77">countdown.shallow.10000.freer 477  μs</text>
<g>
<title>477  μs ±  26 μs</title>
<rect y="83" rx="5" height="22" width="153.89123258391126" fill="hsl(45, 100%, 80%)" stroke="hsl(45, 100%, 55%)" />
<g stroke="hsl(45, 100%, 40%)"><line x1="145.42683752570406" x2="162.35562764211846" y1="94" y2="94" />
<line x1="145.42683752570406" x2="145.42683752570406" y1="88" y2="100" />
<line x1="162.35562764211846" x2="162.35562764211846" y1="88" y2="100" />
</g>
</g>
<g fill="hsl(90, 100%, 40%)">
<text y="132">countdown.shallow.10000.polyemy</text>
<text y="132" x="905.8675086981696" text-anchor="end">2.81 ms</text>
</g>
<g>
<title>2.81 ms ± 106 μs</title>
<rect y="138" rx="5" height="22" width="905.8675086981696" fill="hsl(90, 100%, 80%)" stroke="hsl(90, 100%, 55%)" />
<g stroke="hsl(90, 100%, 40%)"><line x1="871.7350173963391" x2="940.0" y1="149" y2="149" />
<line x1="871.7350173963391" x2="871.7350173963391" y1="143" y2="155" />
<line x1="940.0" x2="940.0" y1="143" y2="155" />
</g>
</g>
<g fill="hsl(135, 100%, 40%)">
<text y="187">countdown.shallow.10000.fused</text>
<text y="187" x="739.8832266286547" text-anchor="end">2.29 ms</text>
</g>
<g>
<title>2.29 ms ± 169 μs</title>
<rect y="193" rx="5" height="22" width="739.8832266286547" fill="hsl(135, 100%, 80%)" stroke="hsl(135, 100%, 55%)" />
<g stroke="hsl(135, 100%, 40%)"><line x1="685.3194367768754" x2="794.4470164804341" y1="204" y2="204" />
<line x1="685.3194367768754" x2="685.3194367768754" y1="198" y2="210" />
<line x1="794.4470164804341" x2="794.4470164804341" y1="198" y2="210" />
</g>
</g>
<text fill="hsl(180, 100%, 40%)" y="242">countdown.shallow.10000.effectful 247  μs</text>
<g>
<title>247  μs ±  22 μs</title>
<rect y="248" rx="5" height="22" width="79.80492026699804" fill="hsl(180, 100%, 80%)" stroke="hsl(180, 100%, 55%)" />
<g stroke="hsl(180, 100%, 40%)"><line x1="72.68287005746062" x2="86.92697047653546" y1="259" y2="259" />
<line x1="72.68287005746062" x2="72.68287005746062" y1="253" y2="265" />
<line x1="86.92697047653546" x2="86.92697047653546" y1="253" y2="265" />
</g>
</g>
<text fill="hsl(225, 100%, 40%)" y="297">countdown.shallow.10000.eff 620  μs</text>
<g>
<title>620  μs ±  43 μs</title>
<rect y="303" rx="5" height="22" width="200.0981545332181" fill="hsl(225, 100%, 80%)" stroke="hsl(225, 100%, 55%)" />
<g stroke="hsl(225, 100%, 40%)"><line x1="186.22297073577025" x2="213.97333833066594" y1="314" y2="314" />
<line x1="186.22297073577025" x2="186.22297073577025" y1="308" y2="320" />
<line x1="213.97333833066594" x2="213.97333833066594" y1="308" y2="320" />
</g>
</g>
<text fill="hsl(270, 100%, 40%)" y="352">countdown.shallow.10000.ev 298  μs</text>
<g>
<title>298  μs ±  22 μs</title>
<rect y="358" rx="5" height="22" width="96.22524658210885" fill="hsl(270, 100%, 80%)" stroke="hsl(270, 100%, 55%)" />
<g stroke="hsl(270, 100%, 40%)"><line x1="89.14329436311155" x2="103.30719880110615" y1="369" y2="369" />
<line x1="89.14329436311155" x2="89.14329436311155" y1="363" y2="375" />
<line x1="103.30719880110615" x2="103.30719880110615" y1="363" y2="375" />
</g>
</g>
<g fill="hsl(315, 100%, 40%)">
<text y="407">countdown.shallow.10000.mtl</text>
<text y="407" x="300.3061601914668" text-anchor="end">930  μs</text>
</g>
<g>
<title>930  μs ±  60 μs</title>
<rect y="413" rx="5" height="22" width="300.3061601914668" fill="hsl(315, 100%, 80%)" stroke="hsl(315, 100%, 55%)" />
<g stroke="hsl(315, 100%, 40%)"><line x1="281.07450005141385" x2="319.53782033151975" y1="424" y2="424" />
<line x1="281.07450005141385" x2="281.07450005141385" y1="418" y2="430" />
<line x1="319.53782033151975" x2="319.53782033151975" y1="418" y2="430" />
</g>
</g>
</g>
</svg>
