<svg xmlns="http://www.w3.org/2000/svg" height="447" width="960.0" font-size="16" font-family="sans-serif" stroke-width="2">
<g transform="translate(10.0 0)">
<text fill="hsl(0, 100%, 40%)" y="22">countdown.deep.10000.heftia.5+5 2.37 ms</text>
<g>
<title>2.37 ms ± 173 μs</title>
<rect y="28" rx="5" height="22" width="126.15565619676777" fill="hsl(0, 100%, 80%)" stroke="hsl(0, 100%, 55%)" />
<g stroke="hsl(0, 100%, 40%)"><line x1="116.94403579130413" x2="135.36727660223139" y1="39" y2="39" />
<line x1="116.94403579130413" x2="116.94403579130413" y1="33" y2="45" />
<line x1="135.36727660223139" x2="135.36727660223139" y1="33" y2="45" />
</g>
</g>
<text fill="hsl(45, 100%, 40%)" y="77">countdown.deep.10000.freer.5+5 1.32 ms</text>
<g>
<title>1.32 ms ±  94 μs</title>
<rect y="83" rx="5" height="22" width="70.38198414913182" fill="hsl(45, 100%, 80%)" stroke="hsl(45, 100%, 55%)" />
<g stroke="hsl(45, 100%, 40%)"><line x1="65.3533574483713" x2="75.41061084989235" y1="94" y2="94" />
<line x1="65.3533574483713" x2="65.3533574483713" y1="88" y2="100" />
<line x1="75.41061084989235" x2="75.41061084989235" y1="88" y2="100" />
</g>
</g>
<text fill="hsl(90, 100%, 40%)" y="132">countdown.deep.10000.polysemy.5+5 4.47 ms</text>
<g>
<title>4.47 ms ± 209 μs</title>
<rect y="138" rx="5" height="22" width="238.03454595102843" fill="hsl(90, 100%, 80%)" stroke="hsl(90, 100%, 55%)" />
<g stroke="hsl(90, 100%, 40%)"><line x1="226.9134902113668" x2="249.15560169069008" y1="149" y2="149" />
<line x1="226.9134902113668" x2="226.9134902113668" y1="143" y2="155" />
<line x1="249.15560169069008" x2="249.15560169069008" y1="143" y2="155" />
</g>
</g>
<g fill="hsl(135, 100%, 40%)">
<text y="187">countdown.deep.10000.fused.5+5</text>
<text y="187" x="892.1320292275933" text-anchor="end">16.7 ms</text>
</g>
<g>
<title>16.7 ms ± 898 μs</title>
<rect y="193" rx="5" height="22" width="892.1320292275933" fill="hsl(135, 100%, 80%)" stroke="hsl(135, 100%, 55%)" />
<g stroke="hsl(135, 100%, 40%)"><line x1="844.2640584551866" x2="940.0" y1="204" y2="204" />
<line x1="844.2640584551866" x2="844.2640584551866" y1="198" y2="210" />
<line x1="940.0" x2="940.0" y1="198" y2="210" />
</g>
</g>
<text fill="hsl(180, 100%, 40%)" y="242">countdown.deep.10000.effectful.5+5 261  μs</text>
<g>
<title>261  μs ±  23 μs</title>
<rect y="248" rx="5" height="22" width="13.937037598413285" fill="hsl(180, 100%, 80%)" stroke="hsl(180, 100%, 55%)" />
<g stroke="hsl(180, 100%, 40%)"><line x1="12.719481219077908" x2="15.154593977748663" y1="259" y2="259" />
<line x1="12.719481219077908" x2="12.719481219077908" y1="253" y2="265" />
<line x1="15.154593977748663" x2="15.154593977748663" y1="253" y2="265" />
</g>
</g>
<text fill="hsl(225, 100%, 40%)" y="297">countdown.deep.10000.eff.5+5 530  μs</text>
<g>
<title>530  μs ±  50 μs</title>
<rect y="303" rx="5" height="22" width="28.258707281842504" fill="hsl(225, 100%, 80%)" stroke="hsl(225, 100%, 55%)" />
<g stroke="hsl(225, 100%, 40%)"><line x1="25.618456814227834" x2="30.898957749457175" y1="314" y2="314" />
<line x1="25.618456814227834" x2="25.618456814227834" y1="308" y2="320" />
<line x1="30.898957749457175" x2="30.898957749457175" y1="308" y2="320" />
</g>
</g>
<text fill="hsl(270, 100%, 40%)" y="352">countdown.deep.10000.ev.5+5 330  μs</text>
<g>
<title>330  μs ±  31 μs</title>
<rect y="358" rx="5" height="22" width="17.599474891653202" fill="hsl(270, 100%, 80%)" stroke="hsl(270, 100%, 55%)" />
<g stroke="hsl(270, 100%, 40%)"><line x1="15.947606104106674" x2="19.25134367919973" y1="369" y2="369" />
<line x1="15.947606104106674" x2="15.947606104106674" y1="363" y2="375" />
<line x1="19.25134367919973" x2="19.25134367919973" y1="363" y2="375" />
</g>
</g>
<g fill="hsl(315, 100%, 40%)">
<text y="407">countdown.deep.10000.mtl.5+5</text>
<text y="407" x="554.6841233315542" text-anchor="end">10.4 ms</text>
</g>
<g>
<title>10.4 ms ± 728 μs</title>
<rect y="413" rx="5" height="22" width="554.6841233315542" fill="hsl(315, 100%, 80%)" stroke="hsl(315, 100%, 55%)" />
<g stroke="hsl(315, 100%, 40%)"><line x1="515.8948692379714" x2="593.4733774251371" y1="424" y2="424" />
<line x1="515.8948692379714" x2="515.8948692379714" y1="418" y2="430" />
<line x1="593.4733774251371" x2="593.4733774251371" y1="418" y2="430" />
</g>
</g>
</g>
</svg>
