<svg xmlns="http://www.w3.org/2000/svg" height="447" width="960.0" font-size="16" font-family="sans-serif" stroke-width="2">
<g transform="translate(10.0 0)">
<text fill="hsl(0, 100%, 40%)" y="22">countdown.deep.10000.heftia.5+5 2.19 ms</text>
<g>
<title>2.19 ms ± 173 μs</title>
<rect y="28" rx="5" height="22" width="116.09563214061872" fill="hsl(0, 100%, 80%)" stroke="hsl(0, 100%, 55%)" />
<g stroke="hsl(0, 100%, 40%)"><line x1="106.96121641369925" x2="125.23004786753819" y1="39" y2="39" />
<line x1="106.96121641369925" x2="106.96121641369925" y1="33" y2="45" />
<line x1="125.23004786753819" x2="125.23004786753819" y1="33" y2="45" />
</g>
</g>
<text fill="hsl(45, 100%, 40%)" y="77">countdown.deep.10000.freer.5+5 1.29 ms</text>
<g>
<title>1.29 ms ± 110 μs</title>
<rect y="83" rx="5" height="22" width="68.4520590223575" fill="hsl(45, 100%, 80%)" stroke="hsl(45, 100%, 55%)" />
<g stroke="hsl(45, 100%, 40%)"><line x1="62.60711803867649" x2="74.29700000603852" y1="94" y2="94" />
<line x1="62.60711803867649" x2="62.60711803867649" y1="88" y2="100" />
<line x1="74.29700000603852" x2="74.29700000603852" y1="88" y2="100" />
</g>
</g>
<text fill="hsl(90, 100%, 40%)" y="132">countdown.deep.10000.polysemy.5+5 4.49 ms</text>
<g>
<title>4.49 ms ± 362 μs</title>
<rect y="138" rx="5" height="22" width="237.44600320313774" fill="hsl(90, 100%, 80%)" stroke="hsl(90, 100%, 55%)" />
<g stroke="hsl(90, 100%, 40%)"><line x1="218.28487394800868" x2="256.6071324582668" y1="149" y2="149" />
<line x1="218.28487394800868" x2="218.28487394800868" y1="143" y2="155" />
<line x1="256.6071324582668" x2="256.6071324582668" y1="143" y2="155" />
</g>
</g>
<g fill="hsl(135, 100%, 40%)">
<text y="187">countdown.deep.10000.fused.5+5</text>
<text y="187" x="868.5038767955562" text-anchor="end">16.4 ms</text>
</g>
<g>
<title>16.4 ms ± 1.4 ms</title>
<rect y="193" rx="5" height="22" width="868.5038767955562" fill="hsl(135, 100%, 80%)" stroke="hsl(135, 100%, 55%)" />
<g stroke="hsl(135, 100%, 40%)"><line x1="797.0077535911123" x2="940.0" y1="204" y2="204" />
<line x1="797.0077535911123" x2="797.0077535911123" y1="198" y2="210" />
<line x1="940.0" x2="940.0" y1="198" y2="210" />
</g>
</g>
<text fill="hsl(180, 100%, 40%)" y="242">countdown.deep.10000.effectful.5+5 256  μs</text>
<g>
<title>256  μs ± 6.9 μs</title>
<rect y="248" rx="5" height="22" width="13.570584134836203" fill="hsl(180, 100%, 80%)" stroke="hsl(180, 100%, 55%)" />
<g stroke="hsl(180, 100%, 40%)"><line x1="13.20558900356074" x2="13.935579266111665" y1="259" y2="259" />
<line x1="13.20558900356074" x2="13.20558900356074" y1="253" y2="265" />
<line x1="13.935579266111665" x2="13.935579266111665" y1="253" y2="265" />
</g>
</g>
<text fill="hsl(225, 100%, 40%)" y="297">countdown.deep.10000.eff.5+5 634  μs</text>
<g>
<title>634  μs ±  45 μs</title>
<rect y="303" rx="5" height="22" width="33.546952044266305" fill="hsl(225, 100%, 80%)" stroke="hsl(225, 100%, 55%)" />
<g stroke="hsl(225, 100%, 40%)"><line x1="31.177655164053554" x2="35.916248924479056" y1="314" y2="314" />
<line x1="31.177655164053554" x2="31.177655164053554" y1="308" y2="320" />
<line x1="35.916248924479056" x2="35.916248924479056" y1="308" y2="320" />
</g>
</g>
<text fill="hsl(270, 100%, 40%)" y="352">countdown.deep.10000.ev.5+5 286  μs</text>
<g>
<title>286  μs ±  24 μs</title>
<rect y="358" rx="5" height="22" width="15.15479530711146" fill="hsl(270, 100%, 80%)" stroke="hsl(270, 100%, 55%)" />
<g stroke="hsl(270, 100%, 40%)"><line x1="13.862466423593336" x2="16.447124190629584" y1="369" y2="369" />
<line x1="13.862466423593336" x2="13.862466423593336" y1="363" y2="375" />
<line x1="16.447124190629584" x2="16.447124190629584" y1="363" y2="375" />
</g>
</g>
<g fill="hsl(315, 100%, 40%)">
<text y="407">countdown.deep.10000.mtl.5+5</text>
<text y="407" x="531.6939149815097" text-anchor="end">10.0 ms</text>
</g>
<g>
<title>10.0 ms ± 773 μs</title>
<rect y="413" rx="5" height="22" width="531.6939149815097" fill="hsl(315, 100%, 80%)" stroke="hsl(315, 100%, 55%)" />
<g stroke="hsl(315, 100%, 40%)"><line x1="490.75853034653073" x2="572.6292996164887" y1="424" y2="424" />
<line x1="490.75853034653073" x2="490.75853034653073" y1="418" y2="430" />
<line x1="572.6292996164887" x2="572.6292996164887" y1="418" y2="430" />
</g>
</g>
</g>
</svg>
