<svg xmlns="http://www.w3.org/2000/svg" height="447" width="960.0" font-size="16" font-family="sans-serif" stroke-width="2">
<g transform="translate(10.0 0)">
<text fill="hsl(0, 100%, 40%)" y="22">countdown.shallow.10000.heftia 468  μs</text>
<g>
<title>468  μs ±  44 μs</title>
<rect y="28" rx="5" height="22" width="143.09683900909" fill="hsl(0, 100%, 80%)" stroke="hsl(0, 100%, 55%)" />
<g stroke="hsl(0, 100%, 40%)"><line x1="129.773257823698" x2="156.42042019448198" y1="39" y2="39" />
<line x1="129.773257823698" x2="129.773257823698" y1="33" y2="45" />
<line x1="156.42042019448198" x2="156.42042019448198" y1="33" y2="45" />
</g>
</g>
<text fill="hsl(45, 100%, 40%)" y="77">countdown.shallow.10000.freer 477  μs</text>
<g>
<title>477  μs ±  19 μs</title>
<rect y="83" rx="5" height="22" width="145.9054282918165" fill="hsl(45, 100%, 80%)" stroke="hsl(45, 100%, 55%)" />
<g stroke="hsl(45, 100%, 40%)"><line x1="140.11264032574434" x2="151.69821625788865" y1="94" y2="94" />
<line x1="140.11264032574434" x2="140.11264032574434" y1="88" y2="100" />
<line x1="151.69821625788865" x2="151.69821625788865" y1="88" y2="100" />
</g>
</g>
<g fill="hsl(90, 100%, 40%)">
<text y="132">countdown.shallow.10000.polyemy</text>
<text y="132" x="884.9691152216844" text-anchor="end">2.89 ms</text>
</g>
<g>
<title>2.89 ms ± 180 μs</title>
<rect y="138" rx="5" height="22" width="884.9691152216844" fill="hsl(90, 100%, 80%)" stroke="hsl(90, 100%, 55%)" />
<g stroke="hsl(90, 100%, 40%)"><line x1="829.9382304433689" x2="940.0" y1="149" y2="149" />
<line x1="829.9382304433689" x2="829.9382304433689" y1="143" y2="155" />
<line x1="940.0" x2="940.0" y1="143" y2="155" />
</g>
</g>
<g fill="hsl(135, 100%, 40%)">
<text y="187">countdown.shallow.10000.fused</text>
<text y="187" x="736.2969688656852" text-anchor="end">2.41 ms</text>
</g>
<g>
<title>2.41 ms ± 206 μs</title>
<rect y="193" rx="5" height="22" width="736.2969688656852" fill="hsl(135, 100%, 80%)" stroke="hsl(135, 100%, 55%)" />
<g stroke="hsl(135, 100%, 40%)"><line x1="673.307383240344" x2="799.2865544910264" y1="204" y2="204" />
<line x1="673.307383240344" x2="673.307383240344" y1="198" y2="210" />
<line x1="799.2865544910264" x2="799.2865544910264" y1="198" y2="210" />
</g>
</g>
<text fill="hsl(180, 100%, 40%)" y="242">countdown.shallow.10000.effectful 259  μs</text>
<g>
<title>259  μs ±  26 μs</title>
<rect y="248" rx="5" height="22" width="79.2593467591295" fill="hsl(180, 100%, 80%)" stroke="hsl(180, 100%, 55%)" />
<g stroke="hsl(180, 100%, 40%)"><line x1="71.35792614762221" x2="87.16076737063679" y1="259" y2="259" />
<line x1="71.35792614762221" x2="71.35792614762221" y1="253" y2="265" />
<line x1="87.16076737063679" x2="87.16076737063679" y1="253" y2="265" />
</g>
</g>
<text fill="hsl(225, 100%, 40%)" y="297">countdown.shallow.10000.eff 629  μs</text>
<g>
<title>629  μs ±  16 μs</title>
<rect y="303" rx="5" height="22" width="192.4785954177396" fill="hsl(225, 100%, 80%)" stroke="hsl(225, 100%, 55%)" />
<g stroke="hsl(225, 100%, 40%)"><line x1="187.67965280908214" x2="197.27753802639705" y1="314" y2="314" />
<line x1="187.67965280908214" x2="187.67965280908214" y1="308" y2="320" />
<line x1="197.27753802639705" x2="197.27753802639705" y1="308" y2="320" />
</g>
</g>
<text fill="hsl(270, 100%, 40%)" y="352">countdown.shallow.10000.ev 312  μs</text>
<g>
<title>312  μs ±  25 μs</title>
<rect y="358" rx="5" height="22" width="95.31919585360605" fill="hsl(270, 100%, 80%)" stroke="hsl(270, 100%, 55%)" />
<g stroke="hsl(270, 100%, 40%)"><line x1="87.74148049722113" x2="102.89691120999096" y1="369" y2="369" />
<line x1="87.74148049722113" x2="87.74148049722113" y1="363" y2="375" />
<line x1="102.89691120999096" x2="102.89691120999096" y1="363" y2="375" />
</g>
</g>
<g fill="hsl(315, 100%, 40%)">
<text y="407">countdown.shallow.10000.mtl</text>
<text y="407" x="292.9664707790784" text-anchor="end">958  μs</text>
</g>
<g>
<title>958  μs ±  41 μs</title>
<rect y="413" rx="5" height="22" width="292.9664707790784" fill="hsl(315, 100%, 80%)" stroke="hsl(315, 100%, 55%)" />
<g stroke="hsl(315, 100%, 40%)"><line x1="280.40704032596506" x2="305.52590123219176" y1="424" y2="424" />
<line x1="280.40704032596506" x2="280.40704032596506" y1="418" y2="430" />
<line x1="305.52590123219176" x2="305.52590123219176" y1="418" y2="430" />
</g>
</g>
</g>
</svg>
