<svg xmlns="http://www.w3.org/2000/svg" height="447" width="960.0" font-size="16" font-family="sans-serif" stroke-width="2">
<g transform="translate(10.0 0)">
<text fill="hsl(0, 100%, 40%)" y="22">countdown.shallow.10000.heftia 448  μs</text>
<g>
<title>448  μs ±  29 μs</title>
<rect y="28" rx="5" height="22" width="142.94557795840973" fill="hsl(0, 100%, 80%)" stroke="hsl(0, 100%, 55%)" />
<g stroke="hsl(0, 100%, 40%)"><line x1="133.82296077279375" x2="152.0681951440257" y1="39" y2="39" />
<line x1="133.82296077279375" x2="133.82296077279375" y1="33" y2="45" />
<line x1="152.0681951440257" x2="152.0681951440257" y1="33" y2="45" />
</g>
</g>
<text fill="hsl(45, 100%, 40%)" y="77">countdown.shallow.10000.freer 471  μs</text>
<g>
<title>471  μs ±  43 μs</title>
<rect y="83" rx="5" height="22" width="150.1702795922395" fill="hsl(45, 100%, 80%)" stroke="hsl(45, 100%, 55%)" />
<g stroke="hsl(45, 100%, 40%)"><line x1="136.51303844336223" x2="163.82752074111676" y1="94" y2="94" />
<line x1="136.51303844336223" x2="136.51303844336223" y1="88" y2="100" />
<line x1="163.82752074111676" x2="163.82752074111676" y1="88" y2="100" />
</g>
</g>
<g fill="hsl(90, 100%, 40%)">
<text y="132">countdown.shallow.10000.polyemy</text>
<text y="132" x="868.3166061375802" text-anchor="end">2.72 ms</text>
</g>
<g>
<title>2.72 ms ± 225 μs</title>
<rect y="138" rx="5" height="22" width="868.3166061375802" fill="hsl(90, 100%, 80%)" stroke="hsl(90, 100%, 55%)" />
<g stroke="hsl(90, 100%, 40%)"><line x1="796.6332122751603" x2="940.0" y1="149" y2="149" />
<line x1="796.6332122751603" x2="796.6332122751603" y1="143" y2="155" />
<line x1="940.0" x2="940.0" y1="143" y2="155" />
</g>
</g>
<g fill="hsl(135, 100%, 40%)">
<text y="187">countdown.shallow.10000.fused</text>
<text y="187" x="706.2432400917918" text-anchor="end">2.21 ms</text>
</g>
<g>
<title>2.21 ms ± 200 μs</title>
<rect y="193" rx="5" height="22" width="706.2432400917918" fill="hsl(135, 100%, 80%)" stroke="hsl(135, 100%, 55%)" />
<g stroke="hsl(135, 100%, 40%)"><line x1="642.4003302873252" x2="770.0861498962583" y1="204" y2="204" />
<line x1="642.4003302873252" x2="642.4003302873252" y1="198" y2="210" />
<line x1="770.0861498962583" x2="770.0861498962583" y1="198" y2="210" />
</g>
</g>
<text fill="hsl(180, 100%, 40%)" y="242">countdown.shallow.10000.effectful 258  μs</text>
<g>
<title>258  μs ±  26 μs</title>
<rect y="248" rx="5" height="22" width="82.35760442097883" fill="hsl(180, 100%, 80%)" stroke="hsl(180, 100%, 55%)" />
<g stroke="hsl(180, 100%, 40%)"><line x1="74.15481415236324" x2="90.56039468959442" y1="259" y2="259" />
<line x1="74.15481415236324" x2="74.15481415236324" y1="253" y2="265" />
<line x1="90.56039468959442" x2="90.56039468959442" y1="253" y2="265" />
</g>
</g>
<text fill="hsl(225, 100%, 40%)" y="297">countdown.shallow.10000.eff 536  μs</text>
<g>
<title>536  μs ±  27 μs</title>
<rect y="303" rx="5" height="22" width="171.0483949651589" fill="hsl(225, 100%, 80%)" stroke="hsl(225, 100%, 55%)" />
<g stroke="hsl(225, 100%, 40%)"><line x1="162.45733835768672" x2="179.6394515726311" y1="314" y2="314" />
<line x1="162.45733835768672" x2="162.45733835768672" y1="308" y2="320" />
<line x1="179.6394515726311" x2="179.6394515726311" y1="308" y2="320" />
</g>
</g>
<text fill="hsl(270, 100%, 40%)" y="352">countdown.shallow.10000.ev 322  μs</text>
<g>
<title>322  μs ±  25 μs</title>
<rect y="358" rx="5" height="22" width="102.88327222740958" fill="hsl(270, 100%, 80%)" stroke="hsl(270, 100%, 55%)" />
<g stroke="hsl(270, 100%, 40%)"><line x1="95.06087772348756" x2="110.70566673133159" y1="369" y2="369" />
<line x1="95.06087772348756" x2="95.06087772348756" y1="363" y2="375" />
<line x1="110.70566673133159" x2="110.70566673133159" y1="363" y2="375" />
</g>
</g>
<g fill="hsl(315, 100%, 40%)">
<text y="407">countdown.shallow.10000.mtl</text>
<text y="407" x="280.45518045937104" text-anchor="end">879  μs</text>
</g>
<g>
<title>879  μs ±  54 μs</title>
<rect y="413" rx="5" height="22" width="280.45518045937104" fill="hsl(315, 100%, 80%)" stroke="hsl(315, 100%, 55%)" />
<g stroke="hsl(315, 100%, 40%)"><line x1="263.10179895468366" x2="297.8085619640584" y1="424" y2="424" />
<line x1="263.10179895468366" x2="263.10179895468366" y1="418" y2="430" />
<line x1="297.8085619640584" x2="297.8085619640584" y1="418" y2="430" />
</g>
</g>
</g>
</svg>
