<svg xmlns="http://www.w3.org/2000/svg" height="447" width="960.0" font-size="16" font-family="sans-serif" stroke-width="2">
<g transform="translate(10.0 0)">
<text fill="hsl(0, 100%, 40%)" y="22">countdown.shallow.10000.heftia 500  μs</text>
<g>
<title>500  μs ±  48 μs</title>
<rect y="28" rx="5" height="22" width="144.2347050473187" fill="hsl(0, 100%, 80%)" stroke="hsl(0, 100%, 55%)" />
<g stroke="hsl(0, 100%, 40%)"><line x1="130.3557810533176" x2="158.1136290413198" y1="39" y2="39" />
<line x1="130.3557810533176" x2="130.3557810533176" y1="33" y2="45" />
<line x1="158.1136290413198" x2="158.1136290413198" y1="33" y2="45" />
</g>
</g>
<text fill="hsl(45, 100%, 40%)" y="77">countdown.shallow.10000.freer 474  μs</text>
<g>
<title>474  μs ±  46 μs</title>
<rect y="83" rx="5" height="22" width="136.7824421396112" fill="hsl(45, 100%, 80%)" stroke="hsl(45, 100%, 55%)" />
<g stroke="hsl(45, 100%, 40%)"><line x1="123.40038891367735" x2="150.16449536554504" y1="94" y2="94" />
<line x1="123.40038891367735" x2="123.40038891367735" y1="88" y2="100" />
<line x1="150.16449536554504" x2="150.16449536554504" y1="88" y2="100" />
</g>
</g>
<g fill="hsl(90, 100%, 40%)">
<text y="132">countdown.shallow.10000.polyemy</text>
<text y="132" x="877.3028223813951" text-anchor="end">3.04 ms</text>
</g>
<g>
<title>3.04 ms ± 217 μs</title>
<rect y="138" rx="5" height="22" width="877.3028223813951" fill="hsl(90, 100%, 80%)" stroke="hsl(90, 100%, 55%)" />
<g stroke="hsl(90, 100%, 40%)"><line x1="814.6056447627902" x2="940.0" y1="149" y2="149" />
<line x1="814.6056447627902" x2="814.6056447627902" y1="143" y2="155" />
<line x1="940.0" x2="940.0" y1="143" y2="155" />
</g>
</g>
<g fill="hsl(135, 100%, 40%)">
<text y="187">countdown.shallow.10000.fused</text>
<text y="187" x="638.927203401913" text-anchor="end">2.21 ms</text>
</g>
<g>
<title>2.21 ms ± 173 μs</title>
<rect y="193" rx="5" height="22" width="638.927203401913" fill="hsl(135, 100%, 80%)" stroke="hsl(135, 100%, 55%)" />
<g stroke="hsl(135, 100%, 40%)"><line x1="588.8955543842774" x2="688.9588524195485" y1="204" y2="204" />
<line x1="588.8955543842774" x2="588.8955543842774" y1="198" y2="210" />
<line x1="688.9588524195485" x2="688.9588524195485" y1="198" y2="210" />
</g>
</g>
<text fill="hsl(180, 100%, 40%)" y="242">countdown.shallow.10000.effectful 260  μs</text>
<g>
<title>260  μs ±  15 μs</title>
<rect y="248" rx="5" height="22" width="75.06067459278582" fill="hsl(180, 100%, 80%)" stroke="hsl(180, 100%, 55%)" />
<g stroke="hsl(180, 100%, 40%)"><line x1="70.85575398004674" x2="79.26559520552489" y1="259" y2="259" />
<line x1="70.85575398004674" x2="70.85575398004674" y1="253" y2="265" />
<line x1="79.26559520552489" x2="79.26559520552489" y1="253" y2="265" />
</g>
</g>
<text fill="hsl(225, 100%, 40%)" y="297">countdown.shallow.10000.eff 635  μs</text>
<g>
<title>635  μs ±  46 μs</title>
<rect y="303" rx="5" height="22" width="183.07647328982455" fill="hsl(225, 100%, 80%)" stroke="hsl(225, 100%, 55%)" />
<g stroke="hsl(225, 100%, 40%)"><line x1="169.7644885715371" x2="196.388458008112" y1="314" y2="314" />
<line x1="169.7644885715371" x2="169.7644885715371" y1="308" y2="320" />
<line x1="196.388458008112" x2="196.388458008112" y1="308" y2="320" />
</g>
</g>
<text fill="hsl(270, 100%, 40%)" y="352">countdown.shallow.10000.ev 311  μs</text>
<g>
<title>311  μs ±  31 μs</title>
<rect y="358" rx="5" height="22" width="89.77572767133199" fill="hsl(270, 100%, 80%)" stroke="hsl(270, 100%, 55%)" />
<g stroke="hsl(270, 100%, 40%)"><line x1="80.85019171599458" x2="98.7012636266694" y1="369" y2="369" />
<line x1="80.85019171599458" x2="80.85019171599458" y1="363" y2="375" />
<line x1="98.7012636266694" x2="98.7012636266694" y1="363" y2="375" />
</g>
</g>
<text fill="hsl(315, 100%, 40%)" y="407">countdown.shallow.10000.mtl 959  μs</text>
<g>
<title>959  μs ±  91 μs</title>
<rect y="413" rx="5" height="22" width="276.6982830942302" fill="hsl(315, 100%, 80%)" stroke="hsl(315, 100%, 55%)" />
<g stroke="hsl(315, 100%, 40%)"><line x1="250.51847710189185" x2="302.87808908656854" y1="424" y2="424" />
<line x1="250.51847710189185" x2="250.51847710189185" y1="418" y2="430" />
<line x1="302.87808908656854" x2="302.87808908656854" y1="418" y2="430" />
</g>
</g>
</g>
</svg>
