<svg xmlns="http://www.w3.org/2000/svg" height="447" width="960.0" font-size="16" font-family="sans-serif" stroke-width="2">
<g transform="translate(10.0 0)">
<text fill="hsl(0, 100%, 40%)" y="22">countdown.shallow.10000.heftia 438  μs</text>
<g>
<title>438  μs ±  42 μs</title>
<rect y="28" rx="5" height="22" width="142.38512514467277" fill="hsl(0, 100%, 80%)" stroke="hsl(0, 100%, 55%)" />
<g stroke="hsl(0, 100%, 40%)"><line x1="128.71815540336513" x2="156.0520948859804" y1="39" y2="39" />
<line x1="128.71815540336513" x2="128.71815540336513" y1="33" y2="45" />
<line x1="156.0520948859804" x2="156.0520948859804" y1="33" y2="45" />
</g>
</g>
<text fill="hsl(45, 100%, 40%)" y="77">countdown.shallow.10000.freer 475  μs</text>
<g>
<title>475  μs ±  45 μs</title>
<rect y="83" rx="5" height="22" width="154.46656022379256" fill="hsl(45, 100%, 80%)" stroke="hsl(45, 100%, 55%)" />
<g stroke="hsl(45, 100%, 40%)"><line x1="139.94583519484223" x2="168.98728525274288" y1="94" y2="94" />
<line x1="139.94583519484223" x2="139.94583519484223" y1="88" y2="100" />
<line x1="168.98728525274288" x2="168.98728525274288" y1="88" y2="100" />
</g>
</g>
<g fill="hsl(90, 100%, 40%)">
<text y="132">countdown.shallow.10000.polyemy</text>
<text y="132" x="865.9331413370993" text-anchor="end">2.66 ms</text>
</g>
<g>
<title>2.66 ms ± 228 μs</title>
<rect y="138" rx="5" height="22" width="865.9331413370993" fill="hsl(90, 100%, 80%)" stroke="hsl(90, 100%, 55%)" />
<g stroke="hsl(90, 100%, 40%)"><line x1="791.8662826741986" x2="940.0" y1="149" y2="149" />
<line x1="791.8662826741986" x2="791.8662826741986" y1="143" y2="155" />
<line x1="940.0" x2="940.0" y1="143" y2="155" />
</g>
</g>
<g fill="hsl(135, 100%, 40%)">
<text y="187">countdown.shallow.10000.fused</text>
<text y="187" x="653.8148263217366" text-anchor="end">2.01 ms</text>
</g>
<g>
<title>2.01 ms ±  88 μs</title>
<rect y="193" rx="5" height="22" width="653.8148263217366" fill="hsl(135, 100%, 80%)" stroke="hsl(135, 100%, 55%)" />
<g stroke="hsl(135, 100%, 40%)"><line x1="625.1570759226776" x2="682.4725767207957" y1="204" y2="204" />
<line x1="625.1570759226776" x2="625.1570759226776" y1="198" y2="210" />
<line x1="682.4725767207957" x2="682.4725767207957" y1="198" y2="210" />
</g>
</g>
<text fill="hsl(180, 100%, 40%)" y="242">countdown.shallow.10000.effectful 256  μs</text>
<g>
<title>256  μs ±  25 μs</title>
<rect y="248" rx="5" height="22" width="83.19210645185696" fill="hsl(180, 100%, 80%)" stroke="hsl(180, 100%, 55%)" />
<g stroke="hsl(180, 100%, 40%)"><line x1="75.12455716728047" x2="91.25965573643344" y1="259" y2="259" />
<line x1="75.12455716728047" x2="75.12455716728047" y1="253" y2="265" />
<line x1="91.25965573643344" x2="91.25965573643344" y1="253" y2="265" />
</g>
</g>
<text fill="hsl(225, 100%, 40%)" y="297">countdown.shallow.10000.eff 527  μs</text>
<g>
<title>527  μs ±  43 μs</title>
<rect y="303" rx="5" height="22" width="171.25794295958036" fill="hsl(225, 100%, 80%)" stroke="hsl(225, 100%, 55%)" />
<g stroke="hsl(225, 100%, 40%)"><line x1="157.38287810334083" x2="185.1330078158199" y1="314" y2="314" />
<line x1="157.38287810334083" x2="157.38287810334083" y1="308" y2="320" />
<line x1="185.1330078158199" x2="185.1330078158199" y1="308" y2="320" />
</g>
</g>
<text fill="hsl(270, 100%, 40%)" y="352">countdown.shallow.10000.ev 301  μs</text>
<g>
<title>301  μs ±  23 μs</title>
<rect y="358" rx="5" height="22" width="97.7529080635321" fill="hsl(270, 100%, 80%)" stroke="hsl(270, 100%, 55%)" />
<g stroke="hsl(270, 100%, 40%)"><line x1="90.39795928490037" x2="105.10785684216384" y1="369" y2="369" />
<line x1="90.39795928490037" x2="90.39795928490037" y1="363" y2="375" />
<line x1="105.10785684216384" x2="105.10785684216384" y1="363" y2="375" />
</g>
</g>
<g fill="hsl(315, 100%, 40%)">
<text y="407">countdown.shallow.10000.mtl</text>
<text y="407" x="300.2668115686301" text-anchor="end">923  μs</text>
</g>
<g>
<title>923  μs ±  88 μs</title>
<rect y="413" rx="5" height="22" width="300.2668115686301" fill="hsl(315, 100%, 80%)" stroke="hsl(315, 100%, 55%)" />
<g stroke="hsl(315, 100%, 40%)"><line x1="271.4881487616511" x2="329.0454743756091" y1="424" y2="424" />
<line x1="271.4881487616511" x2="271.4881487616511" y1="418" y2="430" />
<line x1="329.0454743756091" x2="329.0454743756091" y1="418" y2="430" />
</g>
</g>
</g>
</svg>
