<svg xmlns="http://www.w3.org/2000/svg" height="447" width="960.0" font-size="16" font-family="sans-serif" stroke-width="2">
<g transform="translate(10.0 0)">
<text fill="hsl(0, 100%, 40%)" y="22">countdown.deep.10000.heftia.5+5 1.60 ms</text>
<g>
<title>1.60 ms ±  95 μs</title>
<rect y="28" rx="5" height="22" width="81.01872473958971" fill="hsl(0, 100%, 80%)" stroke="hsl(0, 100%, 55%)" />
<g stroke="hsl(0, 100%, 40%)"><line x1="76.2154957873067" x2="85.82195369187274" y1="39" y2="39" />
<line x1="76.2154957873067" x2="76.2154957873067" y1="33" y2="45" />
<line x1="85.82195369187274" x2="85.82195369187274" y1="33" y2="45" />
</g>
</g>
<text fill="hsl(45, 100%, 40%)" y="77">countdown.deep.10000.freer.5+5 1.28 ms</text>
<g>
<title>1.28 ms ± 108 μs</title>
<rect y="83" rx="5" height="22" width="64.62777694699328" fill="hsl(45, 100%, 80%)" stroke="hsl(45, 100%, 55%)" />
<g stroke="hsl(45, 100%, 40%)"><line x1="59.14089718541986" x2="70.1146567085667" y1="94" y2="94" />
<line x1="59.14089718541986" x2="59.14089718541986" y1="88" y2="100" />
<line x1="70.1146567085667" x2="70.1146567085667" y1="88" y2="100" />
</g>
</g>
<text fill="hsl(90, 100%, 40%)" y="132">countdown.deep.10000.polysemy.5+5 4.56 ms</text>
<g>
<title>4.56 ms ± 365 μs</title>
<rect y="138" rx="5" height="22" width="230.82091488993257" fill="hsl(90, 100%, 80%)" stroke="hsl(90, 100%, 55%)" />
<g stroke="hsl(90, 100%, 40%)"><line x1="212.34103820725903" x2="249.3007915726061" y1="149" y2="149" />
<line x1="212.34103820725903" x2="212.34103820725903" y1="143" y2="155" />
<line x1="249.3007915726061" x2="249.3007915726061" y1="143" y2="155" />
</g>
</g>
<g fill="hsl(135, 100%, 40%)">
<text y="187">countdown.deep.10000.fused.5+5</text>
<text y="187" x="865.7270831634594" text-anchor="end">17.1 ms</text>
</g>
<g>
<title>17.1 ms ± 1.5 ms</title>
<rect y="193" rx="5" height="22" width="865.7270831634594" fill="hsl(135, 100%, 80%)" stroke="hsl(135, 100%, 55%)" />
<g stroke="hsl(135, 100%, 40%)"><line x1="791.4541663269188" x2="940.0" y1="204" y2="204" />
<line x1="791.4541663269188" x2="791.4541663269188" y1="198" y2="210" />
<line x1="940.0" x2="940.0" y1="198" y2="210" />
</g>
</g>
<text fill="hsl(180, 100%, 40%)" y="242">countdown.deep.10000.effectful.5+5 261  μs</text>
<g>
<title>261  μs ±  23 μs</title>
<rect y="248" rx="5" height="22" width="13.248012164397279" fill="hsl(180, 100%, 80%)" stroke="hsl(180, 100%, 55%)" />
<g stroke="hsl(180, 100%, 40%)"><line x1="12.05800649876738" x2="14.438017830027178" y1="259" y2="259" />
<line x1="12.05800649876738" x2="12.05800649876738" y1="253" y2="265" />
<line x1="14.438017830027178" x2="14.438017830027178" y1="253" y2="265" />
</g>
</g>
<text fill="hsl(225, 100%, 40%)" y="297">countdown.deep.10000.eff.5+5 618  μs</text>
<g>
<title>618  μs ±  48 μs</title>
<rect y="303" rx="5" height="22" width="31.29537166431967" fill="hsl(225, 100%, 80%)" stroke="hsl(225, 100%, 55%)" />
<g stroke="hsl(225, 100%, 40%)"><line x1="28.86677771955679" x2="33.723965609082555" y1="314" y2="314" />
<line x1="28.86677771955679" x2="28.86677771955679" y1="308" y2="320" />
<line x1="33.723965609082555" x2="33.723965609082555" y1="308" y2="320" />
</g>
</g>
<text fill="hsl(270, 100%, 40%)" y="352">countdown.deep.10000.ev.5+5 366  μs</text>
<g>
<title>366  μs ± 4.8 μs</title>
<rect y="358" rx="5" height="22" width="18.541838436257784" fill="hsl(270, 100%, 80%)" stroke="hsl(270, 100%, 55%)" />
<g stroke="hsl(270, 100%, 40%)"><line x1="18.297975753227647" x2="18.78570111928792" y1="369" y2="369" />
<line x1="18.297975753227647" x2="18.297975753227647" y1="363" y2="375" />
<line x1="18.78570111928792" x2="18.78570111928792" y1="363" y2="375" />
</g>
</g>
<g fill="hsl(315, 100%, 40%)">
<text y="407">countdown.deep.10000.mtl.5+5</text>
<text y="407" x="537.2609445757041" text-anchor="end">10.6 ms</text>
</g>
<g>
<title>10.6 ms ± 374 μs</title>
<rect y="413" rx="5" height="22" width="537.2609445757041" fill="hsl(315, 100%, 80%)" stroke="hsl(315, 100%, 55%)" />
<g stroke="hsl(315, 100%, 40%)"><line x1="518.2949226182712" x2="556.226966533137" y1="424" y2="424" />
<line x1="518.2949226182712" x2="518.2949226182712" y1="418" y2="430" />
<line x1="556.226966533137" x2="556.226966533137" y1="418" y2="430" />
</g>
</g>
</g>
</svg>
