<svg xmlns="http://www.w3.org/2000/svg" height="447" width="960.0" font-size="16" font-family="sans-serif" stroke-width="2">
<g transform="translate(10.0 0)">
<text fill="hsl(0, 100%, 40%)" y="22">countdown.shallow.10000.heftia 492  μs</text>
<g>
<title>492  μs ±  43 μs</title>
<rect y="28" rx="5" height="22" width="152.01040779541506" fill="hsl(0, 100%, 80%)" stroke="hsl(0, 100%, 55%)" />
<g stroke="hsl(0, 100%, 40%)"><line x1="138.74535939170758" x2="165.27545619912254" y1="39" y2="39" />
<line x1="138.74535939170758" x2="138.74535939170758" y1="33" y2="45" />
<line x1="165.27545619912254" x2="165.27545619912254" y1="33" y2="45" />
</g>
</g>
<text fill="hsl(45, 100%, 40%)" y="77">countdown.shallow.10000.freer 452  μs</text>
<g>
<title>452  μs ±  21 μs</title>
<rect y="83" rx="5" height="22" width="139.65440363496853" fill="hsl(45, 100%, 80%)" stroke="hsl(45, 100%, 55%)" />
<g stroke="hsl(45, 100%, 40%)"><line x1="133.04275673942135" x2="146.2660505305157" y1="94" y2="94" />
<line x1="133.04275673942135" x2="133.04275673942135" y1="88" y2="100" />
<line x1="146.2660505305157" x2="146.2660505305157" y1="88" y2="100" />
</g>
</g>
<g fill="hsl(90, 100%, 40%)">
<text y="132">countdown.shallow.10000.polyemy</text>
<text y="132" x="880.0916027909359" text-anchor="end">2.85 ms</text>
</g>
<g>
<title>2.85 ms ± 194 μs</title>
<rect y="138" rx="5" height="22" width="880.0916027909359" fill="hsl(90, 100%, 80%)" stroke="hsl(90, 100%, 55%)" />
<g stroke="hsl(90, 100%, 40%)"><line x1="820.1832055818718" x2="940.0" y1="149" y2="149" />
<line x1="820.1832055818718" x2="820.1832055818718" y1="143" y2="155" />
<line x1="940.0" x2="940.0" y1="143" y2="155" />
</g>
</g>
<g fill="hsl(135, 100%, 40%)">
<text y="187">countdown.shallow.10000.fused</text>
<text y="187" x="781.6675664883039" text-anchor="end">2.53 ms</text>
</g>
<g>
<title>2.53 ms ± 170 μs</title>
<rect y="193" rx="5" height="22" width="781.6675664883039" fill="hsl(135, 100%, 80%)" stroke="hsl(135, 100%, 55%)" />
<g stroke="hsl(135, 100%, 40%)"><line x1="729.1961922560289" x2="834.138940720579" y1="204" y2="204" />
<line x1="729.1961922560289" x2="729.1961922560289" y1="198" y2="210" />
<line x1="834.138940720579" x2="834.138940720579" y1="198" y2="210" />
</g>
</g>
<text fill="hsl(180, 100%, 40%)" y="242">countdown.shallow.10000.effectful 259  μs</text>
<g>
<title>259  μs ±  21 μs</title>
<rect y="248" rx="5" height="22" width="80.233272309798" fill="hsl(180, 100%, 80%)" stroke="hsl(180, 100%, 55%)" />
<g stroke="hsl(180, 100%, 40%)"><line x1="73.5948065311461" x2="86.87173808844989" y1="259" y2="259" />
<line x1="73.5948065311461" x2="73.5948065311461" y1="253" y2="265" />
<line x1="86.87173808844989" x2="86.87173808844989" y1="253" y2="265" />
</g>
</g>
<text fill="hsl(225, 100%, 40%)" y="297">countdown.shallow.10000.eff 522  μs</text>
<g>
<title>522  μs ±  47 μs</title>
<rect y="303" rx="5" height="22" width="161.2614567848268" fill="hsl(225, 100%, 80%)" stroke="hsl(225, 100%, 55%)" />
<g stroke="hsl(225, 100%, 40%)"><line x1="146.83611660837877" x2="175.68679696127484" y1="314" y2="314" />
<line x1="146.83611660837877" x2="146.83611660837877" y1="308" y2="320" />
<line x1="175.68679696127484" x2="175.68679696127484" y1="308" y2="320" />
</g>
</g>
<text fill="hsl(270, 100%, 40%)" y="352">countdown.shallow.10000.ev 336  μs</text>
<g>
<title>336  μs ±  29 μs</title>
<rect y="358" rx="5" height="22" width="104.01242153339618" fill="hsl(270, 100%, 80%)" stroke="hsl(270, 100%, 55%)" />
<g stroke="hsl(270, 100%, 40%)"><line x1="95.05719967934427" x2="112.96764338744809" y1="369" y2="369" />
<line x1="95.05719967934427" x2="95.05719967934427" y1="363" y2="375" />
<line x1="112.96764338744809" x2="112.96764338744809" y1="363" y2="375" />
</g>
</g>
<g fill="hsl(315, 100%, 40%)">
<text y="407">countdown.shallow.10000.mtl</text>
<text y="407" x="291.129807922195" text-anchor="end">942  μs</text>
</g>
<g>
<title>942  μs ±  55 μs</title>
<rect y="413" rx="5" height="22" width="291.129807922195" fill="hsl(315, 100%, 80%)" stroke="hsl(315, 100%, 55%)" />
<g stroke="hsl(315, 100%, 40%)"><line x1="274.1658847636119" x2="308.0937310807781" y1="424" y2="424" />
<line x1="274.1658847636119" x2="274.1658847636119" y1="418" y2="430" />
<line x1="308.0937310807781" x2="308.0937310807781" y1="418" y2="430" />
</g>
</g>
</g>
</svg>
