<svg xmlns="http://www.w3.org/2000/svg" height="447" width="960.0" font-size="16" font-family="sans-serif" stroke-width="2">
<g transform="translate(10.0 0)">
<text fill="hsl(0, 100%, 40%)" y="22">countdown.deep.10000.heftia.5+5 2.22 ms</text>
<g>
<title>2.22 ms ± 170 μs</title>
<rect y="28" rx="5" height="22" width="113.37563244472807" fill="hsl(0, 100%, 80%)" stroke="hsl(0, 100%, 55%)" />
<g stroke="hsl(0, 100%, 40%)"><line x1="104.72310014315326" x2="122.02816474630288" y1="39" y2="39" />
<line x1="104.72310014315326" x2="104.72310014315326" y1="33" y2="45" />
<line x1="122.02816474630288" x2="122.02816474630288" y1="33" y2="45" />
</g>
</g>
<text fill="hsl(45, 100%, 40%)" y="77">countdown.deep.10000.freer.5+5 1.45 ms</text>
<g>
<title>1.45 ms ± 112 μs</title>
<rect y="83" rx="5" height="22" width="73.89232809489222" fill="hsl(45, 100%, 80%)" stroke="hsl(45, 100%, 55%)" />
<g stroke="hsl(45, 100%, 40%)"><line x1="68.1959461323912" x2="79.58871005739324" y1="94" y2="94" />
<line x1="68.1959461323912" x2="68.1959461323912" y1="88" y2="100" />
<line x1="79.58871005739324" x2="79.58871005739324" y1="88" y2="100" />
</g>
</g>
<text fill="hsl(90, 100%, 40%)" y="132">countdown.deep.10000.polysemy.5+5 4.50 ms</text>
<g>
<title>4.50 ms ± 233 μs</title>
<rect y="138" rx="5" height="22" width="229.43818300653365" fill="hsl(90, 100%, 80%)" stroke="hsl(90, 100%, 55%)" />
<g stroke="hsl(90, 100%, 40%)"><line x1="217.5625492183707" x2="241.3138167946966" y1="149" y2="149" />
<line x1="217.5625492183707" x2="217.5625492183707" y1="143" y2="155" />
<line x1="241.3138167946966" x2="241.3138167946966" y1="143" y2="155" />
</g>
</g>
<g fill="hsl(135, 100%, 40%)">
<text y="187">countdown.deep.10000.fused.5+5</text>
<text y="187" x="866.8111460473178" text-anchor="end">17.0 ms</text>
</g>
<g>
<title>17.0 ms ± 1.4 ms</title>
<rect y="193" rx="5" height="22" width="866.8111460473178" fill="hsl(135, 100%, 80%)" stroke="hsl(135, 100%, 55%)" />
<g stroke="hsl(135, 100%, 40%)"><line x1="793.6222920946357" x2="940.0" y1="204" y2="204" />
<line x1="793.6222920946357" x2="793.6222920946357" y1="198" y2="210" />
<line x1="940.0" x2="940.0" y1="198" y2="210" />
</g>
</g>
<text fill="hsl(180, 100%, 40%)" y="242">countdown.deep.10000.effectful.5+5 263  μs</text>
<g>
<title>263  μs ±  15 μs</title>
<rect y="248" rx="5" height="22" width="13.440494981212726" fill="hsl(180, 100%, 80%)" stroke="hsl(180, 100%, 55%)" />
<g stroke="hsl(180, 100%, 40%)"><line x1="12.659245957995287" x2="14.221744004430166" y1="259" y2="259" />
<line x1="12.659245957995287" x2="12.659245957995287" y1="253" y2="265" />
<line x1="14.221744004430166" x2="14.221744004430166" y1="253" y2="265" />
</g>
</g>
<text fill="hsl(225, 100%, 40%)" y="297">countdown.deep.10000.eff.5+5 613  μs</text>
<g>
<title>613  μs ±  22 μs</title>
<rect y="303" rx="5" height="22" width="31.26874294237728" fill="hsl(225, 100%, 80%)" stroke="hsl(225, 100%, 55%)" />
<g stroke="hsl(225, 100%, 40%)"><line x1="30.158564938799955" x2="32.378920945954604" y1="314" y2="314" />
<line x1="30.158564938799955" x2="30.158564938799955" y1="308" y2="320" />
<line x1="32.378920945954604" x2="32.378920945954604" y1="308" y2="320" />
</g>
</g>
<text fill="hsl(270, 100%, 40%)" y="352">countdown.deep.10000.ev.5+5 279  μs</text>
<g>
<title>279  μs ±  11 μs</title>
<rect y="358" rx="5" height="22" width="14.23517550710259" fill="hsl(270, 100%, 80%)" stroke="hsl(270, 100%, 55%)" />
<g stroke="hsl(270, 100%, 40%)"><line x1="13.68894105745626" x2="14.781409956748918" y1="369" y2="369" />
<line x1="13.68894105745626" x2="13.68894105745626" y1="363" y2="375" />
<line x1="14.781409956748918" x2="14.781409956748918" y1="363" y2="375" />
</g>
</g>
<g fill="hsl(315, 100%, 40%)">
<text y="407">countdown.deep.10000.mtl.5+5</text>
<text y="407" x="526.0036127241602" text-anchor="end">10.3 ms</text>
</g>
<g>
<title>10.3 ms ± 1.0 ms</title>
<rect y="413" rx="5" height="22" width="526.0036127241602" fill="hsl(315, 100%, 80%)" stroke="hsl(315, 100%, 55%)" />
<g stroke="hsl(315, 100%, 40%)"><line x1="473.77131240469055" x2="578.2359130436299" y1="424" y2="424" />
<line x1="473.77131240469055" x2="473.77131240469055" y1="418" y2="430" />
<line x1="578.2359130436299" x2="578.2359130436299" y1="418" y2="430" />
</g>
</g>
</g>
</svg>
