<svg xmlns="http://www.w3.org/2000/svg" height="447" width="960.0" font-size="16" font-family="sans-serif" stroke-width="2">
<g transform="translate(10.0 0)">
<text fill="hsl(0, 100%, 40%)" y="22">countdown.deep.10000.heftia.5+5 2.26 ms</text>
<g>
<title>2.26 ms ± 184 μs</title>
<rect y="28" rx="5" height="22" width="124.65868035243577" fill="hsl(0, 100%, 80%)" stroke="hsl(0, 100%, 55%)" />
<g stroke="hsl(0, 100%, 40%)"><line x1="114.49363175030129" x2="134.82372895457024" y1="39" y2="39" />
<line x1="114.49363175030129" x2="114.49363175030129" y1="33" y2="45" />
<line x1="134.82372895457024" x2="134.82372895457024" y1="33" y2="45" />
</g>
</g>
<text fill="hsl(45, 100%, 40%)" y="77">countdown.deep.10000.freer.5+5 1.47 ms</text>
<g>
<title>1.47 ms ± 104 μs</title>
<rect y="83" rx="5" height="22" width="80.8432992544814" fill="hsl(45, 100%, 80%)" stroke="hsl(45, 100%, 55%)" />
<g stroke="hsl(45, 100%, 40%)"><line x1="75.12478012713164" x2="86.56181838183115" y1="94" y2="94" />
<line x1="75.12478012713164" x2="75.12478012713164" y1="88" y2="100" />
<line x1="86.56181838183115" x2="86.56181838183115" y1="88" y2="100" />
</g>
</g>
<text fill="hsl(90, 100%, 40%)" y="132">countdown.deep.10000.polysemy.5+5 4.40 ms</text>
<g>
<title>4.40 ms ± 438 μs</title>
<rect y="138" rx="5" height="22" width="242.5175135881318" fill="hsl(90, 100%, 80%)" stroke="hsl(90, 100%, 55%)" />
<g stroke="hsl(90, 100%, 40%)"><line x1="218.3508855778136" x2="266.68414159844997" y1="149" y2="149" />
<line x1="218.3508855778136" x2="218.3508855778136" y1="143" y2="155" />
<line x1="266.68414159844997" x2="266.68414159844997" y1="143" y2="155" />
</g>
</g>
<g fill="hsl(135, 100%, 40%)">
<text y="187">countdown.deep.10000.fused.5+5</text>
<text y="187" x="881.4976730570323" text-anchor="end">16.0 ms</text>
</g>
<g>
<title>16.0 ms ± 1.1 ms</title>
<rect y="193" rx="5" height="22" width="881.4976730570323" fill="hsl(135, 100%, 80%)" stroke="hsl(135, 100%, 55%)" />
<g stroke="hsl(135, 100%, 40%)"><line x1="822.9953461140647" x2="940.0" y1="204" y2="204" />
<line x1="822.9953461140647" x2="822.9953461140647" y1="198" y2="210" />
<line x1="940.0" x2="940.0" y1="198" y2="210" />
</g>
</g>
<text fill="hsl(180, 100%, 40%)" y="242">countdown.deep.10000.effectful.5+5 262  μs</text>
<g>
<title>262  μs ±  26 μs</title>
<rect y="248" rx="5" height="22" width="14.462338675222265" fill="hsl(180, 100%, 80%)" stroke="hsl(180, 100%, 55%)" />
<g stroke="hsl(180, 100%, 40%)"><line x1="13.029061475854489" x2="15.89561587459004" y1="259" y2="259" />
<line x1="13.029061475854489" x2="13.029061475854489" y1="253" y2="265" />
<line x1="15.89561587459004" x2="15.89561587459004" y1="253" y2="265" />
</g>
</g>
<text fill="hsl(225, 100%, 40%)" y="297">countdown.deep.10000.eff.5+5 531  μs</text>
<g>
<title>531  μs ±  48 μs</title>
<rect y="303" rx="5" height="22" width="29.311547603007426" fill="hsl(225, 100%, 80%)" stroke="hsl(225, 100%, 55%)" />
<g stroke="hsl(225, 100%, 40%)"><line x1="26.668950108712394" x2="31.954145097302458" y1="314" y2="314" />
<line x1="26.668950108712394" x2="26.668950108712394" y1="308" y2="320" />
<line x1="31.954145097302458" x2="31.954145097302458" y1="308" y2="320" />
</g>
</g>
<text fill="hsl(270, 100%, 40%)" y="352">countdown.deep.10000.ev.5+5 289  μs</text>
<g>
<title>289  μs ± 7.7 μs</title>
<rect y="358" rx="5" height="22" width="15.950237943320333" fill="hsl(270, 100%, 80%)" stroke="hsl(270, 100%, 55%)" />
<g stroke="hsl(270, 100%, 40%)"><line x1="15.525662618598867" x2="16.374813268041798" y1="369" y2="369" />
<line x1="15.525662618598867" x2="15.525662618598867" y1="363" y2="375" />
<line x1="16.374813268041798" x2="16.374813268041798" y1="363" y2="375" />
</g>
</g>
<g fill="hsl(315, 100%, 40%)">
<text y="407">countdown.deep.10000.mtl.5+5</text>
<text y="407" x="552.2295584893599" text-anchor="end">10.0 ms</text>
</g>
<g>
<title>10.0 ms ± 801 μs</title>
<rect y="413" rx="5" height="22" width="552.2295584893599" fill="hsl(315, 100%, 80%)" stroke="hsl(315, 100%, 55%)" />
<g stroke="hsl(315, 100%, 40%)"><line x1="508.0424870413317" x2="596.416629937388" y1="424" y2="424" />
<line x1="508.0424870413317" x2="508.0424870413317" y1="418" y2="430" />
<line x1="596.416629937388" x2="596.416629937388" y1="418" y2="430" />
</g>
</g>
</g>
</svg>
