<svg xmlns="http://www.w3.org/2000/svg" height="392" width="960.0" font-size="16" font-family="sans-serif" stroke-width="2">
<g transform="translate(10.0 0)">
<text fill="hsl(0, 100%, 40%)" y="22">countdown.deep.10000.heftia.5+5 2.40 ms</text>
<g>
<title>2.40 ms ± 207 μs</title>
<rect y="28" rx="5" height="22" width="127.91351472839837" fill="hsl(0, 100%, 80%)" stroke="hsl(0, 100%, 55%)" />
<g stroke="hsl(0, 100%, 40%)"><line x1="116.8938565348659" x2="138.93317292193083" y1="39" y2="39" />
<line x1="116.8938565348659" x2="116.8938565348659" y1="33" y2="45" />
<line x1="138.93317292193083" x2="138.93317292193083" y1="33" y2="45" />
</g>
</g>
<text fill="hsl(51, 100%, 40%)" y="77">countdown.deep.10000.freer.5+5 1.40 ms</text>
<g>
<title>1.40 ms ± 100 μs</title>
<rect y="83" rx="5" height="22" width="74.35169294230064" fill="hsl(51, 100%, 80%)" stroke="hsl(51, 100%, 55%)" />
<g stroke="hsl(51, 100%, 40%)"><line x1="69.05246804958838" x2="79.6509178350129" y1="94" y2="94" />
<line x1="69.05246804958838" x2="69.05246804958838" y1="88" y2="100" />
<line x1="79.6509178350129" x2="79.6509178350129" y1="88" y2="100" />
</g>
</g>
<text fill="hsl(102, 100%, 40%)" y="132">countdown.deep.10000.polysemy.5+5 4.88 ms</text>
<g>
<title>4.88 ms ± 318 μs</title>
<rect y="138" rx="5" height="22" width="259.5568237423944" fill="hsl(102, 100%, 80%)" stroke="hsl(102, 100%, 55%)" />
<g stroke="hsl(102, 100%, 40%)"><line x1="242.63638423983917" x2="276.4772632449496" y1="149" y2="149" />
<line x1="242.63638423983917" x2="242.63638423983917" y1="143" y2="155" />
<line x1="276.4772632449496" x2="276.4772632449496" y1="143" y2="155" />
</g>
</g>
<g fill="hsl(154, 100%, 40%)">
<text y="187">countdown.deep.10000.fused.5+5</text>
<text y="187" x="896.5990911816045" text-anchor="end">16.9 ms</text>
</g>
<g>
<title>16.9 ms ± 816 μs</title>
<rect y="193" rx="5" height="22" width="896.5990911816045" fill="hsl(154, 100%, 80%)" stroke="hsl(154, 100%, 55%)" />
<g stroke="hsl(154, 100%, 40%)"><line x1="853.1981823632091" x2="940.0" y1="204" y2="204" />
<line x1="853.1981823632091" x2="853.1981823632091" y1="198" y2="210" />
<line x1="940.0" x2="940.0" y1="198" y2="210" />
</g>
</g>
<text fill="hsl(205, 100%, 40%)" y="242">countdown.deep.10000.effectful.5+5 268  μs</text>
<g>
<title>268  μs ±  18 μs</title>
<rect y="248" rx="5" height="22" width="14.236435268307979" fill="hsl(205, 100%, 80%)" stroke="hsl(205, 100%, 55%)" />
<g stroke="hsl(205, 100%, 40%)"><line x1="13.254446197233992" x2="15.218424339381965" y1="259" y2="259" />
<line x1="13.254446197233992" x2="13.254446197233992" y1="253" y2="265" />
<line x1="15.218424339381965" x2="15.218424339381965" y1="253" y2="265" />
</g>
</g>
<text fill="hsl(257, 100%, 40%)" y="297">countdown.deep.10000.eff.5+5 535  μs</text>
<g>
<title>535  μs ±  24 μs</title>
<rect y="303" rx="5" height="22" width="28.47697112499521" fill="hsl(257, 100%, 80%)" stroke="hsl(257, 100%, 55%)" />
<g stroke="hsl(257, 100%, 40%)"><line x1="27.183764935004227" x2="29.770177314986192" y1="314" y2="314" />
<line x1="27.183764935004227" x2="27.183764935004227" y1="308" y2="320" />
<line x1="29.770177314986192" x2="29.770177314986192" y1="308" y2="320" />
</g>
</g>
<g fill="hsl(308, 100%, 40%)">
<text y="352">countdown.deep.10000.mtl.5+5</text>
<text y="352" x="558.3272162457954" text-anchor="end">10.5 ms</text>
</g>
<g>
<title>10.5 ms ± 460 μs</title>
<rect y="358" rx="5" height="22" width="558.3272162457954" fill="hsl(308, 100%, 80%)" stroke="hsl(308, 100%, 55%)" />
<g stroke="hsl(308, 100%, 40%)"><line x1="533.8600937452989" x2="582.7943387462919" y1="369" y2="369" />
<line x1="533.8600937452989" x2="533.8600937452989" y1="363" y2="375" />
<line x1="582.7943387462919" x2="582.7943387462919" y1="363" y2="375" />
</g>
</g>
</g>
</svg>
