<svg xmlns="http://www.w3.org/2000/svg" height="447" width="960.0" font-size="16" font-family="sans-serif" stroke-width="2">
<g transform="translate(10.0 0)">
<text fill="hsl(0, 100%, 40%)" y="22">countdown.shallow.10000.heftia 491  μs</text>
<g>
<title>491  μs ±  45 μs</title>
<rect y="28" rx="5" height="22" width="168.25094059464982" fill="hsl(0, 100%, 80%)" stroke="hsl(0, 100%, 55%)" />
<g stroke="hsl(0, 100%, 40%)"><line x1="152.80632736350543" x2="183.6955538257942" y1="39" y2="39" />
<line x1="152.80632736350543" x2="152.80632736350543" y1="33" y2="45" />
<line x1="183.6955538257942" x2="183.6955538257942" y1="33" y2="45" />
</g>
</g>
<text fill="hsl(45, 100%, 40%)" y="77">countdown.shallow.10000.freer 414  μs</text>
<g>
<title>414  μs ±  23 μs</title>
<rect y="83" rx="5" height="22" width="141.73368498916514" fill="hsl(45, 100%, 80%)" stroke="hsl(45, 100%, 55%)" />
<g stroke="hsl(45, 100%, 40%)"><line x1="133.9487044730814" x2="149.5186655052489" y1="94" y2="94" />
<line x1="133.9487044730814" x2="133.9487044730814" y1="88" y2="100" />
<line x1="149.5186655052489" x2="149.5186655052489" y1="88" y2="100" />
</g>
</g>
<g fill="hsl(90, 100%, 40%)">
<text y="132">countdown.shallow.10000.polyemy</text>
<text y="132" x="875.2735019989566" text-anchor="end">2.55 ms</text>
</g>
<g>
<title>2.55 ms ± 189 μs</title>
<rect y="138" rx="5" height="22" width="875.2735019989566" fill="hsl(90, 100%, 80%)" stroke="hsl(90, 100%, 55%)" />
<g stroke="hsl(90, 100%, 40%)"><line x1="810.5470039979132" x2="940.0" y1="149" y2="149" />
<line x1="810.5470039979132" x2="810.5470039979132" y1="143" y2="155" />
<line x1="940.0" x2="940.0" y1="143" y2="155" />
</g>
</g>
<g fill="hsl(135, 100%, 40%)">
<text y="187">countdown.shallow.10000.fused</text>
<text y="187" x="693.8607595373786" text-anchor="end">2.02 ms</text>
</g>
<g>
<title>2.02 ms ± 198 μs</title>
<rect y="193" rx="5" height="22" width="693.8607595373786" fill="hsl(135, 100%, 80%)" stroke="hsl(135, 100%, 55%)" />
<g stroke="hsl(135, 100%, 40%)"><line x1="625.8653135587199" x2="761.8562055160373" y1="204" y2="204" />
<line x1="625.8653135587199" x2="625.8653135587199" y1="198" y2="210" />
<line x1="761.8562055160373" x2="761.8562055160373" y1="198" y2="210" />
</g>
</g>
<text fill="hsl(180, 100%, 40%)" y="242">countdown.shallow.10000.effectful 228  μs</text>
<g>
<title>228  μs ± 9.6 μs</title>
<rect y="248" rx="5" height="22" width="78.20296526589215" fill="hsl(180, 100%, 80%)" stroke="hsl(180, 100%, 55%)" />
<g stroke="hsl(180, 100%, 40%)"><line x1="74.9279309328543" x2="81.47799959893" y1="259" y2="259" />
<line x1="74.9279309328543" x2="74.9279309328543" y1="253" y2="265" />
<line x1="81.47799959893" x2="81.47799959893" y1="253" y2="265" />
</g>
</g>
<text fill="hsl(225, 100%, 40%)" y="297">countdown.shallow.10000.eff 549  μs</text>
<g>
<title>549  μs ±  44 μs</title>
<rect y="303" rx="5" height="22" width="188.07994347989424" fill="hsl(225, 100%, 80%)" stroke="hsl(225, 100%, 55%)" />
<g stroke="hsl(225, 100%, 40%)"><line x1="173.00793803819403" x2="203.15194892159445" y1="314" y2="314" />
<line x1="173.00793803819403" x2="173.00793803819403" y1="308" y2="320" />
<line x1="203.15194892159445" x2="203.15194892159445" y1="308" y2="320" />
</g>
</g>
<text fill="hsl(270, 100%, 40%)" y="352">countdown.shallow.10000.ev 259  μs</text>
<g>
<title>259  μs ±  22 μs</title>
<rect y="358" rx="5" height="22" width="88.64170436620158" fill="hsl(270, 100%, 80%)" stroke="hsl(270, 100%, 55%)" />
<g stroke="hsl(270, 100%, 40%)"><line x1="81.129035987613" x2="96.15437274479017" y1="369" y2="369" />
<line x1="81.129035987613" x2="81.129035987613" y1="363" y2="375" />
<line x1="96.15437274479017" x2="96.15437274479017" y1="363" y2="375" />
</g>
</g>
<text fill="hsl(315, 100%, 40%)" y="407">countdown.shallow.10000.mtl 805  μs</text>
<g>
<title>805  μs ±  78 μs</title>
<rect y="413" rx="5" height="22" width="276.04886942487457" fill="hsl(315, 100%, 80%)" stroke="hsl(315, 100%, 55%)" />
<g stroke="hsl(315, 100%, 40%)"><line x1="249.29365953184046" x2="302.80407931790864" y1="424" y2="424" />
<line x1="249.29365953184046" x2="249.29365953184046" y1="418" y2="430" />
<line x1="302.80407931790864" x2="302.80407931790864" y1="418" y2="430" />
</g>
</g>
</g>
</svg>
