<svg xmlns="http://www.w3.org/2000/svg" height="447" width="960.0" font-size="16" font-family="sans-serif" stroke-width="2">
<g transform="translate(10.0 0)">
<text fill="hsl(0, 100%, 40%)" y="22">countdown.shallow.10000.heftia 477  μs</text>
<g>
<title>477  μs ±  46 μs</title>
<rect y="28" rx="5" height="22" width="145.6059646850941" fill="hsl(0, 100%, 80%)" stroke="hsl(0, 100%, 55%)" />
<g stroke="hsl(0, 100%, 40%)"><line x1="131.57513363056583" x2="159.63679573962239" y1="39" y2="39" />
<line x1="131.57513363056583" x2="131.57513363056583" y1="33" y2="45" />
<line x1="159.63679573962239" x2="159.63679573962239" y1="33" y2="45" />
</g>
</g>
<text fill="hsl(45, 100%, 40%)" y="77">countdown.shallow.10000.freer 427  μs</text>
<g>
<title>427  μs ±  21 μs</title>
<rect y="83" rx="5" height="22" width="130.1362662320007" fill="hsl(45, 100%, 80%)" stroke="hsl(45, 100%, 55%)" />
<g stroke="hsl(45, 100%, 40%)"><line x1="123.69066928516085" x2="136.58186317884056" y1="94" y2="94" />
<line x1="123.69066928516085" x2="123.69066928516085" y1="88" y2="100" />
<line x1="136.58186317884056" x2="136.58186317884056" y1="88" y2="100" />
</g>
</g>
<g fill="hsl(90, 100%, 40%)">
<text y="132">countdown.shallow.10000.polyemy</text>
<text y="132" x="880.3847667453771" text-anchor="end">2.89 ms</text>
</g>
<g>
<title>2.89 ms ± 195 μs</title>
<rect y="138" rx="5" height="22" width="880.3847667453771" fill="hsl(90, 100%, 80%)" stroke="hsl(90, 100%, 55%)" />
<g stroke="hsl(90, 100%, 40%)"><line x1="820.7695334907542" x2="940.0" y1="149" y2="149" />
<line x1="820.7695334907542" x2="820.7695334907542" y1="143" y2="155" />
<line x1="940.0" x2="940.0" y1="143" y2="155" />
</g>
</g>
<g fill="hsl(135, 100%, 40%)">
<text y="187">countdown.shallow.10000.fused</text>
<text y="187" x="680.7944680457089" text-anchor="end">2.23 ms</text>
</g>
<g>
<title>2.23 ms ±  90 μs</title>
<rect y="193" rx="5" height="22" width="680.7944680457089" fill="hsl(135, 100%, 80%)" stroke="hsl(135, 100%, 55%)" />
<g stroke="hsl(135, 100%, 40%)"><line x1="653.350209691935" x2="708.2387263994827" y1="204" y2="204" />
<line x1="653.350209691935" x2="653.350209691935" y1="198" y2="210" />
<line x1="708.2387263994827" x2="708.2387263994827" y1="198" y2="210" />
</g>
</g>
<text fill="hsl(180, 100%, 40%)" y="242">countdown.shallow.10000.effectful 260  μs</text>
<g>
<title>260  μs ±  21 μs</title>
<rect y="248" rx="5" height="22" width="79.31123528423126" fill="hsl(180, 100%, 80%)" stroke="hsl(180, 100%, 55%)" />
<g stroke="hsl(180, 100%, 40%)"><line x1="72.88391167421025" x2="85.73855889425226" y1="259" y2="259" />
<line x1="72.88391167421025" x2="72.88391167421025" y1="253" y2="265" />
<line x1="85.73855889425226" x2="85.73855889425226" y1="253" y2="265" />
</g>
</g>
<text fill="hsl(225, 100%, 40%)" y="297">countdown.shallow.10000.eff 617  μs</text>
<g>
<title>617  μs ±  45 μs</title>
<rect y="303" rx="5" height="22" width="188.3804067710363" fill="hsl(225, 100%, 80%)" stroke="hsl(225, 100%, 55%)" />
<g stroke="hsl(225, 100%, 40%)"><line x1="174.57141228046416" x2="202.18940126160842" y1="314" y2="314" />
<line x1="174.57141228046416" x2="174.57141228046416" y1="308" y2="320" />
<line x1="202.18940126160842" x2="202.18940126160842" y1="308" y2="320" />
</g>
</g>
<text fill="hsl(270, 100%, 40%)" y="352">countdown.shallow.10000.ev 328  μs</text>
<g>
<title>328  μs ±  27 μs</title>
<rect y="358" rx="5" height="22" width="99.91741013951287" fill="hsl(270, 100%, 80%)" stroke="hsl(270, 100%, 55%)" />
<g stroke="hsl(270, 100%, 40%)"><line x1="91.70329782423234" x2="108.1315224547934" y1="369" y2="369" />
<line x1="91.70329782423234" x2="91.70329782423234" y1="363" y2="375" />
<line x1="108.1315224547934" x2="108.1315224547934" y1="363" y2="375" />
</g>
</g>
<g fill="hsl(315, 100%, 40%)">
<text y="407">countdown.shallow.10000.mtl</text>
<text y="407" x="294.08674216624917" text-anchor="end">964  μs</text>
</g>
<g>
<title>964  μs ±  63 μs</title>
<rect y="413" rx="5" height="22" width="294.08674216624917" fill="hsl(315, 100%, 80%)" stroke="hsl(315, 100%, 55%)" />
<g stroke="hsl(315, 100%, 40%)"><line x1="274.82428510486426" x2="313.3491992276341" y1="424" y2="424" />
<line x1="274.82428510486426" x2="274.82428510486426" y1="418" y2="430" />
<line x1="313.3491992276341" x2="313.3491992276341" y1="418" y2="430" />
</g>
</g>
</g>
</svg>
