<svg xmlns="http://www.w3.org/2000/svg" height="447" width="960.0" font-size="16" font-family="sans-serif" stroke-width="2">
<g transform="translate(10.0 0)">
<text fill="hsl(0, 100%, 40%)" y="22">countdown.deep.10000.heftia.5+5 1.67 ms</text>
<g>
<title>1.67 ms ±  89 μs</title>
<rect y="28" rx="5" height="22" width="96.64165891180409" fill="hsl(0, 100%, 80%)" stroke="hsl(0, 100%, 55%)" />
<g stroke="hsl(0, 100%, 40%)"><line x1="91.45391676771085" x2="101.82940105589732" y1="39" y2="39" />
<line x1="91.45391676771085" x2="91.45391676771085" y1="33" y2="45" />
<line x1="101.82940105589732" x2="101.82940105589732" y1="33" y2="45" />
</g>
</g>
<text fill="hsl(45, 100%, 40%)" y="77">countdown.deep.10000.freer.5+5 1.28 ms</text>
<g>
<title>1.28 ms ±  86 μs</title>
<rect y="83" rx="5" height="22" width="74.49394630678972" fill="hsl(45, 100%, 80%)" stroke="hsl(45, 100%, 55%)" />
<g stroke="hsl(45, 100%, 40%)"><line x1="69.52096369002629" x2="79.46692892355316" y1="94" y2="94" />
<line x1="69.52096369002629" x2="69.52096369002629" y1="88" y2="100" />
<line x1="79.46692892355316" x2="79.46692892355316" y1="88" y2="100" />
</g>
</g>
<text fill="hsl(90, 100%, 40%)" y="132">countdown.deep.10000.polysemy.5+5 4.28 ms</text>
<g>
<title>4.28 ms ± 404 μs</title>
<rect y="138" rx="5" height="22" width="248.04739910276584" fill="hsl(90, 100%, 80%)" stroke="hsl(90, 100%, 55%)" />
<g stroke="hsl(90, 100%, 40%)"><line x1="224.62504457414065" x2="271.46975363139103" y1="149" y2="149" />
<line x1="224.62504457414065" x2="224.62504457414065" y1="143" y2="155" />
<line x1="271.46975363139103" x2="271.46975363139103" y1="143" y2="155" />
</g>
</g>
<g fill="hsl(135, 100%, 40%)">
<text y="187">countdown.deep.10000.fused.5+5</text>
<text y="187" x="899.4295779531939" text-anchor="end">15.5 ms</text>
</g>
<g>
<title>15.5 ms ± 699 μs</title>
<rect y="193" rx="5" height="22" width="899.4295779531939" fill="hsl(135, 100%, 80%)" stroke="hsl(135, 100%, 55%)" />
<g stroke="hsl(135, 100%, 40%)"><line x1="858.8591559063877" x2="940.0" y1="204" y2="204" />
<line x1="858.8591559063877" x2="858.8591559063877" y1="198" y2="210" />
<line x1="940.0" x2="940.0" y1="198" y2="210" />
</g>
</g>
<text fill="hsl(180, 100%, 40%)" y="242">countdown.deep.10000.effectful.5+5 229  μs</text>
<g>
<title>229  μs ±  21 μs</title>
<rect y="248" rx="5" height="22" width="13.29751675479751" fill="hsl(180, 100%, 80%)" stroke="hsl(180, 100%, 55%)" />
<g stroke="hsl(180, 100%, 40%)"><line x1="12.0748650263113" x2="14.520168483283719" y1="259" y2="259" />
<line x1="12.0748650263113" x2="12.0748650263113" y1="253" y2="265" />
<line x1="14.520168483283719" x2="14.520168483283719" y1="253" y2="265" />
</g>
</g>
<text fill="hsl(225, 100%, 40%)" y="297">countdown.deep.10000.eff.5+5 543  μs</text>
<g>
<title>543  μs ±  46 μs</title>
<rect y="303" rx="5" height="22" width="31.51537001663638" fill="hsl(225, 100%, 80%)" stroke="hsl(225, 100%, 55%)" />
<g stroke="hsl(225, 100%, 40%)"><line x1="28.83079046930867" x2="34.19994956396409" y1="314" y2="314" />
<line x1="28.83079046930867" x2="28.83079046930867" y1="308" y2="320" />
<line x1="34.19994956396409" x2="34.19994956396409" y1="308" y2="320" />
</g>
</g>
<text fill="hsl(270, 100%, 40%)" y="352">countdown.deep.10000.ev.5+5 287  μs</text>
<g>
<title>287  μs ±  10 μs</title>
<rect y="358" rx="5" height="22" width="16.670625971563204" fill="hsl(270, 100%, 80%)" stroke="hsl(270, 100%, 55%)" />
<g stroke="hsl(270, 100%, 40%)"><line x1="16.08034704108544" x2="17.26090490204097" y1="369" y2="369" />
<line x1="16.08034704108544" x2="16.08034704108544" y1="363" y2="375" />
<line x1="17.26090490204097" x2="17.26090490204097" y1="363" y2="375" />
</g>
</g>
<g fill="hsl(315, 100%, 40%)">
<text y="407">countdown.deep.10000.mtl.5+5</text>
<text y="407" x="555.6845857203424" text-anchor="end">9.58 ms</text>
</g>
<g>
<title>9.58 ms ± 502 μs</title>
<rect y="413" rx="5" height="22" width="555.6845857203424" fill="hsl(315, 100%, 80%)" stroke="hsl(315, 100%, 55%)" />
<g stroke="hsl(315, 100%, 40%)"><line x1="526.5804301083116" x2="584.7887413323732" y1="424" y2="424" />
<line x1="526.5804301083116" x2="526.5804301083116" y1="418" y2="430" />
<line x1="584.7887413323732" x2="584.7887413323732" y1="418" y2="430" />
</g>
</g>
</g>
</svg>
