<svg xmlns="http://www.w3.org/2000/svg" height="447" width="960.0" font-size="16" font-family="sans-serif" stroke-width="2">
<g transform="translate(10.0 0)">
<text fill="hsl(0, 100%, 40%)" y="22">countdown.deep.10000.heftia.5+5 2.19 ms</text>
<g>
<title>2.19 ms ± 101 μs</title>
<rect y="28" rx="5" height="22" width="114.69276577882292" fill="hsl(0, 100%, 80%)" stroke="hsl(0, 100%, 55%)" />
<g stroke="hsl(0, 100%, 40%)"><line x1="109.41053303525975" x2="119.97499852238609" y1="39" y2="39" />
<line x1="109.41053303525975" x2="109.41053303525975" y1="33" y2="45" />
<line x1="119.97499852238609" x2="119.97499852238609" y1="33" y2="45" />
</g>
</g>
<text fill="hsl(45, 100%, 40%)" y="77">countdown.deep.10000.freer.5+5 1.30 ms</text>
<g>
<title>1.30 ms ±  93 μs</title>
<rect y="83" rx="5" height="22" width="67.94681676314937" fill="hsl(45, 100%, 80%)" stroke="hsl(45, 100%, 55%)" />
<g stroke="hsl(45, 100%, 40%)"><line x1="63.07848596116848" x2="72.81514756513026" y1="94" y2="94" />
<line x1="63.07848596116848" x2="63.07848596116848" y1="88" y2="100" />
<line x1="72.81514756513026" x2="72.81514756513026" y1="88" y2="100" />
</g>
</g>
<text fill="hsl(90, 100%, 40%)" y="132">countdown.deep.10000.polysemy.5+5 4.57 ms</text>
<g>
<title>4.57 ms ± 433 μs</title>
<rect y="138" rx="5" height="22" width="239.08716426904314" fill="hsl(90, 100%, 80%)" stroke="hsl(90, 100%, 55%)" />
<g stroke="hsl(90, 100%, 40%)"><line x1="216.4681879989124" x2="261.7061405391739" y1="149" y2="149" />
<line x1="216.4681879989124" x2="216.4681879989124" y1="143" y2="155" />
<line x1="261.7061405391739" x2="261.7061405391739" y1="143" y2="155" />
</g>
</g>
<g fill="hsl(135, 100%, 40%)">
<text y="187">countdown.deep.10000.fused.5+5</text>
<text y="187" x="882.8463148624996" text-anchor="end">16.9 ms</text>
</g>
<g>
<title>16.9 ms ± 1.1 ms</title>
<rect y="193" rx="5" height="22" width="882.8463148624996" fill="hsl(135, 100%, 80%)" stroke="hsl(135, 100%, 55%)" />
<g stroke="hsl(135, 100%, 40%)"><line x1="825.6926297249993" x2="940.0" y1="204" y2="204" />
<line x1="825.6926297249993" x2="825.6926297249993" y1="198" y2="210" />
<line x1="940.0" x2="940.0" y1="198" y2="210" />
</g>
</g>
<text fill="hsl(180, 100%, 40%)" y="242">countdown.deep.10000.effectful.5+5 258  μs</text>
<g>
<title>258  μs ±  22 μs</title>
<rect y="248" rx="5" height="22" width="13.476971895686118" fill="hsl(180, 100%, 80%)" stroke="hsl(180, 100%, 55%)" />
<g stroke="hsl(180, 100%, 40%)"><line x1="12.329396045034354" x2="14.624547746337882" y1="259" y2="259" />
<line x1="12.329396045034354" x2="12.329396045034354" y1="253" y2="265" />
<line x1="14.624547746337882" x2="14.624547746337882" y1="253" y2="265" />
</g>
</g>
<text fill="hsl(225, 100%, 40%)" y="297">countdown.deep.10000.eff.5+5 628  μs</text>
<g>
<title>628  μs ±  28 μs</title>
<rect y="303" rx="5" height="22" width="32.83213915460094" fill="hsl(225, 100%, 80%)" stroke="hsl(225, 100%, 55%)" />
<g stroke="hsl(225, 100%, 40%)"><line x1="31.39013388908872" x2="34.27414442011315" y1="314" y2="314" />
<line x1="31.39013388908872" x2="31.39013388908872" y1="308" y2="320" />
<line x1="34.27414442011315" x2="34.27414442011315" y1="308" y2="320" />
</g>
</g>
<text fill="hsl(270, 100%, 40%)" y="352">countdown.deep.10000.ev.5+5 288  μs</text>
<g>
<title>288  μs ±  22 μs</title>
<rect y="358" rx="5" height="22" width="15.066119672241104" fill="hsl(270, 100%, 80%)" stroke="hsl(270, 100%, 55%)" />
<g stroke="hsl(270, 100%, 40%)"><line x1="13.904601920223692" x2="16.227637424258518" y1="369" y2="369" />
<line x1="13.904601920223692" x2="13.904601920223692" y1="363" y2="375" />
<line x1="16.227637424258518" x2="16.227637424258518" y1="363" y2="375" />
</g>
</g>
<g fill="hsl(315, 100%, 40%)">
<text y="407">countdown.deep.10000.mtl.5+5</text>
<text y="407" x="533.444634985028" text-anchor="end">10.2 ms</text>
</g>
<g>
<title>10.2 ms ± 221 μs</title>
<rect y="413" rx="5" height="22" width="533.444634985028" fill="hsl(315, 100%, 80%)" stroke="hsl(315, 100%, 55%)" />
<g stroke="hsl(315, 100%, 40%)"><line x1="521.8991328862045" x2="544.9901370838514" y1="424" y2="424" />
<line x1="521.8991328862045" x2="521.8991328862045" y1="418" y2="430" />
<line x1="544.9901370838514" x2="544.9901370838514" y1="418" y2="430" />
</g>
</g>
</g>
</svg>
