<svg xmlns="http://www.w3.org/2000/svg" height="447" width="960.0" font-size="16" font-family="sans-serif" stroke-width="2">
<g transform="translate(10.0 0)">
<text fill="hsl(0, 100%, 40%)" y="22">countdown.deep.10000.heftia.5+5 2.25 ms</text>
<g>
<title>2.25 ms ±  98 μs</title>
<rect y="28" rx="5" height="22" width="127.19603024202077" fill="hsl(0, 100%, 80%)" stroke="hsl(0, 100%, 55%)" />
<g stroke="hsl(0, 100%, 40%)"><line x1="121.65084662393869" x2="132.74121386010285" y1="39" y2="39" />
<line x1="121.65084662393869" x2="121.65084662393869" y1="33" y2="45" />
<line x1="132.74121386010285" x2="132.74121386010285" y1="33" y2="45" />
</g>
</g>
<text fill="hsl(45, 100%, 40%)" y="77">countdown.deep.10000.freer.5+5 1.36 ms</text>
<g>
<title>1.36 ms ±  88 μs</title>
<rect y="83" rx="5" height="22" width="76.58743215489245" fill="hsl(45, 100%, 80%)" stroke="hsl(45, 100%, 55%)" />
<g stroke="hsl(45, 100%, 40%)"><line x1="71.61683313147522" x2="81.55803117830969" y1="94" y2="94" />
<line x1="71.61683313147522" x2="71.61683313147522" y1="88" y2="100" />
<line x1="81.55803117830969" x2="81.55803117830969" y1="88" y2="100" />
</g>
</g>
<text fill="hsl(90, 100%, 40%)" y="132">countdown.deep.10000.polysemy.5+5 4.34 ms</text>
<g>
<title>4.34 ms ± 371 μs</title>
<rect y="138" rx="5" height="22" width="245.4724462964135" fill="hsl(90, 100%, 80%)" stroke="hsl(90, 100%, 55%)" />
<g stroke="hsl(90, 100%, 40%)"><line x1="224.51741392491894" x2="266.427478667908" y1="149" y2="149" />
<line x1="224.51741392491894" x2="224.51741392491894" y1="143" y2="155" />
<line x1="266.427478667908" x2="266.427478667908" y1="143" y2="155" />
</g>
</g>
<g fill="hsl(135, 100%, 40%)">
<text y="187">countdown.deep.10000.fused.5+5</text>
<text y="187" x="903.1669495718569" text-anchor="end">16.0 ms</text>
</g>
<g>
<title>16.0 ms ± 652 μs</title>
<rect y="193" rx="5" height="22" width="903.1669495718569" fill="hsl(135, 100%, 80%)" stroke="hsl(135, 100%, 55%)" />
<g stroke="hsl(135, 100%, 40%)"><line x1="866.3338991437138" x2="940.0" y1="204" y2="204" />
<line x1="866.3338991437138" x2="866.3338991437138" y1="198" y2="210" />
<line x1="940.0" x2="940.0" y1="198" y2="210" />
</g>
</g>
<text fill="hsl(180, 100%, 40%)" y="242">countdown.deep.10000.effectful.5+5 266  μs</text>
<g>
<title>266  μs ± 6.1 μs</title>
<rect y="248" rx="5" height="22" width="15.05315705862626" fill="hsl(180, 100%, 80%)" stroke="hsl(180, 100%, 55%)" />
<g stroke="hsl(180, 100%, 40%)"><line x1="14.710863325137064" x2="15.395450792115456" y1="259" y2="259" />
<line x1="14.710863325137064" x2="14.710863325137064" y1="253" y2="265" />
<line x1="15.395450792115456" x2="15.395450792115456" y1="253" y2="265" />
</g>
</g>
<text fill="hsl(225, 100%, 40%)" y="297">countdown.deep.10000.eff.5+5 562  μs</text>
<g>
<title>562  μs ±  44 μs</title>
<rect y="303" rx="5" height="22" width="31.76130977695394" fill="hsl(225, 100%, 80%)" stroke="hsl(225, 100%, 55%)" />
<g stroke="hsl(225, 100%, 40%)"><line x1="29.258349202309937" x2="34.26427035159794" y1="314" y2="314" />
<line x1="29.258349202309937" x2="29.258349202309937" y1="308" y2="320" />
<line x1="34.26427035159794" x2="34.26427035159794" y1="308" y2="320" />
</g>
</g>
<text fill="hsl(270, 100%, 40%)" y="352">countdown.deep.10000.ev.5+5 290  μs</text>
<g>
<title>290  μs ±  16 μs</title>
<rect y="358" rx="5" height="22" width="16.368528507583648" fill="hsl(270, 100%, 80%)" stroke="hsl(270, 100%, 55%)" />
<g stroke="hsl(270, 100%, 40%)"><line x1="15.452858358860004" x2="17.284198656307293" y1="369" y2="369" />
<line x1="15.452858358860004" x2="15.452858358860004" y1="363" y2="375" />
<line x1="17.284198656307293" x2="17.284198656307293" y1="363" y2="375" />
</g>
</g>
<g fill="hsl(315, 100%, 40%)">
<text y="407">countdown.deep.10000.mtl.5+5</text>
<text y="407" x="581.5252775140275" text-anchor="end">10.3 ms</text>
</g>
<g>
<title>10.3 ms ± 383 μs</title>
<rect y="413" rx="5" height="22" width="581.5252775140275" fill="hsl(315, 100%, 80%)" stroke="hsl(315, 100%, 55%)" />
<g stroke="hsl(315, 100%, 40%)"><line x1="559.8720695561386" x2="603.1784854719164" y1="424" y2="424" />
<line x1="559.8720695561386" x2="559.8720695561386" y1="418" y2="430" />
<line x1="603.1784854719164" x2="603.1784854719164" y1="418" y2="430" />
</g>
</g>
</g>
</svg>
