<svg xmlns="http://www.w3.org/2000/svg" height="1327" width="960.0" font-size="16" font-family="sans-serif" stroke-width="2">
<g transform="translate(10.0 0)">
<text fill="hsl(0, 100%, 40%)" y="22">filesize.shallow.1000.reference 2.12 ms</text>
<g>
<title>2.12 ms ± 207 μs</title>
<rect y="28" rx="5" height="22" width="102.28976305523935" fill="hsl(0, 100%, 80%)" stroke="hsl(0, 100%, 55%)" />
<g stroke="hsl(0, 100%, 40%)"><line x1="92.30408785641549" x2="112.2754382540632" y1="39" y2="39" />
<line x1="92.30408785641549" x2="92.30408785641549" y1="33" y2="45" />
<line x1="112.2754382540632" x2="112.2754382540632" y1="33" y2="45" />
</g>
</g>
<text fill="hsl(15, 100%, 40%)" y="77">filesize.shallow.1000.heftia 2.68 ms</text>
<g>
<title>2.68 ms ± 261 μs</title>
<rect y="83" rx="5" height="22" width="129.3790555633173" fill="hsl(15, 100%, 80%)" stroke="hsl(15, 100%, 55%)" />
<g stroke="hsl(15, 100%, 40%)"><line x1="116.78098079260923" x2="141.9771303340254" y1="94" y2="94" />
<line x1="116.78098079260923" x2="116.78098079260923" y1="88" y2="100" />
<line x1="141.9771303340254" x2="141.9771303340254" y1="88" y2="100" />
</g>
</g>
<text fill="hsl(30, 100%, 40%)" y="132">filesize.shallow.1000.effectful 2.17 ms</text>
<g>
<title>2.17 ms ± 188 μs</title>
<rect y="138" rx="5" height="22" width="104.66849285106821" fill="hsl(30, 100%, 80%)" stroke="hsl(30, 100%, 55%)" />
<g stroke="hsl(30, 100%, 40%)"><line x1="95.58883770610765" x2="113.74814799602876" y1="149" y2="149" />
<line x1="95.58883770610765" x2="95.58883770610765" y1="143" y2="155" />
<line x1="113.74814799602876" x2="113.74814799602876" y1="143" y2="155" />
</g>
</g>
<text fill="hsl(45, 100%, 40%)" y="187">filesize.shallow.1000.freer-simple 2.68 ms</text>
<g>
<title>2.68 ms ± 264 μs</title>
<rect y="193" rx="5" height="22" width="129.23713769668942" fill="hsl(45, 100%, 80%)" stroke="hsl(45, 100%, 55%)" />
<g stroke="hsl(45, 100%, 40%)"><line x1="116.50971206427576" x2="141.96456332910307" y1="204" y2="204" />
<line x1="116.50971206427576" x2="116.50971206427576" y1="198" y2="210" />
<line x1="141.96456332910307" x2="141.96456332910307" y1="198" y2="210" />
</g>
</g>
<text fill="hsl(60, 100%, 40%)" y="242">filesize.shallow.1000.eff 2.83 ms</text>
<g>
<title>2.83 ms ± 222 μs</title>
<rect y="248" rx="5" height="22" width="136.65423987321782" fill="hsl(60, 100%, 80%)" stroke="hsl(60, 100%, 55%)" />
<g stroke="hsl(60, 100%, 40%)"><line x1="125.95351999264788" x2="147.35495975378774" y1="259" y2="259" />
<line x1="125.95351999264788" x2="125.95351999264788" y1="253" y2="265" />
<line x1="147.35495975378774" x2="147.35495975378774" y1="253" y2="265" />
</g>
</g>
<text fill="hsl(75, 100%, 40%)" y="297">filesize.shallow.1000.mtl 2.70 ms</text>
<g>
<title>2.70 ms ± 206 μs</title>
<rect y="303" rx="5" height="22" width="130.0775031953978" fill="hsl(75, 100%, 80%)" stroke="hsl(75, 100%, 55%)" />
<g stroke="hsl(75, 100%, 40%)"><line x1="120.14770110477663" x2="140.007305286019" y1="314" y2="314" />
<line x1="120.14770110477663" x2="120.14770110477663" y1="308" y2="320" />
<line x1="140.007305286019" x2="140.007305286019" y1="308" y2="320" />
</g>
</g>
<text fill="hsl(90, 100%, 40%)" y="352">filesize.shallow.1000.fused-effects 4.27 ms</text>
<g>
<title>4.27 ms ± 425 μs</title>
<rect y="358" rx="5" height="22" width="206.26366034901335" fill="hsl(90, 100%, 80%)" stroke="hsl(90, 100%, 55%)" />
<g stroke="hsl(90, 100%, 40%)"><line x1="185.77170835353314" x2="226.75561234449356" y1="369" y2="369" />
<line x1="185.77170835353314" x2="185.77170835353314" y1="363" y2="375" />
<line x1="226.75561234449356" x2="226.75561234449356" y1="363" y2="375" />
</g>
</g>
<text fill="hsl(105, 100%, 40%)" y="407">filesize.shallow.1000.polysemy 5.96 ms</text>
<g>
<title>5.96 ms ± 535 μs</title>
<rect y="413" rx="5" height="22" width="287.4727590001431" fill="hsl(105, 100%, 80%)" stroke="hsl(105, 100%, 55%)" />
<g stroke="hsl(105, 100%, 40%)"><line x1="261.639539360312" x2="313.3059786399742" y1="424" y2="424" />
<line x1="261.639539360312" x2="261.639539360312" y1="418" y2="430" />
<line x1="313.3059786399742" x2="313.3059786399742" y1="418" y2="430" />
</g>
</g>
<text fill="hsl(120, 100%, 40%)" y="462">filesize.shallow.2000.reference 4.36 ms</text>
<g>
<title>4.36 ms ± 141 μs</title>
<rect y="468" rx="5" height="22" width="210.49482986710026" fill="hsl(120, 100%, 80%)" stroke="hsl(120, 100%, 55%)" />
<g stroke="hsl(120, 100%, 40%)"><line x1="203.70904744842076" x2="217.28061228577977" y1="479" y2="479" />
<line x1="203.70904744842076" x2="203.70904744842076" y1="473" y2="485" />
<line x1="217.28061228577977" x2="217.28061228577977" y1="473" y2="485" />
</g>
</g>
<text fill="hsl(135, 100%, 40%)" y="517">filesize.shallow.2000.heftia 5.57 ms</text>
<g>
<title>5.57 ms ± 346 μs</title>
<rect y="523" rx="5" height="22" width="268.8601838889919" fill="hsl(135, 100%, 80%)" stroke="hsl(135, 100%, 55%)" />
<g stroke="hsl(135, 100%, 40%)"><line x1="252.18241181870727" x2="285.5379559592766" y1="534" y2="534" />
<line x1="252.18241181870727" x2="252.18241181870727" y1="528" y2="540" />
<line x1="285.5379559592766" x2="285.5379559592766" y1="528" y2="540" />
</g>
</g>
<text fill="hsl(150, 100%, 40%)" y="572">filesize.shallow.2000.effectful 4.53 ms</text>
<g>
<title>4.53 ms ± 446 μs</title>
<rect y="578" rx="5" height="22" width="218.59930616107889" fill="hsl(150, 100%, 80%)" stroke="hsl(150, 100%, 55%)" />
<g stroke="hsl(150, 100%, 40%)"><line x1="197.0736517666325" x2="240.12496055552526" y1="589" y2="589" />
<line x1="197.0736517666325" x2="197.0736517666325" y1="583" y2="595" />
<line x1="240.12496055552526" x2="240.12496055552526" y1="583" y2="595" />
</g>
</g>
<text fill="hsl(165, 100%, 40%)" y="627">filesize.shallow.2000.freer-simple 5.61 ms</text>
<g>
<title>5.61 ms ± 559 μs</title>
<rect y="633" rx="5" height="22" width="270.5474746814373" fill="hsl(165, 100%, 80%)" stroke="hsl(165, 100%, 55%)" />
<g stroke="hsl(165, 100%, 40%)"><line x1="243.5566792792726" x2="297.53827008360196" y1="644" y2="644" />
<line x1="243.5566792792726" x2="243.5566792792726" y1="638" y2="650" />
<line x1="297.53827008360196" x2="297.53827008360196" y1="638" y2="650" />
</g>
</g>
<g fill="hsl(180, 100%, 40%)">
<text y="682">filesize.shallow.2000.eff</text>
<text y="682" x="283.972992826378" text-anchor="end">5.88 ms</text>
</g>
<g>
<title>5.88 ms ± 263 μs</title>
<rect y="688" rx="5" height="22" width="283.972992826378" fill="hsl(180, 100%, 80%)" stroke="hsl(180, 100%, 55%)" />
<g stroke="hsl(180, 100%, 40%)"><line x1="271.29404335344736" x2="296.65194229930864" y1="699" y2="699" />
<line x1="271.29404335344736" x2="271.29404335344736" y1="693" y2="705" />
<line x1="296.65194229930864" x2="296.65194229930864" y1="693" y2="705" />
</g>
</g>
<g fill="hsl(195, 100%, 40%)">
<text y="737">filesize.shallow.2000.mtl</text>
<text y="737" x="280.81974086640764" text-anchor="end">5.82 ms</text>
</g>
<g>
<title>5.82 ms ± 204 μs</title>
<rect y="743" rx="5" height="22" width="280.81974086640764" fill="hsl(195, 100%, 80%)" stroke="hsl(195, 100%, 55%)" />
<g stroke="hsl(195, 100%, 40%)"><line x1="270.96698548321416" x2="290.6724962496011" y1="754" y2="754" />
<line x1="270.96698548321416" x2="270.96698548321416" y1="748" y2="760" />
<line x1="290.6724962496011" x2="290.6724962496011" y1="748" y2="760" />
</g>
</g>
<g fill="hsl(210, 100%, 40%)">
<text y="792">filesize.shallow.2000.fused-effects</text>
<text y="792" x="406.0208310495647" text-anchor="end">8.41 ms</text>
</g>
<g>
<title>8.41 ms ± 499 μs</title>
<rect y="798" rx="5" height="22" width="406.0208310495647" fill="hsl(210, 100%, 80%)" stroke="hsl(210, 100%, 55%)" />
<g stroke="hsl(210, 100%, 40%)"><line x1="381.96399431006466" x2="430.0776677890648" y1="809" y2="809" />
<line x1="381.96399431006466" x2="381.96399431006466" y1="803" y2="815" />
<line x1="430.0776677890648" x2="430.0776677890648" y1="803" y2="815" />
</g>
</g>
<g fill="hsl(225, 100%, 40%)">
<text y="847">filesize.shallow.2000.polysemy</text>
<text y="847" x="595.5469544302083" text-anchor="end">12.3 ms</text>
</g>
<g>
<title>12.3 ms ± 795 μs</title>
<rect y="853" rx="5" height="22" width="595.5469544302083" fill="hsl(225, 100%, 80%)" stroke="hsl(225, 100%, 55%)" />
<g stroke="hsl(225, 100%, 40%)"><line x1="557.1997124121476" x2="633.894196448269" y1="864" y2="864" />
<line x1="557.1997124121476" x2="557.1997124121476" y1="858" y2="870" />
<line x1="633.894196448269" x2="633.894196448269" y1="858" y2="870" />
</g>
</g>
<g fill="hsl(240, 100%, 40%)">
<text y="902">filesize.shallow.3000.reference</text>
<text y="902" x="318.7303468656782" text-anchor="end">6.60 ms</text>
</g>
<g>
<title>6.60 ms ± 542 μs</title>
<rect y="908" rx="5" height="22" width="318.7303468656782" fill="hsl(240, 100%, 80%)" stroke="hsl(240, 100%, 55%)" />
<g stroke="hsl(240, 100%, 40%)"><line x1="292.5583277297976" x2="344.9023660015588" y1="919" y2="919" />
<line x1="292.5583277297976" x2="292.5583277297976" y1="913" y2="925" />
<line x1="344.9023660015588" x2="344.9023660015588" y1="913" y2="925" />
</g>
</g>
<g fill="hsl(255, 100%, 40%)">
<text y="957">filesize.shallow.3000.heftia</text>
<text y="957" x="417.53450582229067" text-anchor="end">8.65 ms</text>
</g>
<g>
<title>8.65 ms ± 397 μs</title>
<rect y="963" rx="5" height="22" width="417.53450582229067" fill="hsl(255, 100%, 80%)" stroke="hsl(255, 100%, 55%)" />
<g stroke="hsl(255, 100%, 40%)"><line x1="398.39578661346883" x2="436.6732250311125" y1="974" y2="974" />
<line x1="398.39578661346883" x2="398.39578661346883" y1="968" y2="980" />
<line x1="436.6732250311125" x2="436.6732250311125" y1="968" y2="980" />
</g>
</g>
<g fill="hsl(270, 100%, 40%)">
<text y="1012">filesize.shallow.3000.effectful</text>
<text y="1012" x="328.87563332012616" text-anchor="end">6.82 ms</text>
</g>
<g>
<title>6.82 ms ± 444 μs</title>
<rect y="1018" rx="5" height="22" width="328.87563332012616" fill="hsl(270, 100%, 80%)" stroke="hsl(270, 100%, 55%)" />
<g stroke="hsl(270, 100%, 40%)"><line x1="307.45975048627236" x2="350.29151615397996" y1="1029" y2="1029" />
<line x1="307.45975048627236" x2="307.45975048627236" y1="1023" y2="1035" />
<line x1="350.29151615397996" x2="350.29151615397996" y1="1023" y2="1035" />
</g>
</g>
<g fill="hsl(285, 100%, 40%)">
<text y="1067">filesize.shallow.3000.freer-simple</text>
<text y="1067" x="416.9267267413044" text-anchor="end">8.64 ms</text>
</g>
<g>
<title>8.64 ms ± 831 μs</title>
<rect y="1073" rx="5" height="22" width="416.9267267413044" fill="hsl(285, 100%, 80%)" stroke="hsl(285, 100%, 55%)" />
<g stroke="hsl(285, 100%, 40%)"><line x1="376.8163525741255" x2="457.03710090848324" y1="1084" y2="1084" />
<line x1="376.8163525741255" x2="376.8163525741255" y1="1078" y2="1090" />
<line x1="457.03710090848324" x2="457.03710090848324" y1="1078" y2="1090" />
</g>
</g>
<g fill="hsl(300, 100%, 40%)">
<text y="1122">filesize.shallow.3000.eff</text>
<text y="1122" x="408.6843471351059" text-anchor="end">8.47 ms</text>
</g>
<g>
<title>8.47 ms ± 266 μs</title>
<rect y="1128" rx="5" height="22" width="408.6843471351059" fill="hsl(300, 100%, 80%)" stroke="hsl(300, 100%, 55%)" />
<g stroke="hsl(300, 100%, 40%)"><line x1="395.83536396856374" x2="421.53333030164805" y1="1139" y2="1139" />
<line x1="395.83536396856374" x2="395.83536396856374" y1="1133" y2="1145" />
<line x1="421.53333030164805" x2="421.53333030164805" y1="1133" y2="1145" />
</g>
</g>
<g fill="hsl(315, 100%, 40%)">
<text y="1177">filesize.shallow.3000.mtl</text>
<text y="1177" x="422.0903551787487" text-anchor="end">8.75 ms</text>
</g>
<g>
<title>8.75 ms ± 668 μs</title>
<rect y="1183" rx="5" height="22" width="422.0903551787487" fill="hsl(315, 100%, 80%)" stroke="hsl(315, 100%, 55%)" />
<g stroke="hsl(315, 100%, 40%)"><line x1="389.83261292671966" x2="454.3480974307778" y1="1194" y2="1194" />
<line x1="389.83261292671966" x2="389.83261292671966" y1="1188" y2="1200" />
<line x1="454.3480974307778" x2="454.3480974307778" y1="1188" y2="1200" />
</g>
</g>
<g fill="hsl(330, 100%, 40%)">
<text y="1232">filesize.shallow.3000.fused-effects</text>
<text y="1232" x="627.3121475506094" text-anchor="end">13.0 ms</text>
</g>
<g>
<title>13.0 ms ± 1.1 ms</title>
<rect y="1238" rx="5" height="22" width="627.3121475506094" fill="hsl(330, 100%, 80%)" stroke="hsl(330, 100%, 55%)" />
<g stroke="hsl(330, 100%, 40%)"><line x1="573.2735938133737" x2="681.3507012878451" y1="1249" y2="1249" />
<line x1="573.2735938133737" x2="573.2735938133737" y1="1243" y2="1255" />
<line x1="681.3507012878451" x2="681.3507012878451" y1="1243" y2="1255" />
</g>
</g>
<g fill="hsl(345, 100%, 40%)">
<text y="1287">filesize.shallow.3000.polysemy</text>
<text y="1287" x="892.5567713910667" text-anchor="end">18.5 ms</text>
</g>
<g>
<title>18.5 ms ± 983 μs</title>
<rect y="1293" rx="5" height="22" width="892.5567713910667" fill="hsl(345, 100%, 80%)" stroke="hsl(345, 100%, 55%)" />
<g stroke="hsl(345, 100%, 40%)"><line x1="845.1135427821334" x2="940.0" y1="1304" y2="1304" />
<line x1="845.1135427821334" x2="845.1135427821334" y1="1298" y2="1310" />
<line x1="940.0" x2="940.0" y1="1298" y2="1310" />
</g>
</g>
</g>
</svg>
