<svg xmlns="http://www.w3.org/2000/svg" height="1327" width="960.0" font-size="16" font-family="sans-serif" stroke-width="2">
<g transform="translate(10.0 0)">
<text fill="hsl(0, 100%, 40%)" y="22">filesize.deep.1000.reference 2.10 ms</text>
<g>
<title>2.10 ms ± 209 μs</title>
<rect y="28" rx="5" height="22" width="74.12464025005282" fill="hsl(0, 100%, 80%)" stroke="hsl(0, 100%, 55%)" />
<g stroke="hsl(0, 100%, 40%)"><line x1="66.73786184255373" x2="81.51141865755191" y1="39" y2="39" />
<line x1="66.73786184255373" x2="66.73786184255373" y1="33" y2="45" />
<line x1="81.51141865755191" x2="81.51141865755191" y1="33" y2="45" />
</g>
</g>
<text fill="hsl(15, 100%, 40%)" y="77">filesize.deep.1000.heftia 3.10 ms</text>
<g>
<title>3.10 ms ± 235 μs</title>
<rect y="83" rx="5" height="22" width="109.51824284389221" fill="hsl(15, 100%, 80%)" stroke="hsl(15, 100%, 55%)" />
<g stroke="hsl(15, 100%, 40%)"><line x1="101.19031698765315" x2="117.84616870013127" y1="94" y2="94" />
<line x1="101.19031698765315" x2="101.19031698765315" y1="88" y2="100" />
<line x1="117.84616870013127" x2="117.84616870013127" y1="88" y2="100" />
</g>
</g>
<text fill="hsl(30, 100%, 40%)" y="132">filesize.deep.1000.effectful 2.18 ms</text>
<g>
<title>2.18 ms ± 198 μs</title>
<rect y="138" rx="5" height="22" width="77.12727341911844" fill="hsl(30, 100%, 80%)" stroke="hsl(30, 100%, 55%)" />
<g stroke="hsl(30, 100%, 40%)"><line x1="70.11255424654583" x2="84.14199259169105" y1="149" y2="149" />
<line x1="70.11255424654583" x2="70.11255424654583" y1="143" y2="155" />
<line x1="84.14199259169105" x2="84.14199259169105" y1="143" y2="155" />
</g>
</g>
<text fill="hsl(45, 100%, 40%)" y="187">filesize.deep.1000.freer-simple 2.89 ms</text>
<g>
<title>2.89 ms ± 179 μs</title>
<rect y="193" rx="5" height="22" width="102.2537577218297" fill="hsl(45, 100%, 80%)" stroke="hsl(45, 100%, 55%)" />
<g stroke="hsl(45, 100%, 40%)"><line x1="95.9347025812575" x2="108.5728128624019" y1="204" y2="204" />
<line x1="95.9347025812575" x2="95.9347025812575" y1="198" y2="210" />
<line x1="108.5728128624019" x2="108.5728128624019" y1="198" y2="210" />
</g>
</g>
<text fill="hsl(60, 100%, 40%)" y="242">filesize.deep.1000.eff 2.79 ms</text>
<g>
<title>2.79 ms ± 100 μs</title>
<rect y="248" rx="5" height="22" width="98.83076121503794" fill="hsl(60, 100%, 80%)" stroke="hsl(60, 100%, 55%)" />
<g stroke="hsl(60, 100%, 40%)"><line x1="95.30670835372764" x2="102.35481407634823" y1="259" y2="259" />
<line x1="95.30670835372764" x2="95.30670835372764" y1="253" y2="265" />
<line x1="102.35481407634823" x2="102.35481407634823" y1="253" y2="265" />
</g>
</g>
<text fill="hsl(75, 100%, 40%)" y="297">filesize.deep.1000.mtl 5.51 ms</text>
<g>
<title>5.51 ms ± 358 μs</title>
<rect y="303" rx="5" height="22" width="194.78571371568827" fill="hsl(75, 100%, 80%)" stroke="hsl(75, 100%, 55%)" />
<g stroke="hsl(75, 100%, 40%)"><line x1="182.12843447724106" x2="207.4429929541355" y1="314" y2="314" />
<line x1="182.12843447724106" x2="182.12843447724106" y1="308" y2="320" />
<line x1="207.4429929541355" x2="207.4429929541355" y1="308" y2="320" />
</g>
</g>
<text fill="hsl(90, 100%, 40%)" y="352">filesize.deep.1000.fused-effects 8.28 ms</text>
<g>
<title>8.28 ms ± 685 μs</title>
<rect y="358" rx="5" height="22" width="292.8604527898899" fill="hsl(90, 100%, 80%)" stroke="hsl(90, 100%, 55%)" />
<g stroke="hsl(90, 100%, 40%)"><line x1="268.64474790149586" x2="317.07615767828395" y1="369" y2="369" />
<line x1="268.64474790149586" x2="268.64474790149586" y1="363" y2="375" />
<line x1="317.07615767828395" x2="317.07615767828395" y1="363" y2="375" />
</g>
</g>
<text fill="hsl(105, 100%, 40%)" y="407">filesize.deep.1000.polysemy 6.45 ms</text>
<g>
<title>6.45 ms ± 354 μs</title>
<rect y="413" rx="5" height="22" width="228.19612989549313" fill="hsl(105, 100%, 80%)" stroke="hsl(105, 100%, 55%)" />
<g stroke="hsl(105, 100%, 40%)"><line x1="215.68961216631158" x2="240.70264762467468" y1="424" y2="424" />
<line x1="215.68961216631158" x2="215.68961216631158" y1="418" y2="430" />
<line x1="240.70264762467468" x2="240.70264762467468" y1="418" y2="430" />
</g>
</g>
<text fill="hsl(120, 100%, 40%)" y="462">filesize.deep.2000.reference 4.33 ms</text>
<g>
<title>4.33 ms ± 403 μs</title>
<rect y="468" rx="5" height="22" width="153.27373711150733" fill="hsl(120, 100%, 80%)" stroke="hsl(120, 100%, 55%)" />
<g stroke="hsl(120, 100%, 40%)"><line x1="139.0177589104648" x2="167.52971531254985" y1="479" y2="479" />
<line x1="139.0177589104648" x2="139.0177589104648" y1="473" y2="485" />
<line x1="167.52971531254985" x2="167.52971531254985" y1="473" y2="485" />
</g>
</g>
<text fill="hsl(135, 100%, 40%)" y="517">filesize.deep.2000.heftia 6.42 ms</text>
<g>
<title>6.42 ms ± 371 μs</title>
<rect y="523" rx="5" height="22" width="227.05992055781766" fill="hsl(135, 100%, 80%)" stroke="hsl(135, 100%, 55%)" />
<g stroke="hsl(135, 100%, 40%)"><line x1="213.93963510783576" x2="240.18020600779957" y1="534" y2="534" />
<line x1="213.93963510783576" x2="213.93963510783576" y1="528" y2="540" />
<line x1="240.18020600779957" x2="240.18020600779957" y1="528" y2="540" />
</g>
</g>
<text fill="hsl(150, 100%, 40%)" y="572">filesize.deep.2000.effectful 4.47 ms</text>
<g>
<title>4.47 ms ± 437 μs</title>
<rect y="578" rx="5" height="22" width="158.28967588030142" fill="hsl(150, 100%, 80%)" stroke="hsl(150, 100%, 55%)" />
<g stroke="hsl(150, 100%, 40%)"><line x1="142.83299163254551" x2="173.74636012805732" y1="589" y2="589" />
<line x1="142.83299163254551" x2="142.83299163254551" y1="583" y2="595" />
<line x1="173.74636012805732" x2="173.74636012805732" y1="583" y2="595" />
</g>
</g>
<text fill="hsl(165, 100%, 40%)" y="627">filesize.deep.2000.freer-simple 6.03 ms</text>
<g>
<title>6.03 ms ± 429 μs</title>
<rect y="633" rx="5" height="22" width="213.17746532452293" fill="hsl(165, 100%, 80%)" stroke="hsl(165, 100%, 55%)" />
<g stroke="hsl(165, 100%, 40%)"><line x1="198.00569005569048" x2="228.34924059335538" y1="644" y2="644" />
<line x1="198.00569005569048" x2="198.00569005569048" y1="638" y2="650" />
<line x1="228.34924059335538" x2="228.34924059335538" y1="638" y2="650" />
</g>
</g>
<text fill="hsl(180, 100%, 40%)" y="682">filesize.deep.2000.eff 5.69 ms</text>
<g>
<title>5.69 ms ± 411 μs</title>
<rect y="688" rx="5" height="22" width="201.1919696248413" fill="hsl(180, 100%, 80%)" stroke="hsl(180, 100%, 55%)" />
<g stroke="hsl(180, 100%, 40%)"><line x1="186.63691239337982" x2="215.7470268563028" y1="699" y2="699" />
<line x1="186.63691239337982" x2="186.63691239337982" y1="693" y2="705" />
<line x1="215.7470268563028" x2="215.7470268563028" y1="693" y2="705" />
</g>
</g>
<g fill="hsl(195, 100%, 40%)">
<text y="737">filesize.deep.2000.mtl</text>
<text y="737" x="391.37570452053035" text-anchor="end">11.1 ms</text>
</g>
<g>
<title>11.1 ms ± 809 μs</title>
<rect y="743" rx="5" height="22" width="391.37570452053035" fill="hsl(195, 100%, 80%)" stroke="hsl(195, 100%, 55%)" />
<g stroke="hsl(195, 100%, 40%)"><line x1="362.77476469449323" x2="419.97664434656747" y1="754" y2="754" />
<line x1="362.77476469449323" x2="362.77476469449323" y1="748" y2="760" />
<line x1="419.97664434656747" x2="419.97664434656747" y1="748" y2="760" />
</g>
</g>
<g fill="hsl(210, 100%, 40%)">
<text y="792">filesize.deep.2000.fused-effects</text>
<text y="792" x="581.7663190198609" text-anchor="end">16.4 ms</text>
</g>
<g>
<title>16.4 ms ± 1.6 ms</title>
<rect y="798" rx="5" height="22" width="581.7663190198609" fill="hsl(210, 100%, 80%)" stroke="hsl(210, 100%, 55%)" />
<g stroke="hsl(210, 100%, 40%)"><line x1="526.7135023664116" x2="636.8191356733103" y1="809" y2="809" />
<line x1="526.7135023664116" x2="526.7135023664116" y1="803" y2="815" />
<line x1="636.8191356733103" x2="636.8191356733103" y1="803" y2="815" />
</g>
</g>
<g fill="hsl(225, 100%, 40%)">
<text y="847">filesize.deep.2000.polysemy</text>
<text y="847" x="467.6660622754749" text-anchor="end">13.2 ms</text>
</g>
<g>
<title>13.2 ms ± 768 μs</title>
<rect y="853" rx="5" height="22" width="467.6660622754749" fill="hsl(225, 100%, 80%)" stroke="hsl(225, 100%, 55%)" />
<g stroke="hsl(225, 100%, 40%)"><line x1="440.4928269977653" x2="494.83929755318457" y1="864" y2="864" />
<line x1="440.4928269977653" x2="440.4928269977653" y1="858" y2="870" />
<line x1="494.83929755318457" x2="494.83929755318457" y1="858" y2="870" />
</g>
</g>
<text fill="hsl(240, 100%, 40%)" y="902">filesize.deep.3000.reference 6.66 ms</text>
<g>
<title>6.66 ms ± 381 μs</title>
<rect y="908" rx="5" height="22" width="235.66865485407627" fill="hsl(240, 100%, 80%)" stroke="hsl(240, 100%, 55%)" />
<g stroke="hsl(240, 100%, 40%)"><line x1="222.18706927749054" x2="249.150240430662" y1="919" y2="919" />
<line x1="222.18706927749054" x2="222.18706927749054" y1="913" y2="925" />
<line x1="249.150240430662" x2="249.150240430662" y1="913" y2="925" />
</g>
</g>
<g fill="hsl(255, 100%, 40%)">
<text y="957">filesize.deep.3000.heftia</text>
<text y="957" x="340.10924773411614" text-anchor="end">9.61 ms</text>
</g>
<g>
<title>9.61 ms ± 899 μs</title>
<rect y="963" rx="5" height="22" width="340.10924773411614" fill="hsl(255, 100%, 80%)" stroke="hsl(255, 100%, 55%)" />
<g stroke="hsl(255, 100%, 40%)"><line x1="308.30481960922384" x2="371.91367585900844" y1="974" y2="974" />
<line x1="308.30481960922384" x2="308.30481960922384" y1="968" y2="980" />
<line x1="371.91367585900844" x2="371.91367585900844" y1="968" y2="980" />
</g>
</g>
<text fill="hsl(270, 100%, 40%)" y="1012">filesize.deep.3000.effectful 6.94 ms</text>
<g>
<title>6.94 ms ± 603 μs</title>
<rect y="1018" rx="5" height="22" width="245.46811970576744" fill="hsl(270, 100%, 80%)" stroke="hsl(270, 100%, 55%)" />
<g stroke="hsl(270, 100%, 40%)"><line x1="224.12931836004887" x2="266.806921051486" y1="1029" y2="1029" />
<line x1="224.12931836004887" x2="224.12931836004887" y1="1023" y2="1035" />
<line x1="266.806921051486" x2="266.806921051486" y1="1023" y2="1035" />
</g>
</g>
<g fill="hsl(285, 100%, 40%)">
<text y="1067">filesize.deep.3000.freer-simple</text>
<text y="1067" x="324.5798870294055" text-anchor="end">9.18 ms</text>
</g>
<g>
<title>9.18 ms ± 509 μs</title>
<rect y="1073" rx="5" height="22" width="324.5798870294055" fill="hsl(285, 100%, 80%)" stroke="hsl(285, 100%, 55%)" />
<g stroke="hsl(285, 100%, 40%)"><line x1="306.5679405541378" x2="342.59183350467316" y1="1084" y2="1084" />
<line x1="306.5679405541378" x2="306.5679405541378" y1="1078" y2="1090" />
<line x1="342.59183350467316" x2="342.59183350467316" y1="1078" y2="1090" />
</g>
</g>
<g fill="hsl(300, 100%, 40%)">
<text y="1122">filesize.deep.3000.eff</text>
<text y="1122" x="302.1438678113084" text-anchor="end">8.54 ms</text>
</g>
<g>
<title>8.54 ms ± 688 μs</title>
<rect y="1128" rx="5" height="22" width="302.1438678113084" fill="hsl(300, 100%, 80%)" stroke="hsl(300, 100%, 55%)" />
<g stroke="hsl(300, 100%, 40%)"><line x1="277.7926115714728" x2="326.495124051144" y1="1139" y2="1139" />
<line x1="277.7926115714728" x2="277.7926115714728" y1="1133" y2="1145" />
<line x1="326.495124051144" x2="326.495124051144" y1="1133" y2="1145" />
</g>
</g>
<g fill="hsl(315, 100%, 40%)">
<text y="1177">filesize.deep.3000.mtl</text>
<text y="1177" x="602.1560270195192" text-anchor="end">17.0 ms</text>
</g>
<g>
<title>17.0 ms ± 904 μs</title>
<rect y="1183" rx="5" height="22" width="602.1560270195192" fill="hsl(315, 100%, 80%)" stroke="hsl(315, 100%, 55%)" />
<g stroke="hsl(315, 100%, 40%)"><line x1="570.1652795726734" x2="634.1467744663651" y1="1194" y2="1194" />
<line x1="570.1652795726734" x2="570.1652795726734" y1="1188" y2="1200" />
<line x1="634.1467744663651" x2="634.1467744663651" y1="1188" y2="1200" />
</g>
</g>
<g fill="hsl(330, 100%, 40%)">
<text y="1232">filesize.deep.3000.fused-effects</text>
<text y="1232" x="885.1468067193489" text-anchor="end">25.0 ms</text>
</g>
<g>
<title>25.0 ms ± 1.6 ms</title>
<rect y="1238" rx="5" height="22" width="885.1468067193489" fill="hsl(330, 100%, 80%)" stroke="hsl(330, 100%, 55%)" />
<g stroke="hsl(330, 100%, 40%)"><line x1="830.2936134386978" x2="940.0" y1="1249" y2="1249" />
<line x1="830.2936134386978" x2="830.2936134386978" y1="1243" y2="1255" />
<line x1="940.0" x2="940.0" y1="1243" y2="1255" />
</g>
</g>
<g fill="hsl(345, 100%, 40%)">
<text y="1287">filesize.deep.3000.polysemy</text>
<text y="1287" x="712.1381255918005" text-anchor="end">20.1 ms</text>
</g>
<g>
<title>20.1 ms ± 1.5 ms</title>
<rect y="1293" rx="5" height="22" width="712.1381255918005" fill="hsl(345, 100%, 80%)" stroke="hsl(345, 100%, 55%)" />
<g stroke="hsl(345, 100%, 40%)"><line x1="659.804814793422" x2="764.4714363901791" y1="1304" y2="1304" />
<line x1="659.804814793422" x2="659.804814793422" y1="1298" y2="1310" />
<line x1="764.4714363901791" x2="764.4714363901791" y1="1298" y2="1310" />
</g>
</g>
</g>
</svg>
