<svg xmlns="http://www.w3.org/2000/svg" height="227" width="960.0" font-size="16" font-family="sans-serif" stroke-width="2">
<g transform="translate(10.0 0)">
<g fill="hsl(0, 100%, 40%)">
<text y="22">local.shallow.10000.heftia</text>
<text y="22" x="414.8914223878744" text-anchor="end">1.81 ms</text>
</g>
<g>
<title>1.81 ms ± 112 μs</title>
<rect y="28" rx="5" height="22" width="414.8914223878744" fill="hsl(0, 100%, 80%)" stroke="hsl(0, 100%, 55%)" />
<g stroke="hsl(0, 100%, 40%)"><line x1="389.2257699788657" x2="440.5570747968831" y1="39" y2="39" />
<line x1="389.2257699788657" x2="389.2257699788657" y1="33" y2="45" />
<line x1="440.5570747968831" x2="440.5570747968831" y1="33" y2="45" />
</g>
</g>
<g fill="hsl(90, 100%, 40%)">
<text y="77">local.shallow.10000.polysemy</text>
<text y="77" x="899.0505190291253" text-anchor="end">3.92 ms</text>
</g>
<g>
<title>3.92 ms ± 178 μs</title>
<rect y="83" rx="5" height="22" width="899.0505190291253" fill="hsl(90, 100%, 80%)" stroke="hsl(90, 100%, 55%)" />
<g stroke="hsl(90, 100%, 40%)"><line x1="858.1010380582507" x2="940.0" y1="94" y2="94" />
<line x1="858.1010380582507" x2="858.1010380582507" y1="88" y2="100" />
<line x1="940.0" x2="940.0" y1="88" y2="100" />
</g>
</g>
<g fill="hsl(180, 100%, 40%)">
<text y="132">local.shallow.10000.fused</text>
<text y="132" x="415.15325966046703" text-anchor="end">1.81 ms</text>
</g>
<g>
<title>1.81 ms ± 177 μs</title>
<rect y="138" rx="5" height="22" width="415.15325966046703" fill="hsl(180, 100%, 80%)" stroke="hsl(180, 100%, 55%)" />
<g stroke="hsl(180, 100%, 40%)"><line x1="374.5091629215868" x2="455.7973563993473" y1="149" y2="149" />
<line x1="374.5091629215868" x2="374.5091629215868" y1="143" y2="155" />
<line x1="455.7973563993473" x2="455.7973563993473" y1="143" y2="155" />
</g>
</g>
<text fill="hsl(270, 100%, 40%)" y="187">local.shallow.10000.effectful 994  μs</text>
<g>
<title>994  μs ±  46 μs</title>
<rect y="193" rx="5" height="22" width="228.25438749192028" fill="hsl(270, 100%, 80%)" stroke="hsl(270, 100%, 55%)" />
<g stroke="hsl(270, 100%, 40%)"><line x1="217.7073916970696" x2="238.80138328677097" y1="204" y2="204" />
<line x1="217.7073916970696" x2="217.7073916970696" y1="198" y2="210" />
<line x1="238.80138328677097" x2="238.80138328677097" y1="198" y2="210" />
</g>
</g>
</g>
</svg>
