<svg xmlns="http://www.w3.org/2000/svg" height="227" width="960.0" font-size="16" font-family="sans-serif" stroke-width="2">
<g transform="translate(10.0 0)">
<g fill="hsl(0, 100%, 40%)">
<text y="22">local.shallow.10000.heftia</text>
<text y="22" x="391.21105538705837" text-anchor="end">1.89 ms</text>
</g>
<g>
<title>1.89 ms ± 112 μs</title>
<rect y="28" rx="5" height="22" width="391.21105538705837" fill="hsl(0, 100%, 80%)" stroke="hsl(0, 100%, 55%)" />
<g stroke="hsl(0, 100%, 40%)"><line x1="367.9706308168955" x2="414.45147995722124" y1="39" y2="39" />
<line x1="367.9706308168955" x2="367.9706308168955" y1="33" y2="45" />
<line x1="414.45147995722124" x2="414.45147995722124" y1="33" y2="45" />
</g>
</g>
<g fill="hsl(90, 100%, 40%)">
<text y="77">local.shallow.10000.polysemy</text>
<text y="77" x="882.5956412806764" text-anchor="end">4.27 ms</text>
</g>
<g>
<title>4.27 ms ± 277 μs</title>
<rect y="83" rx="5" height="22" width="882.5956412806764" fill="hsl(90, 100%, 80%)" stroke="hsl(90, 100%, 55%)" />
<g stroke="hsl(90, 100%, 40%)"><line x1="825.1912825613529" x2="940.0" y1="94" y2="94" />
<line x1="825.1912825613529" x2="825.1912825613529" y1="88" y2="100" />
<line x1="940.0" x2="940.0" y1="88" y2="100" />
</g>
</g>
<g fill="hsl(180, 100%, 40%)">
<text y="132">local.shallow.10000.fused</text>
<text y="132" x="370.6636531667106" text-anchor="end">1.79 ms</text>
</g>
<g>
<title>1.79 ms ± 104 μs</title>
<rect y="138" rx="5" height="22" width="370.6636531667106" fill="hsl(180, 100%, 80%)" stroke="hsl(180, 100%, 55%)" />
<g stroke="hsl(180, 100%, 40%)"><line x1="349.07002231987485" x2="392.2572840135464" y1="149" y2="149" />
<line x1="349.07002231987485" x2="349.07002231987485" y1="143" y2="155" />
<line x1="392.2572840135464" x2="392.2572840135464" y1="143" y2="155" />
</g>
</g>
<text fill="hsl(270, 100%, 40%)" y="187">local.shallow.10000.effectful 1.00 ms</text>
<g>
<title>1.00 ms ±  29 μs</title>
<rect y="193" rx="5" height="22" width="207.28345641655716" fill="hsl(270, 100%, 80%)" stroke="hsl(270, 100%, 55%)" />
<g stroke="hsl(270, 100%, 40%)"><line x1="201.23819812212457" x2="213.32871471098974" y1="204" y2="204" />
<line x1="201.23819812212457" x2="201.23819812212457" y1="198" y2="210" />
<line x1="213.32871471098974" x2="213.32871471098974" y1="198" y2="210" />
</g>
</g>
</g>
</svg>
