<svg xmlns="http://www.w3.org/2000/svg" height="502" width="960.0" font-size="16" font-family="sans-serif" stroke-width="2">
<g transform="translate(10.0 0)">
<text fill="hsl(0, 100%, 40%)" y="22">local.deep.10000.heftia.5+5+0 1.81 ms</text>
<g>
<title>1.81 ms ± 112 μs</title>
<rect y="28" rx="5" height="22" width="199.11641888805298" fill="hsl(0, 100%, 80%)" stroke="hsl(0, 100%, 55%)" />
<g stroke="hsl(0, 100%, 40%)"><line x1="186.76418092977482" x2="211.46865684633113" y1="39" y2="39" />
<line x1="186.76418092977482" x2="186.76418092977482" y1="33" y2="45" />
<line x1="211.46865684633113" x2="211.46865684633113" y1="33" y2="45" />
</g>
</g>
<text fill="hsl(40, 100%, 40%)" y="77">local.deep.10000.heftia.5+4+1 2.54 ms</text>
<g>
<title>2.54 ms ±  97 μs</title>
<rect y="83" rx="5" height="22" width="279.6724137271993" fill="hsl(40, 100%, 80%)" stroke="hsl(40, 100%, 55%)" />
<g stroke="hsl(40, 100%, 40%)"><line x1="268.98739464995595" x2="290.3574328044426" y1="94" y2="94" />
<line x1="268.98739464995595" x2="268.98739464995595" y1="88" y2="100" />
<line x1="290.3574328044426" x2="290.3574328044426" y1="88" y2="100" />
</g>
</g>
<g fill="hsl(80, 100%, 40%)">
<text y="132">local.deep.10000.heftia.5+3+2</text>
<text y="132" x="382.79918857937764" text-anchor="end">3.48 ms</text>
</g>
<g>
<title>3.48 ms ± 248 μs</title>
<rect y="138" rx="5" height="22" width="382.79918857937764" fill="hsl(80, 100%, 80%)" stroke="hsl(80, 100%, 55%)" />
<g stroke="hsl(80, 100%, 40%)"><line x1="355.5355738325813" x2="410.062803326174" y1="149" y2="149" />
<line x1="355.5355738325813" x2="355.5355738325813" y1="143" y2="155" />
<line x1="410.062803326174" x2="410.062803326174" y1="143" y2="155" />
</g>
</g>
<g fill="hsl(120, 100%, 40%)">
<text y="187">local.deep.10000.heftia.5+2+3</text>
<text y="187" x="472.03790574633103" text-anchor="end">4.29 ms</text>
</g>
<g>
<title>4.29 ms ± 221 μs</title>
<rect y="193" rx="5" height="22" width="472.03790574633103" fill="hsl(120, 100%, 80%)" stroke="hsl(120, 100%, 55%)" />
<g stroke="hsl(120, 100%, 40%)"><line x1="447.68045403677684" x2="496.39535745588523" y1="204" y2="204" />
<line x1="447.68045403677684" x2="447.68045403677684" y1="198" y2="210" />
<line x1="496.39535745588523" x2="496.39535745588523" y1="198" y2="210" />
</g>
</g>
<g fill="hsl(160, 100%, 40%)">
<text y="242">local.deep.10000.heftia.5+1+4</text>
<text y="242" x="614.0474863895637" text-anchor="end">5.58 ms</text>
</g>
<g>
<title>5.58 ms ± 510 μs</title>
<rect y="248" rx="5" height="22" width="614.0474863895637" fill="hsl(160, 100%, 80%)" stroke="hsl(160, 100%, 55%)" />
<g stroke="hsl(160, 100%, 40%)"><line x1="557.8812571176529" x2="670.2137156614745" y1="259" y2="259" />
<line x1="557.8812571176529" x2="557.8812571176529" y1="253" y2="265" />
<line x1="670.2137156614745" x2="670.2137156614745" y1="253" y2="265" />
</g>
</g>
<g fill="hsl(200, 100%, 40%)">
<text y="297">local.deep.10000.heftia.5+0+5</text>
<text y="297" x="748.7924885648088" text-anchor="end">6.80 ms</text>
</g>
<g>
<title>6.80 ms ± 492 μs</title>
<rect y="303" rx="5" height="22" width="748.7924885648088" fill="hsl(200, 100%, 80%)" stroke="hsl(200, 100%, 55%)" />
<g stroke="hsl(200, 100%, 40%)"><line x1="694.6048290800469" x2="802.9801480495706" y1="314" y2="314" />
<line x1="694.6048290800469" x2="694.6048290800469" y1="308" y2="320" />
<line x1="802.9801480495706" x2="802.9801480495706" y1="308" y2="320" />
</g>
</g>
<g fill="hsl(240, 100%, 40%)">
<text y="352">local.deep.10000.polysemy.5+5</text>
<text y="352" x="889.821695592676" text-anchor="end">8.08 ms</text>
</g>
<g>
<title>8.08 ms ± 456 μs</title>
<rect y="358" rx="5" height="22" width="889.821695592676" fill="hsl(240, 100%, 80%)" stroke="hsl(240, 100%, 55%)" />
<g stroke="hsl(240, 100%, 40%)"><line x1="839.6433911853519" x2="940.0" y1="369" y2="369" />
<line x1="839.6433911853519" x2="839.6433911853519" y1="363" y2="375" />
<line x1="940.0" x2="940.0" y1="363" y2="375" />
</g>
</g>
<g fill="hsl(280, 100%, 40%)">
<text y="407">local.deep.10000.fused.5+5</text>
<text y="407" x="826.6624676199712" text-anchor="end">7.51 ms</text>
</g>
<g>
<title>7.51 ms ± 447 μs</title>
<rect y="413" rx="5" height="22" width="826.6624676199712" fill="hsl(280, 100%, 80%)" stroke="hsl(280, 100%, 55%)" />
<g stroke="hsl(280, 100%, 40%)"><line x1="777.4262953313411" x2="875.8986399086012" y1="424" y2="424" />
<line x1="777.4262953313411" x2="777.4262953313411" y1="418" y2="430" />
<line x1="875.8986399086012" x2="875.8986399086012" y1="418" y2="430" />
</g>
</g>
<text fill="hsl(320, 100%, 40%)" y="462">local.deep.10000.effectful.5+5 1.04 ms</text>
<g>
<title>1.04 ms ±  96 μs</title>
<rect y="468" rx="5" height="22" width="114.51884110936743" fill="hsl(320, 100%, 80%)" stroke="hsl(320, 100%, 55%)" />
<g stroke="hsl(320, 100%, 40%)"><line x1="104.00187126916128" x2="125.03581094957357" y1="479" y2="479" />
<line x1="104.00187126916128" x2="104.00187126916128" y1="473" y2="485" />
<line x1="125.03581094957357" x2="125.03581094957357" y1="473" y2="485" />
</g>
</g>
</g>
</svg>
