<svg xmlns="http://www.w3.org/2000/svg" height="502" width="960.0" font-size="16" font-family="sans-serif" stroke-width="2">
<g transform="translate(10.0 0)">
<text fill="hsl(0, 100%, 40%)" y="22">local.deep.10000.heftia.5+5+0 2.33 ms</text>
<g>
<title>2.33 ms ± 185 μs</title>
<rect y="28" rx="5" height="22" width="245.9585448635316" fill="hsl(0, 100%, 80%)" stroke="hsl(0, 100%, 55%)" />
<g stroke="hsl(0, 100%, 40%)"><line x1="226.41179725842534" x2="265.5052924686379" y1="39" y2="39" />
<line x1="226.41179725842534" x2="226.41179725842534" y1="33" y2="45" />
<line x1="265.5052924686379" x2="265.5052924686379" y1="33" y2="45" />
</g>
</g>
<g fill="hsl(40, 100%, 40%)">
<text y="77">local.deep.10000.heftia.5+4+1</text>
<text y="77" x="307.954676786032" text-anchor="end">2.92 ms</text>
</g>
<g>
<title>2.92 ms ± 175 μs</title>
<rect y="83" rx="5" height="22" width="307.954676786032" fill="hsl(40, 100%, 80%)" stroke="hsl(40, 100%, 55%)" />
<g stroke="hsl(40, 100%, 40%)"><line x1="289.4698636723321" x2="326.4394898997319" y1="94" y2="94" />
<line x1="289.4698636723321" x2="289.4698636723321" y1="88" y2="100" />
<line x1="326.4394898997319" x2="326.4394898997319" y1="88" y2="100" />
</g>
</g>
<g fill="hsl(80, 100%, 40%)">
<text y="132">local.deep.10000.heftia.5+3+2</text>
<text y="132" x="382.2609768376057" text-anchor="end">3.63 ms</text>
</g>
<g>
<title>3.63 ms ± 234 μs</title>
<rect y="138" rx="5" height="22" width="382.2609768376057" fill="hsl(80, 100%, 80%)" stroke="hsl(80, 100%, 55%)" />
<g stroke="hsl(80, 100%, 40%)"><line x1="357.5740428908989" x2="406.9479107843125" y1="149" y2="149" />
<line x1="357.5740428908989" x2="357.5740428908989" y1="143" y2="155" />
<line x1="406.9479107843125" x2="406.9479107843125" y1="143" y2="155" />
</g>
</g>
<g fill="hsl(120, 100%, 40%)">
<text y="187">local.deep.10000.heftia.5+2+3</text>
<text y="187" x="481.8174612465912" text-anchor="end">4.57 ms</text>
</g>
<g>
<title>4.57 ms ± 268 μs</title>
<rect y="193" rx="5" height="22" width="481.8174612465912" fill="hsl(120, 100%, 80%)" stroke="hsl(120, 100%, 55%)" />
<g stroke="hsl(120, 100%, 40%)"><line x1="453.60562275019765" x2="510.0292997429848" y1="204" y2="204" />
<line x1="453.60562275019765" x2="453.60562275019765" y1="198" y2="210" />
<line x1="510.0292997429848" x2="510.0292997429848" y1="198" y2="210" />
</g>
</g>
<g fill="hsl(160, 100%, 40%)">
<text y="242">local.deep.10000.heftia.5+1+4</text>
<text y="242" x="546.5384337712587" text-anchor="end">5.18 ms</text>
</g>
<g>
<title>5.18 ms ± 317 μs</title>
<rect y="248" rx="5" height="22" width="546.5384337712587" fill="hsl(160, 100%, 80%)" stroke="hsl(160, 100%, 55%)" />
<g stroke="hsl(160, 100%, 40%)"><line x1="513.0935880990652" x2="579.9832794434523" y1="259" y2="259" />
<line x1="513.0935880990652" x2="513.0935880990652" y1="253" y2="265" />
<line x1="579.9832794434523" x2="579.9832794434523" y1="253" y2="265" />
</g>
</g>
<g fill="hsl(200, 100%, 40%)">
<text y="297">local.deep.10000.heftia.5+0+5</text>
<text y="297" x="672.2969269780732" text-anchor="end">6.38 ms</text>
</g>
<g>
<title>6.38 ms ± 616 μs</title>
<rect y="303" rx="5" height="22" width="672.2969269780732" fill="hsl(200, 100%, 80%)" stroke="hsl(200, 100%, 55%)" />
<g stroke="hsl(200, 100%, 40%)"><line x1="607.3452151700138" x2="737.2486387861326" y1="314" y2="314" />
<line x1="607.3452151700138" x2="607.3452151700138" y1="308" y2="320" />
<line x1="737.2486387861326" x2="737.2486387861326" y1="308" y2="320" />
</g>
</g>
<g fill="hsl(240, 100%, 40%)">
<text y="352">local.deep.10000.polysemy.5+5</text>
<text y="352" x="874.8905492882927" text-anchor="end">8.30 ms</text>
</g>
<g>
<title>8.30 ms ± 618 μs</title>
<rect y="358" rx="5" height="22" width="874.8905492882927" fill="hsl(240, 100%, 80%)" stroke="hsl(240, 100%, 55%)" />
<g stroke="hsl(240, 100%, 40%)"><line x1="809.7810985765855" x2="940.0" y1="369" y2="369" />
<line x1="809.7810985765855" x2="809.7810985765855" y1="363" y2="375" />
<line x1="940.0" x2="940.0" y1="363" y2="375" />
</g>
</g>
<g fill="hsl(280, 100%, 40%)">
<text y="407">local.deep.10000.fused.5+5</text>
<text y="407" x="791.7405544181797" text-anchor="end">7.51 ms</text>
</g>
<g>
<title>7.51 ms ± 411 μs</title>
<rect y="413" rx="5" height="22" width="791.7405544181797" fill="hsl(280, 100%, 80%)" stroke="hsl(280, 100%, 55%)" />
<g stroke="hsl(280, 100%, 40%)"><line x1="748.3870734133866" x2="835.0940354229729" y1="424" y2="424" />
<line x1="748.3870734133866" x2="748.3870734133866" y1="418" y2="430" />
<line x1="835.0940354229729" x2="835.0940354229729" y1="418" y2="430" />
</g>
</g>
<text fill="hsl(320, 100%, 40%)" y="462">local.deep.10000.effectful.5+5 992  μs</text>
<g>
<title>992  μs ±  96 μs</title>
<rect y="468" rx="5" height="22" width="104.61546838900283" fill="hsl(320, 100%, 80%)" stroke="hsl(320, 100%, 55%)" />
<g stroke="hsl(320, 100%, 40%)"><line x1="94.47911613847512" x2="114.75182063953054" y1="479" y2="479" />
<line x1="94.47911613847512" x2="94.47911613847512" y1="473" y2="485" />
<line x1="114.75182063953054" x2="114.75182063953054" y1="473" y2="485" />
</g>
</g>
</g>
</svg>
