<svg xmlns="http://www.w3.org/2000/svg" height="227" width="960.0" font-size="16" font-family="sans-serif" stroke-width="2">
<g transform="translate(10.0 0)">
<g fill="hsl(0, 100%, 40%)">
<text y="22">local.shallow.10000.heftia</text>
<text y="22" x="549.3331459541398" text-anchor="end">2.42 ms</text>
</g>
<g>
<title>2.42 ms ± 236 μs</title>
<rect y="28" rx="5" height="22" width="549.3331459541398" fill="hsl(0, 100%, 80%)" stroke="hsl(0, 100%, 55%)" />
<g stroke="hsl(0, 100%, 40%)"><line x1="495.8076764126728" x2="602.8586154956068" y1="39" y2="39" />
<line x1="495.8076764126728" x2="495.8076764126728" y1="33" y2="45" />
<line x1="602.8586154956068" x2="602.8586154956068" y1="33" y2="45" />
</g>
</g>
<g fill="hsl(90, 100%, 40%)">
<text y="77">local.shallow.10000.polysemy</text>
<text y="77" x="899.924972855924" text-anchor="end">3.97 ms</text>
</g>
<g>
<title>3.97 ms ± 177 μs</title>
<rect y="83" rx="5" height="22" width="899.924972855924" fill="hsl(90, 100%, 80%)" stroke="hsl(90, 100%, 55%)" />
<g stroke="hsl(90, 100%, 40%)"><line x1="859.849945711848" x2="940.0" y1="94" y2="94" />
<line x1="859.849945711848" x2="859.849945711848" y1="88" y2="100" />
<line x1="940.0" x2="940.0" y1="88" y2="100" />
</g>
</g>
<g fill="hsl(180, 100%, 40%)">
<text y="132">local.shallow.10000.fused</text>
<text y="132" x="400.69834069908654" text-anchor="end">1.77 ms</text>
</g>
<g>
<title>1.77 ms ±  85 μs</title>
<rect y="138" rx="5" height="22" width="400.69834069908654" fill="hsl(180, 100%, 80%)" stroke="hsl(180, 100%, 55%)" />
<g stroke="hsl(180, 100%, 40%)"><line x1="381.45416750038663" x2="419.94251389778645" y1="149" y2="149" />
<line x1="381.45416750038663" x2="381.45416750038663" y1="143" y2="155" />
<line x1="419.94251389778645" x2="419.94251389778645" y1="143" y2="155" />
</g>
</g>
<text fill="hsl(270, 100%, 40%)" y="187">local.shallow.10000.effectful 972  μs</text>
<g>
<title>972  μs ±  63 μs</title>
<rect y="193" rx="5" height="22" width="220.31993628760227" fill="hsl(270, 100%, 80%)" stroke="hsl(270, 100%, 55%)" />
<g stroke="hsl(270, 100%, 40%)"><line x1="206.14538717770756" x2="234.494485397497" y1="204" y2="204" />
<line x1="206.14538717770756" x2="206.14538717770756" y1="198" y2="210" />
<line x1="234.494485397497" x2="234.494485397497" y1="198" y2="210" />
</g>
</g>
</g>
</svg>
