<svg xmlns="http://www.w3.org/2000/svg" height="227" width="960.0" font-size="16" font-family="sans-serif" stroke-width="2">
<g transform="translate(10.0 0)">
<g fill="hsl(0, 100%, 40%)">
<text y="22">local.shallow.10000.heftia</text>
<text y="22" x="508.74118543228576" text-anchor="end">2.33 ms</text>
</g>
<g>
<title>2.33 ms ± 172 μs</title>
<rect y="28" rx="5" height="22" width="508.74118543228576" fill="hsl(0, 100%, 80%)" stroke="hsl(0, 100%, 55%)" />
<g stroke="hsl(0, 100%, 40%)"><line x1="471.1688210293156" x2="546.3135498352559" y1="39" y2="39" />
<line x1="471.1688210293156" x2="471.1688210293156" y1="33" y2="45" />
<line x1="546.3135498352559" x2="546.3135498352559" y1="33" y2="45" />
</g>
</g>
<g fill="hsl(90, 100%, 40%)">
<text y="77">local.shallow.10000.polysemy</text>
<text y="77" x="892.703792324007" text-anchor="end">4.09 ms</text>
</g>
<g>
<title>4.09 ms ± 217 μs</title>
<rect y="83" rx="5" height="22" width="892.703792324007" fill="hsl(90, 100%, 80%)" stroke="hsl(90, 100%, 55%)" />
<g stroke="hsl(90, 100%, 40%)"><line x1="845.4075846480141" x2="940.0" y1="94" y2="94" />
<line x1="845.4075846480141" x2="845.4075846480141" y1="88" y2="100" />
<line x1="940.0" x2="940.0" y1="88" y2="100" />
</g>
</g>
<g fill="hsl(180, 100%, 40%)">
<text y="132">local.shallow.10000.fused</text>
<text y="132" x="385.2457271160473" text-anchor="end">1.76 ms</text>
</g>
<g>
<title>1.76 ms ± 154 μs</title>
<rect y="138" rx="5" height="22" width="385.2457271160473" fill="hsl(180, 100%, 80%)" stroke="hsl(180, 100%, 55%)" />
<g stroke="hsl(180, 100%, 40%)"><line x1="351.6389956251121" x2="418.8524586069825" y1="149" y2="149" />
<line x1="351.6389956251121" x2="351.6389956251121" y1="143" y2="155" />
<line x1="418.8524586069825" x2="418.8524586069825" y1="143" y2="155" />
</g>
</g>
<text fill="hsl(270, 100%, 40%)" y="187">local.shallow.10000.effectful 956  μs</text>
<g>
<title>956  μs ±  62 μs</title>
<rect y="193" rx="5" height="22" width="208.69904846996374" fill="hsl(270, 100%, 80%)" stroke="hsl(270, 100%, 55%)" />
<g stroke="hsl(270, 100%, 40%)"><line x1="195.05756999348839" x2="222.3405269464391" y1="204" y2="204" />
<line x1="195.05756999348839" x2="195.05756999348839" y1="198" y2="210" />
<line x1="222.3405269464391" x2="222.3405269464391" y1="198" y2="210" />
</g>
</g>
</g>
</svg>
