<svg xmlns="http://www.w3.org/2000/svg" height="502" width="960.0" font-size="16" font-family="sans-serif" stroke-width="2">
<g transform="translate(10.0 0)">
<text fill="hsl(0, 100%, 40%)" y="22">local.deep.10000.heftia.5+5+0 1.79 ms</text>
<g>
<title>1.79 ms ± 176 μs</title>
<rect y="28" rx="5" height="22" width="185.26970617600566" fill="hsl(0, 100%, 80%)" stroke="hsl(0, 100%, 55%)" />
<g stroke="hsl(0, 100%, 40%)"><line x1="167.0575314745789" x2="203.48188087743242" y1="39" y2="39" />
<line x1="167.0575314745789" x2="167.0575314745789" y1="33" y2="45" />
<line x1="203.48188087743242" x2="203.48188087743242" y1="33" y2="45" />
</g>
</g>
<text fill="hsl(40, 100%, 40%)" y="77">local.deep.10000.heftia.5+4+1 2.65 ms</text>
<g>
<title>2.65 ms ± 177 μs</title>
<rect y="83" rx="5" height="22" width="273.5447355165367" fill="hsl(40, 100%, 80%)" stroke="hsl(40, 100%, 55%)" />
<g stroke="hsl(40, 100%, 40%)"><line x1="255.2673538991191" x2="291.82211713395435" y1="94" y2="94" />
<line x1="255.2673538991191" x2="255.2673538991191" y1="88" y2="100" />
<line x1="291.82211713395435" x2="291.82211713395435" y1="88" y2="100" />
</g>
</g>
<g fill="hsl(80, 100%, 40%)">
<text y="132">local.deep.10000.heftia.5+3+2</text>
<text y="132" x="400.50355495801523" text-anchor="end">3.88 ms</text>
</g>
<g>
<title>3.88 ms ± 198 μs</title>
<rect y="138" rx="5" height="22" width="400.50355495801523" fill="hsl(80, 100%, 80%)" stroke="hsl(80, 100%, 55%)" />
<g stroke="hsl(80, 100%, 40%)"><line x1="380.0028746132015" x2="421.00423530282893" y1="149" y2="149" />
<line x1="380.0028746132015" x2="380.0028746132015" y1="143" y2="155" />
<line x1="421.00423530282893" x2="421.00423530282893" y1="143" y2="155" />
</g>
</g>
<g fill="hsl(120, 100%, 40%)">
<text y="187">local.deep.10000.heftia.5+2+3</text>
<text y="187" x="445.1879383955189" text-anchor="end">4.31 ms</text>
</g>
<g>
<title>4.31 ms ± 140 μs</title>
<rect y="193" rx="5" height="22" width="445.1879383955189" fill="hsl(120, 100%, 80%)" stroke="hsl(120, 100%, 55%)" />
<g stroke="hsl(120, 100%, 40%)"><line x1="430.72604059530755" x2="459.6498361957303" y1="204" y2="204" />
<line x1="430.72604059530755" x2="430.72604059530755" y1="198" y2="210" />
<line x1="459.6498361957303" x2="459.6498361957303" y1="198" y2="210" />
</g>
</g>
<g fill="hsl(160, 100%, 40%)">
<text y="242">local.deep.10000.heftia.5+1+4</text>
<text y="242" x="566.3641431210908" text-anchor="end">5.48 ms</text>
</g>
<g>
<title>5.48 ms ± 350 μs</title>
<rect y="248" rx="5" height="22" width="566.3641431210908" fill="hsl(160, 100%, 80%)" stroke="hsl(160, 100%, 55%)" />
<g stroke="hsl(160, 100%, 40%)"><line x1="530.2052285441234" x2="602.5230576980582" y1="259" y2="259" />
<line x1="530.2052285441234" x2="530.2052285441234" y1="253" y2="265" />
<line x1="602.5230576980582" x2="602.5230576980582" y1="253" y2="265" />
</g>
</g>
<g fill="hsl(200, 100%, 40%)">
<text y="297">local.deep.10000.heftia.5+0+5</text>
<text y="297" x="683.5564774665489" text-anchor="end">6.62 ms</text>
</g>
<g>
<title>6.62 ms ± 598 μs</title>
<rect y="303" rx="5" height="22" width="683.5564774665489" fill="hsl(200, 100%, 80%)" stroke="hsl(200, 100%, 55%)" />
<g stroke="hsl(200, 100%, 40%)"><line x1="621.7911721611662" x2="745.3217827719317" y1="314" y2="314" />
<line x1="621.7911721611662" x2="621.7911721611662" y1="308" y2="320" />
<line x1="745.3217827719317" x2="745.3217827719317" y1="308" y2="320" />
</g>
</g>
<g fill="hsl(240, 100%, 40%)">
<text y="352">local.deep.10000.polysemy.5+5</text>
<text y="352" x="857.4394342259528" text-anchor="end">8.30 ms</text>
</g>
<g>
<title>8.30 ms ± 799 μs</title>
<rect y="358" rx="5" height="22" width="857.4394342259528" fill="hsl(240, 100%, 80%)" stroke="hsl(240, 100%, 55%)" />
<g stroke="hsl(240, 100%, 40%)"><line x1="774.8788684519056" x2="940.0" y1="369" y2="369" />
<line x1="774.8788684519056" x2="774.8788684519056" y1="363" y2="375" />
<line x1="940.0" x2="940.0" y1="363" y2="375" />
</g>
</g>
<g fill="hsl(280, 100%, 40%)">
<text y="407">local.deep.10000.fused.5+5</text>
<text y="407" x="789.0681928453088" text-anchor="end">7.64 ms</text>
</g>
<g>
<title>7.64 ms ± 500 μs</title>
<rect y="413" rx="5" height="22" width="789.0681928453088" fill="hsl(280, 100%, 80%)" stroke="hsl(280, 100%, 55%)" />
<g stroke="hsl(280, 100%, 40%)"><line x1="737.4101755825088" x2="840.7262101081087" y1="424" y2="424" />
<line x1="737.4101755825088" x2="737.4101755825088" y1="418" y2="430" />
<line x1="840.7262101081087" x2="840.7262101081087" y1="418" y2="430" />
</g>
</g>
<text fill="hsl(320, 100%, 40%)" y="462">local.deep.10000.effectful.5+5 1.02 ms</text>
<g>
<title>1.02 ms ±  95 μs</title>
<rect y="468" rx="5" height="22" width="104.99115555313087" fill="hsl(320, 100%, 80%)" stroke="hsl(320, 100%, 55%)" />
<g stroke="hsl(320, 100%, 40%)"><line x1="95.22860567239869" x2="114.75370543386305" y1="479" y2="479" />
<line x1="95.22860567239869" x2="95.22860567239869" y1="473" y2="485" />
<line x1="114.75370543386305" x2="114.75370543386305" y1="473" y2="485" />
</g>
</g>
</g>
</svg>
