<svg xmlns="http://www.w3.org/2000/svg" height="227" width="960.0" font-size="16" font-family="sans-serif" stroke-width="2">
<g transform="translate(10.0 0)">
<g fill="hsl(0, 100%, 40%)">
<text y="22">local.shallow.10000.heftia</text>
<text y="22" x="390.50630560214404" text-anchor="end">1.82 ms</text>
</g>
<g>
<title>1.82 ms ± 127 μs</title>
<rect y="28" rx="5" height="22" width="390.50630560214404" fill="hsl(0, 100%, 80%)" stroke="hsl(0, 100%, 55%)" />
<g stroke="hsl(0, 100%, 40%)"><line x1="363.10735013691726" x2="417.9052610673708" y1="39" y2="39" />
<line x1="363.10735013691726" x2="363.10735013691726" y1="33" y2="45" />
<line x1="417.9052610673708" x2="417.9052610673708" y1="33" y2="45" />
</g>
</g>
<g fill="hsl(90, 100%, 40%)">
<text y="77">local.shallow.10000.polysemy</text>
<text y="77" x="863.0327133368787" text-anchor="end">4.01 ms</text>
</g>
<g>
<title>4.01 ms ± 358 μs</title>
<rect y="83" rx="5" height="22" width="863.0327133368787" fill="hsl(90, 100%, 80%)" stroke="hsl(90, 100%, 55%)" />
<g stroke="hsl(90, 100%, 40%)"><line x1="786.0654266737574" x2="940.0" y1="94" y2="94" />
<line x1="786.0654266737574" x2="786.0654266737574" y1="88" y2="100" />
<line x1="940.0" x2="940.0" y1="88" y2="100" />
</g>
</g>
<g fill="hsl(180, 100%, 40%)">
<text y="132">local.shallow.10000.fused</text>
<text y="132" x="386.9416751856415" text-anchor="end">1.80 ms</text>
</g>
<g>
<title>1.80 ms ±  85 μs</title>
<rect y="138" rx="5" height="22" width="386.9416751856415" fill="hsl(180, 100%, 80%)" stroke="hsl(180, 100%, 55%)" />
<g stroke="hsl(180, 100%, 40%)"><line x1="368.6792263714511" x2="405.2041239998319" y1="149" y2="149" />
<line x1="368.6792263714511" x2="368.6792263714511" y1="143" y2="155" />
<line x1="405.2041239998319" x2="405.2041239998319" y1="143" y2="155" />
</g>
</g>
<text fill="hsl(270, 100%, 40%)" y="187">local.shallow.10000.effectful 1.00 ms</text>
<g>
<title>1.00 ms ±  88 μs</title>
<rect y="193" rx="5" height="22" width="214.48001541859557" fill="hsl(270, 100%, 80%)" stroke="hsl(270, 100%, 55%)" />
<g stroke="hsl(270, 100%, 40%)"><line x1="195.49251638459006" x2="233.46751445260108" y1="204" y2="204" />
<line x1="195.49251638459006" x2="195.49251638459006" y1="198" y2="210" />
<line x1="233.46751445260108" x2="233.46751445260108" y1="198" y2="210" />
</g>
</g>
</g>
</svg>
