<svg xmlns="http://www.w3.org/2000/svg" height="227" width="960.0" font-size="16" font-family="sans-serif" stroke-width="2">
<g transform="translate(10.0 0)">
<g fill="hsl(0, 100%, 40%)">
<text y="22">local.shallow.10000.heftia</text>
<text y="22" x="393.7929694381767" text-anchor="end">1.80 ms</text>
</g>
<g>
<title>1.80 ms ± 117 μs</title>
<rect y="28" rx="5" height="22" width="393.7929694381767" fill="hsl(0, 100%, 80%)" stroke="hsl(0, 100%, 55%)" />
<g stroke="hsl(0, 100%, 40%)"><line x1="368.22100937040096" x2="419.3649295059525" y1="39" y2="39" />
<line x1="368.22100937040096" x2="368.22100937040096" y1="33" y2="45" />
<line x1="419.3649295059525" x2="419.3649295059525" y1="33" y2="45" />
</g>
</g>
<g fill="hsl(90, 100%, 40%)">
<text y="77">local.shallow.10000.polysemy</text>
<text y="77" x="857.8392179444463" text-anchor="end">3.91 ms</text>
</g>
<g>
<title>3.91 ms ± 375 μs</title>
<rect y="83" rx="5" height="22" width="857.8392179444463" fill="hsl(90, 100%, 80%)" stroke="hsl(90, 100%, 55%)" />
<g stroke="hsl(90, 100%, 40%)"><line x1="775.6784358888926" x2="940.0" y1="94" y2="94" />
<line x1="775.6784358888926" x2="775.6784358888926" y1="88" y2="100" />
<line x1="940.0" x2="940.0" y1="88" y2="100" />
</g>
</g>
<g fill="hsl(180, 100%, 40%)">
<text y="132">local.shallow.10000.fused</text>
<text y="132" x="390.9070856561373" text-anchor="end">1.78 ms</text>
</g>
<g>
<title>1.78 ms ± 129 μs</title>
<rect y="138" rx="5" height="22" width="390.9070856561373" fill="hsl(180, 100%, 80%)" stroke="hsl(180, 100%, 55%)" />
<g stroke="hsl(180, 100%, 40%)"><line x1="362.70438962811073" x2="419.1097816841639" y1="149" y2="149" />
<line x1="362.70438962811073" x2="362.70438962811073" y1="143" y2="155" />
<line x1="419.1097816841639" x2="419.1097816841639" y1="143" y2="155" />
</g>
</g>
<text fill="hsl(270, 100%, 40%)" y="187">local.shallow.10000.effectful 982  μs</text>
<g>
<title>982  μs ±  40 μs</title>
<rect y="193" rx="5" height="22" width="215.16392368064902" fill="hsl(270, 100%, 80%)" stroke="hsl(270, 100%, 55%)" />
<g stroke="hsl(270, 100%, 40%)"><line x1="206.4114232320337" x2="223.91642412926433" y1="204" y2="204" />
<line x1="206.4114232320337" x2="206.4114232320337" y1="198" y2="210" />
<line x1="223.91642412926433" x2="223.91642412926433" y1="198" y2="210" />
</g>
</g>
</g>
</svg>
