<svg xmlns="http://www.w3.org/2000/svg" height="502" width="960.0" font-size="16" font-family="sans-serif" stroke-width="2">
<g transform="translate(10.0 0)">
<g fill="hsl(0, 100%, 40%)">
<text y="22">local.deep.10000.heftia.5+5+0</text>
<text y="22" x="873.7899673851282" text-anchor="end">1.571 s</text>
</g>
<g>
<title>1.571 s ±  94 ms</title>
<rect y="28" rx="5" height="22" width="873.7899673851282" fill="hsl(0, 100%, 80%)" stroke="hsl(0, 100%, 55%)" />
<g stroke="hsl(0, 100%, 40%)"><line x1="821.5990160741367" x2="925.9809186961197" y1="39" y2="39" />
<line x1="821.5990160741367" x2="821.5990160741367" y1="33" y2="45" />
<line x1="925.9809186961197" x2="925.9809186961197" y1="33" y2="45" />
</g>
</g>
<g fill="hsl(40, 100%, 40%)">
<text y="77">local.deep.10000.heftia.5+4+1</text>
<text y="77" x="887.6539439087018" text-anchor="end">1.596 s</text>
</g>
<g>
<title>1.596 s ±  94 ms</title>
<rect y="83" rx="5" height="22" width="887.6539439087018" fill="hsl(40, 100%, 80%)" stroke="hsl(40, 100%, 55%)" />
<g stroke="hsl(40, 100%, 40%)"><line x1="835.3078878174035" x2="940.0" y1="94" y2="94" />
<line x1="835.3078878174035" x2="835.3078878174035" y1="88" y2="100" />
<line x1="940.0" x2="940.0" y1="88" y2="100" />
</g>
</g>
<g fill="hsl(80, 100%, 40%)">
<text y="132">local.deep.10000.heftia.5+3+2</text>
<text y="132" x="853.7606876166581" text-anchor="end">1.535 s</text>
</g>
<g>
<title>1.535 s ±  55 ms</title>
<rect y="138" rx="5" height="22" width="853.7606876166581" fill="hsl(80, 100%, 80%)" stroke="hsl(80, 100%, 55%)" />
<g stroke="hsl(80, 100%, 40%)"><line x1="823.3302870377076" x2="884.1910881956085" y1="149" y2="149" />
<line x1="823.3302870377076" x2="823.3302870377076" y1="143" y2="155" />
<line x1="884.1910881956085" x2="884.1910881956085" y1="143" y2="155" />
</g>
</g>
<g fill="hsl(120, 100%, 40%)">
<text y="187">local.deep.10000.heftia.5+2+3</text>
<text y="187" x="803.4675075627549" text-anchor="end">1.445 s</text>
</g>
<g>
<title>1.445 s ±  49 ms</title>
<rect y="193" rx="5" height="22" width="803.4675075627549" fill="hsl(120, 100%, 80%)" stroke="hsl(120, 100%, 55%)" />
<g stroke="hsl(120, 100%, 40%)"><line x1="776.168587338504" x2="830.7664277870058" y1="204" y2="204" />
<line x1="776.168587338504" x2="776.168587338504" y1="198" y2="210" />
<line x1="830.7664277870058" x2="830.7664277870058" y1="198" y2="210" />
</g>
</g>
<g fill="hsl(160, 100%, 40%)">
<text y="242">local.deep.10000.heftia.5+1+4</text>
<text y="242" x="806.3475387001067" text-anchor="end">1.450 s</text>
</g>
<g>
<title>1.450 s ±  82 ms</title>
<rect y="248" rx="5" height="22" width="806.3475387001067" fill="hsl(160, 100%, 80%)" stroke="hsl(160, 100%, 55%)" />
<g stroke="hsl(160, 100%, 40%)"><line x1="760.7965932816487" x2="851.8984841185647" y1="259" y2="259" />
<line x1="760.7965932816487" x2="760.7965932816487" y1="253" y2="265" />
<line x1="851.8984841185647" x2="851.8984841185647" y1="253" y2="265" />
</g>
</g>
<g fill="hsl(200, 100%, 40%)">
<text y="297">local.deep.10000.heftia.5+0+5</text>
<text y="297" x="790.870080977083" text-anchor="end">1.422 s</text>
</g>
<g>
<title>1.422 s ±  51 ms</title>
<rect y="303" rx="5" height="22" width="790.870080977083" fill="hsl(200, 100%, 80%)" stroke="hsl(200, 100%, 55%)" />
<g stroke="hsl(200, 100%, 40%)"><line x1="762.5066693454661" x2="819.2334926087" y1="314" y2="314" />
<line x1="762.5066693454661" x2="762.5066693454661" y1="308" y2="320" />
<line x1="819.2334926087" x2="819.2334926087" y1="308" y2="320" />
</g>
</g>
<text fill="hsl(240, 100%, 40%)" y="352">local.deep.10000.polysemy.5+5 8.29 ms</text>
<g>
<title>8.29 ms ± 734 μs</title>
<rect y="358" rx="5" height="22" width="4.60816679650448" fill="hsl(240, 100%, 80%)" stroke="hsl(240, 100%, 55%)" />
<g stroke="hsl(240, 100%, 40%)"><line x1="4.20001094142432" x2="5.01632265158464" y1="369" y2="369" />
<line x1="4.20001094142432" x2="4.20001094142432" y1="363" y2="375" />
<line x1="5.01632265158464" x2="5.01632265158464" y1="363" y2="375" />
</g>
</g>
<text fill="hsl(280, 100%, 40%)" y="407">local.deep.10000.fused.5+5 7.36 ms</text>
<g>
<title>7.36 ms ± 732 μs</title>
<rect y="413" rx="5" height="22" width="4.094727226941301" fill="hsl(280, 100%, 80%)" stroke="hsl(280, 100%, 55%)" />
<g stroke="hsl(280, 100%, 40%)"><line x1="3.687701332031367" x2="4.501753121851236" y1="424" y2="424" />
<line x1="3.687701332031367" x2="3.687701332031367" y1="418" y2="430" />
<line x1="4.501753121851236" x2="4.501753121851236" y1="418" y2="430" />
</g>
</g>
<text fill="hsl(320, 100%, 40%)" y="462">local.deep.10000.effectful.5+5 966  μs</text>
<g>
<title>966  μs ±  84 μs</title>
<rect y="468" rx="5" height="22" width="0.5372315262497299" fill="hsl(320, 100%, 80%)" stroke="hsl(320, 100%, 55%)" />
<g stroke="hsl(320, 100%, 40%)"><line x1="0.49074357107031535" x2="0.5837194814291445" y1="479" y2="479" />
<line x1="0.49074357107031535" x2="0.49074357107031535" y1="473" y2="485" />
<line x1="0.5837194814291445" x2="0.5837194814291445" y1="473" y2="485" />
</g>
</g>
</g>
</svg>
