<svg xmlns="http://www.w3.org/2000/svg" height="227" width="960.0" font-size="16" font-family="sans-serif" stroke-width="2">
<g transform="translate(10.0 0)">
<g fill="hsl(0, 100%, 40%)">
<text y="22">local.shallow.10000.heftia</text>
<text y="22" x="412.1165690954943" text-anchor="end">1.91 ms</text>
</g>
<g>
<title>1.91 ms ± 189 μs</title>
<rect y="28" rx="5" height="22" width="412.1165690954943" fill="hsl(0, 100%, 80%)" stroke="hsl(0, 100%, 55%)" />
<g stroke="hsl(0, 100%, 40%)"><line x1="371.5403856824518" x2="452.6927525085368" y1="39" y2="39" />
<line x1="371.5403856824518" x2="371.5403856824518" y1="33" y2="45" />
<line x1="452.6927525085368" x2="452.6927525085368" y1="33" y2="45" />
</g>
</g>
<g fill="hsl(90, 100%, 40%)">
<text y="77">local.shallow.10000.polysemy</text>
<text y="77" x="893.5067944433791" text-anchor="end">4.15 ms</text>
</g>
<g>
<title>4.15 ms ± 216 μs</title>
<rect y="83" rx="5" height="22" width="893.5067944433791" fill="hsl(90, 100%, 80%)" stroke="hsl(90, 100%, 55%)" />
<g stroke="hsl(90, 100%, 40%)"><line x1="847.0135888867583" x2="940.0" y1="94" y2="94" />
<line x1="847.0135888867583" x2="847.0135888867583" y1="88" y2="100" />
<line x1="940.0" x2="940.0" y1="88" y2="100" />
</g>
</g>
<g fill="hsl(180, 100%, 40%)">
<text y="132">local.shallow.10000.fused</text>
<text y="132" x="384.09623539531447" text-anchor="end">1.78 ms</text>
</g>
<g>
<title>1.78 ms ± 174 μs</title>
<rect y="138" rx="5" height="22" width="384.09623539531447" fill="hsl(180, 100%, 80%)" stroke="hsl(180, 100%, 55%)" />
<g stroke="hsl(180, 100%, 40%)"><line x1="346.65546926812544" x2="421.5370015225035" y1="149" y2="149" />
<line x1="346.65546926812544" x2="346.65546926812544" y1="143" y2="155" />
<line x1="421.5370015225035" x2="421.5370015225035" y1="143" y2="155" />
</g>
</g>
<text fill="hsl(270, 100%, 40%)" y="187">local.shallow.10000.effectful 1.01 ms</text>
<g>
<title>1.01 ms ±  82 μs</title>
<rect y="193" rx="5" height="22" width="216.6078128849575" fill="hsl(270, 100%, 80%)" stroke="hsl(270, 100%, 55%)" />
<g stroke="hsl(270, 100%, 40%)"><line x1="198.98448370499494" x2="234.23114206492005" y1="204" y2="204" />
<line x1="198.98448370499494" x2="198.98448370499494" y1="198" y2="210" />
<line x1="234.23114206492005" x2="234.23114206492005" y1="198" y2="210" />
</g>
</g>
</g>
</svg>
