<svg xmlns="http://www.w3.org/2000/svg" height="502" width="960.0" font-size="16" font-family="sans-serif" stroke-width="2">
<g transform="translate(10.0 0)">
<text fill="hsl(0, 100%, 40%)" y="22">local.deep.10000.heftia.5+5+0 1.80 ms</text>
<g>
<title>1.80 ms ±  96 μs</title>
<rect y="28" rx="5" height="22" width="180.62375589432312" fill="hsl(0, 100%, 80%)" stroke="hsl(0, 100%, 55%)" />
<g stroke="hsl(0, 100%, 40%)"><line x1="170.97891735328759" x2="190.26859443535866" y1="39" y2="39" />
<line x1="170.97891735328759" x2="170.97891735328759" y1="33" y2="45" />
<line x1="190.26859443535866" x2="190.26859443535866" y1="33" y2="45" />
</g>
</g>
<text fill="hsl(40, 100%, 40%)" y="77">local.deep.10000.heftia.5+4+1 2.65 ms</text>
<g>
<title>2.65 ms ± 162 μs</title>
<rect y="83" rx="5" height="22" width="266.0235907480988" fill="hsl(40, 100%, 80%)" stroke="hsl(40, 100%, 55%)" />
<g stroke="hsl(40, 100%, 40%)"><line x1="249.79523309379803" x2="282.25194840239953" y1="94" y2="94" />
<line x1="249.79523309379803" x2="249.79523309379803" y1="88" y2="100" />
<line x1="282.25194840239953" x2="282.25194840239953" y1="88" y2="100" />
</g>
</g>
<g fill="hsl(80, 100%, 40%)">
<text y="132">local.deep.10000.heftia.5+3+2</text>
<text y="132" x="354.1792836103426" text-anchor="end">3.53 ms</text>
</g>
<g>
<title>3.53 ms ± 226 μs</title>
<rect y="138" rx="5" height="22" width="354.1792836103426" fill="hsl(80, 100%, 80%)" stroke="hsl(80, 100%, 55%)" />
<g stroke="hsl(80, 100%, 40%)"><line x1="331.53391126899976" x2="376.8246559516855" y1="149" y2="149" />
<line x1="331.53391126899976" x2="331.53391126899976" y1="143" y2="155" />
<line x1="376.8246559516855" x2="376.8246559516855" y1="143" y2="155" />
</g>
</g>
<g fill="hsl(120, 100%, 40%)">
<text y="187">local.deep.10000.heftia.5+2+3</text>
<text y="187" x="448.0026618970436" text-anchor="end">4.46 ms</text>
</g>
<g>
<title>4.46 ms ± 192 μs</title>
<rect y="193" rx="5" height="22" width="448.0026618970436" fill="hsl(120, 100%, 80%)" stroke="hsl(120, 100%, 55%)" />
<g stroke="hsl(120, 100%, 40%)"><line x1="428.7319758841813" x2="467.2733479099059" y1="204" y2="204" />
<line x1="428.7319758841813" x2="428.7319758841813" y1="198" y2="210" />
<line x1="467.2733479099059" x2="467.2733479099059" y1="198" y2="210" />
</g>
</g>
<g fill="hsl(160, 100%, 40%)">
<text y="242">local.deep.10000.heftia.5+1+4</text>
<text y="242" x="575.0094839084974" text-anchor="end">5.73 ms</text>
</g>
<g>
<title>5.73 ms ± 494 μs</title>
<rect y="248" rx="5" height="22" width="575.0094839084974" fill="hsl(160, 100%, 80%)" stroke="hsl(160, 100%, 55%)" />
<g stroke="hsl(160, 100%, 40%)"><line x1="525.430017419615" x2="624.5889503973798" y1="259" y2="259" />
<line x1="525.430017419615" x2="525.430017419615" y1="253" y2="265" />
<line x1="624.5889503973798" x2="624.5889503973798" y1="253" y2="265" />
</g>
</g>
<g fill="hsl(200, 100%, 40%)">
<text y="297">local.deep.10000.heftia.5+0+5</text>
<text y="297" x="688.7672880249355" text-anchor="end">6.86 ms</text>
</g>
<g>
<title>6.86 ms ± 262 μs</title>
<rect y="303" rx="5" height="22" width="688.7672880249355" fill="hsl(200, 100%, 80%)" stroke="hsl(200, 100%, 55%)" />
<g stroke="hsl(200, 100%, 40%)"><line x1="662.4299836684929" x2="715.1045923813781" y1="314" y2="314" />
<line x1="662.4299836684929" x2="662.4299836684929" y1="308" y2="320" />
<line x1="715.1045923813781" x2="715.1045923813781" y1="308" y2="320" />
</g>
</g>
<g fill="hsl(240, 100%, 40%)">
<text y="352">local.deep.10000.polysemy.5+5</text>
<text y="352" x="878.7723880023362" text-anchor="end">8.75 ms</text>
</g>
<g>
<title>8.75 ms ± 610 μs</title>
<rect y="358" rx="5" height="22" width="878.7723880023362" fill="hsl(240, 100%, 80%)" stroke="hsl(240, 100%, 55%)" />
<g stroke="hsl(240, 100%, 40%)"><line x1="817.5447760046725" x2="940.0" y1="369" y2="369" />
<line x1="817.5447760046725" x2="817.5447760046725" y1="363" y2="375" />
<line x1="940.0" x2="940.0" y1="363" y2="375" />
</g>
</g>
<g fill="hsl(280, 100%, 40%)">
<text y="407">local.deep.10000.fused.5+5</text>
<text y="407" x="739.1113357353576" text-anchor="end">7.36 ms</text>
</g>
<g>
<title>7.36 ms ± 348 μs</title>
<rect y="413" rx="5" height="22" width="739.1113357353576" fill="hsl(280, 100%, 80%)" stroke="hsl(280, 100%, 55%)" />
<g stroke="hsl(280, 100%, 40%)"><line x1="704.1244006567869" x2="774.0982708139283" y1="424" y2="424" />
<line x1="704.1244006567869" x2="704.1244006567869" y1="418" y2="430" />
<line x1="774.0982708139283" x2="774.0982708139283" y1="418" y2="430" />
</g>
</g>
<text fill="hsl(320, 100%, 40%)" y="462">local.deep.10000.effectful.5+5 1.00 ms</text>
<g>
<title>1.00 ms ±  33 μs</title>
<rect y="468" rx="5" height="22" width="99.9614196215463" fill="hsl(320, 100%, 80%)" stroke="hsl(320, 100%, 55%)" />
<g stroke="hsl(320, 100%, 40%)"><line x1="96.61914527481082" x2="103.30369396828178" y1="479" y2="479" />
<line x1="96.61914527481082" x2="96.61914527481082" y1="473" y2="485" />
<line x1="103.30369396828178" x2="103.30369396828178" y1="473" y2="485" />
</g>
</g>
</g>
</svg>
