<svg xmlns="http://www.w3.org/2000/svg" height="502" width="960.0" font-size="16" font-family="sans-serif" stroke-width="2">
<g transform="translate(10.0 0)">
<text fill="hsl(0, 100%, 40%)" y="22">local.deep.10000.heftia.5+5+0 2.49 ms</text>
<g>
<title>2.49 ms ±  85 μs</title>
<rect y="28" rx="5" height="22" width="259.43377059620354" fill="hsl(0, 100%, 80%)" stroke="hsl(0, 100%, 55%)" />
<g stroke="hsl(0, 100%, 40%)"><line x1="250.56523526572172" x2="268.3023059266854" y1="39" y2="39" />
<line x1="250.56523526572172" x2="250.56523526572172" y1="33" y2="45" />
<line x1="268.3023059266854" x2="268.3023059266854" y1="33" y2="45" />
</g>
</g>
<g fill="hsl(40, 100%, 40%)">
<text y="77">local.deep.10000.heftia.5+4+1</text>
<text y="77" x="314.9801349195994" text-anchor="end">3.03 ms</text>
</g>
<g>
<title>3.03 ms ± 223 μs</title>
<rect y="83" rx="5" height="22" width="314.9801349195994" fill="hsl(40, 100%, 80%)" stroke="hsl(40, 100%, 55%)" />
<g stroke="hsl(40, 100%, 40%)"><line x1="291.7590145415478" x2="338.20125529765096" y1="94" y2="94" />
<line x1="291.7590145415478" x2="291.7590145415478" y1="88" y2="100" />
<line x1="338.20125529765096" x2="338.20125529765096" y1="88" y2="100" />
</g>
</g>
<g fill="hsl(80, 100%, 40%)">
<text y="132">local.deep.10000.heftia.5+3+2</text>
<text y="132" x="412.4949501168086" text-anchor="end">3.96 ms</text>
</g>
<g>
<title>3.96 ms ± 206 μs</title>
<rect y="138" rx="5" height="22" width="412.4949501168086" fill="hsl(80, 100%, 80%)" stroke="hsl(80, 100%, 55%)" />
<g stroke="hsl(80, 100%, 40%)"><line x1="391.08477411136016" x2="433.905126122257" y1="149" y2="149" />
<line x1="391.08477411136016" x2="391.08477411136016" y1="143" y2="155" />
<line x1="433.905126122257" x2="433.905126122257" y1="143" y2="155" />
</g>
</g>
<g fill="hsl(120, 100%, 40%)">
<text y="187">local.deep.10000.heftia.5+2+3</text>
<text y="187" x="515.0044468220005" text-anchor="end">4.95 ms</text>
</g>
<g>
<title>4.95 ms ± 484 μs</title>
<rect y="193" rx="5" height="22" width="515.0044468220005" fill="hsl(120, 100%, 80%)" stroke="hsl(120, 100%, 55%)" />
<g stroke="hsl(120, 100%, 40%)"><line x1="464.58542591890244" x2="565.4234677250987" y1="204" y2="204" />
<line x1="464.58542591890244" x2="464.58542591890244" y1="198" y2="210" />
<line x1="565.4234677250987" x2="565.4234677250987" y1="198" y2="210" />
</g>
</g>
<g fill="hsl(160, 100%, 40%)">
<text y="242">local.deep.10000.heftia.5+1+4</text>
<text y="242" x="578.3938278442093" text-anchor="end">5.56 ms</text>
</g>
<g>
<title>5.56 ms ± 546 μs</title>
<rect y="248" rx="5" height="22" width="578.3938278442093" fill="hsl(160, 100%, 80%)" stroke="hsl(160, 100%, 55%)" />
<g stroke="hsl(160, 100%, 40%)"><line x1="521.5070545685213" x2="635.2806011198974" y1="259" y2="259" />
<line x1="521.5070545685213" x2="521.5070545685213" y1="253" y2="265" />
<line x1="635.2806011198974" x2="635.2806011198974" y1="253" y2="265" />
</g>
</g>
<g fill="hsl(200, 100%, 40%)">
<text y="297">local.deep.10000.heftia.5+0+5</text>
<text y="297" x="692.1532493615609" text-anchor="end">6.65 ms</text>
</g>
<g>
<title>6.65 ms ± 230 μs</title>
<rect y="303" rx="5" height="22" width="692.1532493615609" fill="hsl(200, 100%, 80%)" stroke="hsl(200, 100%, 55%)" />
<g stroke="hsl(200, 100%, 40%)"><line x1="668.261435441359" x2="716.0450632817629" y1="314" y2="314" />
<line x1="668.261435441359" x2="668.261435441359" y1="308" y2="320" />
<line x1="716.0450632817629" x2="716.0450632817629" y1="308" y2="320" />
</g>
</g>
<g fill="hsl(240, 100%, 40%)">
<text y="352">local.deep.10000.polysemy.5+5</text>
<text y="352" x="870.532165330669" text-anchor="end">8.36 ms</text>
</g>
<g>
<title>8.36 ms ± 667 μs</title>
<rect y="358" rx="5" height="22" width="870.532165330669" fill="hsl(240, 100%, 80%)" stroke="hsl(240, 100%, 55%)" />
<g stroke="hsl(240, 100%, 40%)"><line x1="801.0643306613381" x2="940.0" y1="369" y2="369" />
<line x1="801.0643306613381" x2="801.0643306613381" y1="363" y2="375" />
<line x1="940.0" x2="940.0" y1="363" y2="375" />
</g>
</g>
<g fill="hsl(280, 100%, 40%)">
<text y="407">local.deep.10000.fused.5+5</text>
<text y="407" x="849.1370527247117" text-anchor="end">8.16 ms</text>
</g>
<g>
<title>8.16 ms ± 680 μs</title>
<rect y="413" rx="5" height="22" width="849.1370527247117" fill="hsl(280, 100%, 80%)" stroke="hsl(280, 100%, 55%)" />
<g stroke="hsl(280, 100%, 40%)"><line x1="778.3297395568871" x2="919.9443658925362" y1="424" y2="424" />
<line x1="778.3297395568871" x2="778.3297395568871" y1="418" y2="430" />
<line x1="919.9443658925362" x2="919.9443658925362" y1="418" y2="430" />
</g>
</g>
<text fill="hsl(320, 100%, 40%)" y="462">local.deep.10000.effectful.5+5 1.02 ms</text>
<g>
<title>1.02 ms ±  56 μs</title>
<rect y="468" rx="5" height="22" width="106.53772205703056" fill="hsl(320, 100%, 80%)" stroke="hsl(320, 100%, 55%)" />
<g stroke="hsl(320, 100%, 40%)"><line x1="100.67772778137265" x2="112.39771633268847" y1="479" y2="479" />
<line x1="100.67772778137265" x2="100.67772778137265" y1="473" y2="485" />
<line x1="112.39771633268847" x2="112.39771633268847" y1="473" y2="485" />
</g>
</g>
</g>
</svg>
