<svg xmlns="http://www.w3.org/2000/svg" height="502" width="960.0" font-size="16" font-family="sans-serif" stroke-width="2">
<g transform="translate(10.0 0)">
<text fill="hsl(0, 100%, 40%)" y="22">local.deep.10000.heftia.5+5+0 1.86 ms</text>
<g>
<title>1.86 ms ±  97 μs</title>
<rect y="28" rx="5" height="22" width="194.2661539968041" fill="hsl(0, 100%, 80%)" stroke="hsl(0, 100%, 55%)" />
<g stroke="hsl(0, 100%, 40%)"><line x1="184.12500606645204" x2="204.40730192715614" y1="39" y2="39" />
<line x1="184.12500606645204" x2="184.12500606645204" y1="33" y2="45" />
<line x1="204.40730192715614" x2="204.40730192715614" y1="33" y2="45" />
</g>
</g>
<text fill="hsl(40, 100%, 40%)" y="77">local.deep.10000.heftia.5+4+1 2.63 ms</text>
<g>
<title>2.63 ms ± 144 μs</title>
<rect y="83" rx="5" height="22" width="275.70416376812364" fill="hsl(40, 100%, 80%)" stroke="hsl(40, 100%, 55%)" />
<g stroke="hsl(40, 100%, 40%)"><line x1="260.598255798848" x2="290.81007173739926" y1="94" y2="94" />
<line x1="260.598255798848" x2="260.598255798848" y1="88" y2="100" />
<line x1="290.81007173739926" x2="290.81007173739926" y1="88" y2="100" />
</g>
</g>
<g fill="hsl(80, 100%, 40%)">
<text y="132">local.deep.10000.heftia.5+3+2</text>
<text y="132" x="375.71057394112387" text-anchor="end">3.59 ms</text>
</g>
<g>
<title>3.59 ms ± 233 μs</title>
<rect y="138" rx="5" height="22" width="375.71057394112387" fill="hsl(80, 100%, 80%)" stroke="hsl(80, 100%, 55%)" />
<g stroke="hsl(80, 100%, 40%)"><line x1="351.30723638825253" x2="400.1139114939952" y1="149" y2="149" />
<line x1="351.30723638825253" x2="351.30723638825253" y1="143" y2="155" />
<line x1="400.1139114939952" x2="400.1139114939952" y1="143" y2="155" />
</g>
</g>
<g fill="hsl(120, 100%, 40%)">
<text y="187">local.deep.10000.heftia.5+2+3</text>
<text y="187" x="455.39848274972525" text-anchor="end">4.35 ms</text>
</g>
<g>
<title>4.35 ms ±  89 μs</title>
<rect y="193" rx="5" height="22" width="455.39848274972525" fill="hsl(120, 100%, 80%)" stroke="hsl(120, 100%, 55%)" />
<g stroke="hsl(120, 100%, 40%)"><line x1="446.1159859156861" x2="464.6809795837644" y1="204" y2="204" />
<line x1="446.1159859156861" x2="446.1159859156861" y1="198" y2="210" />
<line x1="464.6809795837644" x2="464.6809795837644" y1="198" y2="210" />
</g>
</g>
<g fill="hsl(160, 100%, 40%)">
<text y="242">local.deep.10000.heftia.5+1+4</text>
<text y="242" x="599.3841696982377" text-anchor="end">5.73 ms</text>
</g>
<g>
<title>5.73 ms ± 406 μs</title>
<rect y="248" rx="5" height="22" width="599.3841696982377" fill="hsl(160, 100%, 80%)" stroke="hsl(160, 100%, 55%)" />
<g stroke="hsl(160, 100%, 40%)"><line x1="556.8858051153328" x2="641.8825342811425" y1="259" y2="259" />
<line x1="556.8858051153328" x2="556.8858051153328" y1="253" y2="265" />
<line x1="641.8825342811425" x2="641.8825342811425" y1="253" y2="265" />
</g>
</g>
<g fill="hsl(200, 100%, 40%)">
<text y="297">local.deep.10000.heftia.5+0+5</text>
<text y="297" x="709.9180251711758" text-anchor="end">6.78 ms</text>
</g>
<g>
<title>6.78 ms ± 221 μs</title>
<rect y="303" rx="5" height="22" width="709.9180251711758" fill="hsl(200, 100%, 80%)" stroke="hsl(200, 100%, 55%)" />
<g stroke="hsl(200, 100%, 40%)"><line x1="686.7814536604143" x2="733.0545966819374" y1="314" y2="314" />
<line x1="686.7814536604143" x2="686.7814536604143" y1="308" y2="320" />
<line x1="733.0545966819374" x2="733.0545966819374" y1="308" y2="320" />
</g>
</g>
<g fill="hsl(240, 100%, 40%)">
<text y="352">local.deep.10000.polysemy.5+5</text>
<text y="352" x="856.2484827650361" text-anchor="end">8.18 ms</text>
</g>
<g>
<title>8.18 ms ± 800 μs</title>
<rect y="358" rx="5" height="22" width="856.2484827650361" fill="hsl(240, 100%, 80%)" stroke="hsl(240, 100%, 55%)" />
<g stroke="hsl(240, 100%, 40%)"><line x1="772.4969655300722" x2="940.0" y1="369" y2="369" />
<line x1="772.4969655300722" x2="772.4969655300722" y1="363" y2="375" />
<line x1="940.0" x2="940.0" y1="363" y2="375" />
</g>
</g>
<g fill="hsl(280, 100%, 40%)">
<text y="407">local.deep.10000.fused.5+5</text>
<text y="407" x="801.1119579876569" text-anchor="end">7.66 ms</text>
</g>
<g>
<title>7.66 ms ± 733 μs</title>
<rect y="413" rx="5" height="22" width="801.1119579876569" fill="hsl(280, 100%, 80%)" stroke="hsl(280, 100%, 55%)" />
<g stroke="hsl(280, 100%, 40%)"><line x1="724.4237235789152" x2="877.8001923963985" y1="424" y2="424" />
<line x1="724.4237235789152" x2="724.4237235789152" y1="418" y2="430" />
<line x1="877.8001923963985" x2="877.8001923963985" y1="418" y2="430" />
</g>
</g>
<text fill="hsl(320, 100%, 40%)" y="462">local.deep.10000.effectful.5+5 1.03 ms</text>
<g>
<title>1.03 ms ±  55 μs</title>
<rect y="468" rx="5" height="22" width="107.90259086780793" fill="hsl(320, 100%, 80%)" stroke="hsl(320, 100%, 55%)" />
<g stroke="hsl(320, 100%, 40%)"><line x1="102.11644757129696" x2="113.6887341643189" y1="479" y2="479" />
<line x1="102.11644757129696" x2="102.11644757129696" y1="473" y2="485" />
<line x1="113.6887341643189" x2="113.6887341643189" y1="473" y2="485" />
</g>
</g>
</g>
</svg>
