<svg xmlns="http://www.w3.org/2000/svg" height="227" width="960.0" font-size="16" font-family="sans-serif" stroke-width="2">
<g transform="translate(10.0 0)">
<g fill="hsl(0, 100%, 40%)">
<text y="22">local.shallow.10000.heftia</text>
<text y="22" x="401.0214502544982" text-anchor="end">1.85 ms</text>
</g>
<g>
<title>1.85 ms ± 111 μs</title>
<rect y="28" rx="5" height="22" width="401.0214502544982" fill="hsl(0, 100%, 80%)" stroke="hsl(0, 100%, 55%)" />
<g stroke="hsl(0, 100%, 40%)"><line x1="376.8682606265692" x2="425.17463988242713" y1="39" y2="39" />
<line x1="376.8682606265692" x2="376.8682606265692" y1="33" y2="45" />
<line x1="425.17463988242713" x2="425.17463988242713" y1="33" y2="45" />
</g>
</g>
<g fill="hsl(90, 100%, 40%)">
<text y="77">local.shallow.10000.polysemy</text>
<text y="77" x="881.7232305424748" text-anchor="end">4.06 ms</text>
</g>
<g>
<title>4.06 ms ± 268 μs</title>
<rect y="83" rx="5" height="22" width="881.7232305424748" fill="hsl(90, 100%, 80%)" stroke="hsl(90, 100%, 55%)" />
<g stroke="hsl(90, 100%, 40%)"><line x1="823.4464610849495" x2="940.0" y1="94" y2="94" />
<line x1="823.4464610849495" x2="823.4464610849495" y1="88" y2="100" />
<line x1="940.0" x2="940.0" y1="88" y2="100" />
</g>
</g>
<g fill="hsl(180, 100%, 40%)">
<text y="132">local.shallow.10000.fused</text>
<text y="132" x="378.07006319808534" text-anchor="end">1.74 ms</text>
</g>
<g>
<title>1.74 ms ±  86 μs</title>
<rect y="138" rx="5" height="22" width="378.07006319808534" fill="hsl(180, 100%, 80%)" stroke="hsl(180, 100%, 55%)" />
<g stroke="hsl(180, 100%, 40%)"><line x1="359.2980219552796" x2="396.8421044408911" y1="149" y2="149" />
<line x1="359.2980219552796" x2="359.2980219552796" y1="143" y2="155" />
<line x1="396.8421044408911" x2="396.8421044408911" y1="143" y2="155" />
</g>
</g>
<text fill="hsl(270, 100%, 40%)" y="187">local.shallow.10000.effectful 975  μs</text>
<g>
<title>975  μs ±  91 μs</title>
<rect y="193" rx="5" height="22" width="211.7284573065082" fill="hsl(270, 100%, 80%)" stroke="hsl(270, 100%, 55%)" />
<g stroke="hsl(270, 100%, 40%)"><line x1="191.99423933155023" x2="231.46267528146618" y1="204" y2="204" />
<line x1="191.99423933155023" x2="191.99423933155023" y1="198" y2="210" />
<line x1="231.46267528146618" x2="231.46267528146618" y1="198" y2="210" />
</g>
</g>
</g>
</svg>
