<svg xmlns="http://www.w3.org/2000/svg" height="227" width="960.0" font-size="16" font-family="sans-serif" stroke-width="2">
<g transform="translate(10.0 0)">
<g fill="hsl(0, 100%, 40%)">
<text y="22">local.shallow.10000.heftia</text>
<text y="22" x="420.5347254564429" text-anchor="end">1.79 ms</text>
</g>
<g>
<title>1.79 ms ± 174 μs</title>
<rect y="28" rx="5" height="22" width="420.5347254564429" fill="hsl(0, 100%, 80%)" stroke="hsl(0, 100%, 55%)" />
<g stroke="hsl(0, 100%, 40%)"><line x1="379.6209856444747" x2="461.44846526841116" y1="39" y2="39" />
<line x1="379.6209856444747" x2="379.6209856444747" y1="33" y2="45" />
<line x1="461.44846526841116" x2="461.44846526841116" y1="33" y2="45" />
</g>
</g>
<g fill="hsl(90, 100%, 40%)">
<text y="77">local.shallow.10000.polysemy</text>
<text y="77" x="890.6829880668079" text-anchor="end">3.78 ms</text>
</g>
<g>
<title>3.78 ms ± 209 μs</title>
<rect y="83" rx="5" height="22" width="890.6829880668079" fill="hsl(90, 100%, 80%)" stroke="hsl(90, 100%, 55%)" />
<g stroke="hsl(90, 100%, 40%)"><line x1="841.3659761336157" x2="940.0" y1="94" y2="94" />
<line x1="841.3659761336157" x2="841.3659761336157" y1="88" y2="100" />
<line x1="940.0" x2="940.0" y1="88" y2="100" />
</g>
</g>
<g fill="hsl(180, 100%, 40%)">
<text y="132">local.shallow.10000.fused</text>
<text y="132" x="404.4478030257335" text-anchor="end">1.72 ms</text>
</g>
<g>
<title>1.72 ms ±  91 μs</title>
<rect y="138" rx="5" height="22" width="404.4478030257335" fill="hsl(180, 100%, 80%)" stroke="hsl(180, 100%, 55%)" />
<g stroke="hsl(180, 100%, 40%)"><line x1="383.02382963895224" x2="425.87177641251475" y1="149" y2="149" />
<line x1="383.02382963895224" x2="383.02382963895224" y1="143" y2="155" />
<line x1="425.87177641251475" x2="425.87177641251475" y1="143" y2="155" />
</g>
</g>
<text fill="hsl(270, 100%, 40%)" y="187">local.shallow.10000.effectful 973  μs</text>
<g>
<title>973  μs ±  40 μs</title>
<rect y="193" rx="5" height="22" width="229.1329741278613" fill="hsl(270, 100%, 80%)" stroke="hsl(270, 100%, 55%)" />
<g stroke="hsl(270, 100%, 40%)"><line x1="219.73024228185787" x2="238.53570597386474" y1="204" y2="204" />
<line x1="219.73024228185787" x2="219.73024228185787" y1="198" y2="210" />
<line x1="238.53570597386474" x2="238.53570597386474" y1="198" y2="210" />
</g>
</g>
</g>
</svg>
