<svg xmlns="http://www.w3.org/2000/svg" height="227" width="960.0" font-size="16" font-family="sans-serif" stroke-width="2">
<g transform="translate(10.0 0)">
<g fill="hsl(0, 100%, 40%)">
<text y="22">local.shallow.10000.heftia</text>
<text y="22" x="406.7594844154907" text-anchor="end">1.86 ms</text>
</g>
<g>
<title>1.86 ms ± 181 μs</title>
<rect y="28" rx="5" height="22" width="406.7594844154907" fill="hsl(0, 100%, 80%)" stroke="hsl(0, 100%, 55%)" />
<g stroke="hsl(0, 100%, 40%)"><line x1="367.2022003945836" x2="446.3167684363978" y1="39" y2="39" />
<line x1="367.2022003945836" x2="367.2022003945836" y1="33" y2="45" />
<line x1="446.3167684363978" x2="446.3167684363978" y1="33" y2="45" />
</g>
</g>
<g fill="hsl(90, 100%, 40%)">
<text y="77">local.shallow.10000.polysemy</text>
<text y="77" x="856.5371773382532" text-anchor="end">3.93 ms</text>
</g>
<g>
<title>3.93 ms ± 383 μs</title>
<rect y="83" rx="5" height="22" width="856.5371773382532" fill="hsl(90, 100%, 80%)" stroke="hsl(90, 100%, 55%)" />
<g stroke="hsl(90, 100%, 40%)"><line x1="773.0743546765063" x2="940.0" y1="94" y2="94" />
<line x1="773.0743546765063" x2="773.0743546765063" y1="88" y2="100" />
<line x1="940.0" x2="940.0" y1="88" y2="100" />
</g>
</g>
<g fill="hsl(180, 100%, 40%)">
<text y="132">local.shallow.10000.fused</text>
<text y="132" x="364.76756916211474" text-anchor="end">1.67 ms</text>
</g>
<g>
<title>1.67 ms ±  90 μs</title>
<rect y="138" rx="5" height="22" width="364.76756916211474" fill="hsl(180, 100%, 80%)" stroke="hsl(180, 100%, 55%)" />
<g stroke="hsl(180, 100%, 40%)"><line x1="345.12686240081894" x2="384.40827592341054" y1="149" y2="149" />
<line x1="345.12686240081894" x2="345.12686240081894" y1="143" y2="155" />
<line x1="384.40827592341054" x2="384.40827592341054" y1="143" y2="155" />
</g>
</g>
<text fill="hsl(270, 100%, 40%)" y="187">local.shallow.10000.effectful 951  μs</text>
<g>
<title>951  μs ±  33 μs</title>
<rect y="193" rx="5" height="22" width="207.50566857717726" fill="hsl(270, 100%, 80%)" stroke="hsl(270, 100%, 55%)" />
<g stroke="hsl(270, 100%, 40%)"><line x1="200.22587694232686" x2="214.78546021202766" y1="204" y2="204" />
<line x1="200.22587694232686" x2="200.22587694232686" y1="198" y2="210" />
<line x1="214.78546021202766" x2="214.78546021202766" y1="198" y2="210" />
</g>
</g>
</g>
</svg>
