<svg xmlns="http://www.w3.org/2000/svg" height="502" width="960.0" font-size="16" font-family="sans-serif" stroke-width="2">
<g transform="translate(10.0 0)">
<text fill="hsl(0, 100%, 40%)" y="22">local.deep.10000.heftia.5+5+0 1.83 ms</text>
<g>
<title>1.83 ms ± 119 μs</title>
<rect y="28" rx="5" height="22" width="189.50084822478016" fill="hsl(0, 100%, 80%)" stroke="hsl(0, 100%, 55%)" />
<g stroke="hsl(0, 100%, 40%)"><line x1="177.16572873258005" x2="201.83596771698026" y1="39" y2="39" />
<line x1="177.16572873258005" x2="177.16572873258005" y1="33" y2="45" />
<line x1="201.83596771698026" x2="201.83596771698026" y1="33" y2="45" />
</g>
</g>
<text fill="hsl(40, 100%, 40%)" y="77">local.deep.10000.heftia.5+4+1 2.64 ms</text>
<g>
<title>2.64 ms ±  95 μs</title>
<rect y="83" rx="5" height="22" width="273.24223312272954" fill="hsl(40, 100%, 80%)" stroke="hsl(40, 100%, 55%)" />
<g stroke="hsl(40, 100%, 40%)"><line x1="263.45060452347474" x2="283.03386172198435" y1="94" y2="94" />
<line x1="263.45060452347474" x2="263.45060452347474" y1="88" y2="100" />
<line x1="283.03386172198435" x2="283.03386172198435" y1="88" y2="100" />
</g>
</g>
<g fill="hsl(80, 100%, 40%)">
<text y="132">local.deep.10000.heftia.5+3+2</text>
<text y="132" x="363.45817911895654" text-anchor="end">3.52 ms</text>
</g>
<g>
<title>3.52 ms ± 111 μs</title>
<rect y="138" rx="5" height="22" width="363.45817911895654" fill="hsl(80, 100%, 80%)" stroke="hsl(80, 100%, 55%)" />
<g stroke="hsl(80, 100%, 40%)"><line x1="351.95193632502935" x2="374.9644219128837" y1="149" y2="149" />
<line x1="351.95193632502935" x2="351.95193632502935" y1="143" y2="155" />
<line x1="374.9644219128837" x2="374.9644219128837" y1="143" y2="155" />
</g>
</g>
<g fill="hsl(120, 100%, 40%)">
<text y="187">local.deep.10000.heftia.5+2+3</text>
<text y="187" x="464.85533684507095" text-anchor="end">4.50 ms</text>
</g>
<g>
<title>4.50 ms ± 397 μs</title>
<rect y="193" rx="5" height="22" width="464.85533684507095" fill="hsl(120, 100%, 80%)" stroke="hsl(120, 100%, 55%)" />
<g stroke="hsl(120, 100%, 40%)"><line x1="423.7962737007747" x2="505.9143999893672" y1="204" y2="204" />
<line x1="423.7962737007747" x2="423.7962737007747" y1="198" y2="210" />
<line x1="505.9143999893672" x2="505.9143999893672" y1="198" y2="210" />
</g>
</g>
<g fill="hsl(160, 100%, 40%)">
<text y="242">local.deep.10000.heftia.5+1+4</text>
<text y="242" x="602.8878687168475" text-anchor="end">5.83 ms</text>
</g>
<g>
<title>5.83 ms ± 340 μs</title>
<rect y="248" rx="5" height="22" width="602.8878687168475" fill="hsl(160, 100%, 80%)" stroke="hsl(160, 100%, 55%)" />
<g stroke="hsl(160, 100%, 40%)"><line x1="567.7646176698117" x2="638.0111197638832" y1="259" y2="259" />
<line x1="567.7646176698117" x2="567.7646176698117" y1="253" y2="265" />
<line x1="638.0111197638832" x2="638.0111197638832" y1="253" y2="265" />
</g>
</g>
<g fill="hsl(200, 100%, 40%)">
<text y="297">local.deep.10000.heftia.5+0+5</text>
<text y="297" x="694.6914454298883" text-anchor="end">6.72 ms</text>
</g>
<g>
<title>6.72 ms ± 422 μs</title>
<rect y="303" rx="5" height="22" width="694.6914454298883" fill="hsl(200, 100%, 80%)" stroke="hsl(200, 100%, 55%)" />
<g stroke="hsl(200, 100%, 40%)"><line x1="651.1093331921928" x2="738.2735576675838" y1="314" y2="314" />
<line x1="651.1093331921928" x2="651.1093331921928" y1="308" y2="320" />
<line x1="738.2735576675838" x2="738.2735576675838" y1="308" y2="320" />
</g>
</g>
<g fill="hsl(240, 100%, 40%)">
<text y="352">local.deep.10000.polysemy.5+5</text>
<text y="352" x="861.6979943072208" text-anchor="end">8.33 ms</text>
</g>
<g>
<title>8.33 ms ± 757 μs</title>
<rect y="358" rx="5" height="22" width="861.6979943072208" fill="hsl(240, 100%, 80%)" stroke="hsl(240, 100%, 55%)" />
<g stroke="hsl(240, 100%, 40%)"><line x1="783.3959886144416" x2="940.0" y1="369" y2="369" />
<line x1="783.3959886144416" x2="783.3959886144416" y1="363" y2="375" />
<line x1="940.0" x2="940.0" y1="363" y2="375" />
</g>
</g>
<g fill="hsl(280, 100%, 40%)">
<text y="407">local.deep.10000.fused.5+5</text>
<text y="407" x="733.1091486010774" text-anchor="end">7.09 ms</text>
</g>
<g>
<title>7.09 ms ± 431 μs</title>
<rect y="413" rx="5" height="22" width="733.1091486010774" fill="hsl(280, 100%, 80%)" stroke="hsl(280, 100%, 55%)" />
<g stroke="hsl(280, 100%, 40%)"><line x1="688.5942716864524" x2="777.6240255157024" y1="424" y2="424" />
<line x1="688.5942716864524" x2="688.5942716864524" y1="418" y2="430" />
<line x1="777.6240255157024" x2="777.6240255157024" y1="418" y2="430" />
</g>
</g>
<text fill="hsl(320, 100%, 40%)" y="462">local.deep.10000.effectful.5+5 972  μs</text>
<g>
<title>972  μs ±  73 μs</title>
<rect y="468" rx="5" height="22" width="100.47154836137051" fill="hsl(320, 100%, 80%)" stroke="hsl(320, 100%, 55%)" />
<g stroke="hsl(320, 100%, 40%)"><line x1="92.93810072327031" x2="108.00499599947071" y1="479" y2="479" />
<line x1="92.93810072327031" x2="92.93810072327031" y1="473" y2="485" />
<line x1="108.00499599947071" x2="108.00499599947071" y1="473" y2="485" />
</g>
</g>
</g>
</svg>
