<svg xmlns="http://www.w3.org/2000/svg" height="502" width="960.0" font-size="16" font-family="sans-serif" stroke-width="2">
<g transform="translate(10.0 0)">
<text fill="hsl(0, 100%, 40%)" y="22">local.deep.10000.heftia.5+5+0 1.83 ms</text>
<g>
<title>1.83 ms ± 134 μs</title>
<rect y="28" rx="5" height="22" width="186.35694368752428" fill="hsl(0, 100%, 80%)" stroke="hsl(0, 100%, 55%)" />
<g stroke="hsl(0, 100%, 40%)"><line x1="172.63297704057783" x2="200.08091033447073" y1="39" y2="39" />
<line x1="172.63297704057783" x2="172.63297704057783" y1="33" y2="45" />
<line x1="200.08091033447073" x2="200.08091033447073" y1="33" y2="45" />
</g>
</g>
<text fill="hsl(40, 100%, 40%)" y="77">local.deep.10000.heftia.5+4+1 2.61 ms</text>
<g>
<title>2.61 ms ±  40 μs</title>
<rect y="83" rx="5" height="22" width="266.67292399719287" fill="hsl(40, 100%, 80%)" stroke="hsl(40, 100%, 55%)" />
<g stroke="hsl(40, 100%, 40%)"><line x1="262.608825338716" x2="270.73702265566976" y1="94" y2="94" />
<line x1="262.608825338716" x2="262.608825338716" y1="88" y2="100" />
<line x1="270.73702265566976" x2="270.73702265566976" y1="88" y2="100" />
</g>
</g>
<g fill="hsl(80, 100%, 40%)">
<text y="132">local.deep.10000.heftia.5+3+2</text>
<text y="132" x="372.33078920297123" text-anchor="end">3.65 ms</text>
</g>
<g>
<title>3.65 ms ± 286 μs</title>
<rect y="138" rx="5" height="22" width="372.33078920297123" fill="hsl(80, 100%, 80%)" stroke="hsl(80, 100%, 55%)" />
<g stroke="hsl(80, 100%, 40%)"><line x1="343.1393910598045" x2="401.52218734613797" y1="149" y2="149" />
<line x1="343.1393910598045" x2="343.1393910598045" y1="143" y2="155" />
<line x1="401.52218734613797" x2="401.52218734613797" y1="143" y2="155" />
</g>
</g>
<g fill="hsl(120, 100%, 40%)">
<text y="187">local.deep.10000.heftia.5+2+3</text>
<text y="187" x="468.22552975375396" text-anchor="end">4.59 ms</text>
</g>
<g>
<title>4.59 ms ± 368 μs</title>
<rect y="193" rx="5" height="22" width="468.22552975375396" fill="hsl(120, 100%, 80%)" stroke="hsl(120, 100%, 55%)" />
<g stroke="hsl(120, 100%, 40%)"><line x1="430.7083353578625" x2="505.7427241496454" y1="204" y2="204" />
<line x1="430.7083353578625" x2="430.7083353578625" y1="198" y2="210" />
<line x1="505.7427241496454" x2="505.7427241496454" y1="198" y2="210" />
</g>
</g>
<g fill="hsl(160, 100%, 40%)">
<text y="242">local.deep.10000.heftia.5+1+4</text>
<text y="242" x="624.5223767521244" text-anchor="end">6.12 ms</text>
</g>
<g>
<title>6.12 ms ± 454 μs</title>
<rect y="248" rx="5" height="22" width="624.5223767521244" fill="hsl(160, 100%, 80%)" stroke="hsl(160, 100%, 55%)" />
<g stroke="hsl(160, 100%, 40%)"><line x1="578.216079069496" x2="670.8286744347528" y1="259" y2="259" />
<line x1="578.216079069496" x2="578.216079069496" y1="253" y2="265" />
<line x1="670.8286744347528" x2="670.8286744347528" y1="253" y2="265" />
</g>
</g>
<g fill="hsl(200, 100%, 40%)">
<text y="297">local.deep.10000.heftia.5+0+5</text>
<text y="297" x="710.0332663616941" text-anchor="end">6.96 ms</text>
</g>
<g>
<title>6.96 ms ± 512 μs</title>
<rect y="303" rx="5" height="22" width="710.0332663616941" fill="hsl(200, 100%, 80%)" stroke="hsl(200, 100%, 55%)" />
<g stroke="hsl(200, 100%, 40%)"><line x1="657.7547724856429" x2="762.3117602377454" y1="314" y2="314" />
<line x1="657.7547724856429" x2="657.7547724856429" y1="308" y2="320" />
<line x1="762.3117602377454" x2="762.3117602377454" y1="308" y2="320" />
</g>
</g>
<g fill="hsl(240, 100%, 40%)">
<text y="352">local.deep.10000.polysemy.5+5</text>
<text y="352" x="865.679794384974" text-anchor="end">8.48 ms</text>
</g>
<g>
<title>8.48 ms ± 728 μs</title>
<rect y="358" rx="5" height="22" width="865.679794384974" fill="hsl(240, 100%, 80%)" stroke="hsl(240, 100%, 55%)" />
<g stroke="hsl(240, 100%, 40%)"><line x1="791.359588769948" x2="940.0" y1="369" y2="369" />
<line x1="791.359588769948" x2="791.359588769948" y1="363" y2="375" />
<line x1="940.0" x2="940.0" y1="363" y2="375" />
</g>
</g>
<g fill="hsl(280, 100%, 40%)">
<text y="407">local.deep.10000.fused.5+5</text>
<text y="407" x="771.545995244849" text-anchor="end">7.56 ms</text>
</g>
<g>
<title>7.56 ms ± 473 μs</title>
<rect y="413" rx="5" height="22" width="771.545995244849" fill="hsl(280, 100%, 80%)" stroke="hsl(280, 100%, 55%)" />
<g stroke="hsl(280, 100%, 40%)"><line x1="723.2882798359537" x2="819.8037106537442" y1="424" y2="424" />
<line x1="723.2882798359537" x2="723.2882798359537" y1="418" y2="430" />
<line x1="819.8037106537442" x2="819.8037106537442" y1="418" y2="430" />
</g>
</g>
<text fill="hsl(320, 100%, 40%)" y="462">local.deep.10000.effectful.5+5 1.01 ms</text>
<g>
<title>1.01 ms ±  44 μs</title>
<rect y="468" rx="5" height="22" width="103.34264611437811" fill="hsl(320, 100%, 80%)" stroke="hsl(320, 100%, 55%)" />
<g stroke="hsl(320, 100%, 40%)"><line x1="98.83114132141199" x2="107.85415090734423" y1="479" y2="479" />
<line x1="98.83114132141199" x2="98.83114132141199" y1="473" y2="485" />
<line x1="107.85415090734423" x2="107.85415090734423" y1="473" y2="485" />
</g>
</g>
</g>
</svg>
