<svg xmlns="http://www.w3.org/2000/svg" height="227" width="960.0" font-size="16" font-family="sans-serif" stroke-width="2">
<g transform="translate(10.0 0)">
<g fill="hsl(0, 100%, 40%)">
<text y="22">local.shallow.10000.heftia</text>
<text y="22" x="926.0699604445578" text-anchor="end">1.381 s</text>
</g>
<g>
<title>1.381 s ±  21 ms</title>
<rect y="28" rx="5" height="22" width="926.0699604445578" fill="hsl(0, 100%, 80%)" stroke="hsl(0, 100%, 55%)" />
<g stroke="hsl(0, 100%, 40%)"><line x1="912.1399208891155" x2="940.0" y1="39" y2="39" />
<line x1="912.1399208891155" x2="912.1399208891155" y1="33" y2="45" />
<line x1="940.0" x2="940.0" y1="33" y2="45" />
</g>
</g>
<text fill="hsl(90, 100%, 40%)" y="77">local.shallow.10000.polysemy 4.04 ms</text>
<g>
<title>4.04 ms ±  73 μs</title>
<rect y="83" rx="5" height="22" width="2.7101355837010246" fill="hsl(90, 100%, 80%)" stroke="hsl(90, 100%, 55%)" />
<g stroke="hsl(90, 100%, 40%)"><line x1="2.6612869815533897" x2="2.7589841858486595" y1="94" y2="94" />
<line x1="2.6612869815533897" x2="2.6612869815533897" y1="88" y2="100" />
<line x1="2.7589841858486595" x2="2.7589841858486595" y1="88" y2="100" />
</g>
</g>
<text fill="hsl(180, 100%, 40%)" y="132">local.shallow.10000.fused 1.78 ms</text>
<g>
<title>1.78 ms ± 177 μs</title>
<rect y="138" rx="5" height="22" width="1.1913143372949804" fill="hsl(180, 100%, 80%)" stroke="hsl(180, 100%, 55%)" />
<g stroke="hsl(180, 100%, 40%)"><line x1="1.0723376953671122" x2="1.3102909792228485" y1="149" y2="149" />
<line x1="1.0723376953671122" x2="1.0723376953671122" y1="143" y2="155" />
<line x1="1.3102909792228485" x2="1.3102909792228485" y1="143" y2="155" />
</g>
</g>
<text fill="hsl(270, 100%, 40%)" y="187">local.shallow.10000.effectful 954  μs</text>
<g>
<title>954  μs ±  54 μs</title>
<rect y="193" rx="5" height="22" width="0.6395011918096228" fill="hsl(270, 100%, 80%)" stroke="hsl(270, 100%, 55%)" />
<g stroke="hsl(270, 100%, 40%)"><line x1="0.6033269358776808" x2="0.6756754477415648" y1="204" y2="204" />
<line x1="0.6033269358776808" x2="0.6033269358776808" y1="198" y2="210" />
<line x1="0.6756754477415648" x2="0.6756754477415648" y1="198" y2="210" />
</g>
</g>
</g>
</svg>
