<svg xmlns="http://www.w3.org/2000/svg" height="502" width="960.0" font-size="16" font-family="sans-serif" stroke-width="2">
<g transform="translate(10.0 0)">
<text fill="hsl(0, 100%, 40%)" y="22">local.deep.10000.heftia.5+5+0 1.90 ms</text>
<g>
<title>1.90 ms ±  60 μs</title>
<rect y="28" rx="5" height="22" width="198.85350463759323" fill="hsl(0, 100%, 80%)" stroke="hsl(0, 100%, 55%)" />
<g stroke="hsl(0, 100%, 40%)"><line x1="192.60805329974144" x2="205.09895597544502" y1="39" y2="39" />
<line x1="192.60805329974144" x2="192.60805329974144" y1="33" y2="45" />
<line x1="205.09895597544502" x2="205.09895597544502" y1="33" y2="45" />
</g>
</g>
<text fill="hsl(40, 100%, 40%)" y="77">local.deep.10000.heftia.5+4+1 2.79 ms</text>
<g>
<title>2.79 ms ± 234 μs</title>
<rect y="83" rx="5" height="22" width="291.6905668525761" fill="hsl(40, 100%, 80%)" stroke="hsl(40, 100%, 55%)" />
<g stroke="hsl(40, 100%, 40%)"><line x1="267.16754494012116" x2="316.2135887650311" y1="94" y2="94" />
<line x1="267.16754494012116" x2="267.16754494012116" y1="88" y2="100" />
<line x1="316.2135887650311" x2="316.2135887650311" y1="88" y2="100" />
</g>
</g>
<g fill="hsl(80, 100%, 40%)">
<text y="132">local.deep.10000.heftia.5+3+2</text>
<text y="132" x="388.129154630524" text-anchor="end">3.71 ms</text>
</g>
<g>
<title>3.71 ms ± 301 μs</title>
<rect y="138" rx="5" height="22" width="388.129154630524" fill="hsl(80, 100%, 80%)" stroke="hsl(80, 100%, 55%)" />
<g stroke="hsl(80, 100%, 40%)"><line x1="356.5995546098513" x2="419.6587546511967" y1="149" y2="149" />
<line x1="356.5995546098513" x2="356.5995546098513" y1="143" y2="155" />
<line x1="419.6587546511967" x2="419.6587546511967" y1="143" y2="155" />
</g>
</g>
<g fill="hsl(120, 100%, 40%)">
<text y="187">local.deep.10000.heftia.5+2+3</text>
<text y="187" x="495.0803632957525" text-anchor="end">4.73 ms</text>
</g>
<g>
<title>4.73 ms ± 338 μs</title>
<rect y="193" rx="5" height="22" width="495.0803632957525" fill="hsl(120, 100%, 80%)" stroke="hsl(120, 100%, 55%)" />
<g stroke="hsl(120, 100%, 40%)"><line x1="459.6656404900566" x2="530.4950861014484" y1="204" y2="204" />
<line x1="459.6656404900566" x2="459.6656404900566" y1="198" y2="210" />
<line x1="530.4950861014484" x2="530.4950861014484" y1="198" y2="210" />
</g>
</g>
<g fill="hsl(160, 100%, 40%)">
<text y="242">local.deep.10000.heftia.5+1+4</text>
<text y="242" x="590.5202177024097" text-anchor="end">5.64 ms</text>
</g>
<g>
<title>5.64 ms ± 442 μs</title>
<rect y="248" rx="5" height="22" width="590.5202177024097" fill="hsl(160, 100%, 80%)" stroke="hsl(160, 100%, 55%)" />
<g stroke="hsl(160, 100%, 40%)"><line x1="544.2067972043769" x2="636.8336382004425" y1="259" y2="259" />
<line x1="544.2067972043769" x2="544.2067972043769" y1="253" y2="265" />
<line x1="636.8336382004425" x2="636.8336382004425" y1="253" y2="265" />
</g>
</g>
<g fill="hsl(200, 100%, 40%)">
<text y="297">local.deep.10000.heftia.5+0+5</text>
<text y="297" x="747.8604422250644" text-anchor="end">7.14 ms</text>
</g>
<g>
<title>7.14 ms ± 245 μs</title>
<rect y="303" rx="5" height="22" width="747.8604422250644" fill="hsl(200, 100%, 80%)" stroke="hsl(200, 100%, 55%)" />
<g stroke="hsl(200, 100%, 40%)"><line x1="722.2275271338033" x2="773.4933573163255" y1="314" y2="314" />
<line x1="722.2275271338033" x2="722.2275271338033" y1="308" y2="320" />
<line x1="773.4933573163255" x2="773.4933573163255" y1="308" y2="320" />
</g>
</g>
<g fill="hsl(240, 100%, 40%)">
<text y="352">local.deep.10000.polysemy.5+5</text>
<text y="352" x="863.6399841672693" text-anchor="end">8.25 ms</text>
</g>
<g>
<title>8.25 ms ± 729 μs</title>
<rect y="358" rx="5" height="22" width="863.6399841672693" fill="hsl(240, 100%, 80%)" stroke="hsl(240, 100%, 55%)" />
<g stroke="hsl(240, 100%, 40%)"><line x1="787.2799683345386" x2="940.0" y1="369" y2="369" />
<line x1="787.2799683345386" x2="787.2799683345386" y1="363" y2="375" />
<line x1="940.0" x2="940.0" y1="363" y2="375" />
</g>
</g>
<g fill="hsl(280, 100%, 40%)">
<text y="407">local.deep.10000.fused.5+5</text>
<text y="407" x="788.5822156740834" text-anchor="end">7.53 ms</text>
</g>
<g>
<title>7.53 ms ± 703 μs</title>
<rect y="413" rx="5" height="22" width="788.5822156740834" fill="hsl(280, 100%, 80%)" stroke="hsl(280, 100%, 55%)" />
<g stroke="hsl(280, 100%, 40%)"><line x1="714.986337252416" x2="862.1780940957508" y1="424" y2="424" />
<line x1="714.986337252416" x2="714.986337252416" y1="418" y2="430" />
<line x1="862.1780940957508" x2="862.1780940957508" y1="418" y2="430" />
</g>
</g>
<text fill="hsl(320, 100%, 40%)" y="462">local.deep.10000.effectful.5+5 1.06 ms</text>
<g>
<title>1.06 ms ±  77 μs</title>
<rect y="468" rx="5" height="22" width="110.81884688878422" fill="hsl(320, 100%, 80%)" stroke="hsl(320, 100%, 55%)" />
<g stroke="hsl(320, 100%, 40%)"><line x1="102.74495255495587" x2="118.89274122261257" y1="479" y2="479" />
<line x1="102.74495255495587" x2="102.74495255495587" y1="473" y2="485" />
<line x1="118.89274122261257" x2="118.89274122261257" y1="473" y2="485" />
</g>
</g>
</g>
</svg>
