<svg xmlns="http://www.w3.org/2000/svg" height="502" width="960.0" font-size="16" font-family="sans-serif" stroke-width="2">
<g transform="translate(10.0 0)">
<text fill="hsl(0, 100%, 40%)" y="22">local.deep.10000.heftia.5+5+0 1.92 ms</text>
<g>
<title>1.92 ms ± 185 μs</title>
<rect y="28" rx="5" height="22" width="194.4796118162405" fill="hsl(0, 100%, 80%)" stroke="hsl(0, 100%, 55%)" />
<g stroke="hsl(0, 100%, 40%)"><line x1="175.64543738805412" x2="213.31378624442686" y1="39" y2="39" />
<line x1="175.64543738805412" x2="175.64543738805412" y1="33" y2="45" />
<line x1="213.31378624442686" x2="213.31378624442686" y1="33" y2="45" />
</g>
</g>
<text fill="hsl(40, 100%, 40%)" y="77">local.deep.10000.heftia.5+4+1 2.88 ms</text>
<g>
<title>2.88 ms ± 163 μs</title>
<rect y="83" rx="5" height="22" width="292.93486104395475" fill="hsl(40, 100%, 80%)" stroke="hsl(40, 100%, 55%)" />
<g stroke="hsl(40, 100%, 40%)"><line x1="276.38630349797734" x2="309.48341858993217" y1="94" y2="94" />
<line x1="276.38630349797734" x2="276.38630349797734" y1="88" y2="100" />
<line x1="309.48341858993217" x2="309.48341858993217" y1="88" y2="100" />
</g>
</g>
<g fill="hsl(80, 100%, 40%)">
<text y="132">local.deep.10000.heftia.5+3+2</text>
<text y="132" x="395.5232665530912" text-anchor="end">3.90 ms</text>
</g>
<g>
<title>3.90 ms ± 213 μs</title>
<rect y="138" rx="5" height="22" width="395.5232665530912" fill="hsl(80, 100%, 80%)" stroke="hsl(80, 100%, 55%)" />
<g stroke="hsl(80, 100%, 40%)"><line x1="373.8491383100493" x2="417.19739479613315" y1="149" y2="149" />
<line x1="373.8491383100493" x2="373.8491383100493" y1="143" y2="155" />
<line x1="417.19739479613315" x2="417.19739479613315" y1="143" y2="155" />
</g>
</g>
<g fill="hsl(120, 100%, 40%)">
<text y="187">local.deep.10000.heftia.5+2+3</text>
<text y="187" x="464.8851332187341" text-anchor="end">4.58 ms</text>
</g>
<g>
<title>4.58 ms ± 300 μs</title>
<rect y="193" rx="5" height="22" width="464.8851332187341" fill="hsl(120, 100%, 80%)" stroke="hsl(120, 100%, 55%)" />
<g stroke="hsl(120, 100%, 40%)"><line x1="434.3925799263376" x2="495.3776865111306" y1="204" y2="204" />
<line x1="434.3925799263376" x2="434.3925799263376" y1="198" y2="210" />
<line x1="495.3776865111306" x2="495.3776865111306" y1="198" y2="210" />
</g>
</g>
<g fill="hsl(160, 100%, 40%)">
<text y="242">local.deep.10000.heftia.5+1+4</text>
<text y="242" x="596.3719783286153" text-anchor="end">5.87 ms</text>
</g>
<g>
<title>5.87 ms ± 352 μs</title>
<rect y="248" rx="5" height="22" width="596.3719783286153" fill="hsl(160, 100%, 80%)" stroke="hsl(160, 100%, 55%)" />
<g stroke="hsl(160, 100%, 40%)"><line x1="560.6444275521161" x2="632.0995291051146" y1="259" y2="259" />
<line x1="560.6444275521161" x2="560.6444275521161" y1="253" y2="265" />
<line x1="632.0995291051146" x2="632.0995291051146" y1="253" y2="265" />
</g>
</g>
<g fill="hsl(200, 100%, 40%)">
<text y="297">local.deep.10000.heftia.5+0+5</text>
<text y="297" x="727.8934870640827" text-anchor="end">7.17 ms</text>
</g>
<g>
<title>7.17 ms ± 169 μs</title>
<rect y="303" rx="5" height="22" width="727.8934870640827" fill="hsl(200, 100%, 80%)" stroke="hsl(200, 100%, 55%)" />
<g stroke="hsl(200, 100%, 40%)"><line x1="710.7599988859729" x2="745.0269752421925" y1="314" y2="314" />
<line x1="710.7599988859729" x2="710.7599988859729" y1="308" y2="320" />
<line x1="745.0269752421925" x2="745.0269752421925" y1="308" y2="320" />
</g>
</g>
<g fill="hsl(240, 100%, 40%)">
<text y="352">local.deep.10000.polysemy.5+5</text>
<text y="352" x="877.6889894782946" text-anchor="end">8.64 ms</text>
</g>
<g>
<title>8.64 ms ± 614 μs</title>
<rect y="358" rx="5" height="22" width="877.6889894782946" fill="hsl(240, 100%, 80%)" stroke="hsl(240, 100%, 55%)" />
<g stroke="hsl(240, 100%, 40%)"><line x1="815.3779789565892" x2="940.0" y1="369" y2="369" />
<line x1="815.3779789565892" x2="815.3779789565892" y1="363" y2="375" />
<line x1="940.0" x2="940.0" y1="363" y2="375" />
</g>
</g>
<g fill="hsl(280, 100%, 40%)">
<text y="407">local.deep.10000.fused.5+5</text>
<text y="407" x="788.2093210080113" text-anchor="end">7.76 ms</text>
</g>
<g>
<title>7.76 ms ± 686 μs</title>
<rect y="413" rx="5" height="22" width="788.2093210080113" fill="hsl(280, 100%, 80%)" stroke="hsl(280, 100%, 55%)" />
<g stroke="hsl(280, 100%, 40%)"><line x1="718.5369941242518" x2="857.8816478917709" y1="424" y2="424" />
<line x1="718.5369941242518" x2="718.5369941242518" y1="418" y2="430" />
<line x1="857.8816478917709" x2="857.8816478917709" y1="418" y2="430" />
</g>
</g>
<text fill="hsl(320, 100%, 40%)" y="462">local.deep.10000.effectful.5+5 1.02 ms</text>
<g>
<title>1.02 ms ±  55 μs</title>
<rect y="468" rx="5" height="22" width="103.26766195898965" fill="hsl(320, 100%, 80%)" stroke="hsl(320, 100%, 55%)" />
<g stroke="hsl(320, 100%, 40%)"><line x1="97.65217593848703" x2="108.88314797949226" y1="479" y2="479" />
<line x1="97.65217593848703" x2="97.65217593848703" y1="473" y2="485" />
<line x1="108.88314797949226" x2="108.88314797949226" y1="473" y2="485" />
</g>
</g>
</g>
</svg>
