<svg xmlns="http://www.w3.org/2000/svg" height="502" width="960.0" font-size="16" font-family="sans-serif" stroke-width="2">
<g transform="translate(10.0 0)">
<text fill="hsl(0, 100%, 40%)" y="22">local.deep.10000.heftia.5+5+0 1.84 ms</text>
<g>
<title>1.84 ms ± 117 μs</title>
<rect y="28" rx="5" height="22" width="204.02838342485265" fill="hsl(0, 100%, 80%)" stroke="hsl(0, 100%, 55%)" />
<g stroke="hsl(0, 100%, 40%)"><line x1="191.00005116601838" x2="217.05671568368692" y1="39" y2="39" />
<line x1="191.00005116601838" x2="191.00005116601838" y1="33" y2="45" />
<line x1="217.05671568368692" x2="217.05671568368692" y1="33" y2="45" />
</g>
</g>
<g fill="hsl(40, 100%, 40%)">
<text y="77">local.deep.10000.heftia.5+4+1</text>
<text y="77" x="302.73645456318314" text-anchor="end">2.72 ms</text>
</g>
<g>
<title>2.72 ms ± 200 μs</title>
<rect y="83" rx="5" height="22" width="302.73645456318314" fill="hsl(40, 100%, 80%)" stroke="hsl(40, 100%, 55%)" />
<g stroke="hsl(40, 100%, 40%)"><line x1="280.469018154457" x2="325.0038909719093" y1="94" y2="94" />
<line x1="280.469018154457" x2="280.469018154457" y1="88" y2="100" />
<line x1="325.0038909719093" x2="325.0038909719093" y1="88" y2="100" />
</g>
</g>
<g fill="hsl(80, 100%, 40%)">
<text y="132">local.deep.10000.heftia.5+3+2</text>
<text y="132" x="392.11480414897255" text-anchor="end">3.53 ms</text>
</g>
<g>
<title>3.53 ms ± 196 μs</title>
<rect y="138" rx="5" height="22" width="392.11480414897255" fill="hsl(80, 100%, 80%)" stroke="hsl(80, 100%, 55%)" />
<g stroke="hsl(80, 100%, 40%)"><line x1="370.32503295311335" x2="413.90457534483176" y1="149" y2="149" />
<line x1="370.32503295311335" x2="370.32503295311335" y1="143" y2="155" />
<line x1="413.90457534483176" x2="413.90457534483176" y1="143" y2="155" />
</g>
</g>
<g fill="hsl(120, 100%, 40%)">
<text y="187">local.deep.10000.heftia.5+2+3</text>
<text y="187" x="515.1876926195682" text-anchor="end">4.64 ms</text>
</g>
<g>
<title>4.64 ms ± 342 μs</title>
<rect y="193" rx="5" height="22" width="515.1876926195682" fill="hsl(120, 100%, 80%)" stroke="hsl(120, 100%, 55%)" />
<g stroke="hsl(120, 100%, 40%)"><line x1="477.21813023580927" x2="553.1572550033272" y1="204" y2="204" />
<line x1="477.21813023580927" x2="477.21813023580927" y1="198" y2="210" />
<line x1="553.1572550033272" x2="553.1572550033272" y1="198" y2="210" />
</g>
</g>
<g fill="hsl(160, 100%, 40%)">
<text y="242">local.deep.10000.heftia.5+1+4</text>
<text y="242" x="618.3790848375057" text-anchor="end">5.57 ms</text>
</g>
<g>
<title>5.57 ms ± 390 μs</title>
<rect y="248" rx="5" height="22" width="618.3790848375057" fill="hsl(160, 100%, 80%)" stroke="hsl(160, 100%, 55%)" />
<g stroke="hsl(160, 100%, 40%)"><line x1="575.0743420110064" x2="661.6838276640051" y1="259" y2="259" />
<line x1="575.0743420110064" x2="575.0743420110064" y1="253" y2="265" />
<line x1="661.6838276640051" x2="661.6838276640051" y1="253" y2="265" />
</g>
</g>
<g fill="hsl(200, 100%, 40%)">
<text y="297">local.deep.10000.heftia.5+0+5</text>
<text y="297" x="757.5390442984956" text-anchor="end">6.82 ms</text>
</g>
<g>
<title>6.82 ms ± 427 μs</title>
<rect y="303" rx="5" height="22" width="757.5390442984956" fill="hsl(200, 100%, 80%)" stroke="hsl(200, 100%, 55%)" />
<g stroke="hsl(200, 100%, 40%)"><line x1="710.0455438959062" x2="805.0325447010849" y1="314" y2="314" />
<line x1="710.0455438959062" x2="710.0455438959062" y1="308" y2="320" />
<line x1="805.0325447010849" x2="805.0325447010849" y1="308" y2="320" />
</g>
</g>
<g fill="hsl(240, 100%, 40%)">
<text y="352">local.deep.10000.polysemy.5+5</text>
<text y="352" x="874.6115618126505" text-anchor="end">7.87 ms</text>
</g>
<g>
<title>7.87 ms ± 588 μs</title>
<rect y="358" rx="5" height="22" width="874.6115618126505" fill="hsl(240, 100%, 80%)" stroke="hsl(240, 100%, 55%)" />
<g stroke="hsl(240, 100%, 40%)"><line x1="809.223123625301" x2="940.0" y1="369" y2="369" />
<line x1="809.223123625301" x2="809.223123625301" y1="363" y2="375" />
<line x1="940.0" x2="940.0" y1="363" y2="375" />
</g>
</g>
<g fill="hsl(280, 100%, 40%)">
<text y="407">local.deep.10000.fused.5+5</text>
<text y="407" x="783.0504403875661" text-anchor="end">7.05 ms</text>
</g>
<g>
<title>7.05 ms ± 429 μs</title>
<rect y="413" rx="5" height="22" width="783.0504403875661" fill="hsl(280, 100%, 80%)" stroke="hsl(280, 100%, 55%)" />
<g stroke="hsl(280, 100%, 40%)"><line x1="735.4324023068316" x2="830.6684784683007" y1="424" y2="424" />
<line x1="735.4324023068316" x2="735.4324023068316" y1="418" y2="430" />
<line x1="830.6684784683007" x2="830.6684784683007" y1="418" y2="430" />
</g>
</g>
<text fill="hsl(320, 100%, 40%)" y="462">local.deep.10000.effectful.5+5 950  μs</text>
<g>
<title>950  μs ±  50 μs</title>
<rect y="468" rx="5" height="22" width="105.60793928925727" fill="hsl(320, 100%, 80%)" stroke="hsl(320, 100%, 55%)" />
<g stroke="hsl(320, 100%, 40%)"><line x1="100.085303546252" x2="111.13057503226254" y1="479" y2="479" />
<line x1="100.085303546252" x2="100.085303546252" y1="473" y2="485" />
<line x1="111.13057503226254" x2="111.13057503226254" y1="473" y2="485" />
</g>
</g>
</g>
</svg>
