<svg xmlns="http://www.w3.org/2000/svg" height="227" width="960.0" font-size="16" font-family="sans-serif" stroke-width="2">
<g transform="translate(10.0 0)">
<g fill="hsl(0, 100%, 40%)">
<text y="22">local.shallow.10000.heftia</text>
<text y="22" x="399.40095427703994" text-anchor="end">1.87 ms</text>
</g>
<g>
<title>1.87 ms ±  90 μs</title>
<rect y="28" rx="5" height="22" width="399.40095427703994" fill="hsl(0, 100%, 80%)" stroke="hsl(0, 100%, 55%)" />
<g stroke="hsl(0, 100%, 40%)"><line x1="380.16206235092886" x2="418.639846203151" y1="39" y2="39" />
<line x1="380.16206235092886" x2="380.16206235092886" y1="33" y2="45" />
<line x1="418.639846203151" x2="418.639846203151" y1="33" y2="45" />
</g>
</g>
<g fill="hsl(90, 100%, 40%)">
<text y="77">local.shallow.10000.polysemy</text>
<text y="77" x="858.9290974239238" text-anchor="end">4.01 ms</text>
</g>
<g>
<title>4.01 ms ± 379 μs</title>
<rect y="83" rx="5" height="22" width="858.9290974239238" fill="hsl(90, 100%, 80%)" stroke="hsl(90, 100%, 55%)" />
<g stroke="hsl(90, 100%, 40%)"><line x1="777.8581948478477" x2="940.0" y1="94" y2="94" />
<line x1="777.8581948478477" x2="777.8581948478477" y1="88" y2="100" />
<line x1="940.0" x2="940.0" y1="88" y2="100" />
</g>
</g>
<g fill="hsl(180, 100%, 40%)">
<text y="132">local.shallow.10000.fused</text>
<text y="132" x="384.8292532666738" text-anchor="end">1.80 ms</text>
</g>
<g>
<title>1.80 ms ± 100 μs</title>
<rect y="138" rx="5" height="22" width="384.8292532666738" fill="hsl(180, 100%, 80%)" stroke="hsl(180, 100%, 55%)" />
<g stroke="hsl(180, 100%, 40%)"><line x1="363.33776375591515" x2="406.32074277743243" y1="149" y2="149" />
<line x1="363.33776375591515" x2="363.33776375591515" y1="143" y2="155" />
<line x1="406.32074277743243" x2="406.32074277743243" y1="143" y2="155" />
</g>
</g>
<text fill="hsl(270, 100%, 40%)" y="187">local.shallow.10000.effectful 1.04 ms</text>
<g>
<title>1.04 ms ±  92 μs</title>
<rect y="193" rx="5" height="22" width="222.59331953954725" fill="hsl(270, 100%, 80%)" stroke="hsl(270, 100%, 55%)" />
<g stroke="hsl(270, 100%, 40%)"><line x1="202.89406541780087" x2="242.29257366129363" y1="204" y2="204" />
<line x1="202.89406541780087" x2="202.89406541780087" y1="198" y2="210" />
<line x1="242.29257366129363" x2="242.29257366129363" y1="198" y2="210" />
</g>
</g>
</g>
</svg>
