<svg xmlns="http://www.w3.org/2000/svg" height="392" width="960.0" font-size="16" font-family="sans-serif" stroke-width="2">
<g transform="translate(10.0 0)">
<text fill="hsl(0, 100%, 40%)" y="22">nondet.deep.32.heftia.5+5 9.90 ms</text>
<g>
<title>9.90 ms ± 769 μs</title>
<rect y="28" rx="5" height="22" width="119.95986583108318" fill="hsl(0, 100%, 80%)" stroke="hsl(0, 100%, 55%)" />
<g stroke="hsl(0, 100%, 40%)"><line x1="110.64447338342481" x2="129.27525827874155" y1="39" y2="39" />
<line x1="110.64447338342481" x2="110.64447338342481" y1="33" y2="45" />
<line x1="129.27525827874155" x2="129.27525827874155" y1="33" y2="45" />
</g>
</g>
<text fill="hsl(51, 100%, 40%)" y="77">nondet.deep.32.freer.5+5 9.10 ms</text>
<g>
<title>9.10 ms ± 672 μs</title>
<rect y="83" rx="5" height="22" width="110.26199056631178" fill="hsl(51, 100%, 80%)" stroke="hsl(51, 100%, 55%)" />
<g stroke="hsl(51, 100%, 40%)"><line x1="102.12137717683399" x2="118.40260395578957" y1="94" y2="94" />
<line x1="102.12137717683399" x2="102.12137717683399" y1="88" y2="100" />
<line x1="118.40260395578957" x2="118.40260395578957" y1="88" y2="100" />
</g>
</g>
<text fill="hsl(102, 100%, 40%)" y="132">nondet.deep.32.fused.5+5 12.6 ms</text>
<g>
<title>12.6 ms ± 936 μs</title>
<rect y="138" rx="5" height="22" width="152.62771336203252" fill="hsl(102, 100%, 80%)" stroke="hsl(102, 100%, 55%)" />
<g stroke="hsl(102, 100%, 40%)"><line x1="141.28374290677365" x2="163.9716838172914" y1="149" y2="149" />
<line x1="141.28374290677365" x2="141.28374290677365" y1="143" y2="155" />
<line x1="163.9716838172914" x2="163.9716838172914" y1="143" y2="155" />
</g>
</g>
<text fill="hsl(154, 100%, 40%)" y="187">nondet.deep.32.ev.5+5 2.76 ms</text>
<g>
<title>2.76 ms ± 240 μs</title>
<rect y="193" rx="5" height="22" width="33.49314334559633" fill="hsl(154, 100%, 80%)" stroke="hsl(154, 100%, 55%)" />
<g stroke="hsl(154, 100%, 40%)"><line x1="30.586744356737817" x2="36.39954233445484" y1="204" y2="204" />
<line x1="30.586744356737817" x2="30.586744356737817" y1="198" y2="210" />
<line x1="36.39954233445484" x2="36.39954233445484" y1="198" y2="210" />
</g>
</g>
<text fill="hsl(205, 100%, 40%)" y="242">nondet.deep.32.mp.5+5 10.5 ms</text>
<g>
<title>10.5 ms ± 956 μs</title>
<rect y="248" rx="5" height="22" width="127.1461505071018" fill="hsl(205, 100%, 80%)" stroke="hsl(205, 100%, 55%)" />
<g stroke="hsl(205, 100%, 40%)"><line x1="115.56525612214098" x2="138.72704489206262" y1="259" y2="259" />
<line x1="115.56525612214098" x2="115.56525612214098" y1="253" y2="265" />
<line x1="138.72704489206262" x2="138.72704489206262" y1="253" y2="265" />
</g>
</g>
<g fill="hsl(257, 100%, 40%)">
<text y="297">nondet.deep.32.eff.5+5</text>
<text y="297" x="857.79537581946" text-anchor="end">70.8 ms</text>
</g>
<g>
<title>70.8 ms ± 6.8 ms</title>
<rect y="303" rx="5" height="22" width="857.79537581946" fill="hsl(257, 100%, 80%)" stroke="hsl(257, 100%, 55%)" />
<g stroke="hsl(257, 100%, 40%)"><line x1="775.59075163892" x2="940.0" y1="314" y2="314" />
<line x1="775.59075163892" x2="775.59075163892" y1="308" y2="320" />
<line x1="940.0" x2="940.0" y1="308" y2="320" />
</g>
</g>
<text fill="hsl(308, 100%, 40%)" y="352">nondet.deep.32.mtl-logict.5+5 8.46 ms</text>
<g>
<title>8.46 ms ± 754 μs</title>
<rect y="358" rx="5" height="22" width="102.48882715717461" fill="hsl(308, 100%, 80%)" stroke="hsl(308, 100%, 55%)" />
<g stroke="hsl(308, 100%, 40%)"><line x1="93.35623083767797" x2="111.62142347667125" y1="369" y2="369" />
<line x1="93.35623083767797" x2="93.35623083767797" y1="363" y2="375" />
<line x1="111.62142347667125" x2="111.62142347667125" y1="363" y2="375" />
</g>
</g>
</g>
</svg>
