<svg xmlns="http://www.w3.org/2000/svg" height="392" width="960.0" font-size="16" font-family="sans-serif" stroke-width="2">
<g transform="translate(10.0 0)">
<text fill="hsl(0, 100%, 40%)" y="22">nondet.shallow.32.heftia 6.70 ms</text>
<g>
<title>6.70 ms ± 386 μs</title>
<rect y="28" rx="5" height="22" width="169.89134068636477" fill="hsl(0, 100%, 80%)" stroke="hsl(0, 100%, 55%)" />
<g stroke="hsl(0, 100%, 40%)"><line x1="160.11742225305704" x2="179.6652591196725" y1="39" y2="39" />
<line x1="160.11742225305704" x2="160.11742225305704" y1="33" y2="45" />
<line x1="179.6652591196725" x2="179.6652591196725" y1="33" y2="45" />
</g>
</g>
<text fill="hsl(51, 100%, 40%)" y="77">nondet.shallow.32.freer 5.51 ms</text>
<g>
<title>5.51 ms ± 323 μs</title>
<rect y="83" rx="5" height="22" width="139.60119953814953" fill="hsl(51, 100%, 80%)" stroke="hsl(51, 100%, 55%)" />
<g stroke="hsl(51, 100%, 40%)"><line x1="131.42178184217974" x2="147.78061723411932" y1="94" y2="94" />
<line x1="131.42178184217974" x2="131.42178184217974" y1="88" y2="100" />
<line x1="147.78061723411932" x2="147.78061723411932" y1="88" y2="100" />
</g>
</g>
<text fill="hsl(102, 100%, 40%)" y="132">nondet.shallow.32.fused 1.32 ms</text>
<g>
<title>1.32 ms ±  98 μs</title>
<rect y="138" rx="5" height="22" width="33.56351256832861" fill="hsl(102, 100%, 80%)" stroke="hsl(102, 100%, 55%)" />
<g stroke="hsl(102, 100%, 40%)"><line x1="31.086631538054515" x2="36.040393598602705" y1="149" y2="149" />
<line x1="31.086631538054515" x2="31.086631538054515" y1="143" y2="155" />
<line x1="36.040393598602705" x2="36.040393598602705" y1="143" y2="155" />
</g>
</g>
<text fill="hsl(154, 100%, 40%)" y="187">nondet.shallow.32.ev 1.28 ms</text>
<g>
<title>1.28 ms ± 109 μs</title>
<rect y="193" rx="5" height="22" width="32.483616875472876" fill="hsl(154, 100%, 80%)" stroke="hsl(154, 100%, 55%)" />
<g stroke="hsl(154, 100%, 40%)"><line x1="29.708607340336147" x2="35.25862641060961" y1="204" y2="204" />
<line x1="29.708607340336147" x2="29.708607340336147" y1="198" y2="210" />
<line x1="35.25862641060961" x2="35.25862641060961" y1="198" y2="210" />
</g>
</g>
<text fill="hsl(205, 100%, 40%)" y="242">nondet.shallow.32.mp 3.45 ms</text>
<g>
<title>3.45 ms ± 228 μs</title>
<rect y="248" rx="5" height="22" width="87.36781733207005" fill="hsl(205, 100%, 80%)" stroke="hsl(205, 100%, 55%)" />
<g stroke="hsl(205, 100%, 40%)"><line x1="81.58066499157549" x2="93.1549696725646" y1="259" y2="259" />
<line x1="81.58066499157549" x2="81.58066499157549" y1="253" y2="265" />
<line x1="93.1549696725646" x2="93.1549696725646" y1="253" y2="265" />
</g>
</g>
<g fill="hsl(257, 100%, 40%)">
<text y="297">nondet.shallow.32.eff</text>
<text y="297" x="863.0530917807646" text-anchor="end">34.0 ms</text>
</g>
<g>
<title>34.0 ms ± 3.0 ms</title>
<rect y="303" rx="5" height="22" width="863.0530917807646" fill="hsl(257, 100%, 80%)" stroke="hsl(257, 100%, 55%)" />
<g stroke="hsl(257, 100%, 40%)"><line x1="786.1061835615292" x2="940.0" y1="314" y2="314" />
<line x1="786.1061835615292" x2="786.1061835615292" y1="308" y2="320" />
<line x1="940.0" x2="940.0" y1="308" y2="320" />
</g>
</g>
<text fill="hsl(308, 100%, 40%)" y="352">nondet.shallow.32.mtl-logict 1.31 ms</text>
<g>
<title>1.31 ms ±  25 μs</title>
<rect y="358" rx="5" height="22" width="33.315974473531604" fill="hsl(308, 100%, 80%)" stroke="hsl(308, 100%, 55%)" />
<g stroke="hsl(308, 100%, 40%)"><line x1="32.68447283081204" x2="33.94747611625117" y1="369" y2="369" />
<line x1="32.68447283081204" x2="32.68447283081204" y1="363" y2="375" />
<line x1="33.94747611625117" x2="33.94747611625117" y1="363" y2="375" />
</g>
</g>
</g>
</svg>
