<svg xmlns="http://www.w3.org/2000/svg" height="392" width="960.0" font-size="16" font-family="sans-serif" stroke-width="2">
<g transform="translate(10.0 0)">
<text fill="hsl(0, 100%, 40%)" y="22">nondet.deep.32.heftia.5+5 12.2 ms</text>
<g>
<title>12.2 ms ± 902 μs</title>
<rect y="28" rx="5" height="22" width="152.7326560700326" fill="hsl(0, 100%, 80%)" stroke="hsl(0, 100%, 55%)" />
<g stroke="hsl(0, 100%, 40%)"><line x1="141.41652708179512" x2="164.04878505827006" y1="39" y2="39" />
<line x1="141.41652708179512" x2="141.41652708179512" y1="33" y2="45" />
<line x1="164.04878505827006" x2="164.04878505827006" y1="33" y2="45" />
</g>
</g>
<text fill="hsl(51, 100%, 40%)" y="77">nondet.deep.32.freer.5+5 10.1 ms</text>
<g>
<title>10.1 ms ± 896 μs</title>
<rect y="83" rx="5" height="22" width="126.23413924517877" fill="hsl(51, 100%, 80%)" stroke="hsl(51, 100%, 55%)" />
<g stroke="hsl(51, 100%, 40%)"><line x1="114.99793221160022" x2="137.47034627875732" y1="94" y2="94" />
<line x1="114.99793221160022" x2="114.99793221160022" y1="88" y2="100" />
<line x1="137.47034627875732" x2="137.47034627875732" y1="88" y2="100" />
</g>
</g>
<text fill="hsl(102, 100%, 40%)" y="132">nondet.deep.32.fused.5+5 12.0 ms</text>
<g>
<title>12.0 ms ± 336 μs</title>
<rect y="138" rx="5" height="22" width="150.68281621376119" fill="hsl(102, 100%, 80%)" stroke="hsl(102, 100%, 55%)" />
<g stroke="hsl(102, 100%, 40%)"><line x1="146.46735860920435" x2="154.89827381831802" y1="149" y2="149" />
<line x1="146.46735860920435" x2="146.46735860920435" y1="143" y2="155" />
<line x1="154.89827381831802" x2="154.89827381831802" y1="143" y2="155" />
</g>
</g>
<text fill="hsl(154, 100%, 40%)" y="187">nondet.deep.32.ev.5+5 2.66 ms</text>
<g>
<title>2.66 ms ± 218 μs</title>
<rect y="193" rx="5" height="22" width="33.35131176932823" fill="hsl(154, 100%, 80%)" stroke="hsl(154, 100%, 55%)" />
<g stroke="hsl(154, 100%, 40%)"><line x1="30.61825934257562" x2="36.084364196080834" y1="204" y2="204" />
<line x1="30.61825934257562" x2="30.61825934257562" y1="198" y2="210" />
<line x1="36.084364196080834" x2="36.084364196080834" y1="198" y2="210" />
</g>
</g>
<text fill="hsl(205, 100%, 40%)" y="242">nondet.deep.32.mp.5+5 9.53 ms</text>
<g>
<title>9.53 ms ± 770 μs</title>
<rect y="248" rx="5" height="22" width="119.47342755308046" fill="hsl(205, 100%, 80%)" stroke="hsl(205, 100%, 55%)" />
<g stroke="hsl(205, 100%, 40%)"><line x1="109.8112755636127" x2="129.13557954254821" y1="259" y2="259" />
<line x1="109.8112755636127" x2="109.8112755636127" y1="253" y2="265" />
<line x1="129.13557954254821" x2="129.13557954254821" y1="253" y2="265" />
</g>
</g>
<g fill="hsl(257, 100%, 40%)">
<text y="297">nondet.deep.32.eff.5+5</text>
<text y="297" x="867.556769040203" text-anchor="end">69.2 ms</text>
</g>
<g>
<title>69.2 ms ± 5.8 ms</title>
<rect y="303" rx="5" height="22" width="867.556769040203" fill="hsl(257, 100%, 80%)" stroke="hsl(257, 100%, 55%)" />
<g stroke="hsl(257, 100%, 40%)"><line x1="795.113538080406" x2="940.0" y1="314" y2="314" />
<line x1="795.113538080406" x2="795.113538080406" y1="308" y2="320" />
<line x1="940.0" x2="940.0" y1="308" y2="320" />
</g>
</g>
<text fill="hsl(308, 100%, 40%)" y="352">nondet.deep.32.mtl-logict.5+5 8.06 ms</text>
<g>
<title>8.06 ms ± 379 μs</title>
<rect y="358" rx="5" height="22" width="101.14747323394975" fill="hsl(308, 100%, 80%)" stroke="hsl(308, 100%, 55%)" />
<g stroke="hsl(308, 100%, 40%)"><line x1="96.39200888622479" x2="105.90293758167472" y1="369" y2="369" />
<line x1="96.39200888622479" x2="96.39200888622479" y1="363" y2="375" />
<line x1="105.90293758167472" x2="105.90293758167472" y1="363" y2="375" />
</g>
</g>
</g>
</svg>
