<svg xmlns="http://www.w3.org/2000/svg" height="392" width="960.0" font-size="16" font-family="sans-serif" stroke-width="2">
<g transform="translate(10.0 0)">
<text fill="hsl(0, 100%, 40%)" y="22">nondet.deep.32.heftia.5+5 9.49 ms</text>
<g>
<title>9.49 ms ± 523 μs</title>
<rect y="28" rx="5" height="22" width="124.51554226593196" fill="hsl(0, 100%, 80%)" stroke="hsl(0, 100%, 55%)" />
<g stroke="hsl(0, 100%, 40%)"><line x1="117.64645692246908" x2="131.3846276093948" y1="39" y2="39" />
<line x1="117.64645692246908" x2="117.64645692246908" y1="33" y2="45" />
<line x1="131.3846276093948" x2="131.3846276093948" y1="33" y2="45" />
</g>
</g>
<text fill="hsl(51, 100%, 40%)" y="77">nondet.deep.32.freer.5+5 9.13 ms</text>
<g>
<title>9.13 ms ± 814 μs</title>
<rect y="83" rx="5" height="22" width="119.84237797330643" fill="hsl(51, 100%, 80%)" stroke="hsl(51, 100%, 55%)" />
<g stroke="hsl(51, 100%, 40%)"><line x1="109.1596221276358" x2="130.52513381897705" y1="94" y2="94" />
<line x1="109.1596221276358" x2="109.1596221276358" y1="88" y2="100" />
<line x1="130.52513381897705" x2="130.52513381897705" y1="88" y2="100" />
</g>
</g>
<text fill="hsl(102, 100%, 40%)" y="132">nondet.deep.32.fused.5+5 12.7 ms</text>
<g>
<title>12.7 ms ± 1.0 ms</title>
<rect y="138" rx="5" height="22" width="166.67347801972443" fill="hsl(102, 100%, 80%)" stroke="hsl(102, 100%, 55%)" />
<g stroke="hsl(102, 100%, 40%)"><line x1="153.52692670879387" x2="179.820029330655" y1="149" y2="149" />
<line x1="153.52692670879387" x2="153.52692670879387" y1="143" y2="155" />
<line x1="179.820029330655" x2="179.820029330655" y1="143" y2="155" />
</g>
</g>
<text fill="hsl(154, 100%, 40%)" y="187">nondet.deep.32.ev.5+5 2.67 ms</text>
<g>
<title>2.67 ms ± 185 μs</title>
<rect y="193" rx="5" height="22" width="34.99385969681551" fill="hsl(154, 100%, 80%)" stroke="hsl(154, 100%, 55%)" />
<g stroke="hsl(154, 100%, 40%)"><line x1="32.56754890064328" x2="37.420170492987744" y1="204" y2="204" />
<line x1="32.56754890064328" x2="32.56754890064328" y1="198" y2="210" />
<line x1="37.420170492987744" x2="37.420170492987744" y1="198" y2="210" />
</g>
</g>
<text fill="hsl(205, 100%, 40%)" y="242">nondet.deep.32.mp.5+5 10.1 ms</text>
<g>
<title>10.1 ms ± 883 μs</title>
<rect y="248" rx="5" height="22" width="132.75000329930978" fill="hsl(205, 100%, 80%)" stroke="hsl(205, 100%, 55%)" />
<g stroke="hsl(205, 100%, 40%)"><line x1="121.15462900827468" x2="144.34537759034487" y1="259" y2="259" />
<line x1="121.15462900827468" x2="121.15462900827468" y1="253" y2="265" />
<line x1="144.34537759034487" x2="144.34537759034487" y1="253" y2="265" />
</g>
</g>
<g fill="hsl(257, 100%, 40%)">
<text y="297">nondet.deep.32.eff.5+5</text>
<text y="297" x="890.6386764296627" text-anchor="end">67.9 ms</text>
</g>
<g>
<title>67.9 ms ± 3.8 ms</title>
<rect y="303" rx="5" height="22" width="890.6386764296627" fill="hsl(257, 100%, 80%)" stroke="hsl(257, 100%, 55%)" />
<g stroke="hsl(257, 100%, 40%)"><line x1="841.2773528593254" x2="940.0" y1="314" y2="314" />
<line x1="841.2773528593254" x2="841.2773528593254" y1="308" y2="320" />
<line x1="940.0" x2="940.0" y1="308" y2="320" />
</g>
</g>
<text fill="hsl(308, 100%, 40%)" y="352">nondet.deep.32.mtl-logict.5+5 8.35 ms</text>
<g>
<title>8.35 ms ± 785 μs</title>
<rect y="358" rx="5" height="22" width="109.58127960399176" fill="hsl(308, 100%, 80%)" stroke="hsl(308, 100%, 55%)" />
<g stroke="hsl(308, 100%, 40%)"><line x1="99.28343092447814" x2="119.87912828350538" y1="369" y2="369" />
<line x1="99.28343092447814" x2="99.28343092447814" y1="363" y2="375" />
<line x1="119.87912828350538" x2="119.87912828350538" y1="363" y2="375" />
</g>
</g>
</g>
</svg>
