<svg xmlns="http://www.w3.org/2000/svg" height="392" width="960.0" font-size="16" font-family="sans-serif" stroke-width="2">
<g transform="translate(10.0 0)">
<text fill="hsl(0, 100%, 40%)" y="22">nondet.deep.32.heftia.5+5 11.9 ms</text>
<g>
<title>11.9 ms ± 432 μs</title>
<rect y="28" rx="5" height="22" width="148.67302701193194" fill="hsl(0, 100%, 80%)" stroke="hsl(0, 100%, 55%)" />
<g stroke="hsl(0, 100%, 40%)"><line x1="143.25552219601272" x2="154.09053182785115" y1="39" y2="39" />
<line x1="143.25552219601272" x2="143.25552219601272" y1="33" y2="45" />
<line x1="154.09053182785115" x2="154.09053182785115" y1="33" y2="45" />
</g>
</g>
<text fill="hsl(51, 100%, 40%)" y="77">nondet.deep.32.freer.5+5 9.62 ms</text>
<g>
<title>9.62 ms ± 494 μs</title>
<rect y="83" rx="5" height="22" width="120.55519547674558" fill="hsl(51, 100%, 80%)" stroke="hsl(51, 100%, 55%)" />
<g stroke="hsl(51, 100%, 40%)"><line x1="114.36854173292006" x2="126.7418492205711" y1="94" y2="94" />
<line x1="114.36854173292006" x2="114.36854173292006" y1="88" y2="100" />
<line x1="126.7418492205711" x2="126.7418492205711" y1="88" y2="100" />
</g>
</g>
<text fill="hsl(102, 100%, 40%)" y="132">nondet.deep.32.fused.5+5 13.1 ms</text>
<g>
<title>13.1 ms ± 854 μs</title>
<rect y="138" rx="5" height="22" width="164.65111273462517" fill="hsl(102, 100%, 80%)" stroke="hsl(102, 100%, 55%)" />
<g stroke="hsl(102, 100%, 40%)"><line x1="153.95204071113824" x2="175.3501847581121" y1="149" y2="149" />
<line x1="153.95204071113824" x2="153.95204071113824" y1="143" y2="155" />
<line x1="175.3501847581121" x2="175.3501847581121" y1="143" y2="155" />
</g>
</g>
<text fill="hsl(154, 100%, 40%)" y="187">nondet.deep.32.ev.5+5 2.76 ms</text>
<g>
<title>2.76 ms ± 221 μs</title>
<rect y="193" rx="5" height="22" width="34.618663536104734" fill="hsl(154, 100%, 80%)" stroke="hsl(154, 100%, 55%)" />
<g stroke="hsl(154, 100%, 40%)"><line x1="31.842977801720103" x2="37.394349270489364" y1="204" y2="204" />
<line x1="31.842977801720103" x2="31.842977801720103" y1="198" y2="210" />
<line x1="37.394349270489364" x2="37.394349270489364" y1="198" y2="210" />
</g>
</g>
<text fill="hsl(205, 100%, 40%)" y="242">nondet.deep.32.mp.5+5 10.4 ms</text>
<g>
<title>10.4 ms ± 974 μs</title>
<rect y="248" rx="5" height="22" width="129.7273994408638" fill="hsl(205, 100%, 80%)" stroke="hsl(205, 100%, 55%)" />
<g stroke="hsl(205, 100%, 40%)"><line x1="117.5216578729634" x2="141.93314100876418" y1="259" y2="259" />
<line x1="117.5216578729634" x2="117.5216578729634" y1="253" y2="265" />
<line x1="141.93314100876418" x2="141.93314100876418" y1="253" y2="265" />
</g>
</g>
<g fill="hsl(257, 100%, 40%)">
<text y="297">nondet.deep.32.eff.5+5</text>
<text y="297" x="894.3348830548993" text-anchor="end">71.4 ms</text>
</g>
<g>
<title>71.4 ms ± 3.6 ms</title>
<rect y="303" rx="5" height="22" width="894.3348830548993" fill="hsl(257, 100%, 80%)" stroke="hsl(257, 100%, 55%)" />
<g stroke="hsl(257, 100%, 40%)"><line x1="848.6697661097985" x2="940.0" y1="314" y2="314" />
<line x1="848.6697661097985" x2="848.6697661097985" y1="308" y2="320" />
<line x1="940.0" x2="940.0" y1="308" y2="320" />
</g>
</g>
<text fill="hsl(308, 100%, 40%)" y="352">nondet.deep.32.mtl-logict.5+5 8.62 ms</text>
<g>
<title>8.62 ms ± 609 μs</title>
<rect y="358" rx="5" height="22" width="108.02386236109025" fill="hsl(308, 100%, 80%)" stroke="hsl(308, 100%, 55%)" />
<g stroke="hsl(308, 100%, 40%)"><line x1="100.390453682154" x2="115.6572710400265" y1="369" y2="369" />
<line x1="100.390453682154" x2="100.390453682154" y1="363" y2="375" />
<line x1="115.6572710400265" x2="115.6572710400265" y1="363" y2="375" />
</g>
</g>
</g>
</svg>
