<svg xmlns="http://www.w3.org/2000/svg" height="282" width="960.0" font-size="16" font-family="sans-serif" stroke-width="2">
<g transform="translate(10.0 0)">
<text fill="hsl(0, 100%, 40%)" y="22">nondet.shallow.32.heftia 3.63 ms</text>
<g>
<title>3.63 ms ± 346 μs</title>
<rect y="28" rx="5" height="22" width="94.12577486289896" fill="hsl(0, 100%, 80%)" stroke="hsl(0, 100%, 55%)" />
<g stroke="hsl(0, 100%, 40%)"><line x1="85.14226911834706" x2="103.10928060745087" y1="39" y2="39" />
<line x1="85.14226911834706" x2="85.14226911834706" y1="33" y2="45" />
<line x1="103.10928060745087" x2="103.10928060745087" y1="33" y2="45" />
</g>
</g>
<text fill="hsl(72, 100%, 40%)" y="77">nondet.shallow.32.freer 6.05 ms</text>
<g>
<title>6.05 ms ± 469 μs</title>
<rect y="83" rx="5" height="22" width="156.97655889403939" fill="hsl(72, 100%, 80%)" stroke="hsl(72, 100%, 55%)" />
<g stroke="hsl(72, 100%, 40%)"><line x1="144.82018541682166" x2="169.1329323712571" y1="94" y2="94" />
<line x1="144.82018541682166" x2="144.82018541682166" y1="88" y2="100" />
<line x1="169.1329323712571" x2="169.1329323712571" y1="88" y2="100" />
</g>
</g>
<text fill="hsl(144, 100%, 40%)" y="132">nondet.shallow.32.fused 1.53 ms</text>
<g>
<title>1.53 ms ± 108 μs</title>
<rect y="138" rx="5" height="22" width="39.62669070172562" fill="hsl(144, 100%, 80%)" stroke="hsl(144, 100%, 55%)" />
<g stroke="hsl(144, 100%, 40%)"><line x1="36.826297965491655" x2="42.42708343795959" y1="149" y2="149" />
<line x1="36.826297965491655" x2="36.826297965491655" y1="143" y2="155" />
<line x1="42.42708343795959" x2="42.42708343795959" y1="143" y2="155" />
</g>
</g>
<g fill="hsl(216, 100%, 40%)">
<text y="187">nondet.shallow.32.eff</text>
<text y="187" x="886.8012135914424" text-anchor="end">34.2 ms</text>
</g>
<g>
<title>34.2 ms ± 2.1 ms</title>
<rect y="193" rx="5" height="22" width="886.8012135914424" fill="hsl(216, 100%, 80%)" stroke="hsl(216, 100%, 55%)" />
<g stroke="hsl(216, 100%, 40%)"><line x1="833.6024271828849" x2="940.0" y1="204" y2="204" />
<line x1="833.6024271828849" x2="833.6024271828849" y1="198" y2="210" />
<line x1="940.0" x2="940.0" y1="198" y2="210" />
</g>
</g>
<text fill="hsl(288, 100%, 40%)" y="242">nondet.shallow.32.mtl-logict 1.33 ms</text>
<g>
<title>1.33 ms ±  85 μs</title>
<rect y="248" rx="5" height="22" width="34.4469572600308" fill="hsl(288, 100%, 80%)" stroke="hsl(288, 100%, 55%)" />
<g stroke="hsl(288, 100%, 40%)"><line x1="32.2324015405326" x2="36.661512979529" y1="259" y2="259" />
<line x1="32.2324015405326" x2="32.2324015405326" y1="253" y2="265" />
<line x1="36.661512979529" x2="36.661512979529" y1="253" y2="265" />
</g>
</g>
</g>
</svg>
