<svg xmlns="http://www.w3.org/2000/svg" height="392" width="960.0" font-size="16" font-family="sans-serif" stroke-width="2">
<g transform="translate(10.0 0)">
<text fill="hsl(0, 100%, 40%)" y="22">nondet.deep.32.heftia.5+5 14.8 ms</text>
<g>
<title>14.8 ms ± 1.4 ms</title>
<rect y="28" rx="5" height="22" width="180.7094974898042" fill="hsl(0, 100%, 80%)" stroke="hsl(0, 100%, 55%)" />
<g stroke="hsl(0, 100%, 40%)"><line x1="163.4970072784451" x2="197.9219877011633" y1="39" y2="39" />
<line x1="163.4970072784451" x2="163.4970072784451" y1="33" y2="45" />
<line x1="197.9219877011633" x2="197.9219877011633" y1="33" y2="45" />
</g>
</g>
<text fill="hsl(51, 100%, 40%)" y="77">nondet.deep.32.freer.5+5 9.51 ms</text>
<g>
<title>9.51 ms ± 616 μs</title>
<rect y="83" rx="5" height="22" width="115.98745765090338" fill="hsl(51, 100%, 80%)" stroke="hsl(51, 100%, 55%)" />
<g stroke="hsl(51, 100%, 40%)"><line x1="108.4771085918865" x2="123.49780670992025" y1="94" y2="94" />
<line x1="108.4771085918865" x2="108.4771085918865" y1="88" y2="100" />
<line x1="123.49780670992025" x2="123.49780670992025" y1="88" y2="100" />
</g>
</g>
<text fill="hsl(102, 100%, 40%)" y="132">nondet.deep.32.fused.5+5 13.1 ms</text>
<g>
<title>13.1 ms ± 872 μs</title>
<rect y="138" rx="5" height="22" width="160.23397887130423" fill="hsl(102, 100%, 80%)" stroke="hsl(102, 100%, 55%)" />
<g stroke="hsl(102, 100%, 40%)"><line x1="149.60894920672663" x2="170.85900853588183" y1="149" y2="149" />
<line x1="149.60894920672663" x2="149.60894920672663" y1="143" y2="155" />
<line x1="170.85900853588183" x2="170.85900853588183" y1="143" y2="155" />
</g>
</g>
<text fill="hsl(154, 100%, 40%)" y="187">nondet.deep.32.ev.5+5 2.75 ms</text>
<g>
<title>2.75 ms ± 144 μs</title>
<rect y="193" rx="5" height="22" width="33.518277286170076" fill="hsl(154, 100%, 80%)" stroke="hsl(154, 100%, 55%)" />
<g stroke="hsl(154, 100%, 40%)"><line x1="31.768597616180035" x2="35.26795695616012" y1="204" y2="204" />
<line x1="31.768597616180035" x2="31.768597616180035" y1="198" y2="210" />
<line x1="35.26795695616012" x2="35.26795695616012" y1="198" y2="210" />
</g>
</g>
<text fill="hsl(205, 100%, 40%)" y="242">nondet.deep.32.mp.5+5 11.0 ms</text>
<g>
<title>11.0 ms ± 1.1 ms</title>
<rect y="248" rx="5" height="22" width="133.7231282015594" fill="hsl(205, 100%, 80%)" stroke="hsl(205, 100%, 55%)" />
<g stroke="hsl(205, 100%, 40%)"><line x1="120.61792967723866" x2="146.82832672588015" y1="259" y2="259" />
<line x1="120.61792967723866" x2="120.61792967723866" y1="253" y2="265" />
<line x1="146.82832672588015" x2="146.82832672588015" y1="253" y2="265" />
</g>
</g>
<g fill="hsl(257, 100%, 40%)">
<text y="297">nondet.deep.32.eff.5+5</text>
<text y="297" x="876.170381227568" text-anchor="end">71.9 ms</text>
</g>
<g>
<title>71.9 ms ± 5.2 ms</title>
<rect y="303" rx="5" height="22" width="876.170381227568" fill="hsl(257, 100%, 80%)" stroke="hsl(257, 100%, 55%)" />
<g stroke="hsl(257, 100%, 40%)"><line x1="812.340762455136" x2="940.0" y1="314" y2="314" />
<line x1="812.340762455136" x2="812.340762455136" y1="308" y2="320" />
<line x1="940.0" x2="940.0" y1="308" y2="320" />
</g>
</g>
<text fill="hsl(308, 100%, 40%)" y="352">nondet.deep.32.mtl-logict.5+5 8.66 ms</text>
<g>
<title>8.66 ms ± 631 μs</title>
<rect y="358" rx="5" height="22" width="105.63216534362395" fill="hsl(308, 100%, 80%)" stroke="hsl(308, 100%, 55%)" />
<g stroke="hsl(308, 100%, 40%)"><line x1="97.94238497793833" x2="113.32194570930957" y1="369" y2="369" />
<line x1="97.94238497793833" x2="97.94238497793833" y1="363" y2="375" />
<line x1="113.32194570930957" x2="113.32194570930957" y1="363" y2="375" />
</g>
</g>
</g>
</svg>
