<svg xmlns="http://www.w3.org/2000/svg" height="392" width="960.0" font-size="16" font-family="sans-serif" stroke-width="2">
<g transform="translate(10.0 0)">
<text fill="hsl(0, 100%, 40%)" y="22">nondet.shallow.32.heftia 3.79 ms</text>
<g>
<title>3.79 ms ± 252 μs</title>
<rect y="28" rx="5" height="22" width="102.49348241712691" fill="hsl(0, 100%, 80%)" stroke="hsl(0, 100%, 55%)" />
<g stroke="hsl(0, 100%, 40%)"><line x1="95.66682983929648" x2="109.32013499495734" y1="39" y2="39" />
<line x1="95.66682983929648" x2="95.66682983929648" y1="33" y2="45" />
<line x1="109.32013499495734" x2="109.32013499495734" y1="33" y2="45" />
</g>
</g>
<text fill="hsl(51, 100%, 40%)" y="77">nondet.shallow.32.freer 6.16 ms</text>
<g>
<title>6.16 ms ± 443 μs</title>
<rect y="83" rx="5" height="22" width="166.74372875625554" fill="hsl(51, 100%, 80%)" stroke="hsl(51, 100%, 55%)" />
<g stroke="hsl(51, 100%, 40%)"><line x1="154.7540160349733" x2="178.73344147753778" y1="94" y2="94" />
<line x1="154.7540160349733" x2="154.7540160349733" y1="88" y2="100" />
<line x1="178.73344147753778" x2="178.73344147753778" y1="88" y2="100" />
</g>
</g>
<text fill="hsl(102, 100%, 40%)" y="132">nondet.shallow.32.fused 1.57 ms</text>
<g>
<title>1.57 ms ±  85 μs</title>
<rect y="138" rx="5" height="22" width="42.555078850465314" fill="hsl(102, 100%, 80%)" stroke="hsl(102, 100%, 55%)" />
<g stroke="hsl(102, 100%, 40%)"><line x1="40.2553433478344" x2="44.85481435309623" y1="149" y2="149" />
<line x1="40.2553433478344" x2="40.2553433478344" y1="143" y2="155" />
<line x1="44.85481435309623" x2="44.85481435309623" y1="143" y2="155" />
</g>
</g>
<text fill="hsl(154, 100%, 40%)" y="187">nondet.shallow.32.ev 1.46 ms</text>
<g>
<title>1.46 ms ±  50 μs</title>
<rect y="193" rx="5" height="22" width="39.54387461004482" fill="hsl(154, 100%, 80%)" stroke="hsl(154, 100%, 55%)" />
<g stroke="hsl(154, 100%, 40%)"><line x1="38.19043506907075" x2="40.89731415101888" y1="204" y2="204" />
<line x1="38.19043506907075" x2="38.19043506907075" y1="198" y2="210" />
<line x1="40.89731415101888" x2="40.89731415101888" y1="198" y2="210" />
</g>
</g>
<text fill="hsl(205, 100%, 40%)" y="242">nondet.shallow.32.mp 3.92 ms</text>
<g>
<title>3.92 ms ± 189 μs</title>
<rect y="248" rx="5" height="22" width="106.2176878870173" fill="hsl(205, 100%, 80%)" stroke="hsl(205, 100%, 55%)" />
<g stroke="hsl(205, 100%, 40%)"><line x1="101.09477367616309" x2="111.34060209787152" y1="259" y2="259" />
<line x1="101.09477367616309" x2="101.09477367616309" y1="253" y2="265" />
<line x1="111.34060209787152" x2="111.34060209787152" y1="253" y2="265" />
</g>
</g>
<g fill="hsl(257, 100%, 40%)">
<text y="297">nondet.shallow.32.eff</text>
<text y="297" x="908.5807290354879" text-anchor="end">33.6 ms</text>
</g>
<g>
<title>33.6 ms ± 1.2 ms</title>
<rect y="303" rx="5" height="22" width="908.5807290354879" fill="hsl(257, 100%, 80%)" stroke="hsl(257, 100%, 55%)" />
<g stroke="hsl(257, 100%, 40%)"><line x1="877.1614580709759" x2="940.0" y1="314" y2="314" />
<line x1="877.1614580709759" x2="877.1614580709759" y1="308" y2="320" />
<line x1="940.0" x2="940.0" y1="308" y2="320" />
</g>
</g>
<text fill="hsl(308, 100%, 40%)" y="352">nondet.shallow.32.mtl-logict 1.40 ms</text>
<g>
<title>1.40 ms ±  98 μs</title>
<rect y="358" rx="5" height="22" width="37.830113322990364" fill="hsl(308, 100%, 80%)" stroke="hsl(308, 100%, 55%)" />
<g stroke="hsl(308, 100%, 40%)"><line x1="35.16894401073249" x2="40.49128263524824" y1="369" y2="369" />
<line x1="35.16894401073249" x2="35.16894401073249" y1="363" y2="375" />
<line x1="40.49128263524824" x2="40.49128263524824" y1="363" y2="375" />
</g>
</g>
</g>
</svg>
