<svg xmlns="http://www.w3.org/2000/svg" height="392" width="960.0" font-size="16" font-family="sans-serif" stroke-width="2">
<g transform="translate(10.0 0)">
<g fill="hsl(0, 100%, 40%)">
<text y="22">nondet.shallow.32.heftia</text>
<text y="22" x="347.8062009183708" text-anchor="end">12.9 ms</text>
</g>
<g>
<title>12.9 ms ± 740 μs</title>
<rect y="28" rx="5" height="22" width="347.8062009183708" fill="hsl(0, 100%, 80%)" stroke="hsl(0, 100%, 55%)" />
<g stroke="hsl(0, 100%, 40%)"><line x1="327.79279362040813" x2="367.81960821633345" y1="39" y2="39" />
<line x1="327.79279362040813" x2="327.79279362040813" y1="33" y2="45" />
<line x1="367.81960821633345" x2="367.81960821633345" y1="33" y2="45" />
</g>
</g>
<text fill="hsl(51, 100%, 40%)" y="77">nondet.shallow.32.freer 5.57 ms</text>
<g>
<title>5.57 ms ± 301 μs</title>
<rect y="83" rx="5" height="22" width="150.63396218685534" fill="hsl(51, 100%, 80%)" stroke="hsl(51, 100%, 55%)" />
<g stroke="hsl(51, 100%, 40%)"><line x1="142.48800368355592" x2="158.77992069015477" y1="94" y2="94" />
<line x1="142.48800368355592" x2="142.48800368355592" y1="88" y2="100" />
<line x1="158.77992069015477" x2="158.77992069015477" y1="88" y2="100" />
</g>
</g>
<text fill="hsl(102, 100%, 40%)" y="132">nondet.shallow.32.fused 1.44 ms</text>
<g>
<title>1.44 ms ±  86 μs</title>
<rect y="138" rx="5" height="22" width="38.86871372233719" fill="hsl(102, 100%, 80%)" stroke="hsl(102, 100%, 55%)" />
<g stroke="hsl(102, 100%, 40%)"><line x1="36.53911902119712" x2="41.19830842347726" y1="149" y2="149" />
<line x1="36.53911902119712" x2="36.53911902119712" y1="143" y2="155" />
<line x1="41.19830842347726" x2="41.19830842347726" y1="143" y2="155" />
</g>
</g>
<text fill="hsl(154, 100%, 40%)" y="187">nondet.shallow.32.ev 1.44 ms</text>
<g>
<title>1.44 ms ± 136 μs</title>
<rect y="193" rx="5" height="22" width="38.97464532874774" fill="hsl(154, 100%, 80%)" stroke="hsl(154, 100%, 55%)" />
<g stroke="hsl(154, 100%, 40%)"><line x1="35.302225709664256" x2="42.647064947831225" y1="204" y2="204" />
<line x1="35.302225709664256" x2="35.302225709664256" y1="198" y2="210" />
<line x1="42.647064947831225" x2="42.647064947831225" y1="198" y2="210" />
</g>
</g>
<text fill="hsl(205, 100%, 40%)" y="242">nondet.shallow.32.mp 3.71 ms</text>
<g>
<title>3.71 ms ± 279 μs</title>
<rect y="248" rx="5" height="22" width="100.28231063208908" fill="hsl(205, 100%, 80%)" stroke="hsl(205, 100%, 55%)" />
<g stroke="hsl(205, 100%, 40%)"><line x1="92.72209959711354" x2="107.84252166706462" y1="259" y2="259" />
<line x1="92.72209959711354" x2="92.72209959711354" y1="253" y2="265" />
<line x1="107.84252166706462" x2="107.84252166706462" y1="253" y2="265" />
</g>
</g>
<g fill="hsl(257, 100%, 40%)">
<text y="297">nondet.shallow.32.eff</text>
<text y="297" x="861.6670041248437" text-anchor="end">31.9 ms</text>
</g>
<g>
<title>31.9 ms ± 2.9 ms</title>
<rect y="303" rx="5" height="22" width="861.6670041248437" fill="hsl(257, 100%, 80%)" stroke="hsl(257, 100%, 55%)" />
<g stroke="hsl(257, 100%, 40%)"><line x1="783.3340082496875" x2="940.0" y1="314" y2="314" />
<line x1="783.3340082496875" x2="783.3340082496875" y1="308" y2="320" />
<line x1="940.0" x2="940.0" y1="308" y2="320" />
</g>
</g>
<text fill="hsl(308, 100%, 40%)" y="352">nondet.shallow.32.mtl-logict 1.25 ms</text>
<g>
<title>1.25 ms ±  47 μs</title>
<rect y="358" rx="5" height="22" width="33.75493944081067" fill="hsl(308, 100%, 80%)" stroke="hsl(308, 100%, 55%)" />
<g stroke="hsl(308, 100%, 40%)"><line x1="32.48331208918076" x2="35.02656679244059" y1="369" y2="369" />
<line x1="32.48331208918076" x2="32.48331208918076" y1="363" y2="375" />
<line x1="35.02656679244059" x2="35.02656679244059" y1="363" y2="375" />
</g>
</g>
</g>
</svg>
