<svg xmlns="http://www.w3.org/2000/svg" height="282" width="960.0" font-size="16" font-family="sans-serif" stroke-width="2">
<g transform="translate(10.0 0)">
<text fill="hsl(0, 100%, 40%)" y="22">nondet.deep.32.heftia.5+5 9.82 ms</text>
<g>
<title>9.82 ms ± 797 μs</title>
<rect y="28" rx="5" height="22" width="122.74570973949996" fill="hsl(0, 100%, 80%)" stroke="hsl(0, 100%, 55%)" />
<g stroke="hsl(0, 100%, 40%)"><line x1="112.77730419279621" x2="132.7141152862037" y1="39" y2="39" />
<line x1="112.77730419279621" x2="112.77730419279621" y1="33" y2="45" />
<line x1="132.7141152862037" x2="132.7141152862037" y1="33" y2="45" />
</g>
</g>
<text fill="hsl(72, 100%, 40%)" y="77">nondet.deep.32.freer.5+5 9.72 ms</text>
<g>
<title>9.72 ms ± 510 μs</title>
<rect y="83" rx="5" height="22" width="121.5975433852943" fill="hsl(72, 100%, 80%)" stroke="hsl(72, 100%, 55%)" />
<g stroke="hsl(72, 100%, 40%)"><line x1="115.22041124057688" x2="127.97467553001172" y1="94" y2="94" />
<line x1="115.22041124057688" x2="115.22041124057688" y1="88" y2="100" />
<line x1="127.97467553001172" x2="127.97467553001172" y1="88" y2="100" />
</g>
</g>
<text fill="hsl(144, 100%, 40%)" y="132">nondet.deep.32.fused.5+5 13.6 ms</text>
<g>
<title>13.6 ms ± 1.0 ms</title>
<rect y="138" rx="5" height="22" width="170.1465007992431" fill="hsl(144, 100%, 80%)" stroke="hsl(144, 100%, 55%)" />
<g stroke="hsl(144, 100%, 40%)"><line x1="157.0625303765495" x2="183.23047122193674" y1="149" y2="149" />
<line x1="157.0625303765495" x2="157.0625303765495" y1="143" y2="155" />
<line x1="183.23047122193674" x2="183.23047122193674" y1="143" y2="155" />
</g>
</g>
<g fill="hsl(216, 100%, 40%)">
<text y="187">nondet.deep.32.eff.5+5</text>
<text y="187" x="879.90558969908" text-anchor="end">70.4 ms</text>
</g>
<g>
<title>70.4 ms ± 4.8 ms</title>
<rect y="193" rx="5" height="22" width="879.90558969908" fill="hsl(216, 100%, 80%)" stroke="hsl(216, 100%, 55%)" />
<g stroke="hsl(216, 100%, 40%)"><line x1="819.81117939816" x2="940.0" y1="204" y2="204" />
<line x1="819.81117939816" x2="819.81117939816" y1="198" y2="210" />
<line x1="940.0" x2="940.0" y1="198" y2="210" />
</g>
</g>
<text fill="hsl(288, 100%, 40%)" y="242">nondet.deep.32.mtl-logict.5+5 8.62 ms</text>
<g>
<title>8.62 ms ± 501 μs</title>
<rect y="248" rx="5" height="22" width="107.73173493228082" fill="hsl(288, 100%, 80%)" stroke="hsl(288, 100%, 55%)" />
<g stroke="hsl(288, 100%, 40%)"><line x1="101.47160576727168" x2="113.99186409728995" y1="259" y2="259" />
<line x1="101.47160576727168" x2="101.47160576727168" y1="253" y2="265" />
<line x1="113.99186409728995" x2="113.99186409728995" y1="253" y2="265" />
</g>
</g>
</g>
</svg>
