<svg xmlns="http://www.w3.org/2000/svg" height="392" width="960.0" font-size="16" font-family="sans-serif" stroke-width="2">
<g transform="translate(10.0 0)">
<text fill="hsl(0, 100%, 40%)" y="22">nondet.shallow.32.heftia 3.65 ms</text>
<g>
<title>3.65 ms ± 197 μs</title>
<rect y="28" rx="5" height="22" width="100.0627283131666" fill="hsl(0, 100%, 80%)" stroke="hsl(0, 100%, 55%)" />
<g stroke="hsl(0, 100%, 40%)"><line x1="94.65773966323799" x2="105.46771696309521" y1="39" y2="39" />
<line x1="94.65773966323799" x2="94.65773966323799" y1="33" y2="45" />
<line x1="105.46771696309521" x2="105.46771696309521" y1="33" y2="45" />
</g>
</g>
<text fill="hsl(51, 100%, 40%)" y="77">nondet.shallow.32.freer 5.87 ms</text>
<g>
<title>5.87 ms ± 327 μs</title>
<rect y="83" rx="5" height="22" width="160.82582400597892" fill="hsl(51, 100%, 80%)" stroke="hsl(51, 100%, 55%)" />
<g stroke="hsl(51, 100%, 40%)"><line x1="151.86069146622393" x2="169.7909565457339" y1="94" y2="94" />
<line x1="151.86069146622393" x2="151.86069146622393" y1="88" y2="100" />
<line x1="169.7909565457339" x2="169.7909565457339" y1="88" y2="100" />
</g>
</g>
<text fill="hsl(102, 100%, 40%)" y="132">nondet.shallow.32.fused 1.51 ms</text>
<g>
<title>1.51 ms ± 148 μs</title>
<rect y="138" rx="5" height="22" width="41.45666975192631" fill="hsl(102, 100%, 80%)" stroke="hsl(102, 100%, 55%)" />
<g stroke="hsl(102, 100%, 40%)"><line x1="37.406457880163195" x2="45.50688162368943" y1="149" y2="149" />
<line x1="37.406457880163195" x2="37.406457880163195" y1="143" y2="155" />
<line x1="45.50688162368943" x2="45.50688162368943" y1="143" y2="155" />
</g>
</g>
<text fill="hsl(154, 100%, 40%)" y="187">nondet.shallow.32.ev 1.45 ms</text>
<g>
<title>1.45 ms ± 145 μs</title>
<rect y="193" rx="5" height="22" width="39.84965513100098" fill="hsl(154, 100%, 80%)" stroke="hsl(154, 100%, 55%)" />
<g stroke="hsl(154, 100%, 40%)"><line x1="35.87117488027394" x2="43.82813538172802" y1="204" y2="204" />
<line x1="35.87117488027394" x2="35.87117488027394" y1="198" y2="210" />
<line x1="43.82813538172802" x2="43.82813538172802" y1="198" y2="210" />
</g>
</g>
<text fill="hsl(205, 100%, 40%)" y="242">nondet.shallow.32.mp 3.90 ms</text>
<g>
<title>3.90 ms ± 244 μs</title>
<rect y="248" rx="5" height="22" width="106.93134858914902" fill="hsl(205, 100%, 80%)" stroke="hsl(205, 100%, 55%)" />
<g stroke="hsl(205, 100%, 40%)"><line x1="100.25266754260593" x2="113.61002963569211" y1="259" y2="259" />
<line x1="100.25266754260593" x2="100.25266754260593" y1="253" y2="265" />
<line x1="113.61002963569211" x2="113.61002963569211" y1="253" y2="265" />
</g>
</g>
<g fill="hsl(257, 100%, 40%)">
<text y="297">nondet.shallow.32.eff</text>
<text y="297" x="919.2265743535935" text-anchor="end">33.5 ms</text>
</g>
<g>
<title>33.5 ms ± 758 μs</title>
<rect y="303" rx="5" height="22" width="919.2265743535935" fill="hsl(257, 100%, 80%)" stroke="hsl(257, 100%, 55%)" />
<g stroke="hsl(257, 100%, 40%)"><line x1="898.453148707187" x2="940.0" y1="314" y2="314" />
<line x1="898.453148707187" x2="898.453148707187" y1="308" y2="320" />
<line x1="940.0" x2="940.0" y1="308" y2="320" />
</g>
</g>
<text fill="hsl(308, 100%, 40%)" y="352">nondet.shallow.32.mtl-logict 1.37 ms</text>
<g>
<title>1.37 ms ±  93 μs</title>
<rect y="358" rx="5" height="22" width="37.5946776755624" fill="hsl(308, 100%, 80%)" stroke="hsl(308, 100%, 55%)" />
<g stroke="hsl(308, 100%, 40%)"><line x1="35.03190318550395" x2="40.15745216562085" y1="369" y2="369" />
<line x1="35.03190318550395" x2="35.03190318550395" y1="363" y2="375" />
<line x1="40.15745216562085" x2="40.15745216562085" y1="363" y2="375" />
</g>
</g>
</g>
</svg>
