<svg xmlns="http://www.w3.org/2000/svg" height="392" width="960.0" font-size="16" font-family="sans-serif" stroke-width="2">
<g transform="translate(10.0 0)">
<text fill="hsl(0, 100%, 40%)" y="22">nondet.shallow.32.heftia 3.53 ms</text>
<g>
<title>3.53 ms ± 187 μs</title>
<rect y="28" rx="5" height="22" width="91.49882699976126" fill="hsl(0, 100%, 80%)" stroke="hsl(0, 100%, 55%)" />
<g stroke="hsl(0, 100%, 40%)"><line x1="86.65742403965446" x2="96.34022995986807" y1="39" y2="39" />
<line x1="86.65742403965446" x2="86.65742403965446" y1="33" y2="45" />
<line x1="96.34022995986807" x2="96.34022995986807" y1="33" y2="45" />
</g>
</g>
<text fill="hsl(51, 100%, 40%)" y="77">nondet.shallow.32.freer 6.14 ms</text>
<g>
<title>6.14 ms ± 377 μs</title>
<rect y="83" rx="5" height="22" width="159.14431394652357" fill="hsl(51, 100%, 80%)" stroke="hsl(51, 100%, 55%)" />
<g stroke="hsl(51, 100%, 40%)"><line x1="149.36935558065224" x2="168.9192723123949" y1="94" y2="94" />
<line x1="149.36935558065224" x2="149.36935558065224" y1="88" y2="100" />
<line x1="168.9192723123949" x2="168.9192723123949" y1="88" y2="100" />
</g>
</g>
<text fill="hsl(102, 100%, 40%)" y="132">nondet.shallow.32.fused 1.55 ms</text>
<g>
<title>1.55 ms ± 108 μs</title>
<rect y="138" rx="5" height="22" width="40.18679019350475" fill="hsl(102, 100%, 80%)" stroke="hsl(102, 100%, 55%)" />
<g stroke="hsl(102, 100%, 40%)"><line x1="37.38249240525417" x2="42.99108798175533" y1="149" y2="149" />
<line x1="37.38249240525417" x2="37.38249240525417" y1="143" y2="155" />
<line x1="42.99108798175533" x2="42.99108798175533" y1="143" y2="155" />
</g>
</g>
<text fill="hsl(154, 100%, 40%)" y="187">nondet.shallow.32.ev 1.40 ms</text>
<g>
<title>1.40 ms ±  86 μs</title>
<rect y="193" rx="5" height="22" width="36.32904793823307" fill="hsl(154, 100%, 80%)" stroke="hsl(154, 100%, 55%)" />
<g stroke="hsl(154, 100%, 40%)"><line x1="34.09699279688326" x2="38.56110307958288" y1="204" y2="204" />
<line x1="34.09699279688326" x2="34.09699279688326" y1="198" y2="210" />
<line x1="38.56110307958288" x2="38.56110307958288" y1="198" y2="210" />
</g>
</g>
<text fill="hsl(205, 100%, 40%)" y="242">nondet.shallow.32.mp 4.05 ms</text>
<g>
<title>4.05 ms ± 187 μs</title>
<rect y="248" rx="5" height="22" width="104.87445070616185" fill="hsl(205, 100%, 80%)" stroke="hsl(205, 100%, 55%)" />
<g stroke="hsl(205, 100%, 40%)"><line x1="100.02427202849819" x2="109.72462938382552" y1="259" y2="259" />
<line x1="100.02427202849819" x2="100.02427202849819" y1="253" y2="265" />
<line x1="109.72462938382552" x2="109.72462938382552" y1="253" y2="265" />
</g>
</g>
<g fill="hsl(257, 100%, 40%)">
<text y="297">nondet.shallow.32.eff</text>
<text y="297" x="854.8164738837859" text-anchor="end">33.0 ms</text>
</g>
<g>
<title>33.0 ms ± 3.3 ms</title>
<rect y="303" rx="5" height="22" width="854.8164738837859" fill="hsl(257, 100%, 80%)" stroke="hsl(257, 100%, 55%)" />
<g stroke="hsl(257, 100%, 40%)"><line x1="769.6329477675717" x2="940.0" y1="314" y2="314" />
<line x1="769.6329477675717" x2="769.6329477675717" y1="308" y2="320" />
<line x1="940.0" x2="940.0" y1="308" y2="320" />
</g>
</g>
<text fill="hsl(308, 100%, 40%)" y="352">nondet.shallow.32.mtl-logict 1.37 ms</text>
<g>
<title>1.37 ms ± 109 μs</title>
<rect y="358" rx="5" height="22" width="35.39020977858816" fill="hsl(308, 100%, 80%)" stroke="hsl(308, 100%, 55%)" />
<g stroke="hsl(308, 100%, 40%)"><line x1="32.56236760347252" x2="38.2180519537038" y1="369" y2="369" />
<line x1="32.56236760347252" x2="32.56236760347252" y1="363" y2="375" />
<line x1="38.2180519537038" x2="38.2180519537038" y1="363" y2="375" />
</g>
</g>
</g>
</svg>
