<svg xmlns="http://www.w3.org/2000/svg" height="392" width="960.0" font-size="16" font-family="sans-serif" stroke-width="2">
<g transform="translate(10.0 0)">
<text fill="hsl(0, 100%, 40%)" y="22">nondet.shallow.32.heftia 5.30 ms</text>
<g>
<title>5.30 ms ± 373 μs</title>
<rect y="28" rx="5" height="22" width="139.73015883327025" fill="hsl(0, 100%, 80%)" stroke="hsl(0, 100%, 55%)" />
<g stroke="hsl(0, 100%, 40%)"><line x1="129.88877994857475" x2="149.57153771796575" y1="39" y2="39" />
<line x1="129.88877994857475" x2="129.88877994857475" y1="33" y2="45" />
<line x1="149.57153771796575" x2="149.57153771796575" y1="33" y2="45" />
</g>
</g>
<text fill="hsl(51, 100%, 40%)" y="77">nondet.shallow.32.freer 6.09 ms</text>
<g>
<title>6.09 ms ± 453 μs</title>
<rect y="83" rx="5" height="22" width="160.6744106332306" fill="hsl(51, 100%, 80%)" stroke="hsl(51, 100%, 55%)" />
<g stroke="hsl(51, 100%, 40%)"><line x1="148.73601823033266" x2="172.61280303612853" y1="94" y2="94" />
<line x1="148.73601823033266" x2="148.73601823033266" y1="88" y2="100" />
<line x1="172.61280303612853" x2="172.61280303612853" y1="88" y2="100" />
</g>
</g>
<text fill="hsl(102, 100%, 40%)" y="132">nondet.shallow.32.fused 1.47 ms</text>
<g>
<title>1.47 ms ±  84 μs</title>
<rect y="138" rx="5" height="22" width="38.8504156602655" fill="hsl(102, 100%, 80%)" stroke="hsl(102, 100%, 55%)" />
<g stroke="hsl(102, 100%, 40%)"><line x1="36.62685708902866" x2="41.07397423150233" y1="149" y2="149" />
<line x1="36.62685708902866" x2="36.62685708902866" y1="143" y2="155" />
<line x1="41.07397423150233" x2="41.07397423150233" y1="143" y2="155" />
</g>
</g>
<text fill="hsl(154, 100%, 40%)" y="187">nondet.shallow.32.ev 1.46 ms</text>
<g>
<title>1.46 ms ± 113 μs</title>
<rect y="193" rx="5" height="22" width="38.43677074163407" fill="hsl(154, 100%, 80%)" stroke="hsl(154, 100%, 55%)" />
<g stroke="hsl(154, 100%, 40%)"><line x1="35.46181443945631" x2="41.41172704381183" y1="204" y2="204" />
<line x1="35.46181443945631" x2="35.46181443945631" y1="198" y2="210" />
<line x1="41.41172704381183" x2="41.41172704381183" y1="198" y2="210" />
</g>
</g>
<text fill="hsl(205, 100%, 40%)" y="242">nondet.shallow.32.mp 3.69 ms</text>
<g>
<title>3.69 ms ± 353 μs</title>
<rect y="248" rx="5" height="22" width="97.30120292476171" fill="hsl(205, 100%, 80%)" stroke="hsl(205, 100%, 55%)" />
<g stroke="hsl(205, 100%, 40%)"><line x1="87.99814526014161" x2="106.60426058938181" y1="259" y2="259" />
<line x1="87.99814526014161" x2="87.99814526014161" y1="253" y2="265" />
<line x1="106.60426058938181" x2="106.60426058938181" y1="253" y2="265" />
</g>
</g>
<g fill="hsl(257, 100%, 40%)">
<text y="297">nondet.shallow.32.eff</text>
<text y="297" x="880.5071939945013" text-anchor="end">33.4 ms</text>
</g>
<g>
<title>33.4 ms ± 2.3 ms</title>
<rect y="303" rx="5" height="22" width="880.5071939945013" fill="hsl(257, 100%, 80%)" stroke="hsl(257, 100%, 55%)" />
<g stroke="hsl(257, 100%, 40%)"><line x1="821.0143879890027" x2="940.0" y1="314" y2="314" />
<line x1="821.0143879890027" x2="821.0143879890027" y1="308" y2="320" />
<line x1="940.0" x2="940.0" y1="308" y2="320" />
</g>
</g>
<text fill="hsl(308, 100%, 40%)" y="352">nondet.shallow.32.mtl-logict 1.32 ms</text>
<g>
<title>1.32 ms ±  91 μs</title>
<rect y="358" rx="5" height="22" width="34.78315124903511" fill="hsl(308, 100%, 80%)" stroke="hsl(308, 100%, 55%)" />
<g stroke="hsl(308, 100%, 40%)"><line x1="32.37868423949417" x2="37.187618258576045" y1="369" y2="369" />
<line x1="32.37868423949417" x2="32.37868423949417" y1="363" y2="375" />
<line x1="37.187618258576045" x2="37.187618258576045" y1="363" y2="375" />
</g>
</g>
</g>
</svg>
