<svg xmlns="http://www.w3.org/2000/svg" height="392" width="960.0" font-size="16" font-family="sans-serif" stroke-width="2">
<g transform="translate(10.0 0)">
<text fill="hsl(0, 100%, 40%)" y="22">nondet.deep.32.heftia.5+5 10.1 ms</text>
<g>
<title>10.1 ms ± 551 μs</title>
<rect y="28" rx="5" height="22" width="126.93681765712157" fill="hsl(0, 100%, 80%)" stroke="hsl(0, 100%, 55%)" />
<g stroke="hsl(0, 100%, 40%)"><line x1="120.01462208290644" x2="133.8590132313367" y1="39" y2="39" />
<line x1="120.01462208290644" x2="120.01462208290644" y1="33" y2="45" />
<line x1="133.8590132313367" x2="133.8590132313367" y1="33" y2="45" />
</g>
</g>
<text fill="hsl(51, 100%, 40%)" y="77">nondet.deep.32.freer.5+5 8.85 ms</text>
<g>
<title>8.85 ms ± 760 μs</title>
<rect y="83" rx="5" height="22" width="111.1493366297458" fill="hsl(51, 100%, 80%)" stroke="hsl(51, 100%, 55%)" />
<g stroke="hsl(51, 100%, 40%)"><line x1="101.60237206316529" x2="120.69630119632632" y1="94" y2="94" />
<line x1="101.60237206316529" x2="101.60237206316529" y1="88" y2="100" />
<line x1="120.69630119632632" x2="120.69630119632632" y1="88" y2="100" />
</g>
</g>
<text fill="hsl(102, 100%, 40%)" y="132">nondet.deep.32.fused.5+5 12.5 ms</text>
<g>
<title>12.5 ms ± 1.1 ms</title>
<rect y="138" rx="5" height="22" width="157.43075975609585" fill="hsl(102, 100%, 80%)" stroke="hsl(102, 100%, 55%)" />
<g stroke="hsl(102, 100%, 40%)"><line x1="143.91128774249466" x2="170.95023176969704" y1="149" y2="149" />
<line x1="143.91128774249466" x2="143.91128774249466" y1="143" y2="155" />
<line x1="170.95023176969704" x2="170.95023176969704" y1="143" y2="155" />
</g>
</g>
<text fill="hsl(154, 100%, 40%)" y="187">nondet.deep.32.ev.5+5 2.88 ms</text>
<g>
<title>2.88 ms ± 181 μs</title>
<rect y="193" rx="5" height="22" width="36.10899186817365" fill="hsl(154, 100%, 80%)" stroke="hsl(154, 100%, 55%)" />
<g stroke="hsl(154, 100%, 40%)"><line x1="33.834259478178446" x2="38.38372425816886" y1="204" y2="204" />
<line x1="33.834259478178446" x2="33.834259478178446" y1="198" y2="210" />
<line x1="38.38372425816886" x2="38.38372425816886" y1="198" y2="210" />
</g>
</g>
<text fill="hsl(205, 100%, 40%)" y="242">nondet.deep.32.mp.5+5 10.2 ms</text>
<g>
<title>10.2 ms ± 513 μs</title>
<rect y="248" rx="5" height="22" width="128.37927703190888" fill="hsl(205, 100%, 80%)" stroke="hsl(205, 100%, 55%)" />
<g stroke="hsl(205, 100%, 40%)"><line x1="121.93256615636155" x2="134.82598790745624" y1="259" y2="259" />
<line x1="121.93256615636155" x2="121.93256615636155" y1="253" y2="265" />
<line x1="134.82598790745624" x2="134.82598790745624" y1="253" y2="265" />
</g>
</g>
<g fill="hsl(257, 100%, 40%)">
<text y="297">nondet.deep.32.eff.5+5</text>
<text y="297" x="868.1408033535646" text-anchor="end">69.1 ms</text>
</g>
<g>
<title>69.1 ms ± 5.7 ms</title>
<rect y="303" rx="5" height="22" width="868.1408033535646" fill="hsl(257, 100%, 80%)" stroke="hsl(257, 100%, 55%)" />
<g stroke="hsl(257, 100%, 40%)"><line x1="796.2816067071292" x2="940.0" y1="314" y2="314" />
<line x1="796.2816067071292" x2="796.2816067071292" y1="308" y2="320" />
<line x1="940.0" x2="940.0" y1="308" y2="320" />
</g>
</g>
<text fill="hsl(308, 100%, 40%)" y="352">nondet.deep.32.mtl-logict.5+5 8.53 ms</text>
<g>
<title>8.53 ms ± 794 μs</title>
<rect y="358" rx="5" height="22" width="107.14937969154634" fill="hsl(308, 100%, 80%)" stroke="hsl(308, 100%, 55%)" />
<g stroke="hsl(308, 100%, 40%)"><line x1="97.18380992621067" x2="117.11494945688202" y1="369" y2="369" />
<line x1="97.18380992621067" x2="97.18380992621067" y1="363" y2="375" />
<line x1="117.11494945688202" x2="117.11494945688202" y1="363" y2="375" />
</g>
</g>
</g>
</svg>
