<svg xmlns="http://www.w3.org/2000/svg" height="392" width="960.0" font-size="16" font-family="sans-serif" stroke-width="2">
<g transform="translate(10.0 0)">
<text fill="hsl(0, 100%, 40%)" y="22">nondet.deep.32.heftia.5+5 10.7 ms</text>
<g>
<title>10.7 ms ± 753 μs</title>
<rect y="28" rx="5" height="22" width="135.25060263252462" fill="hsl(0, 100%, 80%)" stroke="hsl(0, 100%, 55%)" />
<g stroke="hsl(0, 100%, 40%)"><line x1="125.75012191448074" x2="144.75108335056848" y1="39" y2="39" />
<line x1="125.75012191448074" x2="125.75012191448074" y1="33" y2="45" />
<line x1="144.75108335056848" x2="144.75108335056848" y1="33" y2="45" />
</g>
</g>
<text fill="hsl(51, 100%, 40%)" y="77">nondet.deep.32.freer.5+5 9.79 ms</text>
<g>
<title>9.79 ms ± 747 μs</title>
<rect y="83" rx="5" height="22" width="123.53734121697516" fill="hsl(51, 100%, 80%)" stroke="hsl(51, 100%, 55%)" />
<g stroke="hsl(51, 100%, 40%)"><line x1="114.10642221326819" x2="132.96826022068214" y1="94" y2="94" />
<line x1="114.10642221326819" x2="114.10642221326819" y1="88" y2="100" />
<line x1="132.96826022068214" x2="132.96826022068214" y1="88" y2="100" />
</g>
</g>
<text fill="hsl(102, 100%, 40%)" y="132">nondet.deep.32.fused.5+5 13.0 ms</text>
<g>
<title>13.0 ms ± 804 μs</title>
<rect y="138" rx="5" height="22" width="164.00317228720542" fill="hsl(102, 100%, 80%)" stroke="hsl(102, 100%, 55%)" />
<g stroke="hsl(102, 100%, 40%)"><line x1="153.86263441666628" x2="174.14371015774455" y1="149" y2="149" />
<line x1="153.86263441666628" x2="153.86263441666628" y1="143" y2="155" />
<line x1="174.14371015774455" x2="174.14371015774455" y1="143" y2="155" />
</g>
</g>
<text fill="hsl(154, 100%, 40%)" y="187">nondet.deep.32.ev.5+5 2.88 ms</text>
<g>
<title>2.88 ms ± 208 μs</title>
<rect y="193" rx="5" height="22" width="36.35904419007361" fill="hsl(154, 100%, 80%)" stroke="hsl(154, 100%, 55%)" />
<g stroke="hsl(154, 100%, 40%)"><line x1="33.73457801483773" x2="38.98351036530949" y1="204" y2="204" />
<line x1="33.73457801483773" x2="33.73457801483773" y1="198" y2="210" />
<line x1="38.98351036530949" x2="38.98351036530949" y1="198" y2="210" />
</g>
</g>
<text fill="hsl(205, 100%, 40%)" y="242">nondet.deep.32.mp.5+5 9.91 ms</text>
<g>
<title>9.91 ms ± 796 μs</title>
<rect y="248" rx="5" height="22" width="125.09503777863473" fill="hsl(205, 100%, 80%)" stroke="hsl(205, 100%, 55%)" />
<g stroke="hsl(205, 100%, 40%)"><line x1="115.05740991189886" x2="135.1326656453706" y1="259" y2="259" />
<line x1="115.05740991189886" x2="115.05740991189886" y1="253" y2="265" />
<line x1="135.1326656453706" x2="135.1326656453706" y1="253" y2="265" />
</g>
</g>
<g fill="hsl(257, 100%, 40%)">
<text y="297">nondet.deep.32.eff.5+5</text>
<text y="297" x="901.7564131745119" text-anchor="end">71.5 ms</text>
</g>
<g>
<title>71.5 ms ± 3.0 ms</title>
<rect y="303" rx="5" height="22" width="901.7564131745119" fill="hsl(257, 100%, 80%)" stroke="hsl(257, 100%, 55%)" />
<g stroke="hsl(257, 100%, 40%)"><line x1="863.5128263490237" x2="940.0" y1="314" y2="314" />
<line x1="863.5128263490237" x2="863.5128263490237" y1="308" y2="320" />
<line x1="940.0" x2="940.0" y1="308" y2="320" />
</g>
</g>
<text fill="hsl(308, 100%, 40%)" y="352">nondet.deep.32.mtl-logict.5+5 8.62 ms</text>
<g>
<title>8.62 ms ± 830 μs</title>
<rect y="358" rx="5" height="22" width="108.79693418101053" fill="hsl(308, 100%, 80%)" stroke="hsl(308, 100%, 55%)" />
<g stroke="hsl(308, 100%, 40%)"><line x1="98.31828923555162" x2="119.27557912646944" y1="369" y2="369" />
<line x1="98.31828923555162" x2="98.31828923555162" y1="363" y2="375" />
<line x1="119.27557912646944" x2="119.27557912646944" y1="363" y2="375" />
</g>
</g>
</g>
</svg>
