<svg xmlns="http://www.w3.org/2000/svg" height="392" width="960.0" font-size="16" font-family="sans-serif" stroke-width="2">
<g transform="translate(10.0 0)">
<text fill="hsl(0, 100%, 40%)" y="22">nondet.shallow.32.heftia 3.52 ms</text>
<g>
<title>3.52 ms ± 297 μs</title>
<rect y="28" rx="5" height="22" width="93.78482206278305" fill="hsl(0, 100%, 80%)" stroke="hsl(0, 100%, 55%)" />
<g stroke="hsl(0, 100%, 40%)"><line x1="85.87853195310747" x2="101.69111217245863" y1="39" y2="39" />
<line x1="85.87853195310747" x2="85.87853195310747" y1="33" y2="45" />
<line x1="101.69111217245863" x2="101.69111217245863" y1="33" y2="45" />
</g>
</g>
<text fill="hsl(51, 100%, 40%)" y="77">nondet.shallow.32.freer 5.56 ms</text>
<g>
<title>5.56 ms ± 201 μs</title>
<rect y="83" rx="5" height="22" width="148.2277631765427" fill="hsl(51, 100%, 80%)" stroke="hsl(51, 100%, 55%)" />
<g stroke="hsl(51, 100%, 40%)"><line x1="142.8595393060402" x2="153.5959870470452" y1="94" y2="94" />
<line x1="142.8595393060402" x2="142.8595393060402" y1="88" y2="100" />
<line x1="153.5959870470452" x2="153.5959870470452" y1="88" y2="100" />
</g>
</g>
<text fill="hsl(102, 100%, 40%)" y="132">nondet.shallow.32.fused 1.38 ms</text>
<g>
<title>1.38 ms ±  38 μs</title>
<rect y="138" rx="5" height="22" width="36.892757280986174" fill="hsl(102, 100%, 80%)" stroke="hsl(102, 100%, 55%)" />
<g stroke="hsl(102, 100%, 40%)"><line x1="35.87418822653054" x2="37.91132633544181" y1="149" y2="149" />
<line x1="35.87418822653054" x2="35.87418822653054" y1="143" y2="155" />
<line x1="37.91132633544181" x2="37.91132633544181" y1="143" y2="155" />
</g>
</g>
<text fill="hsl(154, 100%, 40%)" y="187">nondet.shallow.32.ev 1.49 ms</text>
<g>
<title>1.49 ms ±  58 μs</title>
<rect y="193" rx="5" height="22" width="39.745054023852255" fill="hsl(154, 100%, 80%)" stroke="hsl(154, 100%, 55%)" />
<g stroke="hsl(154, 100%, 40%)"><line x1="38.21034565126363" x2="41.27976239644088" y1="204" y2="204" />
<line x1="38.21034565126363" x2="38.21034565126363" y1="198" y2="210" />
<line x1="41.27976239644088" x2="41.27976239644088" y1="198" y2="210" />
</g>
</g>
<text fill="hsl(205, 100%, 40%)" y="242">nondet.shallow.32.mp 3.85 ms</text>
<g>
<title>3.85 ms ± 108 μs</title>
<rect y="248" rx="5" height="22" width="102.5638307113833" fill="hsl(205, 100%, 80%)" stroke="hsl(205, 100%, 55%)" />
<g stroke="hsl(205, 100%, 40%)"><line x1="99.68378758574818" x2="105.44387383701843" y1="259" y2="259" />
<line x1="99.68378758574818" x2="99.68378758574818" y1="253" y2="265" />
<line x1="105.44387383701843" x2="105.44387383701843" y1="253" y2="265" />
</g>
</g>
<g fill="hsl(257, 100%, 40%)">
<text y="297">nondet.shallow.32.eff</text>
<text y="297" x="884.7870295861644" text-anchor="end">33.2 ms</text>
</g>
<g>
<title>33.2 ms ± 2.1 ms</title>
<rect y="303" rx="5" height="22" width="884.7870295861644" fill="hsl(257, 100%, 80%)" stroke="hsl(257, 100%, 55%)" />
<g stroke="hsl(257, 100%, 40%)"><line x1="829.5740591723288" x2="940.0" y1="314" y2="314" />
<line x1="829.5740591723288" x2="829.5740591723288" y1="308" y2="320" />
<line x1="940.0" x2="940.0" y1="308" y2="320" />
</g>
</g>
<text fill="hsl(308, 100%, 40%)" y="352">nondet.shallow.32.mtl-logict 1.32 ms</text>
<g>
<title>1.32 ms ±  47 μs</title>
<rect y="358" rx="5" height="22" width="35.174078214633646" fill="hsl(308, 100%, 80%)" stroke="hsl(308, 100%, 55%)" />
<g stroke="hsl(308, 100%, 40%)"><line x1="33.92155817926278" x2="36.42659825000451" y1="369" y2="369" />
<line x1="33.92155817926278" x2="33.92155817926278" y1="363" y2="375" />
<line x1="36.42659825000451" x2="36.42659825000451" y1="363" y2="375" />
</g>
</g>
</g>
</svg>
