<svg xmlns="http://www.w3.org/2000/svg" height="392" width="960.0" font-size="16" font-family="sans-serif" stroke-width="2">
<g transform="translate(10.0 0)">
<text fill="hsl(0, 100%, 40%)" y="22">nondet.shallow.32.heftia 6.98 ms</text>
<g>
<title>6.98 ms ± 442 μs</title>
<rect y="28" rx="5" height="22" width="182.66085450185918" fill="hsl(0, 100%, 80%)" stroke="hsl(0, 100%, 55%)" />
<g stroke="hsl(0, 100%, 40%)"><line x1="171.11281929037958" x2="194.20888971333878" y1="39" y2="39" />
<line x1="171.11281929037958" x2="171.11281929037958" y1="33" y2="45" />
<line x1="194.20888971333878" x2="194.20888971333878" y1="33" y2="45" />
</g>
</g>
<text fill="hsl(51, 100%, 40%)" y="77">nondet.shallow.32.freer 6.11 ms</text>
<g>
<title>6.11 ms ± 518 μs</title>
<rect y="83" rx="5" height="22" width="159.8167083556218" fill="hsl(51, 100%, 80%)" stroke="hsl(51, 100%, 55%)" />
<g stroke="hsl(51, 100%, 40%)"><line x1="146.2704787604444" x2="173.36293795079922" y1="94" y2="94" />
<line x1="146.2704787604444" x2="146.2704787604444" y1="88" y2="100" />
<line x1="173.36293795079922" x2="173.36293795079922" y1="88" y2="100" />
</g>
</g>
<text fill="hsl(102, 100%, 40%)" y="132">nondet.shallow.32.fused 1.49 ms</text>
<g>
<title>1.49 ms ±  51 μs</title>
<rect y="138" rx="5" height="22" width="38.85748479623487" fill="hsl(102, 100%, 80%)" stroke="hsl(102, 100%, 55%)" />
<g stroke="hsl(102, 100%, 40%)"><line x1="37.512898078641946" x2="40.202071513827796" y1="149" y2="149" />
<line x1="37.512898078641946" x2="37.512898078641946" y1="143" y2="155" />
<line x1="40.202071513827796" x2="40.202071513827796" y1="143" y2="155" />
</g>
</g>
<text fill="hsl(154, 100%, 40%)" y="187">nondet.shallow.32.ev 1.37 ms</text>
<g>
<title>1.37 ms ± 132 μs</title>
<rect y="193" rx="5" height="22" width="35.732012017703774" fill="hsl(154, 100%, 80%)" stroke="hsl(154, 100%, 55%)" />
<g stroke="hsl(154, 100%, 40%)"><line x1="32.28104713521914" x2="39.18297690018841" y1="204" y2="204" />
<line x1="32.28104713521914" x2="32.28104713521914" y1="198" y2="210" />
<line x1="39.18297690018841" x2="39.18297690018841" y1="198" y2="210" />
</g>
</g>
<text fill="hsl(205, 100%, 40%)" y="242">nondet.shallow.32.mp 3.89 ms</text>
<g>
<title>3.89 ms ± 222 μs</title>
<rect y="248" rx="5" height="22" width="101.77038339921499" fill="hsl(205, 100%, 80%)" stroke="hsl(205, 100%, 55%)" />
<g stroke="hsl(205, 100%, 40%)"><line x1="95.96801069524952" x2="107.57275610318047" y1="259" y2="259" />
<line x1="95.96801069524952" x2="95.96801069524952" y1="253" y2="265" />
<line x1="107.57275610318047" x2="107.57275610318047" y1="253" y2="265" />
</g>
</g>
<g fill="hsl(257, 100%, 40%)">
<text y="297">nondet.shallow.32.eff</text>
<text y="297" x="883.7553331563105" text-anchor="end">33.8 ms</text>
</g>
<g>
<title>33.8 ms ± 2.2 ms</title>
<rect y="303" rx="5" height="22" width="883.7553331563105" fill="hsl(257, 100%, 80%)" stroke="hsl(257, 100%, 55%)" />
<g stroke="hsl(257, 100%, 40%)"><line x1="827.510666312621" x2="940.0" y1="314" y2="314" />
<line x1="827.510666312621" x2="827.510666312621" y1="308" y2="320" />
<line x1="940.0" x2="940.0" y1="308" y2="320" />
</g>
</g>
<text fill="hsl(308, 100%, 40%)" y="352">nondet.shallow.32.mtl-logict 1.33 ms</text>
<g>
<title>1.33 ms ± 115 μs</title>
<rect y="358" rx="5" height="22" width="34.87901614083575" fill="hsl(308, 100%, 80%)" stroke="hsl(308, 100%, 55%)" />
<g stroke="hsl(308, 100%, 40%)"><line x1="31.875913297286466" x2="37.88211898438504" y1="369" y2="369" />
<line x1="31.875913297286466" x2="31.875913297286466" y1="363" y2="375" />
<line x1="37.88211898438504" x2="37.88211898438504" y1="363" y2="375" />
</g>
</g>
</g>
</svg>
