<svg xmlns="http://www.w3.org/2000/svg" height="392" width="960.0" font-size="16" font-family="sans-serif" stroke-width="2">
<g transform="translate(10.0 0)">
<text fill="hsl(0, 100%, 40%)" y="22">nondet.deep.32.heftia.5+5 9.66 ms</text>
<g>
<title>9.66 ms ± 742 μs</title>
<rect y="28" rx="5" height="22" width="127.53358353640371" fill="hsl(0, 100%, 80%)" stroke="hsl(0, 100%, 55%)" />
<g stroke="hsl(0, 100%, 40%)"><line x1="117.73918918232059" x2="137.32797789048684" y1="39" y2="39" />
<line x1="117.73918918232059" x2="117.73918918232059" y1="33" y2="45" />
<line x1="137.32797789048684" x2="137.32797789048684" y1="33" y2="45" />
</g>
</g>
<text fill="hsl(51, 100%, 40%)" y="77">nondet.deep.32.freer.5+5 9.44 ms</text>
<g>
<title>9.44 ms ± 771 μs</title>
<rect y="83" rx="5" height="22" width="124.68401963299586" fill="hsl(51, 100%, 80%)" stroke="hsl(51, 100%, 55%)" />
<g stroke="hsl(51, 100%, 40%)"><line x1="114.50303291282873" x2="134.86500635316298" y1="94" y2="94" />
<line x1="114.50303291282873" x2="114.50303291282873" y1="88" y2="100" />
<line x1="134.86500635316298" x2="134.86500635316298" y1="88" y2="100" />
</g>
</g>
<text fill="hsl(102, 100%, 40%)" y="132">nondet.deep.32.fused.5+5 12.4 ms</text>
<g>
<title>12.4 ms ± 921 μs</title>
<rect y="138" rx="5" height="22" width="164.4069170777211" fill="hsl(102, 100%, 80%)" stroke="hsl(102, 100%, 55%)" />
<g stroke="hsl(102, 100%, 40%)"><line x1="152.2398816842651" x2="176.57395247117708" y1="149" y2="149" />
<line x1="152.2398816842651" x2="152.2398816842651" y1="143" y2="155" />
<line x1="176.57395247117708" x2="176.57395247117708" y1="143" y2="155" />
</g>
</g>
<text fill="hsl(154, 100%, 40%)" y="187">nondet.deep.32.ev.5+5 2.90 ms</text>
<g>
<title>2.90 ms ± 192 μs</title>
<rect y="193" rx="5" height="22" width="38.29186455231018" fill="hsl(154, 100%, 80%)" stroke="hsl(154, 100%, 55%)" />
<g stroke="hsl(154, 100%, 40%)"><line x1="35.75982761840981" x2="40.82390148621055" y1="204" y2="204" />
<line x1="35.75982761840981" x2="35.75982761840981" y1="198" y2="210" />
<line x1="40.82390148621055" x2="40.82390148621055" y1="198" y2="210" />
</g>
</g>
<text fill="hsl(205, 100%, 40%)" y="242">nondet.deep.32.mp.5+5 10.3 ms</text>
<g>
<title>10.3 ms ± 824 μs</title>
<rect y="248" rx="5" height="22" width="136.56505846456366" fill="hsl(205, 100%, 80%)" stroke="hsl(205, 100%, 55%)" />
<g stroke="hsl(205, 100%, 40%)"><line x1="125.68453901561139" x2="147.44557791351593" y1="259" y2="259" />
<line x1="125.68453901561139" x2="125.68453901561139" y1="253" y2="265" />
<line x1="147.44557791351593" x2="147.44557791351593" y1="253" y2="265" />
</g>
</g>
<g fill="hsl(257, 100%, 40%)">
<text y="297">nondet.deep.32.eff.5+5</text>
<text y="297" x="886.9323723038957" text-anchor="end">67.2 ms</text>
</g>
<g>
<title>67.2 ms ± 4.0 ms</title>
<rect y="303" rx="5" height="22" width="886.9323723038957" fill="hsl(257, 100%, 80%)" stroke="hsl(257, 100%, 55%)" />
<g stroke="hsl(257, 100%, 40%)"><line x1="833.8647446077914" x2="940.0" y1="314" y2="314" />
<line x1="833.8647446077914" x2="833.8647446077914" y1="308" y2="320" />
<line x1="940.0" x2="940.0" y1="308" y2="320" />
</g>
</g>
<text fill="hsl(308, 100%, 40%)" y="352">nondet.deep.32.mtl-logict.5+5 8.45 ms</text>
<g>
<title>8.45 ms ± 760 μs</title>
<rect y="358" rx="5" height="22" width="111.62505494981471" fill="hsl(308, 100%, 80%)" stroke="hsl(308, 100%, 55%)" />
<g stroke="hsl(308, 100%, 40%)"><line x1="101.5947504679597" x2="121.65535943166972" y1="369" y2="369" />
<line x1="101.5947504679597" x2="101.5947504679597" y1="363" y2="375" />
<line x1="121.65535943166972" x2="121.65535943166972" y1="363" y2="375" />
</g>
</g>
</g>
</svg>
