<svg xmlns="http://www.w3.org/2000/svg" height="392" width="960.0" font-size="16" font-family="sans-serif" stroke-width="2">
<g transform="translate(10.0 0)">
<text fill="hsl(0, 100%, 40%)" y="22">nondet.shallow.32.heftia 7.22 ms</text>
<g>
<title>7.22 ms ± 354 μs</title>
<rect y="28" rx="5" height="22" width="182.45260977209765" fill="hsl(0, 100%, 80%)" stroke="hsl(0, 100%, 55%)" />
<g stroke="hsl(0, 100%, 40%)"><line x1="173.5084272327776" x2="191.3967923114177" y1="39" y2="39" />
<line x1="173.5084272327776" x2="173.5084272327776" y1="33" y2="45" />
<line x1="191.3967923114177" x2="191.3967923114177" y1="33" y2="45" />
</g>
</g>
<text fill="hsl(51, 100%, 40%)" y="77">nondet.shallow.32.freer 5.85 ms</text>
<g>
<title>5.85 ms ± 505 μs</title>
<rect y="83" rx="5" height="22" width="147.8609565269108" fill="hsl(51, 100%, 80%)" stroke="hsl(51, 100%, 55%)" />
<g stroke="hsl(51, 100%, 40%)"><line x1="135.11145390619293" x2="160.61045914762866" y1="94" y2="94" />
<line x1="135.11145390619293" x2="135.11145390619293" y1="88" y2="100" />
<line x1="160.61045914762866" x2="160.61045914762866" y1="88" y2="100" />
</g>
</g>
<text fill="hsl(102, 100%, 40%)" y="132">nondet.shallow.32.fused 1.68 ms</text>
<g>
<title>1.68 ms ±  56 μs</title>
<rect y="138" rx="5" height="22" width="42.35677987134957" fill="hsl(102, 100%, 80%)" stroke="hsl(102, 100%, 55%)" />
<g stroke="hsl(102, 100%, 40%)"><line x1="40.93190587942146" x2="43.78165386327769" y1="149" y2="149" />
<line x1="40.93190587942146" x2="40.93190587942146" y1="143" y2="155" />
<line x1="43.78165386327769" x2="43.78165386327769" y1="143" y2="155" />
</g>
</g>
<text fill="hsl(154, 100%, 40%)" y="187">nondet.shallow.32.ev 1.42 ms</text>
<g>
<title>1.42 ms ±  99 μs</title>
<rect y="193" rx="5" height="22" width="35.93040321451199" fill="hsl(154, 100%, 80%)" stroke="hsl(154, 100%, 55%)" />
<g stroke="hsl(154, 100%, 40%)"><line x1="33.438903593752684" x2="38.4219028352713" y1="204" y2="204" />
<line x1="33.438903593752684" x2="33.438903593752684" y1="198" y2="210" />
<line x1="38.4219028352713" x2="38.4219028352713" y1="198" y2="210" />
</g>
</g>
<text fill="hsl(205, 100%, 40%)" y="242">nondet.shallow.32.mp 4.15 ms</text>
<g>
<title>4.15 ms ± 245 μs</title>
<rect y="248" rx="5" height="22" width="104.7123395754496" fill="hsl(205, 100%, 80%)" stroke="hsl(205, 100%, 55%)" />
<g stroke="hsl(205, 100%, 40%)"><line x1="98.51570806688954" x2="110.90897108400966" y1="259" y2="259" />
<line x1="98.51570806688954" x2="98.51570806688954" y1="253" y2="265" />
<line x1="110.90897108400966" x2="110.90897108400966" y1="253" y2="265" />
</g>
</g>
<g fill="hsl(257, 100%, 40%)">
<text y="297">nondet.shallow.32.eff</text>
<text y="297" x="867.7731201398138" text-anchor="end">34.4 ms</text>
</g>
<g>
<title>34.4 ms ± 2.9 ms</title>
<rect y="303" rx="5" height="22" width="867.7731201398138" fill="hsl(257, 100%, 80%)" stroke="hsl(257, 100%, 55%)" />
<g stroke="hsl(257, 100%, 40%)"><line x1="795.5462402796277" x2="940.0" y1="314" y2="314" />
<line x1="795.5462402796277" x2="795.5462402796277" y1="308" y2="320" />
<line x1="940.0" x2="940.0" y1="308" y2="320" />
</g>
</g>
<text fill="hsl(308, 100%, 40%)" y="352">nondet.shallow.32.mtl-logict 1.28 ms</text>
<g>
<title>1.28 ms ± 128 μs</title>
<rect y="358" rx="5" height="22" width="32.38655104488263" fill="hsl(308, 100%, 80%)" stroke="hsl(308, 100%, 55%)" />
<g stroke="hsl(308, 100%, 40%)"><line x1="29.1497661833966" x2="35.62333590636866" y1="369" y2="369" />
<line x1="29.1497661833966" x2="29.1497661833966" y1="363" y2="375" />
<line x1="35.62333590636866" x2="35.62333590636866" y1="363" y2="375" />
</g>
</g>
</g>
</svg>
