<svg xmlns="http://www.w3.org/2000/svg" height="392" width="960.0" font-size="16" font-family="sans-serif" stroke-width="2">
<g transform="translate(10.0 0)">
<g fill="hsl(0, 100%, 40%)">
<text y="22">nondet.deep.32.heftia.5+5</text>
<text y="22" x="268.29244551586936" text-anchor="end">19.7 ms</text>
</g>
<g>
<title>19.7 ms ± 1.3 ms</title>
<rect y="28" rx="5" height="22" width="268.29244551586936" fill="hsl(0, 100%, 80%)" stroke="hsl(0, 100%, 55%)" />
<g stroke="hsl(0, 100%, 40%)"><line x1="251.00657776443194" x2="285.5783132673068" y1="39" y2="39" />
<line x1="251.00657776443194" x2="251.00657776443194" y1="33" y2="45" />
<line x1="285.5783132673068" x2="285.5783132673068" y1="33" y2="45" />
</g>
</g>
<text fill="hsl(51, 100%, 40%)" y="77">nondet.deep.32.freer.5+5 9.83 ms</text>
<g>
<title>9.83 ms ± 851 μs</title>
<rect y="83" rx="5" height="22" width="133.9583164419539" fill="hsl(51, 100%, 80%)" stroke="hsl(51, 100%, 55%)" />
<g stroke="hsl(51, 100%, 40%)"><line x1="122.37087275736636" x2="145.54576012654147" y1="94" y2="94" />
<line x1="122.37087275736636" x2="122.37087275736636" y1="88" y2="100" />
<line x1="145.54576012654147" x2="145.54576012654147" y1="88" y2="100" />
</g>
</g>
<text fill="hsl(102, 100%, 40%)" y="132">nondet.deep.32.fused.5+5 12.2 ms</text>
<g>
<title>12.2 ms ± 731 μs</title>
<rect y="138" rx="5" height="22" width="165.60439131744735" fill="hsl(102, 100%, 80%)" stroke="hsl(102, 100%, 55%)" />
<g stroke="hsl(102, 100%, 40%)"><line x1="155.65116519633855" x2="175.55761743855615" y1="149" y2="149" />
<line x1="155.65116519633855" x2="155.65116519633855" y1="143" y2="155" />
<line x1="175.55761743855615" x2="175.55761743855615" y1="143" y2="155" />
</g>
</g>
<text fill="hsl(154, 100%, 40%)" y="187">nondet.deep.32.ev.5+5 2.61 ms</text>
<g>
<title>2.61 ms ±  93 μs</title>
<rect y="193" rx="5" height="22" width="35.54846509794968" fill="hsl(154, 100%, 80%)" stroke="hsl(154, 100%, 55%)" />
<g stroke="hsl(154, 100%, 40%)"><line x1="34.2772844238939" x2="36.81964577200546" y1="204" y2="204" />
<line x1="34.2772844238939" x2="34.2772844238939" y1="198" y2="210" />
<line x1="36.81964577200546" x2="36.81964577200546" y1="198" y2="210" />
</g>
</g>
<text fill="hsl(205, 100%, 40%)" y="242">nondet.deep.32.mp.5+5 9.89 ms</text>
<g>
<title>9.89 ms ± 809 μs</title>
<rect y="248" rx="5" height="22" width="134.70005668616028" fill="hsl(205, 100%, 80%)" stroke="hsl(205, 100%, 55%)" />
<g stroke="hsl(205, 100%, 40%)"><line x1="123.67598231232807" x2="145.7241310599925" y1="259" y2="259" />
<line x1="123.67598231232807" x2="123.67598231232807" y1="253" y2="265" />
<line x1="145.7241310599925" x2="145.7241310599925" y1="253" y2="265" />
</g>
</g>
<g fill="hsl(257, 100%, 40%)">
<text y="297">nondet.deep.32.eff.5+5</text>
<text y="297" x="912.6336190358161" text-anchor="end">67.0 ms</text>
</g>
<g>
<title>67.0 ms ± 2.0 ms</title>
<rect y="303" rx="5" height="22" width="912.6336190358161" fill="hsl(257, 100%, 80%)" stroke="hsl(257, 100%, 55%)" />
<g stroke="hsl(257, 100%, 40%)"><line x1="885.2672380716322" x2="940.0" y1="314" y2="314" />
<line x1="885.2672380716322" x2="885.2672380716322" y1="308" y2="320" />
<line x1="940.0" x2="940.0" y1="308" y2="320" />
</g>
</g>
<text fill="hsl(308, 100%, 40%)" y="352">nondet.deep.32.mtl-logict.5+5 8.07 ms</text>
<g>
<title>8.07 ms ± 683 μs</title>
<rect y="358" rx="5" height="22" width="110.00017651422343" fill="hsl(308, 100%, 80%)" stroke="hsl(308, 100%, 55%)" />
<g stroke="hsl(308, 100%, 40%)"><line x1="100.68877816327836" x2="119.3115748651685" y1="369" y2="369" />
<line x1="100.68877816327836" x2="100.68877816327836" y1="363" y2="375" />
<line x1="119.3115748651685" x2="119.3115748651685" y1="363" y2="375" />
</g>
</g>
</g>
</svg>
