<svg xmlns="http://www.w3.org/2000/svg" height="392" width="960.0" font-size="16" font-family="sans-serif" stroke-width="2">
<g transform="translate(10.0 0)">
<text fill="hsl(0, 100%, 40%)" y="22">nondet.shallow.32.heftia 3.77 ms</text>
<g>
<title>3.77 ms ± 360 μs</title>
<rect y="28" rx="5" height="22" width="101.63898776483424" fill="hsl(0, 100%, 80%)" stroke="hsl(0, 100%, 55%)" />
<g stroke="hsl(0, 100%, 40%)"><line x1="91.93163188230253" x2="111.34634364736596" y1="39" y2="39" />
<line x1="91.93163188230253" x2="91.93163188230253" y1="33" y2="45" />
<line x1="111.34634364736596" x2="111.34634364736596" y1="33" y2="45" />
</g>
</g>
<text fill="hsl(51, 100%, 40%)" y="77">nondet.shallow.32.freer 5.71 ms</text>
<g>
<title>5.71 ms ± 456 μs</title>
<rect y="83" rx="5" height="22" width="153.7683324890973" fill="hsl(51, 100%, 80%)" stroke="hsl(51, 100%, 55%)" />
<g stroke="hsl(51, 100%, 40%)"><line x1="141.47021275885308" x2="166.06645221934153" y1="94" y2="94" />
<line x1="141.47021275885308" x2="141.47021275885308" y1="88" y2="100" />
<line x1="166.06645221934153" x2="166.06645221934153" y1="88" y2="100" />
</g>
</g>
<text fill="hsl(102, 100%, 40%)" y="132">nondet.shallow.32.fused 1.51 ms</text>
<g>
<title>1.51 ms ± 108 μs</title>
<rect y="138" rx="5" height="22" width="40.78820185524219" fill="hsl(102, 100%, 80%)" stroke="hsl(102, 100%, 55%)" />
<g stroke="hsl(102, 100%, 40%)"><line x1="37.86534443591494" x2="43.71105927456944" y1="149" y2="149" />
<line x1="37.86534443591494" x2="37.86534443591494" y1="143" y2="155" />
<line x1="43.71105927456944" x2="43.71105927456944" y1="143" y2="155" />
</g>
</g>
<text fill="hsl(154, 100%, 40%)" y="187">nondet.shallow.32.ev 1.44 ms</text>
<g>
<title>1.44 ms ±  91 μs</title>
<rect y="193" rx="5" height="22" width="38.88221915249381" fill="hsl(154, 100%, 80%)" stroke="hsl(154, 100%, 55%)" />
<g stroke="hsl(154, 100%, 40%)"><line x1="36.44264273330832" x2="41.3217955716793" y1="204" y2="204" />
<line x1="36.44264273330832" x2="36.44264273330832" y1="198" y2="210" />
<line x1="41.3217955716793" x2="41.3217955716793" y1="198" y2="210" />
</g>
</g>
<text fill="hsl(205, 100%, 40%)" y="242">nondet.shallow.32.mp 3.86 ms</text>
<g>
<title>3.86 ms ± 233 μs</title>
<rect y="248" rx="5" height="22" width="104.08191781714002" fill="hsl(205, 100%, 80%)" stroke="hsl(205, 100%, 55%)" />
<g stroke="hsl(205, 100%, 40%)"><line x1="97.80503565246048" x2="110.35879998181957" y1="259" y2="259" />
<line x1="97.80503565246048" x2="97.80503565246048" y1="253" y2="265" />
<line x1="110.35879998181957" x2="110.35879998181957" y1="253" y2="265" />
</g>
</g>
<g fill="hsl(257, 100%, 40%)">
<text y="297">nondet.shallow.32.eff</text>
<text y="297" x="869.6964080516553" text-anchor="end">32.3 ms</text>
</g>
<g>
<title>32.3 ms ± 2.6 ms</title>
<rect y="303" rx="5" height="22" width="869.6964080516553" fill="hsl(257, 100%, 80%)" stroke="hsl(257, 100%, 55%)" />
<g stroke="hsl(257, 100%, 40%)"><line x1="799.3928161033107" x2="940.0" y1="314" y2="314" />
<line x1="799.3928161033107" x2="799.3928161033107" y1="308" y2="320" />
<line x1="940.0" x2="940.0" y1="308" y2="320" />
</g>
</g>
<text fill="hsl(308, 100%, 40%)" y="352">nondet.shallow.32.mtl-logict 1.26 ms</text>
<g>
<title>1.26 ms ± 119 μs</title>
<rect y="358" rx="5" height="22" width="34.07411497332791" fill="hsl(308, 100%, 80%)" stroke="hsl(308, 100%, 55%)" />
<g stroke="hsl(308, 100%, 40%)"><line x1="30.853768362316647" x2="37.294461584339174" y1="369" y2="369" />
<line x1="30.853768362316647" x2="30.853768362316647" y1="363" y2="375" />
<line x1="37.294461584339174" x2="37.294461584339174" y1="363" y2="375" />
</g>
</g>
</g>
</svg>
