<svg xmlns="http://www.w3.org/2000/svg" height="392" width="960.0" font-size="16" font-family="sans-serif" stroke-width="2">
<g transform="translate(10.0 0)">
<text fill="hsl(0, 100%, 40%)" y="22">nondet.deep.32.heftia.5+5 9.68 ms</text>
<g>
<title>9.68 ms ± 751 μs</title>
<rect y="28" rx="5" height="22" width="118.55012425262224" fill="hsl(0, 100%, 80%)" stroke="hsl(0, 100%, 55%)" />
<g stroke="hsl(0, 100%, 40%)"><line x1="109.3429459779239" x2="127.75730252732058" y1="39" y2="39" />
<line x1="109.3429459779239" x2="109.3429459779239" y1="33" y2="45" />
<line x1="127.75730252732058" x2="127.75730252732058" y1="33" y2="45" />
</g>
</g>
<text fill="hsl(51, 100%, 40%)" y="77">nondet.deep.32.freer.5+5 9.72 ms</text>
<g>
<title>9.72 ms ± 684 μs</title>
<rect y="83" rx="5" height="22" width="119.05294849864347" fill="hsl(51, 100%, 80%)" stroke="hsl(51, 100%, 55%)" />
<g stroke="hsl(51, 100%, 40%)"><line x1="110.67803938329448" x2="127.42785761399247" y1="94" y2="94" />
<line x1="110.67803938329448" x2="110.67803938329448" y1="88" y2="100" />
<line x1="127.42785761399247" x2="127.42785761399247" y1="88" y2="100" />
</g>
</g>
<text fill="hsl(102, 100%, 40%)" y="132">nondet.deep.32.fused.5+5 15.3 ms</text>
<g>
<title>15.3 ms ± 1.4 ms</title>
<rect y="138" rx="5" height="22" width="187.1816435548652" fill="hsl(102, 100%, 80%)" stroke="hsl(102, 100%, 55%)" />
<g stroke="hsl(102, 100%, 40%)"><line x1="169.7424414170969" x2="204.62084569263348" y1="149" y2="149" />
<line x1="169.7424414170969" x2="169.7424414170969" y1="143" y2="155" />
<line x1="204.62084569263348" x2="204.62084569263348" y1="143" y2="155" />
</g>
</g>
<text fill="hsl(154, 100%, 40%)" y="187">nondet.deep.32.ev.5+5 2.83 ms</text>
<g>
<title>2.83 ms ±  34 μs</title>
<rect y="193" rx="5" height="22" width="34.68023204608766" fill="hsl(154, 100%, 80%)" stroke="hsl(154, 100%, 55%)" />
<g stroke="hsl(154, 100%, 40%)"><line x1="34.2658314415646" x2="35.09463265061072" y1="204" y2="204" />
<line x1="34.2658314415646" x2="34.2658314415646" y1="198" y2="210" />
<line x1="35.09463265061072" x2="35.09463265061072" y1="198" y2="210" />
</g>
</g>
<text fill="hsl(205, 100%, 40%)" y="242">nondet.deep.32.mp.5+5 10.3 ms</text>
<g>
<title>10.3 ms ± 715 μs</title>
<rect y="248" rx="5" height="22" width="126.55377554334193" fill="hsl(205, 100%, 80%)" stroke="hsl(205, 100%, 55%)" />
<g stroke="hsl(205, 100%, 40%)"><line x1="117.79209258761564" x2="135.31545849906823" y1="259" y2="259" />
<line x1="117.79209258761564" x2="117.79209258761564" y1="253" y2="265" />
<line x1="135.31545849906823" x2="135.31545849906823" y1="253" y2="265" />
</g>
</g>
<g fill="hsl(257, 100%, 40%)">
<text y="297">nondet.deep.32.eff.5+5</text>
<text y="297" x="896.8580515007781" text-anchor="end">73.2 ms</text>
</g>
<g>
<title>73.2 ms ± 3.5 ms</title>
<rect y="303" rx="5" height="22" width="896.8580515007781" fill="hsl(257, 100%, 80%)" stroke="hsl(257, 100%, 55%)" />
<g stroke="hsl(257, 100%, 40%)"><line x1="853.7161030015561" x2="940.0" y1="314" y2="314" />
<line x1="853.7161030015561" x2="853.7161030015561" y1="308" y2="320" />
<line x1="940.0" x2="940.0" y1="308" y2="320" />
</g>
</g>
<text fill="hsl(308, 100%, 40%)" y="352">nondet.deep.32.mtl-logict.5+5 8.87 ms</text>
<g>
<title>8.87 ms ± 746 μs</title>
<rect y="358" rx="5" height="22" width="108.65558642637782" fill="hsl(308, 100%, 80%)" stroke="hsl(308, 100%, 55%)" />
<g stroke="hsl(308, 100%, 40%)"><line x1="99.51336383957519" x2="117.79780901318045" y1="369" y2="369" />
<line x1="99.51336383957519" x2="99.51336383957519" y1="363" y2="375" />
<line x1="117.79780901318045" x2="117.79780901318045" y1="363" y2="375" />
</g>
</g>
</g>
</svg>
