<svg xmlns="http://www.w3.org/2000/svg" height="392" width="960.0" font-size="16" font-family="sans-serif" stroke-width="2">
<g transform="translate(10.0 0)">
<text fill="hsl(0, 100%, 40%)" y="22">nondet.deep.32.heftia.5+5 9.49 ms</text>
<g>
<title>9.49 ms ± 365 μs</title>
<rect y="28" rx="5" height="22" width="122.93345677724413" fill="hsl(0, 100%, 80%)" stroke="hsl(0, 100%, 55%)" />
<g stroke="hsl(0, 100%, 40%)"><line x1="118.20473994733108" x2="127.66217360715719" y1="39" y2="39" />
<line x1="118.20473994733108" x2="118.20473994733108" y1="33" y2="45" />
<line x1="127.66217360715719" x2="127.66217360715719" y1="33" y2="45" />
</g>
</g>
<text fill="hsl(51, 100%, 40%)" y="77">nondet.deep.32.freer.5+5 9.28 ms</text>
<g>
<title>9.28 ms ± 612 μs</title>
<rect y="83" rx="5" height="22" width="120.20455780571959" fill="hsl(51, 100%, 80%)" stroke="hsl(51, 100%, 55%)" />
<g stroke="hsl(51, 100%, 40%)"><line x1="112.2729527631819" x2="128.13616284825727" y1="94" y2="94" />
<line x1="112.2729527631819" x2="112.2729527631819" y1="88" y2="100" />
<line x1="128.13616284825727" x2="128.13616284825727" y1="88" y2="100" />
</g>
</g>
<text fill="hsl(102, 100%, 40%)" y="132">nondet.deep.32.fused.5+5 12.8 ms</text>
<g>
<title>12.8 ms ± 921 μs</title>
<rect y="138" rx="5" height="22" width="166.34217322916118" fill="hsl(102, 100%, 80%)" stroke="hsl(102, 100%, 55%)" />
<g stroke="hsl(102, 100%, 40%)"><line x1="154.42022095776258" x2="178.26412550055977" y1="149" y2="149" />
<line x1="154.42022095776258" x2="154.42022095776258" y1="143" y2="155" />
<line x1="178.26412550055977" x2="178.26412550055977" y1="143" y2="155" />
</g>
</g>
<text fill="hsl(154, 100%, 40%)" y="187">nondet.deep.32.ev.5+5 2.76 ms</text>
<g>
<title>2.76 ms ± 236 μs</title>
<rect y="193" rx="5" height="22" width="35.71652455519346" fill="hsl(154, 100%, 80%)" stroke="hsl(154, 100%, 55%)" />
<g stroke="hsl(154, 100%, 40%)"><line x1="32.65642218824366" x2="38.77662692214326" y1="204" y2="204" />
<line x1="32.65642218824366" x2="32.65642218824366" y1="198" y2="210" />
<line x1="38.77662692214326" x2="38.77662692214326" y1="198" y2="210" />
</g>
</g>
<text fill="hsl(205, 100%, 40%)" y="242">nondet.deep.32.mp.5+5 10.2 ms</text>
<g>
<title>10.2 ms ± 684 μs</title>
<rect y="248" rx="5" height="22" width="132.56604983837423" fill="hsl(205, 100%, 80%)" stroke="hsl(205, 100%, 55%)" />
<g stroke="hsl(205, 100%, 40%)"><line x1="123.70980441650153" x2="141.42229526024693" y1="259" y2="259" />
<line x1="123.70980441650153" x2="123.70980441650153" y1="253" y2="265" />
<line x1="141.42229526024693" x2="141.42229526024693" y1="253" y2="265" />
</g>
</g>
<g fill="hsl(257, 100%, 40%)">
<text y="297">nondet.deep.32.eff.5+5</text>
<text y="297" x="889.2205161575783" text-anchor="end">68.7 ms</text>
</g>
<g>
<title>68.7 ms ± 3.9 ms</title>
<rect y="303" rx="5" height="22" width="889.2205161575783" fill="hsl(257, 100%, 80%)" stroke="hsl(257, 100%, 55%)" />
<g stroke="hsl(257, 100%, 40%)"><line x1="838.4410323151567" x2="940.0" y1="314" y2="314" />
<line x1="838.4410323151567" x2="838.4410323151567" y1="308" y2="320" />
<line x1="940.0" x2="940.0" y1="308" y2="320" />
</g>
</g>
<text fill="hsl(308, 100%, 40%)" y="352">nondet.deep.32.mtl-logict.5+5 8.51 ms</text>
<g>
<title>8.51 ms ± 726 μs</title>
<rect y="358" rx="5" height="22" width="110.25926075690225" fill="hsl(308, 100%, 80%)" stroke="hsl(308, 100%, 55%)" />
<g stroke="hsl(308, 100%, 40%)"><line x1="100.8598871134357" x2="119.6586344003688" y1="369" y2="369" />
<line x1="100.8598871134357" x2="100.8598871134357" y1="363" y2="375" />
<line x1="119.6586344003688" x2="119.6586344003688" y1="363" y2="375" />
</g>
</g>
</g>
</svg>
