<svg xmlns="http://www.w3.org/2000/svg" height="392" width="960.0" font-size="16" font-family="sans-serif" stroke-width="2">
<g transform="translate(10.0 0)">
<text fill="hsl(0, 100%, 40%)" y="22">nondet.shallow.32.heftia 3.51 ms</text>
<g>
<title>3.51 ms ± 343 μs</title>
<rect y="28" rx="5" height="22" width="93.3558673054801" fill="hsl(0, 100%, 80%)" stroke="hsl(0, 100%, 55%)" />
<g stroke="hsl(0, 100%, 40%)"><line x1="84.2395819542169" x2="102.4721526567433" y1="39" y2="39" />
<line x1="84.2395819542169" x2="84.2395819542169" y1="33" y2="45" />
<line x1="102.4721526567433" x2="102.4721526567433" y1="33" y2="45" />
</g>
</g>
<text fill="hsl(51, 100%, 40%)" y="77">nondet.shallow.32.freer 5.94 ms</text>
<g>
<title>5.94 ms ± 374 μs</title>
<rect y="83" rx="5" height="22" width="158.00949593370797" fill="hsl(51, 100%, 80%)" stroke="hsl(51, 100%, 55%)" />
<g stroke="hsl(51, 100%, 40%)"><line x1="148.05545479245671" x2="167.96353707495922" y1="94" y2="94" />
<line x1="148.05545479245671" x2="148.05545479245671" y1="88" y2="100" />
<line x1="167.96353707495922" x2="167.96353707495922" y1="88" y2="100" />
</g>
</g>
<text fill="hsl(102, 100%, 40%)" y="132">nondet.shallow.32.fused 1.56 ms</text>
<g>
<title>1.56 ms ± 107 μs</title>
<rect y="138" rx="5" height="22" width="41.502813662993844" fill="hsl(102, 100%, 80%)" stroke="hsl(102, 100%, 55%)" />
<g stroke="hsl(102, 100%, 40%)"><line x1="38.65847897285305" x2="44.34714835313464" y1="149" y2="149" />
<line x1="38.65847897285305" x2="38.65847897285305" y1="143" y2="155" />
<line x1="44.34714835313464" x2="44.34714835313464" y1="143" y2="155" />
</g>
</g>
<text fill="hsl(154, 100%, 40%)" y="187">nondet.shallow.32.ev 1.39 ms</text>
<g>
<title>1.39 ms ±  96 μs</title>
<rect y="193" rx="5" height="22" width="37.0020488703947" fill="hsl(154, 100%, 80%)" stroke="hsl(154, 100%, 55%)" />
<g stroke="hsl(154, 100%, 40%)"><line x1="34.454082195547905" x2="39.5500155452415" y1="204" y2="204" />
<line x1="34.454082195547905" x2="34.454082195547905" y1="198" y2="210" />
<line x1="39.5500155452415" x2="39.5500155452415" y1="198" y2="210" />
</g>
</g>
<text fill="hsl(205, 100%, 40%)" y="242">nondet.shallow.32.mp 4.00 ms</text>
<g>
<title>4.00 ms ± 192 μs</title>
<rect y="248" rx="5" height="22" width="106.39698735156072" fill="hsl(205, 100%, 80%)" stroke="hsl(205, 100%, 55%)" />
<g stroke="hsl(205, 100%, 40%)"><line x1="101.2977006963025" x2="111.49627400681895" y1="259" y2="259" />
<line x1="101.2977006963025" x2="101.2977006963025" y1="253" y2="265" />
<line x1="111.49627400681895" x2="111.49627400681895" y1="253" y2="265" />
</g>
</g>
<g fill="hsl(257, 100%, 40%)">
<text y="297">nondet.shallow.32.eff</text>
<text y="297" x="869.3330476328931" text-anchor="end">32.7 ms</text>
</g>
<g>
<title>32.7 ms ± 2.7 ms</title>
<rect y="303" rx="5" height="22" width="869.3330476328931" fill="hsl(257, 100%, 80%)" stroke="hsl(257, 100%, 55%)" />
<g stroke="hsl(257, 100%, 40%)"><line x1="798.6660952657862" x2="940.0" y1="314" y2="314" />
<line x1="798.6660952657862" x2="798.6660952657862" y1="308" y2="320" />
<line x1="940.0" x2="940.0" y1="308" y2="320" />
</g>
</g>
<text fill="hsl(308, 100%, 40%)" y="352">nondet.shallow.32.mtl-logict 1.36 ms</text>
<g>
<title>1.36 ms ± 122 μs</title>
<rect y="358" rx="5" height="22" width="36.227699739727775" fill="hsl(308, 100%, 80%)" stroke="hsl(308, 100%, 55%)" />
<g stroke="hsl(308, 100%, 40%)"><line x1="32.984104295261346" x2="39.471295184194204" y1="369" y2="369" />
<line x1="32.984104295261346" x2="32.984104295261346" y1="363" y2="375" />
<line x1="39.471295184194204" x2="39.471295184194204" y1="363" y2="375" />
</g>
</g>
</g>
</svg>
