<svg xmlns="http://www.w3.org/2000/svg" height="832" width="960.0" font-size="16" font-family="sans-serif" stroke-width="2">
<g transform="translate(10.0 0)">
<text fill="hsl(0, 100%, 40%)" y="22">catch.10000.heftia.shallow 1.22 ms</text>
<g>
<title>1.22 ms ± 107 μs</title>
<rect y="28" rx="5" height="22" width="38.9721690871998" fill="hsl(0, 100%, 80%)" stroke="hsl(0, 100%, 55%)" />
<g stroke="hsl(0, 100%, 40%)"><line x1="35.5523953015665" x2="42.391942872833106" y1="39" y2="39" />
<line x1="35.5523953015665" x2="35.5523953015665" y1="33" y2="45" />
<line x1="42.391942872833106" x2="42.391942872833106" y1="33" y2="45" />
</g>
</g>
<text fill="hsl(24, 100%, 40%)" y="77">catch.10000.heftia.deep0 1.23 ms</text>
<g>
<title>1.23 ms ± 122 μs</title>
<rect y="83" rx="5" height="22" width="39.17706918543349" fill="hsl(24, 100%, 80%)" stroke="hsl(24, 100%, 55%)" />
<g stroke="hsl(24, 100%, 40%)"><line x1="35.296802836328794" x2="43.05733553453818" y1="94" y2="94" />
<line x1="35.296802836328794" x2="35.296802836328794" y1="88" y2="100" />
<line x1="43.05733553453818" x2="43.05733553453818" y1="88" y2="100" />
</g>
</g>
<text fill="hsl(48, 100%, 40%)" y="132">catch.10000.heftia.deep1 2.01 ms</text>
<g>
<title>2.01 ms ± 185 μs</title>
<rect y="138" rx="5" height="22" width="64.16280058347489" fill="hsl(48, 100%, 80%)" stroke="hsl(48, 100%, 55%)" />
<g stroke="hsl(48, 100%, 40%)"><line x1="58.253229222383716" x2="70.07237194456607" y1="149" y2="149" />
<line x1="58.253229222383716" x2="58.253229222383716" y1="143" y2="155" />
<line x1="70.07237194456607" x2="70.07237194456607" y1="143" y2="155" />
</g>
</g>
<text fill="hsl(72, 100%, 40%)" y="187">catch.10000.heftia.deep2 2.86 ms</text>
<g>
<title>2.86 ms ± 251 μs</title>
<rect y="193" rx="5" height="22" width="91.43098097129887" fill="hsl(72, 100%, 80%)" stroke="hsl(72, 100%, 55%)" />
<g stroke="hsl(72, 100%, 40%)"><line x1="83.42664510769916" x2="99.43531683489857" y1="204" y2="204" />
<line x1="83.42664510769916" x2="83.42664510769916" y1="198" y2="210" />
<line x1="99.43531683489857" x2="99.43531683489857" y1="198" y2="210" />
</g>
</g>
<text fill="hsl(96, 100%, 40%)" y="242">catch.10000.heftia.deep3 4.03 ms</text>
<g>
<title>4.03 ms ± 203 μs</title>
<rect y="248" rx="5" height="22" width="128.72248677298958" fill="hsl(96, 100%, 80%)" stroke="hsl(96, 100%, 55%)" />
<g stroke="hsl(96, 100%, 40%)"><line x1="122.22413761452073" x2="135.22083593145842" y1="259" y2="259" />
<line x1="122.22413761452073" x2="122.22413761452073" y1="253" y2="265" />
<line x1="135.22083593145842" x2="135.22083593145842" y1="253" y2="265" />
</g>
</g>
<text fill="hsl(120, 100%, 40%)" y="297">catch.10000.heftia.deep4 5.32 ms</text>
<g>
<title>5.32 ms ± 510 μs</title>
<rect y="303" rx="5" height="22" width="169.82899184658302" fill="hsl(120, 100%, 80%)" stroke="hsl(120, 100%, 55%)" />
<g stroke="hsl(120, 100%, 40%)"><line x1="153.52758725268012" x2="186.13039644048592" y1="314" y2="314" />
<line x1="153.52758725268012" x2="153.52758725268012" y1="308" y2="320" />
<line x1="186.13039644048592" x2="186.13039644048592" y1="308" y2="320" />
</g>
</g>
<text fill="hsl(144, 100%, 40%)" y="352">catch.10000.heftia.deep5 6.55 ms</text>
<g>
<title>6.55 ms ± 523 μs</title>
<rect y="358" rx="5" height="22" width="209.17402521384471" fill="hsl(144, 100%, 80%)" stroke="hsl(144, 100%, 55%)" />
<g stroke="hsl(144, 100%, 40%)"><line x1="192.46028740191525" x2="225.88776302577418" y1="369" y2="369" />
<line x1="192.46028740191525" x2="192.46028740191525" y1="363" y2="375" />
<line x1="225.88776302577418" x2="225.88776302577418" y1="363" y2="375" />
</g>
</g>
<text fill="hsl(168, 100%, 40%)" y="407">catch.10000.polysemy.shallow 2.93 ms</text>
<g>
<title>2.93 ms ± 261 μs</title>
<rect y="413" rx="5" height="22" width="93.70583096027558" fill="hsl(168, 100%, 80%)" stroke="hsl(168, 100%, 55%)" />
<g stroke="hsl(168, 100%, 40%)"><line x1="85.37671584740391" x2="102.03494607314724" y1="424" y2="424" />
<line x1="85.37671584740391" x2="85.37671584740391" y1="418" y2="430" />
<line x1="102.03494607314724" x2="102.03494607314724" y1="418" y2="430" />
</g>
</g>
<g fill="hsl(192, 100%, 40%)">
<text y="462">catch.10000.polysemy.deep</text>
<text y="462" x="405.05156506834453" text-anchor="end">12.7 ms</text>
</g>
<g>
<title>12.7 ms ± 1.2 ms</title>
<rect y="468" rx="5" height="22" width="405.05156506834453" fill="hsl(192, 100%, 80%)" stroke="hsl(192, 100%, 55%)" />
<g stroke="hsl(192, 100%, 40%)"><line x1="368.14409057709565" x2="441.9590395595934" y1="479" y2="479" />
<line x1="368.14409057709565" x2="368.14409057709565" y1="473" y2="485" />
<line x1="441.9590395595934" x2="441.9590395595934" y1="473" y2="485" />
</g>
</g>
<text fill="hsl(216, 100%, 40%)" y="517">catch.10000.fused.shallow 4.40 ms</text>
<g>
<title>4.40 ms ± 195 μs</title>
<rect y="523" rx="5" height="22" width="140.45937894849138" fill="hsl(216, 100%, 80%)" stroke="hsl(216, 100%, 55%)" />
<g stroke="hsl(216, 100%, 40%)"><line x1="134.22096642108616" x2="146.6977914758966" y1="534" y2="534" />
<line x1="134.22096642108616" x2="134.22096642108616" y1="528" y2="540" />
<line x1="146.6977914758966" x2="146.6977914758966" y1="528" y2="540" />
</g>
</g>
<g fill="hsl(240, 100%, 40%)">
<text y="572">catch.10000.fused.deep</text>
<text y="572" x="880.3710726404278" text-anchor="end">27.6 ms</text>
</g>
<g>
<title>27.6 ms ± 1.9 ms</title>
<rect y="578" rx="5" height="22" width="880.3710726404278" fill="hsl(240, 100%, 80%)" stroke="hsl(240, 100%, 55%)" />
<g stroke="hsl(240, 100%, 40%)"><line x1="820.7421452808555" x2="940.0" y1="589" y2="589" />
<line x1="820.7421452808555" x2="820.7421452808555" y1="583" y2="595" />
<line x1="940.0" x2="940.0" y1="583" y2="595" />
</g>
</g>
<text fill="hsl(264, 100%, 40%)" y="627">catch.10000.effectful.shallow 1.32 ms</text>
<g>
<title>1.32 ms ± 110 μs</title>
<rect y="633" rx="5" height="22" width="42.175005556975506" fill="hsl(264, 100%, 80%)" stroke="hsl(264, 100%, 55%)" />
<g stroke="hsl(264, 100%, 40%)"><line x1="38.6646420473381" x2="45.685369066612914" y1="644" y2="644" />
<line x1="38.6646420473381" x2="38.6646420473381" y1="638" y2="650" />
<line x1="45.685369066612914" x2="45.685369066612914" y1="638" y2="650" />
</g>
</g>
<text fill="hsl(288, 100%, 40%)" y="682">catch.10000.effectful.deep 1.34 ms</text>
<g>
<title>1.34 ms ± 133 μs</title>
<rect y="688" rx="5" height="22" width="42.66195956668138" fill="hsl(288, 100%, 80%)" stroke="hsl(288, 100%, 55%)" />
<g stroke="hsl(288, 100%, 40%)"><line x1="38.41250631533914" x2="46.91141281802363" y1="699" y2="699" />
<line x1="38.41250631533914" x2="38.41250631533914" y1="693" y2="705" />
<line x1="46.91141281802363" x2="46.91141281802363" y1="693" y2="705" />
</g>
</g>
<text fill="hsl(312, 100%, 40%)" y="737">catch.10000.mtl.shallow 400  μs</text>
<g>
<title>400  μs ±  24 μs</title>
<rect y="743" rx="5" height="22" width="12.783400311406107" fill="hsl(312, 100%, 80%)" stroke="hsl(312, 100%, 55%)" />
<g stroke="hsl(312, 100%, 40%)"><line x1="12.01712596874156" x2="13.549674654070653" y1="754" y2="754" />
<line x1="12.01712596874156" x2="12.01712596874156" y1="748" y2="760" />
<line x1="13.549674654070653" x2="13.549674654070653" y1="748" y2="760" />
</g>
</g>
<g fill="hsl(336, 100%, 40%)">
<text y="792">catch.10000.mtl.deep</text>
<text y="792" x="269.0782198355559" text-anchor="end">8.43 ms</text>
</g>
<g>
<title>8.43 ms ± 703 μs</title>
<rect y="798" rx="5" height="22" width="269.0782198355559" fill="hsl(336, 100%, 80%)" stroke="hsl(336, 100%, 55%)" />
<g stroke="hsl(336, 100%, 40%)"><line x1="246.63166949036267" x2="291.52477018074916" y1="809" y2="809" />
<line x1="246.63166949036267" x2="246.63166949036267" y1="803" y2="815" />
<line x1="291.52477018074916" x2="291.52477018074916" y1="803" y2="815" />
</g>
</g>
</g>
</svg>
