<svg xmlns="http://www.w3.org/2000/svg" height="832" width="960.0" font-size="16" font-family="sans-serif" stroke-width="2">
<g transform="translate(10.0 0)">
<text fill="hsl(0, 100%, 40%)" y="22">catch.10000.heftia.shallow 1.15 ms</text>
<g>
<title>1.15 ms ±  61 μs</title>
<rect y="28" rx="5" height="22" width="35.49901381376859" fill="hsl(0, 100%, 80%)" stroke="hsl(0, 100%, 55%)" />
<g stroke="hsl(0, 100%, 40%)"><line x1="33.614223357887134" x2="37.38380426965005" y1="39" y2="39" />
<line x1="33.614223357887134" x2="33.614223357887134" y1="33" y2="45" />
<line x1="37.38380426965005" x2="37.38380426965005" y1="33" y2="45" />
</g>
</g>
<text fill="hsl(24, 100%, 40%)" y="77">catch.10000.heftia.deep0 1.15 ms</text>
<g>
<title>1.15 ms ±  92 μs</title>
<rect y="83" rx="5" height="22" width="35.326998709391454" fill="hsl(24, 100%, 80%)" stroke="hsl(24, 100%, 55%)" />
<g stroke="hsl(24, 100%, 40%)"><line x1="32.49379114654991" x2="38.160206272233" y1="94" y2="94" />
<line x1="32.49379114654991" x2="32.49379114654991" y1="88" y2="100" />
<line x1="38.160206272233" x2="38.160206272233" y1="88" y2="100" />
</g>
</g>
<text fill="hsl(48, 100%, 40%)" y="132">catch.10000.heftia.deep1 1.98 ms</text>
<g>
<title>1.98 ms ± 158 μs</title>
<rect y="138" rx="5" height="22" width="60.84107680694119" fill="hsl(48, 100%, 80%)" stroke="hsl(48, 100%, 55%)" />
<g stroke="hsl(48, 100%, 40%)"><line x1="55.978762486831044" x2="65.70339112705133" y1="149" y2="149" />
<line x1="55.978762486831044" x2="55.978762486831044" y1="143" y2="155" />
<line x1="65.70339112705133" x2="65.70339112705133" y1="143" y2="155" />
</g>
</g>
<text fill="hsl(72, 100%, 40%)" y="187">catch.10000.heftia.deep2 2.85 ms</text>
<g>
<title>2.85 ms ± 100 μs</title>
<rect y="193" rx="5" height="22" width="87.656973838294" fill="hsl(72, 100%, 80%)" stroke="hsl(72, 100%, 55%)" />
<g stroke="hsl(72, 100%, 40%)"><line x1="84.56793376660346" x2="90.74601390998453" y1="204" y2="204" />
<line x1="84.56793376660346" x2="84.56793376660346" y1="198" y2="210" />
<line x1="90.74601390998453" x2="90.74601390998453" y1="198" y2="210" />
</g>
</g>
<text fill="hsl(96, 100%, 40%)" y="242">catch.10000.heftia.deep3 4.14 ms</text>
<g>
<title>4.14 ms ± 228 μs</title>
<rect y="248" rx="5" height="22" width="127.53138120247479" fill="hsl(96, 100%, 80%)" stroke="hsl(96, 100%, 55%)" />
<g stroke="hsl(96, 100%, 40%)"><line x1="120.50490627373453" x2="134.55785613121503" y1="259" y2="259" />
<line x1="120.50490627373453" x2="120.50490627373453" y1="253" y2="265" />
<line x1="134.55785613121503" x2="134.55785613121503" y1="253" y2="265" />
</g>
</g>
<text fill="hsl(120, 100%, 40%)" y="297">catch.10000.heftia.deep4 5.31 ms</text>
<g>
<title>5.31 ms ± 373 μs</title>
<rect y="303" rx="5" height="22" width="163.56696669521145" fill="hsl(120, 100%, 80%)" stroke="hsl(120, 100%, 55%)" />
<g stroke="hsl(120, 100%, 40%)"><line x1="152.08461294588284" x2="175.04932044454006" y1="314" y2="314" />
<line x1="152.08461294588284" x2="152.08461294588284" y1="308" y2="320" />
<line x1="175.04932044454006" x2="175.04932044454006" y1="308" y2="320" />
</g>
</g>
<text fill="hsl(144, 100%, 40%)" y="352">catch.10000.heftia.deep5 6.48 ms</text>
<g>
<title>6.48 ms ± 263 μs</title>
<rect y="358" rx="5" height="22" width="199.56362006205794" fill="hsl(144, 100%, 80%)" stroke="hsl(144, 100%, 55%)" />
<g stroke="hsl(144, 100%, 40%)"><line x1="191.46329364490657" x2="207.6639464792093" y1="369" y2="369" />
<line x1="191.46329364490657" x2="191.46329364490657" y1="363" y2="375" />
<line x1="207.6639464792093" x2="207.6639464792093" y1="363" y2="375" />
</g>
</g>
<text fill="hsl(168, 100%, 40%)" y="407">catch.10000.polysemy.shallow 2.92 ms</text>
<g>
<title>2.92 ms ± 231 μs</title>
<rect y="413" rx="5" height="22" width="90.00903336597699" fill="hsl(168, 100%, 80%)" stroke="hsl(168, 100%, 55%)" />
<g stroke="hsl(168, 100%, 40%)"><line x1="82.8882619143714" x2="97.12980481758258" y1="424" y2="424" />
<line x1="82.8882619143714" x2="82.8882619143714" y1="418" y2="430" />
<line x1="97.12980481758258" x2="97.12980481758258" y1="418" y2="430" />
</g>
</g>
<g fill="hsl(192, 100%, 40%)">
<text y="462">catch.10000.polysemy.deep</text>
<text y="462" x="392.591713395595" text-anchor="end">12.8 ms</text>
</g>
<g>
<title>12.8 ms ± 468 μs</title>
<rect y="468" rx="5" height="22" width="392.591713395595" fill="hsl(192, 100%, 80%)" stroke="hsl(192, 100%, 55%)" />
<g stroke="hsl(192, 100%, 40%)"><line x1="378.20212333320023" x2="406.9813034579897" y1="479" y2="479" />
<line x1="378.20212333320023" x2="378.20212333320023" y1="473" y2="485" />
<line x1="406.9813034579897" x2="406.9813034579897" y1="473" y2="485" />
</g>
</g>
<text fill="hsl(216, 100%, 40%)" y="517">catch.10000.fused.shallow 4.63 ms</text>
<g>
<title>4.63 ms ± 422 μs</title>
<rect y="523" rx="5" height="22" width="142.34648033629492" fill="hsl(216, 100%, 80%)" stroke="hsl(216, 100%, 55%)" />
<g stroke="hsl(216, 100%, 40%)"><line x1="129.36779481763372" x2="155.3251658549561" y1="534" y2="534" />
<line x1="129.36779481763372" x2="129.36779481763372" y1="528" y2="540" />
<line x1="155.3251658549561" x2="155.3251658549561" y1="528" y2="540" />
</g>
</g>
<g fill="hsl(240, 100%, 40%)">
<text y="572">catch.10000.fused.deep</text>
<text y="572" x="885.5019333196476" text-anchor="end">28.8 ms</text>
</g>
<g>
<title>28.8 ms ± 1.8 ms</title>
<rect y="578" rx="5" height="22" width="885.5019333196476" fill="hsl(240, 100%, 80%)" stroke="hsl(240, 100%, 55%)" />
<g stroke="hsl(240, 100%, 40%)"><line x1="831.0038666392952" x2="940.0" y1="589" y2="589" />
<line x1="831.0038666392952" x2="831.0038666392952" y1="583" y2="595" />
<line x1="940.0" x2="940.0" y1="583" y2="595" />
</g>
</g>
<text fill="hsl(264, 100%, 40%)" y="627">catch.10000.effectful.shallow 1.33 ms</text>
<g>
<title>1.33 ms ±  97 μs</title>
<rect y="633" rx="5" height="22" width="40.94993013653895" fill="hsl(264, 100%, 80%)" stroke="hsl(264, 100%, 55%)" />
<g stroke="hsl(264, 100%, 40%)"><line x1="37.969248308318704" x2="43.9306119647592" y1="644" y2="644" />
<line x1="37.969248308318704" x2="37.969248308318704" y1="638" y2="650" />
<line x1="43.9306119647592" x2="43.9306119647592" y1="638" y2="650" />
</g>
</g>
<text fill="hsl(288, 100%, 40%)" y="682">catch.10000.effectful.deep 1.34 ms</text>
<g>
<title>1.34 ms ±  89 μs</title>
<rect y="688" rx="5" height="22" width="41.13102136349496" fill="hsl(288, 100%, 80%)" stroke="hsl(288, 100%, 55%)" />
<g stroke="hsl(288, 100%, 40%)"><line x1="38.40542882721175" x2="43.85661389977817" y1="699" y2="699" />
<line x1="38.40542882721175" x2="38.40542882721175" y1="693" y2="705" />
<line x1="43.85661389977817" x2="43.85661389977817" y1="693" y2="705" />
</g>
</g>
<text fill="hsl(312, 100%, 40%)" y="737">catch.10000.mtl.shallow 386  μs</text>
<g>
<title>386  μs ±  28 μs</title>
<rect y="743" rx="5" height="22" width="11.875380689969216" fill="hsl(312, 100%, 80%)" stroke="hsl(312, 100%, 55%)" />
<g stroke="hsl(312, 100%, 40%)"><line x1="11.025526801273859" x2="12.725234578664573" y1="754" y2="754" />
<line x1="11.025526801273859" x2="11.025526801273859" y1="748" y2="760" />
<line x1="12.725234578664573" x2="12.725234578664573" y1="748" y2="760" />
</g>
</g>
<g fill="hsl(336, 100%, 40%)">
<text y="792">catch.10000.mtl.deep</text>
<text y="792" x="243.74541752175668" text-anchor="end">7.92 ms</text>
</g>
<g>
<title>7.92 ms ± 725 μs</title>
<rect y="798" rx="5" height="22" width="243.74541752175668" fill="hsl(336, 100%, 80%)" stroke="hsl(336, 100%, 55%)" />
<g stroke="hsl(336, 100%, 40%)"><line x1="221.416579365635" x2="266.07425567787834" y1="809" y2="809" />
<line x1="221.416579365635" x2="221.416579365635" y1="803" y2="815" />
<line x1="266.07425567787834" x2="266.07425567787834" y1="803" y2="815" />
</g>
</g>
</g>
</svg>
