<svg xmlns="http://www.w3.org/2000/svg" height="832" width="960.0" font-size="16" font-family="sans-serif" stroke-width="2">
<g transform="translate(10.0 0)">
<text fill="hsl(0, 100%, 40%)" y="22">catch.10000.heftia.shallow 1.15 ms</text>
<g>
<title>1.15 ms ±  95 μs</title>
<rect y="28" rx="5" height="22" width="35.48013449449835" fill="hsl(0, 100%, 80%)" stroke="hsl(0, 100%, 55%)" />
<g stroke="hsl(0, 100%, 40%)"><line x1="32.54920536144689" x2="38.411063627549815" y1="39" y2="39" />
<line x1="32.54920536144689" x2="32.54920536144689" y1="33" y2="45" />
<line x1="38.411063627549815" x2="38.411063627549815" y1="33" y2="45" />
</g>
</g>
<text fill="hsl(24, 100%, 40%)" y="77">catch.10000.heftia.deep0 1.16 ms</text>
<g>
<title>1.16 ms ± 102 μs</title>
<rect y="83" rx="5" height="22" width="35.54930229531957" fill="hsl(24, 100%, 80%)" stroke="hsl(24, 100%, 55%)" />
<g stroke="hsl(24, 100%, 40%)"><line x1="32.405655130924714" x2="38.69294945971443" y1="94" y2="94" />
<line x1="32.405655130924714" x2="32.405655130924714" y1="88" y2="100" />
<line x1="38.69294945971443" x2="38.69294945971443" y1="88" y2="100" />
</g>
</g>
<text fill="hsl(48, 100%, 40%)" y="132">catch.10000.heftia.deep1 1.99 ms</text>
<g>
<title>1.99 ms ± 110 μs</title>
<rect y="138" rx="5" height="22" width="61.15043623700507" fill="hsl(48, 100%, 80%)" stroke="hsl(48, 100%, 55%)" />
<g stroke="hsl(48, 100%, 40%)"><line x1="57.75576270663018" x2="64.54510976737996" y1="149" y2="149" />
<line x1="57.75576270663018" x2="57.75576270663018" y1="143" y2="155" />
<line x1="64.54510976737996" x2="64.54510976737996" y1="143" y2="155" />
</g>
</g>
<text fill="hsl(72, 100%, 40%)" y="187">catch.10000.heftia.deep2 2.96 ms</text>
<g>
<title>2.96 ms ± 115 μs</title>
<rect y="193" rx="5" height="22" width="91.05504689618107" fill="hsl(72, 100%, 80%)" stroke="hsl(72, 100%, 55%)" />
<g stroke="hsl(72, 100%, 40%)"><line x1="87.50947855510773" x2="94.6006152372544" y1="204" y2="204" />
<line x1="87.50947855510773" x2="87.50947855510773" y1="198" y2="210" />
<line x1="94.6006152372544" x2="94.6006152372544" y1="198" y2="210" />
</g>
</g>
<text fill="hsl(96, 100%, 40%)" y="242">catch.10000.heftia.deep3 4.50 ms</text>
<g>
<title>4.50 ms ± 420 μs</title>
<rect y="248" rx="5" height="22" width="138.33083815100727" fill="hsl(96, 100%, 80%)" stroke="hsl(96, 100%, 55%)" />
<g stroke="hsl(96, 100%, 40%)"><line x1="125.42368094196034" x2="151.23799536005419" y1="259" y2="259" />
<line x1="125.42368094196034" x2="125.42368094196034" y1="253" y2="265" />
<line x1="151.23799536005419" x2="151.23799536005419" y1="253" y2="265" />
</g>
</g>
<text fill="hsl(120, 100%, 40%)" y="297">catch.10000.heftia.deep4 5.53 ms</text>
<g>
<title>5.53 ms ± 223 μs</title>
<rect y="303" rx="5" height="22" width="169.77300432197674" fill="hsl(120, 100%, 80%)" stroke="hsl(120, 100%, 55%)" />
<g stroke="hsl(120, 100%, 40%)"><line x1="162.93078458031445" x2="176.61522406363903" y1="314" y2="314" />
<line x1="162.93078458031445" x2="162.93078458031445" y1="308" y2="320" />
<line x1="176.61522406363903" x2="176.61522406363903" y1="308" y2="320" />
</g>
</g>
<text fill="hsl(144, 100%, 40%)" y="352">catch.10000.heftia.deep5 7.06 ms</text>
<g>
<title>7.06 ms ± 451 μs</title>
<rect y="358" rx="5" height="22" width="216.82468640196498" fill="hsl(144, 100%, 80%)" stroke="hsl(144, 100%, 55%)" />
<g stroke="hsl(144, 100%, 40%)"><line x1="202.9620212666029" x2="230.68735153732706" y1="369" y2="369" />
<line x1="202.9620212666029" x2="202.9620212666029" y1="363" y2="375" />
<line x1="230.68735153732706" x2="230.68735153732706" y1="363" y2="375" />
</g>
</g>
<text fill="hsl(168, 100%, 40%)" y="407">catch.10000.polysemy.shallow 3.00 ms</text>
<g>
<title>3.00 ms ± 223 μs</title>
<rect y="413" rx="5" height="22" width="92.21257992557501" fill="hsl(168, 100%, 80%)" stroke="hsl(168, 100%, 55%)" />
<g stroke="hsl(168, 100%, 40%)"><line x1="85.3613851852918" x2="99.06377466585823" y1="424" y2="424" />
<line x1="85.3613851852918" x2="85.3613851852918" y1="418" y2="430" />
<line x1="99.06377466585823" x2="99.06377466585823" y1="418" y2="430" />
</g>
</g>
<g fill="hsl(192, 100%, 40%)">
<text y="462">catch.10000.polysemy.deep</text>
<text y="462" x="410.08823614367026" text-anchor="end">13.3 ms</text>
</g>
<g>
<title>13.3 ms ± 1.1 ms</title>
<rect y="468" rx="5" height="22" width="410.08823614367026" fill="hsl(192, 100%, 80%)" stroke="hsl(192, 100%, 55%)" />
<g stroke="hsl(192, 100%, 40%)"><line x1="376.7542681440657" x2="443.4222041432748" y1="479" y2="479" />
<line x1="376.7542681440657" x2="376.7542681440657" y1="473" y2="485" />
<line x1="443.4222041432748" x2="443.4222041432748" y1="473" y2="485" />
</g>
</g>
<text fill="hsl(216, 100%, 40%)" y="517">catch.10000.fused.shallow 4.57 ms</text>
<g>
<title>4.57 ms ± 376 μs</title>
<rect y="523" rx="5" height="22" width="140.49068398601335" fill="hsl(216, 100%, 80%)" stroke="hsl(216, 100%, 55%)" />
<g stroke="hsl(216, 100%, 40%)"><line x1="128.9364103983348" x2="152.0449575736919" y1="534" y2="534" />
<line x1="128.9364103983348" x2="128.9364103983348" y1="528" y2="540" />
<line x1="152.0449575736919" x2="152.0449575736919" y1="528" y2="540" />
</g>
</g>
<g fill="hsl(240, 100%, 40%)">
<text y="572">catch.10000.fused.deep</text>
<text y="572" x="879.1258564987805" text-anchor="end">28.6 ms</text>
</g>
<g>
<title>28.6 ms ± 2.0 ms</title>
<rect y="578" rx="5" height="22" width="879.1258564987805" fill="hsl(240, 100%, 80%)" stroke="hsl(240, 100%, 55%)" />
<g stroke="hsl(240, 100%, 40%)"><line x1="818.2517129975611" x2="940.0" y1="589" y2="589" />
<line x1="818.2517129975611" x2="818.2517129975611" y1="583" y2="595" />
<line x1="940.0" x2="940.0" y1="583" y2="595" />
</g>
</g>
<text fill="hsl(264, 100%, 40%)" y="627">catch.10000.effectful.shallow 1.33 ms</text>
<g>
<title>1.33 ms ±  89 μs</title>
<rect y="633" rx="5" height="22" width="40.899283345375345" fill="hsl(264, 100%, 80%)" stroke="hsl(264, 100%, 55%)" />
<g stroke="hsl(264, 100%, 40%)"><line x1="38.17253695194864" x2="43.626029738802046" y1="644" y2="644" />
<line x1="38.17253695194864" x2="38.17253695194864" y1="638" y2="650" />
<line x1="43.626029738802046" x2="43.626029738802046" y1="638" y2="650" />
</g>
</g>
<text fill="hsl(288, 100%, 40%)" y="682">catch.10000.effectful.deep 1.31 ms</text>
<g>
<title>1.31 ms ±  34 μs</title>
<rect y="688" rx="5" height="22" width="40.30583573622812" fill="hsl(288, 100%, 80%)" stroke="hsl(288, 100%, 55%)" />
<g stroke="hsl(288, 100%, 40%)"><line x1="39.2577110944824" x2="41.353960377973834" y1="699" y2="699" />
<line x1="39.2577110944824" x2="39.2577110944824" y1="693" y2="705" />
<line x1="41.353960377973834" x2="41.353960377973834" y1="693" y2="705" />
</g>
</g>
<text fill="hsl(312, 100%, 40%)" y="737">catch.10000.mtl.shallow 392  μs</text>
<g>
<title>392  μs ±  25 μs</title>
<rect y="743" rx="5" height="22" width="12.046626803264422" fill="hsl(312, 100%, 80%)" stroke="hsl(312, 100%, 55%)" />
<g stroke="hsl(312, 100%, 40%)"><line x1="11.272055348157615" x2="12.82119825837123" y1="754" y2="754" />
<line x1="11.272055348157615" x2="11.272055348157615" y1="748" y2="760" />
<line x1="12.82119825837123" x2="12.82119825837123" y1="748" y2="760" />
</g>
</g>
<g fill="hsl(336, 100%, 40%)">
<text y="792">catch.10000.mtl.deep</text>
<text y="792" x="254.5114549258714" text-anchor="end">8.28 ms</text>
</g>
<g>
<title>8.28 ms ± 755 μs</title>
<rect y="798" rx="5" height="22" width="254.5114549258714" fill="hsl(336, 100%, 80%)" stroke="hsl(336, 100%, 55%)" />
<g stroke="hsl(336, 100%, 40%)"><line x1="231.31715292093935" x2="277.70575693080343" y1="809" y2="809" />
<line x1="231.31715292093935" x2="231.31715292093935" y1="803" y2="815" />
<line x1="277.70575693080343" x2="277.70575693080343" y1="803" y2="815" />
</g>
</g>
</g>
</svg>
