<svg xmlns="http://www.w3.org/2000/svg" height="832" width="960.0" font-size="16" font-family="sans-serif" stroke-width="2">
<g transform="translate(10.0 0)">
<text fill="hsl(0, 100%, 40%)" y="22">catch.10000.heftia.shallow 1.17 ms</text>
<g>
<title>1.17 ms ±  65 μs</title>
<rect y="28" rx="5" height="22" width="35.74398652353195" fill="hsl(0, 100%, 80%)" stroke="hsl(0, 100%, 55%)" />
<g stroke="hsl(0, 100%, 40%)"><line x1="33.76863073197156" x2="37.71934231509234" y1="39" y2="39" />
<line x1="33.76863073197156" x2="33.76863073197156" y1="33" y2="45" />
<line x1="37.71934231509234" x2="37.71934231509234" y1="33" y2="45" />
</g>
</g>
<text fill="hsl(24, 100%, 40%)" y="77">catch.10000.heftia.deep0 1.18 ms</text>
<g>
<title>1.18 ms ±  90 μs</title>
<rect y="83" rx="5" height="22" width="36.025287238962726" fill="hsl(24, 100%, 80%)" stroke="hsl(24, 100%, 55%)" />
<g stroke="hsl(24, 100%, 40%)"><line x1="33.27749887368795" x2="38.773075604237505" y1="94" y2="94" />
<line x1="33.27749887368795" x2="33.27749887368795" y1="88" y2="100" />
<line x1="38.773075604237505" x2="38.773075604237505" y1="88" y2="100" />
</g>
</g>
<text fill="hsl(48, 100%, 40%)" y="132">catch.10000.heftia.deep1 1.98 ms</text>
<g>
<title>1.98 ms ± 102 μs</title>
<rect y="138" rx="5" height="22" width="60.46229026865845" fill="hsl(48, 100%, 80%)" stroke="hsl(48, 100%, 55%)" />
<g stroke="hsl(48, 100%, 40%)"><line x1="57.34520534274618" x2="63.579375194570716" y1="149" y2="149" />
<line x1="57.34520534274618" x2="57.34520534274618" y1="143" y2="155" />
<line x1="63.579375194570716" x2="63.579375194570716" y1="143" y2="155" />
</g>
</g>
<text fill="hsl(72, 100%, 40%)" y="187">catch.10000.heftia.deep2 2.84 ms</text>
<g>
<title>2.84 ms ± 190 μs</title>
<rect y="193" rx="5" height="22" width="86.73694949667727" fill="hsl(72, 100%, 80%)" stroke="hsl(72, 100%, 55%)" />
<g stroke="hsl(72, 100%, 40%)"><line x1="80.92836667391796" x2="92.54553231943657" y1="204" y2="204" />
<line x1="80.92836667391796" x2="80.92836667391796" y1="198" y2="210" />
<line x1="92.54553231943657" x2="92.54553231943657" y1="198" y2="210" />
</g>
</g>
<text fill="hsl(96, 100%, 40%)" y="242">catch.10000.heftia.deep3 4.09 ms</text>
<g>
<title>4.09 ms ± 269 μs</title>
<rect y="248" rx="5" height="22" width="124.96728069028808" fill="hsl(96, 100%, 80%)" stroke="hsl(96, 100%, 55%)" />
<g stroke="hsl(96, 100%, 40%)"><line x1="116.73827926215222" x2="133.19628211842394" y1="259" y2="259" />
<line x1="116.73827926215222" x2="116.73827926215222" y1="253" y2="265" />
<line x1="133.19628211842394" x2="133.19628211842394" y1="253" y2="265" />
</g>
</g>
<text fill="hsl(120, 100%, 40%)" y="297">catch.10000.heftia.deep4 5.43 ms</text>
<g>
<title>5.43 ms ± 308 μs</title>
<rect y="303" rx="5" height="22" width="166.00742754647516" fill="hsl(120, 100%, 80%)" stroke="hsl(120, 100%, 55%)" />
<g stroke="hsl(120, 100%, 40%)"><line x1="156.60564338212677" x2="175.40921171082354" y1="314" y2="314" />
<line x1="156.60564338212677" x2="156.60564338212677" y1="308" y2="320" />
<line x1="175.40921171082354" x2="175.40921171082354" y1="308" y2="320" />
</g>
</g>
<text fill="hsl(144, 100%, 40%)" y="352">catch.10000.heftia.deep5 6.60 ms</text>
<g>
<title>6.60 ms ± 442 μs</title>
<rect y="358" rx="5" height="22" width="201.66952068052635" fill="hsl(144, 100%, 80%)" stroke="hsl(144, 100%, 55%)" />
<g stroke="hsl(144, 100%, 40%)"><line x1="188.1672870833476" x2="215.1717542777051" y1="369" y2="369" />
<line x1="188.1672870833476" x2="188.1672870833476" y1="363" y2="375" />
<line x1="215.1717542777051" x2="215.1717542777051" y1="363" y2="375" />
</g>
</g>
<text fill="hsl(168, 100%, 40%)" y="407">catch.10000.polysemy.shallow 3.13 ms</text>
<g>
<title>3.13 ms ± 260 μs</title>
<rect y="413" rx="5" height="22" width="95.5076817212825" fill="hsl(168, 100%, 80%)" stroke="hsl(168, 100%, 55%)" />
<g stroke="hsl(168, 100%, 40%)"><line x1="87.57217437391816" x2="103.44318906864683" y1="424" y2="424" />
<line x1="87.57217437391816" x2="87.57217437391816" y1="418" y2="430" />
<line x1="103.44318906864683" x2="103.44318906864683" y1="418" y2="430" />
</g>
</g>
<g fill="hsl(192, 100%, 40%)">
<text y="462">catch.10000.polysemy.deep</text>
<text y="462" x="410.6222457846105" text-anchor="end">13.4 ms</text>
</g>
<g>
<title>13.4 ms ± 857 μs</title>
<rect y="468" rx="5" height="22" width="410.6222457846105" fill="hsl(192, 100%, 80%)" stroke="hsl(192, 100%, 55%)" />
<g stroke="hsl(192, 100%, 40%)"><line x1="384.45499535493406" x2="436.789496214287" y1="479" y2="479" />
<line x1="384.45499535493406" x2="384.45499535493406" y1="473" y2="485" />
<line x1="436.789496214287" x2="436.789496214287" y1="473" y2="485" />
</g>
</g>
<text fill="hsl(216, 100%, 40%)" y="517">catch.10000.fused.shallow 4.79 ms</text>
<g>
<title>4.79 ms ± 313 μs</title>
<rect y="523" rx="5" height="22" width="146.39839899319938" fill="hsl(216, 100%, 80%)" stroke="hsl(216, 100%, 55%)" />
<g stroke="hsl(216, 100%, 40%)"><line x1="136.82644726568586" x2="155.9703507207129" y1="534" y2="534" />
<line x1="136.82644726568586" x2="136.82644726568586" y1="528" y2="540" />
<line x1="155.9703507207129" x2="155.9703507207129" y1="528" y2="540" />
</g>
</g>
<g fill="hsl(240, 100%, 40%)">
<text y="572">catch.10000.fused.deep</text>
<text y="572" x="866.8641280974674" text-anchor="end">28.4 ms</text>
</g>
<g>
<title>28.4 ms ± 2.4 ms</title>
<rect y="578" rx="5" height="22" width="866.8641280974674" fill="hsl(240, 100%, 80%)" stroke="hsl(240, 100%, 55%)" />
<g stroke="hsl(240, 100%, 40%)"><line x1="793.7282561949348" x2="940.0" y1="589" y2="589" />
<line x1="793.7282561949348" x2="793.7282561949348" y1="583" y2="595" />
<line x1="940.0" x2="940.0" y1="583" y2="595" />
</g>
</g>
<text fill="hsl(264, 100%, 40%)" y="627">catch.10000.effectful.shallow 1.37 ms</text>
<g>
<title>1.37 ms ± 121 μs</title>
<rect y="633" rx="5" height="22" width="41.799506177584576" fill="hsl(264, 100%, 80%)" stroke="hsl(264, 100%, 55%)" />
<g stroke="hsl(264, 100%, 40%)"><line x1="38.09235528788355" x2="45.5066570672856" y1="644" y2="644" />
<line x1="38.09235528788355" x2="38.09235528788355" y1="638" y2="650" />
<line x1="45.5066570672856" x2="45.5066570672856" y1="638" y2="650" />
</g>
</g>
<text fill="hsl(288, 100%, 40%)" y="682">catch.10000.effectful.deep 1.31 ms</text>
<g>
<title>1.31 ms ±  91 μs</title>
<rect y="688" rx="5" height="22" width="40.08607055684814" fill="hsl(288, 100%, 80%)" stroke="hsl(288, 100%, 55%)" />
<g stroke="hsl(288, 100%, 40%)"><line x1="37.29186205980104" x2="42.880279053895244" y1="699" y2="699" />
<line x1="37.29186205980104" x2="37.29186205980104" y1="693" y2="705" />
<line x1="42.880279053895244" x2="42.880279053895244" y1="693" y2="705" />
</g>
</g>
<text fill="hsl(312, 100%, 40%)" y="737">catch.10000.mtl.shallow 389  μs</text>
<g>
<title>389  μs ±  18 μs</title>
<rect y="743" rx="5" height="22" width="11.872651791737706" fill="hsl(312, 100%, 80%)" stroke="hsl(312, 100%, 55%)" />
<g stroke="hsl(312, 100%, 40%)"><line x1="11.336839049214273" x2="12.408464534261139" y1="754" y2="754" />
<line x1="11.336839049214273" x2="11.336839049214273" y1="748" y2="760" />
<line x1="12.408464534261139" x2="12.408464534261139" y1="748" y2="760" />
</g>
</g>
<g fill="hsl(336, 100%, 40%)">
<text y="792">catch.10000.mtl.deep</text>
<text y="792" x="241.34365528545177" text-anchor="end">7.90 ms</text>
</g>
<g>
<title>7.90 ms ± 764 μs</title>
<rect y="798" rx="5" height="22" width="241.34365528545177" fill="hsl(336, 100%, 80%)" stroke="hsl(336, 100%, 55%)" />
<g stroke="hsl(336, 100%, 40%)"><line x1="218.0025621753835" x2="264.68474839552005" y1="809" y2="809" />
<line x1="218.0025621753835" x2="218.0025621753835" y1="803" y2="815" />
<line x1="264.68474839552005" x2="264.68474839552005" y1="803" y2="815" />
</g>
</g>
</g>
</svg>
