<svg xmlns="http://www.w3.org/2000/svg" height="832" width="960.0" font-size="16" font-family="sans-serif" stroke-width="2">
<g transform="translate(10.0 0)">
<text fill="hsl(0, 100%, 40%)" y="22">catch.10000.heftia.shallow 1.18 ms</text>
<g>
<title>1.18 ms ±  60 μs</title>
<rect y="28" rx="5" height="22" width="37.15679478358853" fill="hsl(0, 100%, 80%)" stroke="hsl(0, 100%, 55%)" />
<g stroke="hsl(0, 100%, 40%)"><line x1="35.26322577963985" x2="39.05036378753721" y1="39" y2="39" />
<line x1="35.26322577963985" x2="35.26322577963985" y1="33" y2="45" />
<line x1="39.05036378753721" x2="39.05036378753721" y1="33" y2="45" />
</g>
</g>
<text fill="hsl(24, 100%, 40%)" y="77">catch.10000.heftia.deep0 1.21 ms</text>
<g>
<title>1.21 ms ±  71 μs</title>
<rect y="83" rx="5" height="22" width="38.08999946052963" fill="hsl(24, 100%, 80%)" stroke="hsl(24, 100%, 55%)" />
<g stroke="hsl(24, 100%, 40%)"><line x1="35.853296208002625" x2="40.32670271305664" y1="94" y2="94" />
<line x1="35.853296208002625" x2="35.853296208002625" y1="88" y2="100" />
<line x1="40.32670271305664" x2="40.32670271305664" y1="88" y2="100" />
</g>
</g>
<text fill="hsl(48, 100%, 40%)" y="132">catch.10000.heftia.deep1 2.06 ms</text>
<g>
<title>2.06 ms ± 113 μs</title>
<rect y="138" rx="5" height="22" width="64.7769156289844" fill="hsl(48, 100%, 80%)" stroke="hsl(48, 100%, 55%)" />
<g stroke="hsl(48, 100%, 40%)"><line x1="61.20813497771992" x2="68.34569628024887" y1="149" y2="149" />
<line x1="61.20813497771992" x2="61.20813497771992" y1="143" y2="155" />
<line x1="68.34569628024887" x2="68.34569628024887" y1="143" y2="155" />
</g>
</g>
<text fill="hsl(72, 100%, 40%)" y="187">catch.10000.heftia.deep2 3.01 ms</text>
<g>
<title>3.01 ms ± 188 μs</title>
<rect y="193" rx="5" height="22" width="94.62839669831968" fill="hsl(72, 100%, 80%)" stroke="hsl(72, 100%, 55%)" />
<g stroke="hsl(72, 100%, 40%)"><line x1="88.70511072200348" x2="100.55168267463587" y1="204" y2="204" />
<line x1="88.70511072200348" x2="88.70511072200348" y1="198" y2="210" />
<line x1="100.55168267463587" x2="100.55168267463587" y1="198" y2="210" />
</g>
</g>
<text fill="hsl(96, 100%, 40%)" y="242">catch.10000.heftia.deep3 4.46 ms</text>
<g>
<title>4.46 ms ± 373 μs</title>
<rect y="248" rx="5" height="22" width="140.54190457572437" fill="hsl(96, 100%, 80%)" stroke="hsl(96, 100%, 55%)" />
<g stroke="hsl(96, 100%, 40%)"><line x1="128.7919768364734" x2="152.29183231497535" y1="259" y2="259" />
<line x1="128.7919768364734" x2="128.7919768364734" y1="253" y2="265" />
<line x1="152.29183231497535" x2="152.29183231497535" y1="253" y2="265" />
</g>
</g>
<text fill="hsl(120, 100%, 40%)" y="297">catch.10000.heftia.deep4 5.57 ms</text>
<g>
<title>5.57 ms ± 442 μs</title>
<rect y="303" rx="5" height="22" width="175.43161245747447" fill="hsl(120, 100%, 80%)" stroke="hsl(120, 100%, 55%)" />
<g stroke="hsl(120, 100%, 40%)"><line x1="161.51219802239297" x2="189.35102689255598" y1="314" y2="314" />
<line x1="161.51219802239297" x2="161.51219802239297" y1="308" y2="320" />
<line x1="189.35102689255598" x2="189.35102689255598" y1="308" y2="320" />
</g>
</g>
<text fill="hsl(144, 100%, 40%)" y="352">catch.10000.heftia.deep5 7.13 ms</text>
<g>
<title>7.13 ms ± 698 μs</title>
<rect y="358" rx="5" height="22" width="224.55659676602485" fill="hsl(144, 100%, 80%)" stroke="hsl(144, 100%, 55%)" />
<g stroke="hsl(144, 100%, 40%)"><line x1="202.57103537128364" x2="246.54215816076606" y1="369" y2="369" />
<line x1="202.57103537128364" x2="202.57103537128364" y1="363" y2="375" />
<line x1="246.54215816076606" x2="246.54215816076606" y1="363" y2="375" />
</g>
</g>
<text fill="hsl(168, 100%, 40%)" y="407">catch.10000.polysemy.shallow 2.98 ms</text>
<g>
<title>2.98 ms ± 254 μs</title>
<rect y="413" rx="5" height="22" width="93.90457566205446" fill="hsl(168, 100%, 80%)" stroke="hsl(168, 100%, 55%)" />
<g stroke="hsl(168, 100%, 40%)"><line x1="85.90910036047674" x2="101.90005096363217" y1="424" y2="424" />
<line x1="85.90910036047674" x2="85.90910036047674" y1="418" y2="430" />
<line x1="101.90005096363217" x2="101.90005096363217" y1="418" y2="430" />
</g>
</g>
<g fill="hsl(192, 100%, 40%)">
<text y="462">catch.10000.polysemy.deep</text>
<text y="462" x="417.17501940769085" text-anchor="end">13.2 ms</text>
</g>
<g>
<title>13.2 ms ± 928 μs</title>
<rect y="468" rx="5" height="22" width="417.17501940769085" fill="hsl(192, 100%, 80%)" stroke="hsl(192, 100%, 55%)" />
<g stroke="hsl(192, 100%, 40%)"><line x1="387.9630971850431" x2="446.3869416303386" y1="479" y2="479" />
<line x1="387.9630971850431" x2="387.9630971850431" y1="473" y2="485" />
<line x1="446.3869416303386" x2="446.3869416303386" y1="473" y2="485" />
</g>
</g>
<text fill="hsl(216, 100%, 40%)" y="517">catch.10000.fused.shallow 4.61 ms</text>
<g>
<title>4.61 ms ± 444 μs</title>
<rect y="523" rx="5" height="22" width="145.05827283960403" fill="hsl(216, 100%, 80%)" stroke="hsl(216, 100%, 55%)" />
<g stroke="hsl(216, 100%, 40%)"><line x1="131.0800214180972" x2="159.03652426111086" y1="534" y2="534" />
<line x1="131.0800214180972" x2="131.0800214180972" y1="528" y2="540" />
<line x1="159.03652426111086" x2="159.03652426111086" y1="528" y2="540" />
</g>
</g>
<g fill="hsl(240, 100%, 40%)">
<text y="572">catch.10000.fused.deep</text>
<text y="572" x="885.4014054199038" text-anchor="end">28.1 ms</text>
</g>
<g>
<title>28.1 ms ± 1.7 ms</title>
<rect y="578" rx="5" height="22" width="885.4014054199038" fill="hsl(240, 100%, 80%)" stroke="hsl(240, 100%, 55%)" />
<g stroke="hsl(240, 100%, 40%)"><line x1="830.8028108398075" x2="940.0" y1="589" y2="589" />
<line x1="830.8028108398075" x2="830.8028108398075" y1="583" y2="595" />
<line x1="940.0" x2="940.0" y1="583" y2="595" />
</g>
</g>
<text fill="hsl(264, 100%, 40%)" y="627">catch.10000.effectful.shallow 1.37 ms</text>
<g>
<title>1.37 ms ±  97 μs</title>
<rect y="633" rx="5" height="22" width="43.07940946471017" fill="hsl(264, 100%, 80%)" stroke="hsl(264, 100%, 55%)" />
<g stroke="hsl(264, 100%, 40%)"><line x1="40.03941368742471" x2="46.11940524199562" y1="644" y2="644" />
<line x1="40.03941368742471" x2="40.03941368742471" y1="638" y2="650" />
<line x1="46.11940524199562" x2="46.11940524199562" y1="638" y2="650" />
</g>
</g>
<text fill="hsl(288, 100%, 40%)" y="682">catch.10000.effectful.deep 1.37 ms</text>
<g>
<title>1.37 ms ±  47 μs</title>
<rect y="688" rx="5" height="22" width="43.262480997779534" fill="hsl(288, 100%, 80%)" stroke="hsl(288, 100%, 55%)" />
<g stroke="hsl(288, 100%, 40%)"><line x1="41.77972890809665" x2="44.74523308746242" y1="699" y2="699" />
<line x1="41.77972890809665" x2="41.77972890809665" y1="693" y2="705" />
<line x1="44.74523308746242" x2="44.74523308746242" y1="693" y2="705" />
</g>
</g>
<text fill="hsl(312, 100%, 40%)" y="737">catch.10000.mtl.shallow 393  μs</text>
<g>
<title>393  μs ±  26 μs</title>
<rect y="743" rx="5" height="22" width="12.382242656435574" fill="hsl(312, 100%, 80%)" stroke="hsl(312, 100%, 55%)" />
<g stroke="hsl(312, 100%, 40%)"><line x1="11.556642713364475" x2="13.207842599506673" y1="754" y2="754" />
<line x1="11.556642713364475" x2="11.556642713364475" y1="748" y2="760" />
<line x1="13.207842599506673" x2="13.207842599506673" y1="748" y2="760" />
</g>
</g>
<g fill="hsl(336, 100%, 40%)">
<text y="792">catch.10000.mtl.deep</text>
<text y="792" x="261.42344521149516" text-anchor="end">8.30 ms</text>
</g>
<g>
<title>8.30 ms ± 782 μs</title>
<rect y="798" rx="5" height="22" width="261.42344521149516" fill="hsl(336, 100%, 80%)" stroke="hsl(336, 100%, 55%)" />
<g stroke="hsl(336, 100%, 40%)"><line x1="236.80366063544858" x2="286.04322978754175" y1="809" y2="809" />
<line x1="236.80366063544858" x2="236.80366063544858" y1="803" y2="815" />
<line x1="286.04322978754175" x2="286.04322978754175" y1="803" y2="815" />
</g>
</g>
</g>
</svg>
