<svg xmlns="http://www.w3.org/2000/svg" height="447" width="960.0" font-size="16" font-family="sans-serif" stroke-width="2">
<g transform="translate(10.0 0)">
<text fill="hsl(0, 100%, 40%)" y="22">coroutine.1000.heftia.shallow 91.1 μs</text>
<g>
<title>91.1 μs ± 5.4 μs</title>
<rect y="28" rx="5" height="22" width="14.658597191138778" fill="hsl(0, 100%, 80%)" stroke="hsl(0, 100%, 55%)" />
<g stroke="hsl(0, 100%, 40%)"><line x1="13.789009736167433" x2="15.528184646110123" y1="39" y2="39" />
<line x1="13.789009736167433" x2="13.789009736167433" y1="33" y2="45" />
<line x1="15.528184646110123" x2="15.528184646110123" y1="33" y2="45" />
</g>
</g>
<text fill="hsl(45, 100%, 40%)" y="77">coroutine.1000.heftia.deep 163  μs</text>
<g>
<title>163  μs ± 7.2 μs</title>
<rect y="83" rx="5" height="22" width="26.269850225212775" fill="hsl(45, 100%, 80%)" stroke="hsl(45, 100%, 55%)" />
<g stroke="hsl(45, 100%, 40%)"><line x1="25.108147554182455" x2="27.431552896243094" y1="94" y2="94" />
<line x1="25.108147554182455" x2="25.108147554182455" y1="88" y2="100" />
<line x1="27.431552896243094" x2="27.431552896243094" y1="88" y2="100" />
</g>
</g>
<text fill="hsl(90, 100%, 40%)" y="132">coroutine.1000.freer.shallow 98.5 μs</text>
<g>
<title>98.5 μs ± 8.5 μs</title>
<rect y="138" rx="5" height="22" width="15.84727179676724" fill="hsl(90, 100%, 80%)" stroke="hsl(90, 100%, 55%)" />
<g stroke="hsl(90, 100%, 40%)"><line x1="14.478496412062306" x2="17.216047181472174" y1="149" y2="149" />
<line x1="14.478496412062306" x2="14.478496412062306" y1="143" y2="155" />
<line x1="17.216047181472174" x2="17.216047181472174" y1="143" y2="155" />
</g>
</g>
<text fill="hsl(135, 100%, 40%)" y="187">coroutine.1000.freer.deep 140  μs</text>
<g>
<title>140  μs ± 8.3 μs</title>
<rect y="193" rx="5" height="22" width="22.490824060118843" fill="hsl(135, 100%, 80%)" stroke="hsl(135, 100%, 55%)" />
<g stroke="hsl(135, 100%, 40%)"><line x1="21.15959261951196" x2="23.822055500725725" y1="204" y2="204" />
<line x1="21.15959261951196" x2="21.15959261951196" y1="198" y2="210" />
<line x1="23.822055500725725" x2="23.822055500725725" y1="198" y2="210" />
</g>
</g>
<g fill="hsl(180, 100%, 40%)">
<text y="242">coroutine.1000.eff.shallow</text>
<text y="242" x="612.8297529986489" text-anchor="end">3.81 ms</text>
</g>
<g>
<title>3.81 ms ± 209 μs</title>
<rect y="248" rx="5" height="22" width="612.8297529986489" fill="hsl(180, 100%, 80%)" stroke="hsl(180, 100%, 55%)" />
<g stroke="hsl(180, 100%, 40%)"><line x1="579.2285462203192" x2="646.4309597769786" y1="259" y2="259" />
<line x1="579.2285462203192" x2="579.2285462203192" y1="253" y2="265" />
<line x1="646.4309597769786" x2="646.4309597769786" y1="253" y2="265" />
</g>
</g>
<g fill="hsl(225, 100%, 40%)">
<text y="297">coroutine.1000.eff.deep</text>
<text y="297" x="708.7896524944368" text-anchor="end">4.40 ms</text>
</g>
<g>
<title>4.40 ms ± 266 μs</title>
<rect y="303" rx="5" height="22" width="708.7896524944368" fill="hsl(225, 100%, 80%)" stroke="hsl(225, 100%, 55%)" />
<g stroke="hsl(225, 100%, 40%)"><line x1="665.9460304969745" x2="751.6332744918992" y1="314" y2="314" />
<line x1="665.9460304969745" x2="665.9460304969745" y1="308" y2="320" />
<line x1="751.6332744918992" x2="751.6332744918992" y1="308" y2="320" />
</g>
</g>
<g fill="hsl(270, 100%, 40%)">
<text y="352">coroutine.1000.mp.shallow</text>
<text y="352" x="830.4285940124665" text-anchor="end">5.16 ms</text>
</g>
<g>
<title>5.16 ms ± 341 μs</title>
<rect y="358" rx="5" height="22" width="830.4285940124665" fill="hsl(270, 100%, 80%)" stroke="hsl(270, 100%, 55%)" />
<g stroke="hsl(270, 100%, 40%)"><line x1="775.5410747097499" x2="885.3161133151832" y1="369" y2="369" />
<line x1="775.5410747097499" x2="775.5410747097499" y1="363" y2="375" />
<line x1="885.3161133151832" x2="885.3161133151832" y1="363" y2="375" />
</g>
</g>
<g fill="hsl(315, 100%, 40%)">
<text y="407">coroutine.1000.mp.deep</text>
<text y="407" x="870.3131036945331" text-anchor="end">5.41 ms</text>
</g>
<g>
<title>5.41 ms ± 433 μs</title>
<rect y="413" rx="5" height="22" width="870.3131036945331" fill="hsl(315, 100%, 80%)" stroke="hsl(315, 100%, 55%)" />
<g stroke="hsl(315, 100%, 40%)"><line x1="800.6262073890662" x2="940.0" y1="424" y2="424" />
<line x1="800.6262073890662" x2="800.6262073890662" y1="418" y2="430" />
<line x1="940.0" x2="940.0" y1="418" y2="430" />
</g>
</g>
</g>
</svg>
