<svg xmlns="http://www.w3.org/2000/svg" height="447" width="960.0" font-size="16" font-family="sans-serif" stroke-width="2">
<g transform="translate(10.0 0)">
<text fill="hsl(0, 100%, 40%)" y="22">coroutine.1000.freer.shallow 94.3 μs</text>
<g>
<title>94.3 μs ± 5.6 μs</title>
<rect y="28" rx="5" height="22" width="14.423237900654147" fill="hsl(0, 100%, 80%)" stroke="hsl(0, 100%, 55%)" />
<g stroke="hsl(0, 100%, 40%)"><line x1="13.56915072341907" x2="15.277325077889225" y1="39" y2="39" />
<line x1="13.56915072341907" x2="13.56915072341907" y1="33" y2="45" />
<line x1="15.277325077889225" x2="15.277325077889225" y1="33" y2="45" />
</g>
</g>
<text fill="hsl(45, 100%, 40%)" y="77">coroutine.1000.freer.deep 138  μs</text>
<g>
<title>138  μs ± 5.4 μs</title>
<rect y="83" rx="5" height="22" width="21.081499508354227" fill="hsl(45, 100%, 80%)" stroke="hsl(45, 100%, 55%)" />
<g stroke="hsl(45, 100%, 40%)"><line x1="20.252020166861424" x2="21.91097884984703" y1="94" y2="94" />
<line x1="20.252020166861424" x2="20.252020166861424" y1="88" y2="100" />
<line x1="21.91097884984703" x2="21.91097884984703" y1="88" y2="100" />
</g>
</g>
<text fill="hsl(90, 100%, 40%)" y="132">coroutine.1000.heftia.shallow 88.4 μs</text>
<g>
<title>88.4 μs ± 5.4 μs</title>
<rect y="138" rx="5" height="22" width="13.513084757564886" fill="hsl(90, 100%, 80%)" stroke="hsl(90, 100%, 55%)" />
<g stroke="hsl(90, 100%, 40%)"><line x1="12.691426895287602" x2="14.33474261984217" y1="149" y2="149" />
<line x1="12.691426895287602" x2="12.691426895287602" y1="143" y2="155" />
<line x1="14.33474261984217" x2="14.33474261984217" y1="143" y2="155" />
</g>
</g>
<text fill="hsl(135, 100%, 40%)" y="187">coroutine.1000.heftia.deep 144  μs</text>
<g>
<title>144  μs ± 3.7 μs</title>
<rect y="193" rx="5" height="22" width="22.01565743492634" fill="hsl(135, 100%, 80%)" stroke="hsl(135, 100%, 55%)" />
<g stroke="hsl(135, 100%, 40%)"><line x1="21.44378219731075" x2="22.58753267254193" y1="204" y2="204" />
<line x1="21.44378219731075" x2="21.44378219731075" y1="198" y2="210" />
<line x1="22.58753267254193" x2="22.58753267254193" y1="198" y2="210" />
</g>
</g>
<g fill="hsl(180, 100%, 40%)">
<text y="242">coroutine.1000.eff.shallow</text>
<text y="242" x="603.2268509265656" text-anchor="end">3.94 ms</text>
</g>
<g>
<title>3.94 ms ± 264 μs</title>
<rect y="248" rx="5" height="22" width="603.2268509265656" fill="hsl(180, 100%, 80%)" stroke="hsl(180, 100%, 55%)" />
<g stroke="hsl(180, 100%, 40%)"><line x1="562.9255058937861" x2="643.5281959593451" y1="259" y2="259" />
<line x1="562.9255058937861" x2="562.9255058937861" y1="253" y2="265" />
<line x1="643.5281959593451" x2="643.5281959593451" y1="253" y2="265" />
</g>
</g>
<g fill="hsl(225, 100%, 40%)">
<text y="297">coroutine.1000.eff.deep</text>
<text y="297" x="714.1834060987275" text-anchor="end">4.67 ms</text>
</g>
<g>
<title>4.67 ms ± 198 μs</title>
<rect y="303" rx="5" height="22" width="714.1834060987275" fill="hsl(225, 100%, 80%)" stroke="hsl(225, 100%, 55%)" />
<g stroke="hsl(225, 100%, 40%)"><line x1="683.8675777907343" x2="744.4992344067206" y1="314" y2="314" />
<line x1="683.8675777907343" x2="683.8675777907343" y1="308" y2="320" />
<line x1="744.4992344067206" x2="744.4992344067206" y1="308" y2="320" />
</g>
</g>
<g fill="hsl(270, 100%, 40%)">
<text y="352">coroutine.1000.mp.shallow</text>
<text y="352" x="840.2240985651201" text-anchor="end">5.49 ms</text>
</g>
<g>
<title>5.49 ms ± 367 μs</title>
<rect y="358" rx="5" height="22" width="840.2240985651201" fill="hsl(270, 100%, 80%)" stroke="hsl(270, 100%, 55%)" />
<g stroke="hsl(270, 100%, 40%)"><line x1="784.1457373334542" x2="896.302459796786" y1="369" y2="369" />
<line x1="784.1457373334542" x2="784.1457373334542" y1="363" y2="375" />
<line x1="896.302459796786" x2="896.302459796786" y1="363" y2="375" />
</g>
</g>
<g fill="hsl(315, 100%, 40%)">
<text y="407">coroutine.1000.mp.deep</text>
<text y="407" x="881.1851729813865" text-anchor="end">5.76 ms</text>
</g>
<g>
<title>5.76 ms ± 385 μs</title>
<rect y="413" rx="5" height="22" width="881.1851729813865" fill="hsl(315, 100%, 80%)" stroke="hsl(315, 100%, 55%)" />
<g stroke="hsl(315, 100%, 40%)"><line x1="822.370345962773" x2="940.0" y1="424" y2="424" />
<line x1="822.370345962773" x2="822.370345962773" y1="418" y2="430" />
<line x1="940.0" x2="940.0" y1="418" y2="430" />
</g>
</g>
</g>
</svg>
