<svg xmlns="http://www.w3.org/2000/svg" height="447" width="960.0" font-size="16" font-family="sans-serif" stroke-width="2">
<g transform="translate(10.0 0)">
<text fill="hsl(0, 100%, 40%)" y="22">coroutine.1000.heftia.shallow 93.8 μs</text>
<g>
<title>93.8 μs ± 7.7 μs</title>
<rect y="28" rx="5" height="22" width="14.11359286455566" fill="hsl(0, 100%, 80%)" stroke="hsl(0, 100%, 55%)" />
<g stroke="hsl(0, 100%, 40%)"><line x1="12.9589513744414" x2="15.26823435466992" y1="39" y2="39" />
<line x1="12.9589513744414" x2="12.9589513744414" y1="33" y2="45" />
<line x1="15.26823435466992" x2="15.26823435466992" y1="33" y2="45" />
</g>
</g>
<text fill="hsl(45, 100%, 40%)" y="77">coroutine.1000.heftia.deep 141  μs</text>
<g>
<title>141  μs ±  13 μs</title>
<rect y="83" rx="5" height="22" width="21.17913418433084" fill="hsl(45, 100%, 80%)" stroke="hsl(45, 100%, 55%)" />
<g stroke="hsl(45, 100%, 40%)"><line x1="19.186150733595575" x2="23.172117635066108" y1="94" y2="94" />
<line x1="19.186150733595575" x2="19.186150733595575" y1="88" y2="100" />
<line x1="23.172117635066108" x2="23.172117635066108" y1="88" y2="100" />
</g>
</g>
<text fill="hsl(90, 100%, 40%)" y="132">coroutine.1000.freer.shallow 100  μs</text>
<g>
<title>100  μs ± 7.1 μs</title>
<rect y="138" rx="5" height="22" width="15.111291108239625" fill="hsl(90, 100%, 80%)" stroke="hsl(90, 100%, 55%)" />
<g stroke="hsl(90, 100%, 40%)"><line x1="14.041419230832968" x2="16.18116298564628" y1="149" y2="149" />
<line x1="14.041419230832968" x2="14.041419230832968" y1="143" y2="155" />
<line x1="16.18116298564628" x2="16.18116298564628" y1="143" y2="155" />
</g>
</g>
<text fill="hsl(135, 100%, 40%)" y="187">coroutine.1000.freer.deep 146  μs</text>
<g>
<title>146  μs ±  11 μs</title>
<rect y="193" rx="5" height="22" width="22.04031707022393" fill="hsl(135, 100%, 80%)" stroke="hsl(135, 100%, 55%)" />
<g stroke="hsl(135, 100%, 40%)"><line x1="20.452637690643193" x2="23.62799644980467" y1="204" y2="204" />
<line x1="20.452637690643193" x2="20.452637690643193" y1="198" y2="210" />
<line x1="23.62799644980467" x2="23.62799644980467" y1="198" y2="210" />
</g>
</g>
<g fill="hsl(180, 100%, 40%)">
<text y="242">coroutine.1000.eff.shallow</text>
<text y="242" x="614.0972277738263" text-anchor="end">4.08 ms</text>
</g>
<g>
<title>4.08 ms ± 368 μs</title>
<rect y="248" rx="5" height="22" width="614.0972277738263" fill="hsl(180, 100%, 80%)" stroke="hsl(180, 100%, 55%)" />
<g stroke="hsl(180, 100%, 40%)"><line x1="558.760250898244" x2="669.4342046494086" y1="259" y2="259" />
<line x1="558.760250898244" x2="558.760250898244" y1="253" y2="265" />
<line x1="669.4342046494086" x2="669.4342046494086" y1="253" y2="265" />
</g>
</g>
<g fill="hsl(225, 100%, 40%)">
<text y="297">coroutine.1000.eff.deep</text>
<text y="297" x="681.8877523185615" text-anchor="end">4.53 ms</text>
</g>
<g>
<title>4.53 ms ± 131 μs</title>
<rect y="303" rx="5" height="22" width="681.8877523185615" fill="hsl(225, 100%, 80%)" stroke="hsl(225, 100%, 55%)" />
<g stroke="hsl(225, 100%, 40%)"><line x1="662.1905908879211" x2="701.584913749202" y1="314" y2="314" />
<line x1="662.1905908879211" x2="662.1905908879211" y1="308" y2="320" />
<line x1="701.584913749202" x2="701.584913749202" y1="308" y2="320" />
</g>
</g>
<g fill="hsl(270, 100%, 40%)">
<text y="352">coroutine.1000.mp.shallow</text>
<text y="352" x="830.2575354266438" text-anchor="end">5.52 ms</text>
</g>
<g>
<title>5.52 ms ± 336 μs</title>
<rect y="358" rx="5" height="22" width="830.2575354266438" fill="hsl(270, 100%, 80%)" stroke="hsl(270, 100%, 55%)" />
<g stroke="hsl(270, 100%, 40%)"><line x1="779.6944564081156" x2="880.820614445172" y1="369" y2="369" />
<line x1="779.6944564081156" x2="779.6944564081156" y1="363" y2="375" />
<line x1="880.820614445172" x2="880.820614445172" y1="363" y2="375" />
</g>
</g>
<g fill="hsl(315, 100%, 40%)">
<text y="407">coroutine.1000.mp.deep</text>
<text y="407" x="878.7927446008448" text-anchor="end">5.84 ms</text>
</g>
<g>
<title>5.84 ms ± 407 μs</title>
<rect y="413" rx="5" height="22" width="878.7927446008448" fill="hsl(315, 100%, 80%)" stroke="hsl(315, 100%, 55%)" />
<g stroke="hsl(315, 100%, 40%)"><line x1="817.5854892016896" x2="940.0" y1="424" y2="424" />
<line x1="817.5854892016896" x2="817.5854892016896" y1="418" y2="430" />
<line x1="940.0" x2="940.0" y1="418" y2="430" />
</g>
</g>
</g>
</svg>
