<svg xmlns="http://www.w3.org/2000/svg" height="447" width="960.0" font-size="16" font-family="sans-serif" stroke-width="2">
<g transform="translate(10.0 0)">
<text fill="hsl(0, 100%, 40%)" y="22">coroutine.1000.heftia.shallow 91.6 μs</text>
<g>
<title>91.6 μs ± 6.6 μs</title>
<rect y="28" rx="5" height="22" width="14.519560987684324" fill="hsl(0, 100%, 80%)" stroke="hsl(0, 100%, 55%)" />
<g stroke="hsl(0, 100%, 40%)"><line x1="13.473494263238216" x2="15.565627712130432" y1="39" y2="39" />
<line x1="13.473494263238216" x2="13.473494263238216" y1="33" y2="45" />
<line x1="15.565627712130432" x2="15.565627712130432" y1="33" y2="45" />
</g>
</g>
<text fill="hsl(45, 100%, 40%)" y="77">coroutine.1000.heftia.deep 141  μs</text>
<g>
<title>141  μs ±  10 μs</title>
<rect y="83" rx="5" height="22" width="22.357549360107356" fill="hsl(45, 100%, 80%)" stroke="hsl(45, 100%, 55%)" />
<g stroke="hsl(45, 100%, 40%)"><line x1="20.71453944864125" x2="24.00055927157346" y1="94" y2="94" />
<line x1="20.71453944864125" x2="20.71453944864125" y1="88" y2="100" />
<line x1="24.00055927157346" x2="24.00055927157346" y1="88" y2="100" />
</g>
</g>
<text fill="hsl(90, 100%, 40%)" y="132">coroutine.1000.freer.shallow 99.2 μs</text>
<g>
<title>99.2 μs ± 9.8 μs</title>
<rect y="138" rx="5" height="22" width="15.723012891491319" fill="hsl(90, 100%, 80%)" stroke="hsl(90, 100%, 55%)" />
<g stroke="hsl(90, 100%, 40%)"><line x1="14.174717348765748" x2="17.271308434216888" y1="149" y2="149" />
<line x1="14.174717348765748" x2="14.174717348765748" y1="143" y2="155" />
<line x1="17.271308434216888" x2="17.271308434216888" y1="143" y2="155" />
</g>
</g>
<text fill="hsl(135, 100%, 40%)" y="187">coroutine.1000.freer.deep 137  μs</text>
<g>
<title>137  μs ± 8.7 μs</title>
<rect y="193" rx="5" height="22" width="21.659036080174783" fill="hsl(135, 100%, 80%)" stroke="hsl(135, 100%, 55%)" />
<g stroke="hsl(135, 100%, 40%)"><line x1="20.28488211131597" x2="23.033190049033596" y1="204" y2="204" />
<line x1="20.28488211131597" x2="20.28488211131597" y1="198" y2="210" />
<line x1="23.033190049033596" x2="23.033190049033596" y1="198" y2="210" />
</g>
</g>
<g fill="hsl(180, 100%, 40%)">
<text y="242">coroutine.1000.eff.shallow</text>
<text y="242" x="615.1578232929247" text-anchor="end">3.88 ms</text>
</g>
<g>
<title>3.88 ms ± 203 μs</title>
<rect y="248" rx="5" height="22" width="615.1578232929247" fill="hsl(180, 100%, 80%)" stroke="hsl(180, 100%, 55%)" />
<g stroke="hsl(180, 100%, 40%)"><line x1="583.0585063392036" x2="647.2571402466458" y1="259" y2="259" />
<line x1="583.0585063392036" x2="583.0585063392036" y1="253" y2="265" />
<line x1="647.2571402466458" x2="647.2571402466458" y1="253" y2="265" />
</g>
</g>
<g fill="hsl(225, 100%, 40%)">
<text y="297">coroutine.1000.eff.deep</text>
<text y="297" x="707.9754667685205" text-anchor="end">4.47 ms</text>
</g>
<g>
<title>4.47 ms ± 394 μs</title>
<rect y="303" rx="5" height="22" width="707.9754667685205" fill="hsl(225, 100%, 80%)" stroke="hsl(225, 100%, 55%)" />
<g stroke="hsl(225, 100%, 40%)"><line x1="645.6049718863186" x2="770.3459616507224" y1="314" y2="314" />
<line x1="645.6049718863186" x2="645.6049718863186" y1="308" y2="320" />
<line x1="770.3459616507224" x2="770.3459616507224" y1="308" y2="320" />
</g>
</g>
<g fill="hsl(270, 100%, 40%)">
<text y="352">coroutine.1000.mp.shallow</text>
<text y="352" x="833.5196064023413" text-anchor="end">5.26 ms</text>
</g>
<g>
<title>5.26 ms ± 348 μs</title>
<rect y="358" rx="5" height="22" width="833.5196064023413" fill="hsl(270, 100%, 80%)" stroke="hsl(270, 100%, 55%)" />
<g stroke="hsl(270, 100%, 40%)"><line x1="778.3660180279503" x2="888.6731947767323" y1="369" y2="369" />
<line x1="778.3660180279503" x2="778.3660180279503" y1="363" y2="375" />
<line x1="888.6731947767323" x2="888.6731947767323" y1="363" y2="375" />
</g>
</g>
<g fill="hsl(315, 100%, 40%)">
<text y="407">coroutine.1000.mp.deep</text>
<text y="407" x="885.4262288919757" text-anchor="end">5.59 ms</text>
</g>
<g>
<title>5.59 ms ± 344 μs</title>
<rect y="413" rx="5" height="22" width="885.4262288919757" fill="hsl(315, 100%, 80%)" stroke="hsl(315, 100%, 55%)" />
<g stroke="hsl(315, 100%, 40%)"><line x1="830.8524577839514" x2="940.0" y1="424" y2="424" />
<line x1="830.8524577839514" x2="830.8524577839514" y1="418" y2="430" />
<line x1="940.0" x2="940.0" y1="418" y2="430" />
</g>
</g>
</g>
</svg>
