<svg xmlns="http://www.w3.org/2000/svg" height="447" width="960.0" font-size="16" font-family="sans-serif" stroke-width="2">
<g transform="translate(10.0 0)">
<text fill="hsl(0, 100%, 40%)" y="22">coroutine.1000.heftia.shallow 92.0 μs</text>
<g>
<title>92.0 μs ± 7.6 μs</title>
<rect y="28" rx="5" height="22" width="14.212539475732283" fill="hsl(0, 100%, 80%)" stroke="hsl(0, 100%, 55%)" />
<g stroke="hsl(0, 100%, 40%)"><line x1="13.043890225558252" x2="15.381188725906314" y1="39" y2="39" />
<line x1="13.043890225558252" x2="13.043890225558252" y1="33" y2="45" />
<line x1="15.381188725906314" x2="15.381188725906314" y1="33" y2="45" />
</g>
</g>
<text fill="hsl(45, 100%, 40%)" y="77">coroutine.1000.heftia.deep 153  μs</text>
<g>
<title>153  μs ±  11 μs</title>
<rect y="83" rx="5" height="22" width="23.709573200816987" fill="hsl(45, 100%, 80%)" stroke="hsl(45, 100%, 55%)" />
<g stroke="hsl(45, 100%, 40%)"><line x1="22.02097299861959" x2="25.398173403014383" y1="94" y2="94" />
<line x1="22.02097299861959" x2="22.02097299861959" y1="88" y2="100" />
<line x1="25.398173403014383" x2="25.398173403014383" y1="88" y2="100" />
</g>
</g>
<text fill="hsl(90, 100%, 40%)" y="132">coroutine.1000.freer.shallow 98.4 μs</text>
<g>
<title>98.4 μs ± 6.6 μs</title>
<rect y="138" rx="5" height="22" width="15.21132480334651" fill="hsl(90, 100%, 80%)" stroke="hsl(90, 100%, 55%)" />
<g stroke="hsl(90, 100%, 40%)"><line x1="14.1851107067328" x2="16.23753889996022" y1="149" y2="149" />
<line x1="14.1851107067328" x2="14.1851107067328" y1="143" y2="155" />
<line x1="16.23753889996022" x2="16.23753889996022" y1="143" y2="155" />
</g>
</g>
<text fill="hsl(135, 100%, 40%)" y="187">coroutine.1000.freer.deep 138  μs</text>
<g>
<title>138  μs ±  12 μs</title>
<rect y="193" rx="5" height="22" width="21.2910969043813" fill="hsl(135, 100%, 80%)" stroke="hsl(135, 100%, 55%)" />
<g stroke="hsl(135, 100%, 40%)"><line x1="19.460773875818855" x2="23.12141993294374" y1="204" y2="204" />
<line x1="19.460773875818855" x2="19.460773875818855" y1="198" y2="210" />
<line x1="23.12141993294374" x2="23.12141993294374" y1="198" y2="210" />
</g>
</g>
<g fill="hsl(180, 100%, 40%)">
<text y="242">coroutine.1000.eff.shallow</text>
<text y="242" x="610.363318777522" text-anchor="end">3.95 ms</text>
</g>
<g>
<title>3.95 ms ± 250 μs</title>
<rect y="248" rx="5" height="22" width="610.363318777522" fill="hsl(180, 100%, 80%)" stroke="hsl(180, 100%, 55%)" />
<g stroke="hsl(180, 100%, 40%)"><line x1="571.69537959472" x2="649.031257960324" y1="259" y2="259" />
<line x1="571.69537959472" x2="571.69537959472" y1="253" y2="265" />
<line x1="649.031257960324" x2="649.031257960324" y1="253" y2="265" />
</g>
</g>
<g fill="hsl(225, 100%, 40%)">
<text y="297">coroutine.1000.eff.deep</text>
<text y="297" x="714.4358460165238" text-anchor="end">4.62 ms</text>
</g>
<g>
<title>4.62 ms ± 257 μs</title>
<rect y="303" rx="5" height="22" width="714.4358460165238" fill="hsl(225, 100%, 80%)" stroke="hsl(225, 100%, 55%)" />
<g stroke="hsl(225, 100%, 40%)"><line x1="674.7474102058455" x2="754.124281827202" y1="314" y2="314" />
<line x1="674.7474102058455" x2="674.7474102058455" y1="308" y2="320" />
<line x1="754.124281827202" x2="754.124281827202" y1="308" y2="320" />
</g>
</g>
<g fill="hsl(270, 100%, 40%)">
<text y="352">coroutine.1000.mp.shallow</text>
<text y="352" x="838.9815162758922" text-anchor="end">5.43 ms</text>
</g>
<g>
<title>5.43 ms ± 486 μs</title>
<rect y="358" rx="5" height="22" width="838.9815162758922" fill="hsl(270, 100%, 80%)" stroke="hsl(270, 100%, 55%)" />
<g stroke="hsl(270, 100%, 40%)"><line x1="763.946283854306" x2="914.0167486974784" y1="369" y2="369" />
<line x1="763.946283854306" x2="763.946283854306" y1="363" y2="375" />
<line x1="914.0167486974784" x2="914.0167486974784" y1="363" y2="375" />
</g>
</g>
<g fill="hsl(315, 100%, 40%)">
<text y="407">coroutine.1000.mp.deep</text>
<text y="407" x="878.1856255292381" text-anchor="end">5.68 ms</text>
</g>
<g>
<title>5.68 ms ± 400 μs</title>
<rect y="413" rx="5" height="22" width="878.1856255292381" fill="hsl(315, 100%, 80%)" stroke="hsl(315, 100%, 55%)" />
<g stroke="hsl(315, 100%, 40%)"><line x1="816.3712510584762" x2="940.0" y1="424" y2="424" />
<line x1="816.3712510584762" x2="816.3712510584762" y1="418" y2="430" />
<line x1="940.0" x2="940.0" y1="418" y2="430" />
</g>
</g>
</g>
</svg>
