<svg xmlns="http://www.w3.org/2000/svg" height="887" width="960.0" font-size="16" font-family="sans-serif" stroke-width="2">
<g transform="translate(10.0 0)">
<text fill="hsl(0, 100%, 40%)" y="22">countdown.10000.heftia.shallow 478  μs</text>
<g>
<title>478  μs ±  24 μs</title>
<rect y="28" rx="5" height="22" width="27.44860014058427" fill="hsl(0, 100%, 80%)" stroke="hsl(0, 100%, 55%)" />
<g stroke="hsl(0, 100%, 40%)"><line x1="26.060018498818785" x2="28.837181782349752" y1="39" y2="39" />
<line x1="26.060018498818785" x2="26.060018498818785" y1="33" y2="45" />
<line x1="28.837181782349752" x2="28.837181782349752" y1="33" y2="45" />
</g>
</g>
<text fill="hsl(22, 100%, 40%)" y="77">countdown.10000.heftia.deep 1.57 ms</text>
<g>
<title>1.57 ms ±  96 μs</title>
<rect y="83" rx="5" height="22" width="90.19076145162303" fill="hsl(22, 100%, 80%)" stroke="hsl(22, 100%, 55%)" />
<g stroke="hsl(22, 100%, 40%)"><line x1="84.6966721626849" x2="95.68485074056116" y1="94" y2="94" />
<line x1="84.6966721626849" x2="84.6966721626849" y1="88" y2="100" />
<line x1="95.68485074056116" x2="95.68485074056116" y1="88" y2="100" />
</g>
</g>
<text fill="hsl(45, 100%, 40%)" y="132">countdown.10000.freer.shallow 444  μs</text>
<g>
<title>444  μs ±  43 μs</title>
<rect y="138" rx="5" height="22" width="25.485585360774756" fill="hsl(45, 100%, 80%)" stroke="hsl(45, 100%, 55%)" />
<g stroke="hsl(45, 100%, 40%)"><line x1="23.043765501889308" x2="27.927405219660205" y1="149" y2="149" />
<line x1="23.043765501889308" x2="23.043765501889308" y1="143" y2="155" />
<line x1="27.927405219660205" x2="27.927405219660205" y1="143" y2="155" />
</g>
</g>
<text fill="hsl(67, 100%, 40%)" y="187">countdown.10000.freer.deep 1.28 ms</text>
<g>
<title>1.28 ms ± 103 μs</title>
<rect y="193" rx="5" height="22" width="73.64550697115693" fill="hsl(67, 100%, 80%)" stroke="hsl(67, 100%, 55%)" />
<g stroke="hsl(67, 100%, 40%)"><line x1="67.76236065530263" x2="79.52865328701124" y1="204" y2="204" />
<line x1="67.76236065530263" x2="67.76236065530263" y1="198" y2="210" />
<line x1="79.52865328701124" x2="79.52865328701124" y1="198" y2="210" />
</g>
</g>
<text fill="hsl(90, 100%, 40%)" y="242">countdown.10000.polyemy.shallow 2.66 ms</text>
<g>
<title>2.66 ms ± 244 μs</title>
<rect y="248" rx="5" height="22" width="152.4848710980661" fill="hsl(90, 100%, 80%)" stroke="hsl(90, 100%, 55%)" />
<g stroke="hsl(90, 100%, 40%)"><line x1="138.46455286695303" x2="166.50518932917916" y1="259" y2="259" />
<line x1="138.46455286695303" x2="138.46455286695303" y1="253" y2="265" />
<line x1="166.50518932917916" x2="166.50518932917916" y1="253" y2="265" />
</g>
</g>
<text fill="hsl(112, 100%, 40%)" y="297">countdown.10000.polysemy.deep 4.29 ms</text>
<g>
<title>4.29 ms ± 345 μs</title>
<rect y="303" rx="5" height="22" width="246.2013196441604" fill="hsl(112, 100%, 80%)" stroke="hsl(112, 100%, 55%)" />
<g stroke="hsl(112, 100%, 40%)"><line x1="226.4265993489973" x2="265.9760399393235" y1="314" y2="314" />
<line x1="226.4265993489973" x2="226.4265993489973" y1="308" y2="320" />
<line x1="265.9760399393235" x2="265.9760399393235" y1="308" y2="320" />
</g>
</g>
<text fill="hsl(135, 100%, 40%)" y="352">countdown.10000.fused.shallow 2.09 ms</text>
<g>
<title>2.09 ms ± 206 μs</title>
<rect y="358" rx="5" height="22" width="119.723316610023" fill="hsl(135, 100%, 80%)" stroke="hsl(135, 100%, 55%)" />
<g stroke="hsl(135, 100%, 40%)"><line x1="107.9294198830411" x2="131.5172133370049" y1="369" y2="369" />
<line x1="107.9294198830411" x2="107.9294198830411" y1="363" y2="375" />
<line x1="131.5172133370049" x2="131.5172133370049" y1="363" y2="375" />
</g>
</g>
<g fill="hsl(157, 100%, 40%)">
<text y="407">countdown.10000.fused.deep</text>
<text y="407" x="922.5302217175358" text-anchor="end">16.1 ms</text>
</g>
<g>
<title>16.1 ms ± 304 μs</title>
<rect y="413" rx="5" height="22" width="922.5302217175358" fill="hsl(157, 100%, 80%)" stroke="hsl(157, 100%, 55%)" />
<g stroke="hsl(157, 100%, 40%)"><line x1="905.0604434350716" x2="940.0" y1="424" y2="424" />
<line x1="905.0604434350716" x2="905.0604434350716" y1="418" y2="430" />
<line x1="940.0" x2="940.0" y1="418" y2="430" />
</g>
</g>
<text fill="hsl(180, 100%, 40%)" y="462">countdown.10000.effectful.shallow 227  μs</text>
<g>
<title>227  μs ±  11 μs</title>
<rect y="468" rx="5" height="22" width="13.018743319777856" fill="hsl(180, 100%, 80%)" stroke="hsl(180, 100%, 55%)" />
<g stroke="hsl(180, 100%, 40%)"><line x1="12.362773414087082" x2="13.674713225468631" y1="479" y2="479" />
<line x1="12.362773414087082" x2="12.362773414087082" y1="473" y2="485" />
<line x1="13.674713225468631" x2="13.674713225468631" y1="473" y2="485" />
</g>
</g>
<text fill="hsl(202, 100%, 40%)" y="517">countdown.10000.effectful.deep 226  μs</text>
<g>
<title>226  μs ±  11 μs</title>
<rect y="523" rx="5" height="22" width="12.988519850679861" fill="hsl(202, 100%, 80%)" stroke="hsl(202, 100%, 55%)" />
<g stroke="hsl(202, 100%, 40%)"><line x1="12.361994734054333" x2="13.615044967305389" y1="534" y2="534" />
<line x1="12.361994734054333" x2="12.361994734054333" y1="528" y2="540" />
<line x1="13.615044967305389" x2="13.615044967305389" y1="528" y2="540" />
</g>
</g>
<text fill="hsl(225, 100%, 40%)" y="572">countdown.10000.eff.shallow 522  μs</text>
<g>
<title>522  μs ±  25 μs</title>
<rect y="578" rx="5" height="22" width="29.96855578696902" fill="hsl(225, 100%, 80%)" stroke="hsl(225, 100%, 55%)" />
<g stroke="hsl(225, 100%, 40%)"><line x1="28.5430568737844" x2="31.39405470015364" y1="589" y2="589" />
<line x1="28.5430568737844" x2="28.5430568737844" y1="583" y2="595" />
<line x1="31.39405470015364" x2="31.39405470015364" y1="583" y2="595" />
</g>
</g>
<text fill="hsl(247, 100%, 40%)" y="627">countdown.10000.eff.deep 527  μs</text>
<g>
<title>527  μs ±  34 μs</title>
<rect y="633" rx="5" height="22" width="30.26411429074609" fill="hsl(247, 100%, 80%)" stroke="hsl(247, 100%, 55%)" />
<g stroke="hsl(247, 100%, 40%)"><line x1="28.328982120164554" x2="32.199246461327625" y1="644" y2="644" />
<line x1="28.328982120164554" x2="28.328982120164554" y1="638" y2="650" />
<line x1="32.199246461327625" x2="32.199246461327625" y1="638" y2="650" />
</g>
</g>
<text fill="hsl(270, 100%, 40%)" y="682">countdown.10000.ev.shallow 281  μs</text>
<g>
<title>281  μs ±  25 μs</title>
<rect y="688" rx="5" height="22" width="16.096311043335664" fill="hsl(270, 100%, 80%)" stroke="hsl(270, 100%, 55%)" />
<g stroke="hsl(270, 100%, 40%)"><line x1="14.676305522409178" x2="17.51631656426215" y1="699" y2="699" />
<line x1="14.676305522409178" x2="14.676305522409178" y1="693" y2="705" />
<line x1="17.51631656426215" x2="17.51631656426215" y1="693" y2="705" />
</g>
</g>
<text fill="hsl(292, 100%, 40%)" y="737">countdown.10000.ev.deep 264  μs</text>
<g>
<title>264  μs ±  25 μs</title>
<rect y="743" rx="5" height="22" width="15.175774856563834" fill="hsl(292, 100%, 80%)" stroke="hsl(292, 100%, 55%)" />
<g stroke="hsl(292, 100%, 40%)"><line x1="13.725909931443029" x2="16.62563978168464" y1="754" y2="754" />
<line x1="13.725909931443029" x2="13.725909931443029" y1="748" y2="760" />
<line x1="16.62563978168464" x2="16.62563978168464" y1="748" y2="760" />
</g>
</g>
<text fill="hsl(315, 100%, 40%)" y="792">countdown.10000.mtl.shallow 928  μs</text>
<g>
<title>928  μs ±  58 μs</title>
<rect y="798" rx="5" height="22" width="53.24439387357916" fill="hsl(315, 100%, 80%)" stroke="hsl(315, 100%, 55%)" />
<g stroke="hsl(315, 100%, 40%)"><line x1="49.93531357687812" x2="56.553474170280204" y1="809" y2="809" />
<line x1="49.93531357687812" x2="49.93531357687812" y1="803" y2="815" />
<line x1="56.553474170280204" x2="56.553474170280204" y1="803" y2="815" />
</g>
</g>
<g fill="hsl(337, 100%, 40%)">
<text y="847">countdown.10000.mtl.deep</text>
<text y="847" x="552.8751337503606" text-anchor="end">9.64 ms</text>
</g>
<g>
<title>9.64 ms ± 825 μs</title>
<rect y="853" rx="5" height="22" width="552.8751337503606" fill="hsl(337, 100%, 80%)" stroke="hsl(337, 100%, 55%)" />
<g stroke="hsl(337, 100%, 40%)"><line x1="505.5544501378064" x2="600.1958173629149" y1="864" y2="864" />
<line x1="505.5544501378064" x2="505.5544501378064" y1="858" y2="870" />
<line x1="600.1958173629149" x2="600.1958173629149" y1="858" y2="870" />
</g>
</g>
</g>
</svg>
