<svg xmlns="http://www.w3.org/2000/svg" height="667" width="960.0" font-size="16" font-family="sans-serif" stroke-width="2">
<g transform="translate(10.0 0)">
<text fill="hsl(0, 100%, 40%)" y="22">countdown.10000.heftia.shallow 503  μs</text>
<g>
<title>503  μs ±  45 μs</title>
<rect y="28" rx="5" height="22" width="26.22285200088755" fill="hsl(0, 100%, 80%)" stroke="hsl(0, 100%, 55%)" />
<g stroke="hsl(0, 100%, 40%)"><line x1="23.875794979628232" x2="28.569909022146867" y1="39" y2="39" />
<line x1="23.875794979628232" x2="23.875794979628232" y1="33" y2="45" />
<line x1="28.569909022146867" x2="28.569909022146867" y1="33" y2="45" />
</g>
</g>
<text fill="hsl(30, 100%, 40%)" y="77">countdown.10000.heftia.deep 1.58 ms</text>
<g>
<title>1.58 ms ± 139 μs</title>
<rect y="83" rx="5" height="22" width="82.32211120343666" fill="hsl(30, 100%, 80%)" stroke="hsl(30, 100%, 55%)" />
<g stroke="hsl(30, 100%, 40%)"><line x1="75.09728843723992" x2="89.5469339696334" y1="94" y2="94" />
<line x1="75.09728843723992" x2="75.09728843723992" y1="88" y2="100" />
<line x1="89.5469339696334" x2="89.5469339696334" y1="88" y2="100" />
</g>
</g>
<text fill="hsl(60, 100%, 40%)" y="132">countdown.10000.freer.shallow 468  μs</text>
<g>
<title>468  μs ±  34 μs</title>
<rect y="138" rx="5" height="22" width="24.424387314370698" fill="hsl(60, 100%, 80%)" stroke="hsl(60, 100%, 55%)" />
<g stroke="hsl(60, 100%, 40%)"><line x1="22.671784273849408" x2="26.176990354891988" y1="149" y2="149" />
<line x1="22.671784273849408" x2="22.671784273849408" y1="143" y2="155" />
<line x1="26.176990354891988" x2="26.176990354891988" y1="143" y2="155" />
</g>
</g>
<text fill="hsl(90, 100%, 40%)" y="187">countdown.10000.freer.deep 1.44 ms</text>
<g>
<title>1.44 ms ±  94 μs</title>
<rect y="193" rx="5" height="22" width="74.94190074144842" fill="hsl(90, 100%, 80%)" stroke="hsl(90, 100%, 55%)" />
<g stroke="hsl(90, 100%, 40%)"><line x1="70.05090230249914" x2="79.8328991803977" y1="204" y2="204" />
<line x1="70.05090230249914" x2="70.05090230249914" y1="198" y2="210" />
<line x1="79.8328991803977" x2="79.8328991803977" y1="198" y2="210" />
</g>
</g>
<text fill="hsl(120, 100%, 40%)" y="242">countdown.10000.polyemy.shallow 2.88 ms</text>
<g>
<title>2.88 ms ± 180 μs</title>
<rect y="248" rx="5" height="22" width="150.16600685867516" fill="hsl(120, 100%, 80%)" stroke="hsl(120, 100%, 55%)" />
<g stroke="hsl(120, 100%, 40%)"><line x1="140.75770188117943" x2="159.5743118361709" y1="259" y2="259" />
<line x1="140.75770188117943" x2="140.75770188117943" y1="253" y2="265" />
<line x1="159.5743118361709" x2="159.5743118361709" y1="253" y2="265" />
</g>
</g>
<text fill="hsl(150, 100%, 40%)" y="297">countdown.10000.polysemy.deep 4.55 ms</text>
<g>
<title>4.55 ms ± 380 μs</title>
<rect y="303" rx="5" height="22" width="237.22021353201322" fill="hsl(150, 100%, 80%)" stroke="hsl(150, 100%, 55%)" />
<g stroke="hsl(150, 100%, 40%)"><line x1="217.42803265875028" x2="257.01239440527615" y1="314" y2="314" />
<line x1="217.42803265875028" x2="217.42803265875028" y1="308" y2="320" />
<line x1="257.01239440527615" x2="257.01239440527615" y1="308" y2="320" />
</g>
</g>
<text fill="hsl(180, 100%, 40%)" y="352">countdown.10000.fused.shallow 2.27 ms</text>
<g>
<title>2.27 ms ± 148 μs</title>
<rect y="358" rx="5" height="22" width="118.19152518588542" fill="hsl(180, 100%, 80%)" stroke="hsl(180, 100%, 55%)" />
<g stroke="hsl(180, 100%, 40%)"><line x1="110.45480355208014" x2="125.92824681969071" y1="369" y2="369" />
<line x1="110.45480355208014" x2="110.45480355208014" y1="363" y2="375" />
<line x1="125.92824681969071" x2="125.92824681969071" y1="363" y2="375" />
</g>
</g>
<g fill="hsl(210, 100%, 40%)">
<text y="407">countdown.10000.fused.deep</text>
<text y="407" x="860.5364008704511" text-anchor="end">16.5 ms</text>
</g>
<g>
<title>16.5 ms ± 1.5 ms</title>
<rect y="413" rx="5" height="22" width="860.5364008704511" fill="hsl(210, 100%, 80%)" stroke="hsl(210, 100%, 55%)" />
<g stroke="hsl(210, 100%, 40%)"><line x1="781.0728017409022" x2="940.0" y1="424" y2="424" />
<line x1="781.0728017409022" x2="781.0728017409022" y1="418" y2="430" />
<line x1="940.0" x2="940.0" y1="418" y2="430" />
</g>
</g>
<text fill="hsl(240, 100%, 40%)" y="462">countdown.10000.effectful.shallow 235  μs</text>
<g>
<title>235  μs ±  12 μs</title>
<rect y="468" rx="5" height="22" width="12.238999518872141" fill="hsl(240, 100%, 80%)" stroke="hsl(240, 100%, 55%)" />
<g stroke="hsl(240, 100%, 40%)"><line x1="11.601053547121571" x2="12.876945490622711" y1="479" y2="479" />
<line x1="11.601053547121571" x2="11.601053547121571" y1="473" y2="485" />
<line x1="12.876945490622711" x2="12.876945490622711" y1="473" y2="485" />
</g>
</g>
<text fill="hsl(270, 100%, 40%)" y="517">countdown.10000.effectful.deep 236  μs</text>
<g>
<title>236  μs ±  22 μs</title>
<rect y="523" rx="5" height="22" width="12.330597831480363" fill="hsl(270, 100%, 80%)" stroke="hsl(270, 100%, 55%)" />
<g stroke="hsl(270, 100%, 40%)"><line x1="11.168018755723297" x2="13.493176907237428" y1="534" y2="534" />
<line x1="11.168018755723297" x2="11.168018755723297" y1="528" y2="540" />
<line x1="13.493176907237428" x2="13.493176907237428" y1="528" y2="540" />
</g>
</g>
<text fill="hsl(300, 100%, 40%)" y="572">countdown.10000.mtl.shallow 955  μs</text>
<g>
<title>955  μs ±  85 μs</title>
<rect y="578" rx="5" height="22" width="49.77383760866456" fill="hsl(300, 100%, 80%)" stroke="hsl(300, 100%, 55%)" />
<g stroke="hsl(300, 100%, 40%)"><line x1="45.319133279513565" x2="54.22854193781555" y1="589" y2="589" />
<line x1="45.319133279513565" x2="45.319133279513565" y1="583" y2="595" />
<line x1="54.22854193781555" x2="54.22854193781555" y1="583" y2="595" />
</g>
</g>
<g fill="hsl(330, 100%, 40%)">
<text y="627">countdown.10000.mtl.deep</text>
<text y="627" x="533.6868748535766" text-anchor="end">10.2 ms</text>
</g>
<g>
<title>10.2 ms ± 752 μs</title>
<rect y="633" rx="5" height="22" width="533.6868748535766" fill="hsl(330, 100%, 80%)" stroke="hsl(330, 100%, 55%)" />
<g stroke="hsl(330, 100%, 40%)"><line x1="494.45330421704836" x2="572.9204454901047" y1="644" y2="644" />
<line x1="494.45330421704836" x2="494.45330421704836" y1="638" y2="650" />
<line x1="572.9204454901047" x2="572.9204454901047" y1="638" y2="650" />
</g>
</g>
</g>
</svg>
