<svg xmlns="http://www.w3.org/2000/svg" height="887" width="960.0" font-size="16" font-family="sans-serif" stroke-width="2">
<g transform="translate(10.0 0)">
<text fill="hsl(0, 100%, 40%)" y="22">countdown.10000.heftia.shallow 493  μs</text>
<g>
<title>493  μs ±  39 μs</title>
<rect y="28" rx="5" height="22" width="24.737069621122235" fill="hsl(0, 100%, 80%)" stroke="hsl(0, 100%, 55%)" />
<g stroke="hsl(0, 100%, 40%)"><line x1="22.789664510324076" x2="26.684474731920393" y1="39" y2="39" />
<line x1="22.789664510324076" x2="22.789664510324076" y1="33" y2="45" />
<line x1="26.684474731920393" x2="26.684474731920393" y1="33" y2="45" />
</g>
</g>
<text fill="hsl(22, 100%, 40%)" y="77">countdown.10000.heftia.deep 1.61 ms</text>
<g>
<title>1.61 ms ± 110 μs</title>
<rect y="83" rx="5" height="22" width="80.5584163461267" fill="hsl(22, 100%, 80%)" stroke="hsl(22, 100%, 55%)" />
<g stroke="hsl(22, 100%, 40%)"><line x1="75.06363774635913" x2="86.05319494589428" y1="94" y2="94" />
<line x1="75.06363774635913" x2="75.06363774635913" y1="88" y2="100" />
<line x1="86.05319494589428" x2="86.05319494589428" y1="88" y2="100" />
</g>
</g>
<text fill="hsl(45, 100%, 40%)" y="132">countdown.10000.freer.shallow 467  μs</text>
<g>
<title>467  μs ±  12 μs</title>
<rect y="138" rx="5" height="22" width="23.423350433684256" fill="hsl(45, 100%, 80%)" stroke="hsl(45, 100%, 55%)" />
<g stroke="hsl(45, 100%, 40%)"><line x1="22.81243171221415" x2="24.034269155154362" y1="149" y2="149" />
<line x1="22.81243171221415" x2="22.81243171221415" y1="143" y2="155" />
<line x1="24.034269155154362" x2="24.034269155154362" y1="143" y2="155" />
</g>
</g>
<text fill="hsl(67, 100%, 40%)" y="187">countdown.10000.freer.deep 1.33 ms</text>
<g>
<title>1.33 ms ±  92 μs</title>
<rect y="193" rx="5" height="22" width="66.92574821464066" fill="hsl(67, 100%, 80%)" stroke="hsl(67, 100%, 55%)" />
<g stroke="hsl(67, 100%, 40%)"><line x1="62.32790836325984" x2="71.52358806602149" y1="204" y2="204" />
<line x1="62.32790836325984" x2="62.32790836325984" y1="198" y2="210" />
<line x1="71.52358806602149" x2="71.52358806602149" y1="198" y2="210" />
</g>
</g>
<text fill="hsl(90, 100%, 40%)" y="242">countdown.10000.polyemy.shallow 2.78 ms</text>
<g>
<title>2.78 ms ± 173 μs</title>
<rect y="248" rx="5" height="22" width="139.31671139135665" fill="hsl(90, 100%, 80%)" stroke="hsl(90, 100%, 55%)" />
<g stroke="hsl(90, 100%, 40%)"><line x1="130.64513781736244" x2="147.98828496535086" y1="259" y2="259" />
<line x1="130.64513781736244" x2="130.64513781736244" y1="253" y2="265" />
<line x1="147.98828496535086" x2="147.98828496535086" y1="253" y2="265" />
</g>
</g>
<text fill="hsl(112, 100%, 40%)" y="297">countdown.10000.polysemy.deep 4.40 ms</text>
<g>
<title>4.40 ms ± 357 μs</title>
<rect y="303" rx="5" height="22" width="220.9295284216314" fill="hsl(112, 100%, 80%)" stroke="hsl(112, 100%, 55%)" />
<g stroke="hsl(112, 100%, 40%)"><line x1="203.01089779135492" x2="238.84815905190788" y1="314" y2="314" />
<line x1="203.01089779135492" x2="203.01089779135492" y1="308" y2="320" />
<line x1="238.84815905190788" x2="238.84815905190788" y1="308" y2="320" />
</g>
</g>
<text fill="hsl(135, 100%, 40%)" y="352">countdown.10000.fused.shallow 2.21 ms</text>
<g>
<title>2.21 ms ± 217 μs</title>
<rect y="358" rx="5" height="22" width="110.95743191907964" fill="hsl(135, 100%, 80%)" stroke="hsl(135, 100%, 55%)" />
<g stroke="hsl(135, 100%, 40%)"><line x1="100.06987163548459" x2="121.84499220267469" y1="369" y2="369" />
<line x1="100.06987163548459" x2="100.06987163548459" y1="363" y2="375" />
<line x1="121.84499220267469" x2="121.84499220267469" y1="363" y2="375" />
</g>
</g>
<g fill="hsl(157, 100%, 40%)">
<text y="407">countdown.10000.fused.deep</text>
<text y="407" x="862.6971631612038" text-anchor="end">17.2 ms</text>
</g>
<g>
<title>17.2 ms ± 1.5 ms</title>
<rect y="413" rx="5" height="22" width="862.6971631612038" fill="hsl(157, 100%, 80%)" stroke="hsl(157, 100%, 55%)" />
<g stroke="hsl(157, 100%, 40%)"><line x1="785.3943263224076" x2="940.0" y1="424" y2="424" />
<line x1="785.3943263224076" x2="785.3943263224076" y1="418" y2="430" />
<line x1="940.0" x2="940.0" y1="418" y2="430" />
</g>
</g>
<text fill="hsl(180, 100%, 40%)" y="462">countdown.10000.effectful.shallow 237  μs</text>
<g>
<title>237  μs ±  14 μs</title>
<rect y="468" rx="5" height="22" width="11.885245306589308" fill="hsl(180, 100%, 80%)" stroke="hsl(180, 100%, 55%)" />
<g stroke="hsl(180, 100%, 40%)"><line x1="11.1693325255908" x2="12.601158087587816" y1="479" y2="479" />
<line x1="11.1693325255908" x2="11.1693325255908" y1="473" y2="485" />
<line x1="12.601158087587816" x2="12.601158087587816" y1="473" y2="485" />
</g>
</g>
<text fill="hsl(202, 100%, 40%)" y="517">countdown.10000.effectful.deep 241  μs</text>
<g>
<title>241  μs ±  12 μs</title>
<rect y="523" rx="5" height="22" width="12.087731634956622" fill="hsl(202, 100%, 80%)" stroke="hsl(202, 100%, 55%)" />
<g stroke="hsl(202, 100%, 40%)"><line x1="11.465792577584297" x2="12.709670692328947" y1="534" y2="534" />
<line x1="11.465792577584297" x2="11.465792577584297" y1="528" y2="540" />
<line x1="12.709670692328947" x2="12.709670692328947" y1="528" y2="540" />
</g>
</g>
<text fill="hsl(225, 100%, 40%)" y="572">countdown.10000.eff.shallow 509  μs</text>
<g>
<title>509  μs ±  30 μs</title>
<rect y="578" rx="5" height="22" width="25.54231649930115" fill="hsl(225, 100%, 80%)" stroke="hsl(225, 100%, 55%)" />
<g stroke="hsl(225, 100%, 40%)"><line x1="24.020195275372632" x2="27.06443772322967" y1="589" y2="589" />
<line x1="24.020195275372632" x2="24.020195275372632" y1="583" y2="595" />
<line x1="27.06443772322967" x2="27.06443772322967" y1="583" y2="595" />
</g>
</g>
<text fill="hsl(247, 100%, 40%)" y="627">countdown.10000.eff.deep 504  μs</text>
<g>
<title>504  μs ±  21 μs</title>
<rect y="633" rx="5" height="22" width="25.309433324313364" fill="hsl(247, 100%, 80%)" stroke="hsl(247, 100%, 55%)" />
<g stroke="hsl(247, 100%, 40%)"><line x1="24.234339403431647" x2="26.38452724519508" y1="644" y2="644" />
<line x1="24.234339403431647" x2="24.234339403431647" y1="638" y2="650" />
<line x1="26.38452724519508" x2="26.38452724519508" y1="638" y2="650" />
</g>
</g>
<text fill="hsl(270, 100%, 40%)" y="682">countdown.10000.ev.shallow 299  μs</text>
<g>
<title>299  μs ±  23 μs</title>
<rect y="688" rx="5" height="22" width="15.023718390431014" fill="hsl(270, 100%, 80%)" stroke="hsl(270, 100%, 55%)" />
<g stroke="hsl(270, 100%, 40%)"><line x1="13.886772819244632" x2="16.1606639616174" y1="699" y2="699" />
<line x1="13.886772819244632" x2="13.886772819244632" y1="693" y2="705" />
<line x1="16.1606639616174" x2="16.1606639616174" y1="693" y2="705" />
</g>
</g>
<text fill="hsl(292, 100%, 40%)" y="737">countdown.10000.ev.deep 272  μs</text>
<g>
<title>272  μs ±  14 μs</title>
<rect y="743" rx="5" height="22" width="13.660964167615779" fill="hsl(292, 100%, 80%)" stroke="hsl(292, 100%, 55%)" />
<g stroke="hsl(292, 100%, 40%)"><line x1="12.940635304030291" x2="14.381293031201267" y1="754" y2="754" />
<line x1="12.940635304030291" x2="12.940635304030291" y1="748" y2="760" />
<line x1="14.381293031201267" x2="14.381293031201267" y1="748" y2="760" />
</g>
</g>
<text fill="hsl(315, 100%, 40%)" y="792">countdown.10000.mtl.shallow 918  μs</text>
<g>
<title>918  μs ±  48 μs</title>
<rect y="798" rx="5" height="22" width="46.06784109624633" fill="hsl(315, 100%, 80%)" stroke="hsl(315, 100%, 55%)" />
<g stroke="hsl(315, 100%, 40%)"><line x1="43.675077007029266" x2="48.4606051854634" y1="809" y2="809" />
<line x1="43.675077007029266" x2="43.675077007029266" y1="803" y2="815" />
<line x1="48.4606051854634" x2="48.4606051854634" y1="803" y2="815" />
</g>
</g>
<g fill="hsl(337, 100%, 40%)">
<text y="847">countdown.10000.mtl.deep</text>
<text y="847" x="504.5140399788594" text-anchor="end">10.1 ms</text>
</g>
<g>
<title>10.1 ms ± 457 μs</title>
<rect y="853" rx="5" height="22" width="504.5140399788594" fill="hsl(337, 100%, 80%)" stroke="hsl(337, 100%, 55%)" />
<g stroke="hsl(337, 100%, 40%)"><line x1="481.5857592585454" x2="527.4423206991734" y1="864" y2="864" />
<line x1="481.5857592585454" x2="481.5857592585454" y1="858" y2="870" />
<line x1="527.4423206991734" x2="527.4423206991734" y1="858" y2="870" />
</g>
</g>
</g>
</svg>
