<svg xmlns="http://www.w3.org/2000/svg" height="667" width="960.0" font-size="16" font-family="sans-serif" stroke-width="2">
<g transform="translate(10.0 0)">
<text fill="hsl(0, 100%, 40%)" y="22">countdown.10000.heftia.shallow 485  μs</text>
<g>
<title>485  μs ±  39 μs</title>
<rect y="28" rx="5" height="22" width="25.523431735024364" fill="hsl(0, 100%, 80%)" stroke="hsl(0, 100%, 55%)" />
<g stroke="hsl(0, 100%, 40%)"><line x1="23.45896721820469" x2="27.587896251844036" y1="39" y2="39" />
<line x1="23.45896721820469" x2="23.45896721820469" y1="33" y2="45" />
<line x1="27.587896251844036" x2="27.587896251844036" y1="33" y2="45" />
</g>
</g>
<text fill="hsl(30, 100%, 40%)" y="77">countdown.10000.heftia.deep 1.65 ms</text>
<g>
<title>1.65 ms ± 113 μs</title>
<rect y="83" rx="5" height="22" width="87.06659097770488" fill="hsl(30, 100%, 80%)" stroke="hsl(30, 100%, 55%)" />
<g stroke="hsl(30, 100%, 40%)"><line x1="81.11326509167102" x2="93.01991686373873" y1="94" y2="94" />
<line x1="81.11326509167102" x2="81.11326509167102" y1="88" y2="100" />
<line x1="93.01991686373873" x2="93.01991686373873" y1="88" y2="100" />
</g>
</g>
<text fill="hsl(60, 100%, 40%)" y="132">countdown.10000.freer.shallow 507  μs</text>
<g>
<title>507  μs ±  30 μs</title>
<rect y="138" rx="5" height="22" width="26.68140215022501" fill="hsl(60, 100%, 80%)" stroke="hsl(60, 100%, 55%)" />
<g stroke="hsl(60, 100%, 40%)"><line x1="25.096498187405448" x2="28.266306113044575" y1="149" y2="149" />
<line x1="25.096498187405448" x2="25.096498187405448" y1="143" y2="155" />
<line x1="28.266306113044575" x2="28.266306113044575" y1="143" y2="155" />
</g>
</g>
<text fill="hsl(90, 100%, 40%)" y="187">countdown.10000.freer.deep 1.41 ms</text>
<g>
<title>1.41 ms ±  11 μs</title>
<rect y="193" rx="5" height="22" width="74.09606369685979" fill="hsl(90, 100%, 80%)" stroke="hsl(90, 100%, 55%)" />
<g stroke="hsl(90, 100%, 40%)"><line x1="73.51097353292552" x2="74.68115386079405" y1="204" y2="204" />
<line x1="73.51097353292552" x2="73.51097353292552" y1="198" y2="210" />
<line x1="74.68115386079405" x2="74.68115386079405" y1="198" y2="210" />
</g>
</g>
<text fill="hsl(120, 100%, 40%)" y="242">countdown.10000.polyemy.shallow 2.88 ms</text>
<g>
<title>2.88 ms ± 194 μs</title>
<rect y="248" rx="5" height="22" width="151.42851019543892" fill="hsl(120, 100%, 80%)" stroke="hsl(120, 100%, 55%)" />
<g stroke="hsl(120, 100%, 40%)"><line x1="141.24042848828537" x2="161.61659190259246" y1="259" y2="259" />
<line x1="141.24042848828537" x2="141.24042848828537" y1="253" y2="265" />
<line x1="161.61659190259246" x2="161.61659190259246" y1="253" y2="265" />
</g>
</g>
<text fill="hsl(150, 100%, 40%)" y="297">countdown.10000.polysemy.deep 4.34 ms</text>
<g>
<title>4.34 ms ± 405 μs</title>
<rect y="303" rx="5" height="22" width="228.38871055218624" fill="hsl(150, 100%, 80%)" stroke="hsl(150, 100%, 55%)" />
<g stroke="hsl(150, 100%, 40%)"><line x1="207.0599839372178" x2="249.71743716715469" y1="314" y2="314" />
<line x1="207.0599839372178" x2="207.0599839372178" y1="308" y2="320" />
<line x1="249.71743716715469" x2="249.71743716715469" y1="308" y2="320" />
</g>
</g>
<text fill="hsl(180, 100%, 40%)" y="352">countdown.10000.fused.shallow 2.17 ms</text>
<g>
<title>2.17 ms ± 166 μs</title>
<rect y="358" rx="5" height="22" width="114.06516252243917" fill="hsl(180, 100%, 80%)" stroke="hsl(180, 100%, 55%)" />
<g stroke="hsl(180, 100%, 40%)"><line x1="105.32893219026465" x2="122.80139285461368" y1="369" y2="369" />
<line x1="105.32893219026465" x2="105.32893219026465" y1="363" y2="375" />
<line x1="122.80139285461368" x2="122.80139285461368" y1="363" y2="375" />
</g>
</g>
<g fill="hsl(210, 100%, 40%)">
<text y="407">countdown.10000.fused.deep</text>
<text y="407" x="857.4136297594808" text-anchor="end">16.3 ms</text>
</g>
<g>
<title>16.3 ms ± 1.6 ms</title>
<rect y="413" rx="5" height="22" width="857.4136297594808" fill="hsl(210, 100%, 80%)" stroke="hsl(210, 100%, 55%)" />
<g stroke="hsl(210, 100%, 40%)"><line x1="774.8272595189617" x2="940.0" y1="424" y2="424" />
<line x1="774.8272595189617" x2="774.8272595189617" y1="418" y2="430" />
<line x1="940.0" x2="940.0" y1="418" y2="430" />
</g>
</g>
<text fill="hsl(240, 100%, 40%)" y="462">countdown.10000.effectful.shallow 233  μs</text>
<g>
<title>233  μs ±  22 μs</title>
<rect y="468" rx="5" height="22" width="12.27988434755046" fill="hsl(240, 100%, 80%)" stroke="hsl(240, 100%, 55%)" />
<g stroke="hsl(240, 100%, 40%)"><line x1="11.104794747678122" x2="13.454973947422799" y1="479" y2="479" />
<line x1="11.104794747678122" x2="11.104794747678122" y1="473" y2="485" />
<line x1="13.454973947422799" x2="13.454973947422799" y1="473" y2="485" />
</g>
</g>
<text fill="hsl(270, 100%, 40%)" y="517">countdown.10000.effectful.deep 239  μs</text>
<g>
<title>239  μs ±  13 μs</title>
<rect y="523" rx="5" height="22" width="12.556483954038704" fill="hsl(270, 100%, 80%)" stroke="hsl(270, 100%, 55%)" />
<g stroke="hsl(270, 100%, 40%)"><line x1="11.881681752454464" x2="13.231286155622945" y1="534" y2="534" />
<line x1="11.881681752454464" x2="11.881681752454464" y1="528" y2="540" />
<line x1="13.231286155622945" x2="13.231286155622945" y1="528" y2="540" />
</g>
</g>
<text fill="hsl(300, 100%, 40%)" y="572">countdown.10000.mtl.shallow 979  μs</text>
<g>
<title>979  μs ±  46 μs</title>
<rect y="578" rx="5" height="22" width="51.53971769259278" fill="hsl(300, 100%, 80%)" stroke="hsl(300, 100%, 55%)" />
<g stroke="hsl(300, 100%, 40%)"><line x1="49.132816847279706" x2="53.946618537905856" y1="589" y2="589" />
<line x1="49.132816847279706" x2="49.132816847279706" y1="583" y2="595" />
<line x1="53.946618537905856" x2="53.946618537905856" y1="583" y2="595" />
</g>
</g>
<g fill="hsl(330, 100%, 40%)">
<text y="627">countdown.10000.mtl.deep</text>
<text y="627" x="562.5218340322846" text-anchor="end">10.7 ms</text>
</g>
<g>
<title>10.7 ms ± 589 μs</title>
<rect y="633" rx="5" height="22" width="562.5218340322846" fill="hsl(330, 100%, 80%)" stroke="hsl(330, 100%, 55%)" />
<g stroke="hsl(330, 100%, 40%)"><line x1="531.5278058589864" x2="593.5158622055827" y1="644" y2="644" />
<line x1="531.5278058589864" x2="531.5278058589864" y1="638" y2="650" />
<line x1="593.5158622055827" x2="593.5158622055827" y1="638" y2="650" />
</g>
</g>
</g>
</svg>
