<svg xmlns="http://www.w3.org/2000/svg" height="887" width="960.0" font-size="16" font-family="sans-serif" stroke-width="2">
<g transform="translate(10.0 0)">
<text fill="hsl(0, 100%, 40%)" y="22">countdown.10000.heftia.shallow 493  μs</text>
<g>
<title>493  μs ±  46 μs</title>
<rect y="28" rx="5" height="22" width="24.3912489748101" fill="hsl(0, 100%, 80%)" stroke="hsl(0, 100%, 55%)" />
<g stroke="hsl(0, 100%, 40%)"><line x1="22.12484790920919" x2="26.65765004041101" y1="39" y2="39" />
<line x1="22.12484790920919" x2="22.12484790920919" y1="33" y2="45" />
<line x1="26.65765004041101" x2="26.65765004041101" y1="33" y2="45" />
</g>
</g>
<text fill="hsl(22, 100%, 40%)" y="77">countdown.10000.heftia.deep 1.70 ms</text>
<g>
<title>1.70 ms ±  90 μs</title>
<rect y="83" rx="5" height="22" width="84.00487683826164" fill="hsl(22, 100%, 80%)" stroke="hsl(22, 100%, 55%)" />
<g stroke="hsl(22, 100%, 40%)"><line x1="79.54434027936298" x2="88.46541339716029" y1="94" y2="94" />
<line x1="79.54434027936298" x2="79.54434027936298" y1="88" y2="100" />
<line x1="88.46541339716029" x2="88.46541339716029" y1="88" y2="100" />
</g>
</g>
<text fill="hsl(45, 100%, 40%)" y="132">countdown.10000.freer.shallow 472  μs</text>
<g>
<title>472  μs ±  31 μs</title>
<rect y="138" rx="5" height="22" width="23.346157737949838" fill="hsl(45, 100%, 80%)" stroke="hsl(45, 100%, 55%)" />
<g stroke="hsl(45, 100%, 40%)"><line x1="21.795856754074066" x2="24.89645872182561" y1="149" y2="149" />
<line x1="21.795856754074066" x2="21.795856754074066" y1="143" y2="155" />
<line x1="24.89645872182561" x2="24.89645872182561" y1="143" y2="155" />
</g>
</g>
<text fill="hsl(67, 100%, 40%)" y="187">countdown.10000.freer.deep 1.35 ms</text>
<g>
<title>1.35 ms ±  92 μs</title>
<rect y="193" rx="5" height="22" width="66.84186280424215" fill="hsl(67, 100%, 80%)" stroke="hsl(67, 100%, 55%)" />
<g stroke="hsl(67, 100%, 40%)"><line x1="62.31243440528353" x2="71.37129120320078" y1="204" y2="204" />
<line x1="62.31243440528353" x2="62.31243440528353" y1="198" y2="210" />
<line x1="71.37129120320078" x2="71.37129120320078" y1="198" y2="210" />
</g>
</g>
<text fill="hsl(90, 100%, 40%)" y="242">countdown.10000.polyemy.shallow 2.79 ms</text>
<g>
<title>2.79 ms ± 198 μs</title>
<rect y="248" rx="5" height="22" width="138.21117891165161" fill="hsl(90, 100%, 80%)" stroke="hsl(90, 100%, 55%)" />
<g stroke="hsl(90, 100%, 40%)"><line x1="128.43287175801868" x2="147.98948606528455" y1="259" y2="259" />
<line x1="128.43287175801868" x2="128.43287175801868" y1="253" y2="265" />
<line x1="147.98948606528455" x2="147.98948606528455" y1="253" y2="265" />
</g>
</g>
<text fill="hsl(112, 100%, 40%)" y="297">countdown.10000.polysemy.deep 4.50 ms</text>
<g>
<title>4.50 ms ± 404 μs</title>
<rect y="303" rx="5" height="22" width="222.65722684270855" fill="hsl(112, 100%, 80%)" stroke="hsl(112, 100%, 55%)" />
<g stroke="hsl(112, 100%, 40%)"><line x1="202.6600575434644" x2="242.6543961419527" y1="314" y2="314" />
<line x1="202.6600575434644" x2="202.6600575434644" y1="308" y2="320" />
<line x1="242.6543961419527" x2="242.6543961419527" y1="308" y2="320" />
</g>
</g>
<text fill="hsl(135, 100%, 40%)" y="352">countdown.10000.fused.shallow 2.30 ms</text>
<g>
<title>2.30 ms ± 171 μs</title>
<rect y="358" rx="5" height="22" width="113.9559538026027" fill="hsl(135, 100%, 80%)" stroke="hsl(135, 100%, 55%)" />
<g stroke="hsl(135, 100%, 40%)"><line x1="105.50823328339" x2="122.40367432181542" y1="369" y2="369" />
<line x1="105.50823328339" x2="105.50823328339" y1="363" y2="375" />
<line x1="122.40367432181542" x2="122.40367432181542" y1="363" y2="375" />
</g>
</g>
<g fill="hsl(157, 100%, 40%)">
<text y="407">countdown.10000.fused.deep</text>
<text y="407" x="867.7364390687884" text-anchor="end">17.5 ms</text>
</g>
<g>
<title>17.5 ms ± 1.5 ms</title>
<rect y="413" rx="5" height="22" width="867.7364390687884" fill="hsl(157, 100%, 80%)" stroke="hsl(157, 100%, 55%)" />
<g stroke="hsl(157, 100%, 40%)"><line x1="795.4728781375768" x2="940.0" y1="424" y2="424" />
<line x1="795.4728781375768" x2="795.4728781375768" y1="418" y2="430" />
<line x1="940.0" x2="940.0" y1="418" y2="430" />
</g>
</g>
<text fill="hsl(180, 100%, 40%)" y="462">countdown.10000.effectful.shallow 225  μs</text>
<g>
<title>225  μs ±  15 μs</title>
<rect y="468" rx="5" height="22" width="11.133705740250925" fill="hsl(180, 100%, 80%)" stroke="hsl(180, 100%, 55%)" />
<g stroke="hsl(180, 100%, 40%)"><line x1="10.391277085753083" x2="11.876134394748766" y1="479" y2="479" />
<line x1="10.391277085753083" x2="10.391277085753083" y1="473" y2="485" />
<line x1="11.876134394748766" x2="11.876134394748766" y1="473" y2="485" />
</g>
</g>
<text fill="hsl(202, 100%, 40%)" y="517">countdown.10000.effectful.deep 230  μs</text>
<g>
<title>230  μs ±  13 μs</title>
<rect y="523" rx="5" height="22" width="11.393752694922483" fill="hsl(202, 100%, 80%)" stroke="hsl(202, 100%, 55%)" />
<g stroke="hsl(202, 100%, 40%)"><line x1="10.758797282599172" x2="12.028708107245794" y1="534" y2="534" />
<line x1="10.758797282599172" x2="10.758797282599172" y1="528" y2="540" />
<line x1="12.028708107245794" x2="12.028708107245794" y1="528" y2="540" />
</g>
</g>
<text fill="hsl(225, 100%, 40%)" y="572">countdown.10000.eff.shallow 565  μs</text>
<g>
<title>565  μs ±  47 μs</title>
<rect y="578" rx="5" height="22" width="27.98045036608025" fill="hsl(225, 100%, 80%)" stroke="hsl(225, 100%, 55%)" />
<g stroke="hsl(225, 100%, 40%)"><line x1="25.64831343673078" x2="30.312587295429722" y1="589" y2="589" />
<line x1="25.64831343673078" x2="25.64831343673078" y1="583" y2="595" />
<line x1="30.312587295429722" x2="30.312587295429722" y1="583" y2="595" />
</g>
</g>
<text fill="hsl(247, 100%, 40%)" y="627">countdown.10000.eff.deep 573  μs</text>
<g>
<title>573  μs ±  52 μs</title>
<rect y="633" rx="5" height="22" width="28.375659169963022" fill="hsl(247, 100%, 80%)" stroke="hsl(247, 100%, 55%)" />
<g stroke="hsl(247, 100%, 40%)"><line x1="25.803098609185085" x2="30.94821973074096" y1="644" y2="644" />
<line x1="25.803098609185085" x2="25.803098609185085" y1="638" y2="650" />
<line x1="30.94821973074096" x2="30.94821973074096" y1="638" y2="650" />
</g>
</g>
<text fill="hsl(270, 100%, 40%)" y="682">countdown.10000.ev.shallow 288  μs</text>
<g>
<title>288  μs ±  15 μs</title>
<rect y="688" rx="5" height="22" width="14.26949741300946" fill="hsl(270, 100%, 80%)" stroke="hsl(270, 100%, 55%)" />
<g stroke="hsl(270, 100%, 40%)"><line x1="13.524820626475837" x2="15.014174199543085" y1="699" y2="699" />
<line x1="13.524820626475837" x2="13.524820626475837" y1="693" y2="705" />
<line x1="15.014174199543085" x2="15.014174199543085" y1="693" y2="705" />
</g>
</g>
<text fill="hsl(292, 100%, 40%)" y="737">countdown.10000.ev.deep 302  μs</text>
<g>
<title>302  μs ±  30 μs</title>
<rect y="743" rx="5" height="22" width="14.923387792381487" fill="hsl(292, 100%, 80%)" stroke="hsl(292, 100%, 55%)" />
<g stroke="hsl(292, 100%, 40%)"><line x1="13.442243716922652" x2="16.404531867840323" y1="754" y2="754" />
<line x1="13.442243716922652" x2="13.442243716922652" y1="748" y2="760" />
<line x1="16.404531867840323" x2="16.404531867840323" y1="748" y2="760" />
</g>
</g>
<text fill="hsl(315, 100%, 40%)" y="792">countdown.10000.mtl.shallow 880  μs</text>
<g>
<title>880  μs ±  53 μs</title>
<rect y="798" rx="5" height="22" width="43.53013049746872" fill="hsl(315, 100%, 80%)" stroke="hsl(315, 100%, 55%)" />
<g stroke="hsl(315, 100%, 40%)"><line x1="40.90934303557762" x2="46.150917959359816" y1="809" y2="809" />
<line x1="40.90934303557762" x2="40.90934303557762" y1="803" y2="815" />
<line x1="46.150917959359816" x2="46.150917959359816" y1="803" y2="815" />
</g>
</g>
<g fill="hsl(337, 100%, 40%)">
<text y="847">countdown.10000.mtl.deep</text>
<text y="847" x="519.0925982827728" text-anchor="end">10.5 ms</text>
</g>
<g>
<title>10.5 ms ± 404 μs</title>
<rect y="853" rx="5" height="22" width="519.0925982827728" fill="hsl(337, 100%, 80%)" stroke="hsl(337, 100%, 55%)" />
<g stroke="hsl(337, 100%, 40%)"><line x1="499.0874833665175" x2="539.097713199028" y1="864" y2="864" />
<line x1="499.0874833665175" x2="499.0874833665175" y1="858" y2="870" />
<line x1="539.097713199028" x2="539.097713199028" y1="858" y2="870" />
</g>
</g>
</g>
</svg>
