<svg xmlns="http://www.w3.org/2000/svg" height="777" width="960.0" font-size="16" font-family="sans-serif" stroke-width="2">
<g transform="translate(10.0 0)">
<text fill="hsl(0, 100%, 40%)" y="22">nondet.32.heftia.shallow 6.93 ms</text>
<g>
<title>6.93 ms ± 352 μs</title>
<rect y="28" rx="5" height="22" width="88.5955514630648" fill="hsl(0, 100%, 80%)" stroke="hsl(0, 100%, 55%)" />
<g stroke="hsl(0, 100%, 40%)"><line x1="84.08791003917716" x2="93.10319288695243" y1="39" y2="39" />
<line x1="84.08791003917716" x2="84.08791003917716" y1="33" y2="45" />
<line x1="93.10319288695243" x2="93.10319288695243" y1="33" y2="45" />
</g>
</g>
<text fill="hsl(25, 100%, 40%)" y="77">nondet.32.heftia.deep 11.5 ms</text>
<g>
<title>11.5 ms ± 171 μs</title>
<rect y="83" rx="5" height="22" width="147.1285590403631" fill="hsl(25, 100%, 80%)" stroke="hsl(25, 100%, 55%)" />
<g stroke="hsl(25, 100%, 40%)"><line x1="144.94152915459554" x2="149.31558892613063" y1="94" y2="94" />
<line x1="144.94152915459554" x2="144.94152915459554" y1="88" y2="100" />
<line x1="149.31558892613063" x2="149.31558892613063" y1="88" y2="100" />
</g>
</g>
<text fill="hsl(51, 100%, 40%)" y="132">nondet.32.freer.shallow 6.14 ms</text>
<g>
<title>6.14 ms ± 361 μs</title>
<rect y="138" rx="5" height="22" width="78.59432551869033" fill="hsl(51, 100%, 80%)" stroke="hsl(51, 100%, 55%)" />
<g stroke="hsl(51, 100%, 40%)"><line x1="73.9736284717505" x2="83.21502256563015" y1="149" y2="149" />
<line x1="73.9736284717505" x2="73.9736284717505" y1="143" y2="155" />
<line x1="83.21502256563015" x2="83.21502256563015" y1="143" y2="155" />
</g>
</g>
<text fill="hsl(77, 100%, 40%)" y="187">nondet.32.freer.deep 10.3 ms</text>
<g>
<title>10.3 ms ± 706 μs</title>
<rect y="193" rx="5" height="22" width="132.3086861577514" fill="hsl(77, 100%, 80%)" stroke="hsl(77, 100%, 55%)" />
<g stroke="hsl(77, 100%, 40%)"><line x1="123.27281223962525" x2="141.34456007587755" y1="204" y2="204" />
<line x1="123.27281223962525" x2="123.27281223962525" y1="198" y2="210" />
<line x1="141.34456007587755" x2="141.34456007587755" y1="198" y2="210" />
</g>
</g>
<text fill="hsl(102, 100%, 40%)" y="242">nondet.32.fused.shallow 1.48 ms</text>
<g>
<title>1.48 ms ± 148 μs</title>
<rect y="248" rx="5" height="22" width="18.939387556308727" fill="hsl(102, 100%, 80%)" stroke="hsl(102, 100%, 55%)" />
<g stroke="hsl(102, 100%, 40%)"><line x1="17.05199050646457" x2="20.826784606152884" y1="259" y2="259" />
<line x1="17.05199050646457" x2="17.05199050646457" y1="253" y2="265" />
<line x1="20.826784606152884" x2="20.826784606152884" y1="253" y2="265" />
</g>
</g>
<text fill="hsl(128, 100%, 40%)" y="297">nondet.32.fused.deep 12.9 ms</text>
<g>
<title>12.9 ms ± 674 μs</title>
<rect y="303" rx="5" height="22" width="164.76964267812122" fill="hsl(128, 100%, 80%)" stroke="hsl(128, 100%, 55%)" />
<g stroke="hsl(128, 100%, 40%)"><line x1="156.14148219268588" x2="173.39780316355655" y1="314" y2="314" />
<line x1="156.14148219268588" x2="156.14148219268588" y1="308" y2="320" />
<line x1="173.39780316355655" x2="173.39780316355655" y1="308" y2="320" />
</g>
</g>
<text fill="hsl(154, 100%, 40%)" y="352">nondet.32.ev.shallow 1.40 ms</text>
<g>
<title>1.40 ms ±  86 μs</title>
<rect y="358" rx="5" height="22" width="17.872889110134533" fill="hsl(154, 100%, 80%)" stroke="hsl(154, 100%, 55%)" />
<g stroke="hsl(154, 100%, 40%)"><line x1="16.772729208156733" x2="18.973049012112334" y1="369" y2="369" />
<line x1="16.772729208156733" x2="16.772729208156733" y1="363" y2="375" />
<line x1="18.973049012112334" x2="18.973049012112334" y1="363" y2="375" />
</g>
</g>
<text fill="hsl(180, 100%, 40%)" y="407">nondet.32.ev.deep 2.74 ms</text>
<g>
<title>2.74 ms ± 186 μs</title>
<rect y="413" rx="5" height="22" width="35.057489376039676" fill="hsl(180, 100%, 80%)" stroke="hsl(180, 100%, 55%)" />
<g stroke="hsl(180, 100%, 40%)"><line x1="32.682191952098655" x2="37.4327867999807" y1="424" y2="424" />
<line x1="32.682191952098655" x2="32.682191952098655" y1="418" y2="430" />
<line x1="37.4327867999807" x2="37.4327867999807" y1="418" y2="430" />
</g>
</g>
<text fill="hsl(205, 100%, 40%)" y="462">nondet.32.mp.shallow 3.74 ms</text>
<g>
<title>3.74 ms ± 215 μs</title>
<rect y="468" rx="5" height="22" width="47.86480383942285" fill="hsl(205, 100%, 80%)" stroke="hsl(205, 100%, 55%)" />
<g stroke="hsl(205, 100%, 40%)"><line x1="45.117655011193854" x2="50.61195266765184" y1="479" y2="479" />
<line x1="45.117655011193854" x2="45.117655011193854" y1="473" y2="485" />
<line x1="50.61195266765184" x2="50.61195266765184" y1="473" y2="485" />
</g>
</g>
<text fill="hsl(231, 100%, 40%)" y="517">nondet.32.mp.deep 11.3 ms</text>
<g>
<title>11.3 ms ± 973 μs</title>
<rect y="523" rx="5" height="22" width="144.48704364577355" fill="hsl(231, 100%, 80%)" stroke="hsl(231, 100%, 55%)" />
<g stroke="hsl(231, 100%, 40%)"><line x1="132.03858371142942" x2="156.93550358011768" y1="534" y2="534" />
<line x1="132.03858371142942" x2="132.03858371142942" y1="528" y2="540" />
<line x1="156.93550358011768" x2="156.93550358011768" y1="528" y2="540" />
</g>
</g>
<g fill="hsl(257, 100%, 40%)">
<text y="572">nondet.32.eff.shallow</text>
<text y="572" x="414.3148818295417" text-anchor="end">32.4 ms</text>
</g>
<g>
<title>32.4 ms ± 2.5 ms</title>
<rect y="578" rx="5" height="22" width="414.3148818295417" fill="hsl(257, 100%, 80%)" stroke="hsl(257, 100%, 55%)" />
<g stroke="hsl(257, 100%, 40%)"><line x1="382.46233503117617" x2="446.16742862790727" y1="589" y2="589" />
<line x1="382.46233503117617" x2="382.46233503117617" y1="583" y2="595" />
<line x1="446.16742862790727" x2="446.16742862790727" y1="583" y2="595" />
</g>
</g>
<g fill="hsl(282, 100%, 40%)">
<text y="627">nondet.32.eff.deep</text>
<text y="627" x="862.7086412572479" text-anchor="end">67.4 ms</text>
</g>
<g>
<title>67.4 ms ± 6.0 ms</title>
<rect y="633" rx="5" height="22" width="862.7086412572479" fill="hsl(282, 100%, 80%)" stroke="hsl(282, 100%, 55%)" />
<g stroke="hsl(282, 100%, 40%)"><line x1="785.4172825144958" x2="940.0" y1="644" y2="644" />
<line x1="785.4172825144958" x2="785.4172825144958" y1="638" y2="650" />
<line x1="940.0" x2="940.0" y1="638" y2="650" />
</g>
</g>
<text fill="hsl(308, 100%, 40%)" y="682">nondet.32.mtl-logict.shallow 1.30 ms</text>
<g>
<title>1.30 ms ±  84 μs</title>
<rect y="688" rx="5" height="22" width="16.68243879713208" fill="hsl(308, 100%, 80%)" stroke="hsl(308, 100%, 55%)" />
<g stroke="hsl(308, 100%, 40%)"><line x1="15.606029189968508" x2="17.758848404295648" y1="699" y2="699" />
<line x1="15.606029189968508" x2="15.606029189968508" y1="693" y2="705" />
<line x1="17.758848404295648" x2="17.758848404295648" y1="693" y2="705" />
</g>
</g>
<text fill="hsl(334, 100%, 40%)" y="737">nondet.32.mtl-logict.deep 8.42 ms</text>
<g>
<title>8.42 ms ± 744 μs</title>
<rect y="743" rx="5" height="22" width="107.68380861925779" fill="hsl(334, 100%, 80%)" stroke="hsl(334, 100%, 55%)" />
<g stroke="hsl(334, 100%, 40%)"><line x1="98.16009977747032" x2="117.20751746104526" y1="754" y2="754" />
<line x1="98.16009977747032" x2="98.16009977747032" y1="748" y2="760" />
<line x1="117.20751746104526" x2="117.20751746104526" y1="748" y2="760" />
</g>
</g>
</g>
</svg>
