<svg xmlns="http://www.w3.org/2000/svg" height="557" width="960.0" font-size="16" font-family="sans-serif" stroke-width="2">
<g transform="translate(10.0 0)">
<text fill="hsl(0, 100%, 40%)" y="22">nondet.32.freer.shallow 6.27 ms</text>
<g>
<title>6.27 ms ± 454 μs</title>
<rect y="28" rx="5" height="22" width="75.40051855516604" fill="hsl(0, 100%, 80%)" stroke="hsl(0, 100%, 55%)" />
<g stroke="hsl(0, 100%, 40%)"><line x1="69.93959731738897" x2="80.86143979294312" y1="39" y2="39" />
<line x1="69.93959731738897" x2="69.93959731738897" y1="33" y2="45" />
<line x1="80.86143979294312" x2="80.86143979294312" y1="33" y2="45" />
</g>
</g>
<text fill="hsl(36, 100%, 40%)" y="77">nondet.32.freer.deep 10.2 ms</text>
<g>
<title>10.2 ms ± 770 μs</title>
<rect y="83" rx="5" height="22" width="122.64976915319986" fill="hsl(36, 100%, 80%)" stroke="hsl(36, 100%, 55%)" />
<g stroke="hsl(36, 100%, 40%)"><line x1="113.38966394689018" x2="131.90987435950953" y1="94" y2="94" />
<line x1="113.38966394689018" x2="113.38966394689018" y1="88" y2="100" />
<line x1="131.90987435950953" x2="131.90987435950953" y1="88" y2="100" />
</g>
</g>
<text fill="hsl(72, 100%, 40%)" y="132">nondet.32.heftia.shallow 7.24 ms</text>
<g>
<title>7.24 ms ± 559 μs</title>
<rect y="138" rx="5" height="22" width="87.01648932836652" fill="hsl(72, 100%, 80%)" stroke="hsl(72, 100%, 55%)" />
<g stroke="hsl(72, 100%, 40%)"><line x1="80.2963538986281" x2="93.73662475810494" y1="149" y2="149" />
<line x1="80.2963538986281" x2="80.2963538986281" y1="143" y2="155" />
<line x1="93.73662475810494" x2="93.73662475810494" y1="143" y2="155" />
</g>
</g>
<text fill="hsl(108, 100%, 40%)" y="187">nondet.32.heftia.deep 11.0 ms</text>
<g>
<title>11.0 ms ± 814 μs</title>
<rect y="193" rx="5" height="22" width="132.67754053305347" fill="hsl(108, 100%, 80%)" stroke="hsl(108, 100%, 55%)" />
<g stroke="hsl(108, 100%, 40%)"><line x1="122.89564259317011" x2="142.45943847293682" y1="204" y2="204" />
<line x1="122.89564259317011" x2="122.89564259317011" y1="198" y2="210" />
<line x1="142.45943847293682" x2="142.45943847293682" y1="198" y2="210" />
</g>
</g>
<text fill="hsl(144, 100%, 40%)" y="242">nondet.32.fused.shallow 1.53 ms</text>
<g>
<title>1.53 ms ± 138 μs</title>
<rect y="248" rx="5" height="22" width="18.43252367035876" fill="hsl(144, 100%, 80%)" stroke="hsl(144, 100%, 55%)" />
<g stroke="hsl(144, 100%, 40%)"><line x1="16.777482575545307" x2="20.08756476517221" y1="259" y2="259" />
<line x1="16.777482575545307" x2="16.777482575545307" y1="253" y2="265" />
<line x1="20.08756476517221" x2="20.08756476517221" y1="253" y2="265" />
</g>
</g>
<text fill="hsl(180, 100%, 40%)" y="297">nondet.32.fused.deep 13.2 ms</text>
<g>
<title>13.2 ms ± 1.1 ms</title>
<rect y="303" rx="5" height="22" width="158.05324018629335" fill="hsl(180, 100%, 80%)" stroke="hsl(180, 100%, 55%)" />
<g stroke="hsl(180, 100%, 40%)"><line x1="145.26017260281918" x2="170.84630776976752" y1="314" y2="314" />
<line x1="145.26017260281918" x2="145.26017260281918" y1="308" y2="320" />
<line x1="170.84630776976752" x2="170.84630776976752" y1="308" y2="320" />
</g>
</g>
<g fill="hsl(216, 100%, 40%)">
<text y="352">nondet.32.eff.shallow</text>
<text y="352" x="409.2721869064984" text-anchor="end">34.1 ms</text>
</g>
<g>
<title>34.1 ms ± 2.9 ms</title>
<rect y="358" rx="5" height="22" width="409.2721869064984" fill="hsl(216, 100%, 80%)" stroke="hsl(216, 100%, 55%)" />
<g stroke="hsl(216, 100%, 40%)"><line x1="374.44991330092563" x2="444.0944605120712" y1="369" y2="369" />
<line x1="374.44991330092563" x2="374.44991330092563" y1="363" y2="375" />
<line x1="444.0944605120712" x2="444.0944605120712" y1="363" y2="375" />
</g>
</g>
<g fill="hsl(252, 100%, 40%)">
<text y="407">nondet.32.eff.deep</text>
<text y="407" x="864.7642795610541" text-anchor="end">72.0 ms</text>
</g>
<g>
<title>72.0 ms ± 6.3 ms</title>
<rect y="413" rx="5" height="22" width="864.7642795610541" fill="hsl(252, 100%, 80%)" stroke="hsl(252, 100%, 55%)" />
<g stroke="hsl(252, 100%, 40%)"><line x1="789.5285591221082" x2="940.0" y1="424" y2="424" />
<line x1="789.5285591221082" x2="789.5285591221082" y1="418" y2="430" />
<line x1="940.0" x2="940.0" y1="418" y2="430" />
</g>
</g>
<text fill="hsl(288, 100%, 40%)" y="462">nondet.32.ev.shallow 1.47 ms</text>
<g>
<title>1.47 ms ±  93 μs</title>
<rect y="468" rx="5" height="22" width="17.64479509017165" fill="hsl(288, 100%, 80%)" stroke="hsl(288, 100%, 55%)" />
<g stroke="hsl(288, 100%, 40%)"><line x1="16.526891829203564" x2="18.76269835113974" y1="479" y2="479" />
<line x1="16.526891829203564" x2="16.526891829203564" y1="473" y2="485" />
<line x1="18.76269835113974" x2="18.76269835113974" y1="473" y2="485" />
</g>
</g>
<text fill="hsl(324, 100%, 40%)" y="517">nondet.32.ev.deep 2.87 ms</text>
<g>
<title>2.87 ms ± 145 μs</title>
<rect y="523" rx="5" height="22" width="34.5200421417226" fill="hsl(324, 100%, 80%)" stroke="hsl(324, 100%, 55%)" />
<g stroke="hsl(324, 100%, 40%)"><line x1="32.78142995455655" x2="36.258654328888646" y1="534" y2="534" />
<line x1="32.78142995455655" x2="32.78142995455655" y1="528" y2="540" />
<line x1="36.258654328888646" x2="36.258654328888646" y1="528" y2="540" />
</g>
</g>
</g>
</svg>
