<svg xmlns="http://www.w3.org/2000/svg" height="777" width="960.0" font-size="16" font-family="sans-serif" stroke-width="2">
<g transform="translate(10.0 0)">
<text fill="hsl(0, 100%, 40%)" y="22">nondet.32.heftia.shallow 6.93 ms</text>
<g>
<title>6.93 ms ± 538 μs</title>
<rect y="28" rx="5" height="22" width="82.43680149316177" fill="hsl(0, 100%, 80%)" stroke="hsl(0, 100%, 55%)" />
<g stroke="hsl(0, 100%, 40%)"><line x1="76.04030303057348" x2="88.83329995575005" y1="39" y2="39" />
<line x1="76.04030303057348" x2="76.04030303057348" y1="33" y2="45" />
<line x1="88.83329995575005" x2="88.83329995575005" y1="33" y2="45" />
</g>
</g>
<text fill="hsl(25, 100%, 40%)" y="77">nondet.32.heftia.deep 11.0 ms</text>
<g>
<title>11.0 ms ± 692 μs</title>
<rect y="83" rx="5" height="22" width="130.97288068984076" fill="hsl(25, 100%, 80%)" stroke="hsl(25, 100%, 55%)" />
<g stroke="hsl(25, 100%, 40%)"><line x1="122.73532197939994" x2="139.2104394002816" y1="94" y2="94" />
<line x1="122.73532197939994" x2="122.73532197939994" y1="88" y2="100" />
<line x1="139.2104394002816" x2="139.2104394002816" y1="88" y2="100" />
</g>
</g>
<text fill="hsl(51, 100%, 40%)" y="132">nondet.32.freer.shallow 5.79 ms</text>
<g>
<title>5.79 ms ± 438 μs</title>
<rect y="138" rx="5" height="22" width="68.88254520311763" fill="hsl(51, 100%, 80%)" stroke="hsl(51, 100%, 55%)" />
<g stroke="hsl(51, 100%, 40%)"><line x1="63.66673360767711" x2="74.09835679855814" y1="149" y2="149" />
<line x1="63.66673360767711" x2="63.66673360767711" y1="143" y2="155" />
<line x1="74.09835679855814" x2="74.09835679855814" y1="143" y2="155" />
</g>
</g>
<text fill="hsl(77, 100%, 40%)" y="187">nondet.32.freer.deep 9.25 ms</text>
<g>
<title>9.25 ms ± 768 μs</title>
<rect y="193" rx="5" height="22" width="110.12068699893486" fill="hsl(77, 100%, 80%)" stroke="hsl(77, 100%, 55%)" />
<g stroke="hsl(77, 100%, 40%)"><line x1="100.97765575727105" x2="119.26371824059866" y1="204" y2="204" />
<line x1="100.97765575727105" x2="100.97765575727105" y1="198" y2="210" />
<line x1="119.26371824059866" x2="119.26371824059866" y1="198" y2="210" />
</g>
</g>
<text fill="hsl(102, 100%, 40%)" y="242">nondet.32.fused.shallow 1.54 ms</text>
<g>
<title>1.54 ms ±  90 μs</title>
<rect y="248" rx="5" height="22" width="18.368815000592566" fill="hsl(102, 100%, 80%)" stroke="hsl(102, 100%, 55%)" />
<g stroke="hsl(102, 100%, 40%)"><line x1="17.297410602629174" x2="19.440219398555957" y1="259" y2="259" />
<line x1="17.297410602629174" x2="17.297410602629174" y1="253" y2="265" />
<line x1="19.440219398555957" x2="19.440219398555957" y1="253" y2="265" />
</g>
</g>
<text fill="hsl(128, 100%, 40%)" y="297">nondet.32.fused.deep 13.1 ms</text>
<g>
<title>13.1 ms ± 817 μs</title>
<rect y="303" rx="5" height="22" width="155.854284231821" fill="hsl(128, 100%, 80%)" stroke="hsl(128, 100%, 55%)" />
<g stroke="hsl(128, 100%, 40%)"><line x1="146.1312293569703" x2="165.5773391066717" y1="314" y2="314" />
<line x1="146.1312293569703" x2="146.1312293569703" y1="308" y2="320" />
<line x1="165.5773391066717" x2="165.5773391066717" y1="308" y2="320" />
</g>
</g>
<text fill="hsl(154, 100%, 40%)" y="352">nondet.32.ev.shallow 1.42 ms</text>
<g>
<title>1.42 ms ±  88 μs</title>
<rect y="358" rx="5" height="22" width="16.941233034159527" fill="hsl(154, 100%, 80%)" stroke="hsl(154, 100%, 55%)" />
<g stroke="hsl(154, 100%, 40%)"><line x1="15.891298101223242" x2="17.991167967095812" y1="369" y2="369" />
<line x1="15.891298101223242" x2="15.891298101223242" y1="363" y2="375" />
<line x1="17.991167967095812" x2="17.991167967095812" y1="363" y2="375" />
</g>
</g>
<text fill="hsl(180, 100%, 40%)" y="407">nondet.32.ev.deep 2.73 ms</text>
<g>
<title>2.73 ms ± 200 μs</title>
<rect y="413" rx="5" height="22" width="32.461833013097646" fill="hsl(180, 100%, 80%)" stroke="hsl(180, 100%, 55%)" />
<g stroke="hsl(180, 100%, 40%)"><line x1="30.07686474438661" x2="34.84680128180868" y1="424" y2="424" />
<line x1="30.07686474438661" x2="30.07686474438661" y1="418" y2="430" />
<line x1="34.84680128180868" x2="34.84680128180868" y1="418" y2="430" />
</g>
</g>
<text fill="hsl(205, 100%, 40%)" y="462">nondet.32.mp.shallow 3.86 ms</text>
<g>
<title>3.86 ms ± 232 μs</title>
<rect y="468" rx="5" height="22" width="45.967547825472025" fill="hsl(205, 100%, 80%)" stroke="hsl(205, 100%, 55%)" />
<g stroke="hsl(205, 100%, 40%)"><line x1="43.20427574573189" x2="48.73081990521216" y1="479" y2="479" />
<line x1="43.20427574573189" x2="43.20427574573189" y1="473" y2="485" />
<line x1="48.73081990521216" x2="48.73081990521216" y1="473" y2="485" />
</g>
</g>
<text fill="hsl(231, 100%, 40%)" y="517">nondet.32.mp.deep 9.87 ms</text>
<g>
<title>9.87 ms ± 412 μs</title>
<rect y="523" rx="5" height="22" width="117.46172620629964" fill="hsl(231, 100%, 80%)" stroke="hsl(231, 100%, 55%)" />
<g stroke="hsl(231, 100%, 40%)"><line x1="112.56005716775003" x2="122.36339524484926" y1="534" y2="534" />
<line x1="112.56005716775003" x2="112.56005716775003" y1="528" y2="540" />
<line x1="122.36339524484926" x2="122.36339524484926" y1="528" y2="540" />
</g>
</g>
<g fill="hsl(257, 100%, 40%)">
<text y="572">nondet.32.eff.shallow</text>
<text y="572" x="422.9812743254252" text-anchor="end">35.5 ms</text>
</g>
<g>
<title>35.5 ms ± 3.4 ms</title>
<rect y="578" rx="5" height="22" width="422.9812743254252" fill="hsl(257, 100%, 80%)" stroke="hsl(257, 100%, 55%)" />
<g stroke="hsl(257, 100%, 40%)"><line x1="382.75549824306336" x2="463.20705040778705" y1="589" y2="589" />
<line x1="382.75549824306336" x2="382.75549824306336" y1="583" y2="595" />
<line x1="463.20705040778705" x2="463.20705040778705" y1="583" y2="595" />
</g>
</g>
<g fill="hsl(282, 100%, 40%)">
<text y="627">nondet.32.eff.deep</text>
<text y="627" x="875.6329446202566" text-anchor="end">73.6 ms</text>
</g>
<g>
<title>73.6 ms ± 5.4 ms</title>
<rect y="633" rx="5" height="22" width="875.6329446202566" fill="hsl(282, 100%, 80%)" stroke="hsl(282, 100%, 55%)" />
<g stroke="hsl(282, 100%, 40%)"><line x1="811.2658892405132" x2="940.0" y1="644" y2="644" />
<line x1="811.2658892405132" x2="811.2658892405132" y1="638" y2="650" />
<line x1="940.0" x2="940.0" y1="638" y2="650" />
</g>
</g>
<text fill="hsl(308, 100%, 40%)" y="682">nondet.32.mtl-logict.shallow 1.34 ms</text>
<g>
<title>1.34 ms ± 114 μs</title>
<rect y="688" rx="5" height="22" width="15.995231399379167" fill="hsl(308, 100%, 80%)" stroke="hsl(308, 100%, 55%)" />
<g stroke="hsl(308, 100%, 40%)"><line x1="14.634146138056582" x2="17.35631666070175" y1="699" y2="699" />
<line x1="14.634146138056582" x2="14.634146138056582" y1="693" y2="705" />
<line x1="17.35631666070175" x2="17.35631666070175" y1="693" y2="705" />
</g>
</g>
<text fill="hsl(334, 100%, 40%)" y="737">nondet.32.mtl-logict.deep 8.42 ms</text>
<g>
<title>8.42 ms ± 742 μs</title>
<rect y="743" rx="5" height="22" width="100.18063227285418" fill="hsl(334, 100%, 80%)" stroke="hsl(334, 100%, 55%)" />
<g stroke="hsl(334, 100%, 40%)"><line x1="91.35645345090059" x2="109.00481109480778" y1="754" y2="754" />
<line x1="91.35645345090059" x2="91.35645345090059" y1="748" y2="760" />
<line x1="109.00481109480778" x2="109.00481109480778" y1="748" y2="760" />
</g>
</g>
</g>
</svg>
