<svg xmlns="http://www.w3.org/2000/svg" height="557" width="960.0" font-size="16" font-family="sans-serif" stroke-width="2">
<g transform="translate(10.0 0)">
<text fill="hsl(0, 100%, 40%)" y="22">nondet.32.heftia.shallow 7.57 ms</text>
<g>
<title>7.57 ms ± 591 μs</title>
<rect y="28" rx="5" height="22" width="96.98443901221133" fill="hsl(0, 100%, 80%)" stroke="hsl(0, 100%, 55%)" />
<g stroke="hsl(0, 100%, 40%)"><line x1="89.41625138958918" x2="104.55262663483347" y1="39" y2="39" />
<line x1="89.41625138958918" x2="89.41625138958918" y1="33" y2="45" />
<line x1="104.55262663483347" x2="104.55262663483347" y1="33" y2="45" />
</g>
</g>
<text fill="hsl(36, 100%, 40%)" y="77">nondet.32.heftia.deep 11.5 ms</text>
<g>
<title>11.5 ms ± 336 μs</title>
<rect y="83" rx="5" height="22" width="147.80735427372733" fill="hsl(36, 100%, 80%)" stroke="hsl(36, 100%, 55%)" />
<g stroke="hsl(36, 100%, 40%)"><line x1="143.50107261545497" x2="152.11363593199968" y1="94" y2="94" />
<line x1="143.50107261545497" x2="143.50107261545497" y1="88" y2="100" />
<line x1="152.11363593199968" x2="152.11363593199968" y1="88" y2="100" />
</g>
</g>
<text fill="hsl(72, 100%, 40%)" y="132">nondet.32.freer.shallow 5.53 ms</text>
<g>
<title>5.53 ms ± 383 μs</title>
<rect y="138" rx="5" height="22" width="70.83567087364875" fill="hsl(72, 100%, 80%)" stroke="hsl(72, 100%, 55%)" />
<g stroke="hsl(72, 100%, 40%)"><line x1="65.93407772493842" x2="75.73726402235908" y1="149" y2="149" />
<line x1="65.93407772493842" x2="65.93407772493842" y1="143" y2="155" />
<line x1="75.73726402235908" x2="75.73726402235908" y1="143" y2="155" />
</g>
</g>
<text fill="hsl(108, 100%, 40%)" y="187">nondet.32.freer.deep 9.55 ms</text>
<g>
<title>9.55 ms ± 804 μs</title>
<rect y="193" rx="5" height="22" width="122.42064162064071" fill="hsl(108, 100%, 80%)" stroke="hsl(108, 100%, 55%)" />
<g stroke="hsl(108, 100%, 40%)"><line x1="112.11398155157727" x2="132.72730168970415" y1="204" y2="204" />
<line x1="112.11398155157727" x2="112.11398155157727" y1="198" y2="210" />
<line x1="132.72730168970415" x2="132.72730168970415" y1="198" y2="210" />
</g>
</g>
<text fill="hsl(144, 100%, 40%)" y="242">nondet.32.fused.shallow 1.58 ms</text>
<g>
<title>1.58 ms ±  87 μs</title>
<rect y="248" rx="5" height="22" width="20.187688979683447" fill="hsl(144, 100%, 80%)" stroke="hsl(144, 100%, 55%)" />
<g stroke="hsl(144, 100%, 40%)"><line x1="19.066942871072566" x2="21.308435088294328" y1="259" y2="259" />
<line x1="19.066942871072566" x2="19.066942871072566" y1="253" y2="265" />
<line x1="21.308435088294328" x2="21.308435088294328" y1="253" y2="265" />
</g>
</g>
<text fill="hsl(180, 100%, 40%)" y="297">nondet.32.fused.deep 12.3 ms</text>
<g>
<title>12.3 ms ± 809 μs</title>
<rect y="303" rx="5" height="22" width="158.11192567100406" fill="hsl(180, 100%, 80%)" stroke="hsl(180, 100%, 55%)" />
<g stroke="hsl(180, 100%, 40%)"><line x1="147.74152373373272" x2="168.4823276082754" y1="314" y2="314" />
<line x1="147.74152373373272" x2="147.74152373373272" y1="308" y2="320" />
<line x1="168.4823276082754" x2="168.4823276082754" y1="308" y2="320" />
</g>
</g>
<g fill="hsl(216, 100%, 40%)">
<text y="352">nondet.32.eff.shallow</text>
<text y="352" x="428.6927993051591" text-anchor="end">33.5 ms</text>
</g>
<g>
<title>33.5 ms ± 2.8 ms</title>
<rect y="358" rx="5" height="22" width="428.6927993051591" fill="hsl(216, 100%, 80%)" stroke="hsl(216, 100%, 55%)" />
<g stroke="hsl(216, 100%, 40%)"><line x1="392.8279037251704" x2="464.5576948851478" y1="369" y2="369" />
<line x1="392.8279037251704" x2="392.8279037251704" y1="363" y2="375" />
<line x1="464.5576948851478" x2="464.5576948851478" y1="363" y2="375" />
</g>
</g>
<g fill="hsl(252, 100%, 40%)">
<text y="407">nondet.32.eff.deep</text>
<text y="407" x="900.6959312186245" text-anchor="end">70.3 ms</text>
</g>
<g>
<title>70.3 ms ± 3.1 ms</title>
<rect y="413" rx="5" height="22" width="900.6959312186245" fill="hsl(252, 100%, 80%)" stroke="hsl(252, 100%, 55%)" />
<g stroke="hsl(252, 100%, 40%)"><line x1="861.3918624372491" x2="940.0" y1="424" y2="424" />
<line x1="861.3918624372491" x2="861.3918624372491" y1="418" y2="430" />
<line x1="940.0" x2="940.0" y1="418" y2="430" />
</g>
</g>
<text fill="hsl(288, 100%, 40%)" y="462">nondet.32.ev.shallow 1.44 ms</text>
<g>
<title>1.44 ms ± 105 μs</title>
<rect y="468" rx="5" height="22" width="18.40214950283462" fill="hsl(288, 100%, 80%)" stroke="hsl(288, 100%, 55%)" />
<g stroke="hsl(288, 100%, 40%)"><line x1="17.053700829202995" x2="19.750598176466248" y1="479" y2="479" />
<line x1="17.053700829202995" x2="17.053700829202995" y1="473" y2="485" />
<line x1="19.750598176466248" x2="19.750598176466248" y1="473" y2="485" />
</g>
</g>
<text fill="hsl(324, 100%, 40%)" y="517">nondet.32.ev.deep 2.78 ms</text>
<g>
<title>2.78 ms ± 156 μs</title>
<rect y="523" rx="5" height="22" width="35.66690979726196" fill="hsl(324, 100%, 80%)" stroke="hsl(324, 100%, 55%)" />
<g stroke="hsl(324, 100%, 40%)"><line x1="33.668086802492965" x2="37.66573279203095" y1="534" y2="534" />
<line x1="33.668086802492965" x2="33.668086802492965" y1="528" y2="540" />
<line x1="37.66573279203095" x2="37.66573279203095" y1="528" y2="540" />
</g>
</g>
</g>
</svg>
