<svg xmlns="http://www.w3.org/2000/svg" height="777" width="960.0" font-size="16" font-family="sans-serif" stroke-width="2">
<g transform="translate(10.0 0)">
<text fill="hsl(0, 100%, 40%)" y="22">nondet.32.heftia.shallow 7.04 ms</text>
<g>
<title>7.04 ms ±  93 μs</title>
<rect y="28" rx="5" height="22" width="84.35147260965012" fill="hsl(0, 100%, 80%)" stroke="hsl(0, 100%, 55%)" />
<g stroke="hsl(0, 100%, 40%)"><line x1="83.23119955846923" x2="85.471745660831" y1="39" y2="39" />
<line x1="83.23119955846923" x2="83.23119955846923" y1="33" y2="45" />
<line x1="85.471745660831" x2="85.471745660831" y1="33" y2="45" />
</g>
</g>
<text fill="hsl(25, 100%, 40%)" y="77">nondet.32.heftia.deep 12.1 ms</text>
<g>
<title>12.1 ms ± 932 μs</title>
<rect y="83" rx="5" height="22" width="145.10658992696304" fill="hsl(25, 100%, 80%)" stroke="hsl(25, 100%, 55%)" />
<g stroke="hsl(25, 100%, 40%)"><line x1="133.93909054646477" x2="156.2740893074613" y1="94" y2="94" />
<line x1="133.93909054646477" x2="133.93909054646477" y1="88" y2="100" />
<line x1="156.2740893074613" x2="156.2740893074613" y1="88" y2="100" />
</g>
</g>
<text fill="hsl(51, 100%, 40%)" y="132">nondet.32.freer.shallow 5.64 ms</text>
<g>
<title>5.64 ms ± 203 μs</title>
<rect y="138" rx="5" height="22" width="67.58565205220673" fill="hsl(51, 100%, 80%)" stroke="hsl(51, 100%, 55%)" />
<g stroke="hsl(51, 100%, 40%)"><line x1="65.15705048853496" x2="70.01425361587849" y1="149" y2="149" />
<line x1="65.15705048853496" x2="65.15705048853496" y1="143" y2="155" />
<line x1="70.01425361587849" x2="70.01425361587849" y1="143" y2="155" />
</g>
</g>
<text fill="hsl(77, 100%, 40%)" y="187">nondet.32.freer.deep 9.69 ms</text>
<g>
<title>9.69 ms ± 396 μs</title>
<rect y="193" rx="5" height="22" width="116.11624597684883" fill="hsl(77, 100%, 80%)" stroke="hsl(77, 100%, 55%)" />
<g stroke="hsl(77, 100%, 40%)"><line x1="111.37387546800291" x2="120.85861648569475" y1="204" y2="204" />
<line x1="111.37387546800291" x2="111.37387546800291" y1="198" y2="210" />
<line x1="120.85861648569475" x2="120.85861648569475" y1="198" y2="210" />
</g>
</g>
<text fill="hsl(102, 100%, 40%)" y="242">nondet.32.fused.shallow 1.50 ms</text>
<g>
<title>1.50 ms ±  93 μs</title>
<rect y="248" rx="5" height="22" width="17.93514030982088" fill="hsl(102, 100%, 80%)" stroke="hsl(102, 100%, 55%)" />
<g stroke="hsl(102, 100%, 40%)"><line x1="16.81637815737197" x2="19.05390246226979" y1="259" y2="259" />
<line x1="16.81637815737197" x2="16.81637815737197" y1="253" y2="265" />
<line x1="19.05390246226979" x2="19.05390246226979" y1="253" y2="265" />
</g>
</g>
<text fill="hsl(128, 100%, 40%)" y="297">nondet.32.fused.deep 12.7 ms</text>
<g>
<title>12.7 ms ± 779 μs</title>
<rect y="303" rx="5" height="22" width="151.9765958095165" fill="hsl(128, 100%, 80%)" stroke="hsl(128, 100%, 55%)" />
<g stroke="hsl(128, 100%, 40%)"><line x1="142.6378019664461" x2="161.31538965258693" y1="314" y2="314" />
<line x1="142.6378019664461" x2="142.6378019664461" y1="308" y2="320" />
<line x1="161.31538965258693" x2="161.31538965258693" y1="308" y2="320" />
</g>
</g>
<text fill="hsl(154, 100%, 40%)" y="352">nondet.32.ev.shallow 1.39 ms</text>
<g>
<title>1.39 ms ± 128 μs</title>
<rect y="358" rx="5" height="22" width="16.61793468896756" fill="hsl(154, 100%, 80%)" stroke="hsl(154, 100%, 55%)" />
<g stroke="hsl(154, 100%, 40%)"><line x1="15.083270267127306" x2="18.152599110807813" y1="369" y2="369" />
<line x1="15.083270267127306" x2="15.083270267127306" y1="363" y2="375" />
<line x1="18.152599110807813" x2="18.152599110807813" y1="363" y2="375" />
</g>
</g>
<text fill="hsl(180, 100%, 40%)" y="407">nondet.32.ev.deep 2.73 ms</text>
<g>
<title>2.73 ms ± 257 μs</title>
<rect y="413" rx="5" height="22" width="32.77173888973313" fill="hsl(180, 100%, 80%)" stroke="hsl(180, 100%, 55%)" />
<g stroke="hsl(180, 100%, 40%)"><line x1="29.692873613979287" x2="35.85060416548697" y1="424" y2="424" />
<line x1="29.692873613979287" x2="29.692873613979287" y1="418" y2="430" />
<line x1="35.85060416548697" x2="35.85060416548697" y1="418" y2="430" />
</g>
</g>
<text fill="hsl(205, 100%, 40%)" y="462">nondet.32.mp.shallow 3.65 ms</text>
<g>
<title>3.65 ms ± 353 μs</title>
<rect y="468" rx="5" height="22" width="43.79952559944492" fill="hsl(205, 100%, 80%)" stroke="hsl(205, 100%, 55%)" />
<g stroke="hsl(205, 100%, 40%)"><line x1="39.56841240375896" x2="48.030638795130876" y1="479" y2="479" />
<line x1="39.56841240375896" x2="39.56841240375896" y1="473" y2="485" />
<line x1="48.030638795130876" x2="48.030638795130876" y1="473" y2="485" />
</g>
</g>
<text fill="hsl(231, 100%, 40%)" y="517">nondet.32.mp.deep 9.81 ms</text>
<g>
<title>9.81 ms ± 562 μs</title>
<rect y="523" rx="5" height="22" width="117.59217091140783" fill="hsl(231, 100%, 80%)" stroke="hsl(231, 100%, 55%)" />
<g stroke="hsl(231, 100%, 40%)"><line x1="110.85850968201815" x2="124.32583214079752" y1="534" y2="534" />
<line x1="110.85850968201815" x2="110.85850968201815" y1="528" y2="540" />
<line x1="124.32583214079752" x2="124.32583214079752" y1="528" y2="540" />
</g>
</g>
<g fill="hsl(257, 100%, 40%)">
<text y="572">nondet.32.eff.shallow</text>
<text y="572" x="411.78974418700574" text-anchor="end">34.4 ms</text>
</g>
<g>
<title>34.4 ms ± 3.3 ms</title>
<rect y="578" rx="5" height="22" width="411.78974418700574" fill="hsl(257, 100%, 80%)" stroke="hsl(257, 100%, 55%)" />
<g stroke="hsl(257, 100%, 40%)"><line x1="372.7573019116301" x2="450.82218646238135" y1="589" y2="589" />
<line x1="372.7573019116301" x2="372.7573019116301" y1="583" y2="595" />
<line x1="450.82218646238135" x2="450.82218646238135" y1="583" y2="595" />
</g>
</g>
<g fill="hsl(282, 100%, 40%)">
<text y="627">nondet.32.eff.deep</text>
<text y="627" x="870.2846573068995" text-anchor="end">72.6 ms</text>
</g>
<g>
<title>72.6 ms ± 5.8 ms</title>
<rect y="633" rx="5" height="22" width="870.2846573068995" fill="hsl(282, 100%, 80%)" stroke="hsl(282, 100%, 55%)" />
<g stroke="hsl(282, 100%, 40%)"><line x1="800.569314613799" x2="940.0" y1="644" y2="644" />
<line x1="800.569314613799" x2="800.569314613799" y1="638" y2="650" />
<line x1="940.0" x2="940.0" y1="638" y2="650" />
</g>
</g>
<text fill="hsl(308, 100%, 40%)" y="682">nondet.32.mtl-logict.shallow 1.45 ms</text>
<g>
<title>1.45 ms ± 131 μs</title>
<rect y="688" rx="5" height="22" width="17.396681270086525" fill="hsl(308, 100%, 80%)" stroke="hsl(308, 100%, 55%)" />
<g stroke="hsl(308, 100%, 40%)"><line x1="15.828602132244786" x2="18.964760407928264" y1="699" y2="699" />
<line x1="15.828602132244786" x2="15.828602132244786" y1="693" y2="705" />
<line x1="18.964760407928264" x2="18.964760407928264" y1="693" y2="705" />
</g>
</g>
<text fill="hsl(334, 100%, 40%)" y="737">nondet.32.mtl-logict.deep 8.56 ms</text>
<g>
<title>8.56 ms ± 488 μs</title>
<rect y="743" rx="5" height="22" width="102.57343637672108" fill="hsl(334, 100%, 80%)" stroke="hsl(334, 100%, 55%)" />
<g stroke="hsl(334, 100%, 40%)"><line x1="96.72970154808272" x2="108.41717120535944" y1="754" y2="754" />
<line x1="96.72970154808272" x2="96.72970154808272" y1="748" y2="760" />
<line x1="108.41717120535944" x2="108.41717120535944" y1="748" y2="760" />
</g>
</g>
</g>
</svg>
