<svg xmlns="http://www.w3.org/2000/svg" height="502" width="960.0" font-size="16" font-family="sans-serif" stroke-width="2">
<g transform="translate(10.0 0)">
<text fill="hsl(0, 100%, 40%)" y="22">countdown.deep.10000.heftia.5+5 2.26 ms</text>
<g>
<title>2.26 ms ±  94 μs</title>
<rect y="28" rx="5" height="22" width="122.03989054159878" fill="hsl(0, 100%, 80%)" stroke="hsl(0, 100%, 55%)" />
<g stroke="hsl(0, 100%, 40%)"><line x1="116.98800512996246" x2="127.0917759532351" y1="39" y2="39" />
<line x1="116.98800512996246" x2="116.98800512996246" y1="33" y2="45" />
<line x1="127.0917759532351" x2="127.0917759532351" y1="33" y2="45" />
</g>
</g>
<text fill="hsl(40, 100%, 40%)" y="77">countdown.deep.10000.heftia.ev.5+5 1.46 ms</text>
<g>
<title>1.46 ms ± 128 μs</title>
<rect y="83" rx="5" height="22" width="78.68536249244721" fill="hsl(40, 100%, 80%)" stroke="hsl(40, 100%, 55%)" />
<g stroke="hsl(40, 100%, 40%)"><line x1="71.77431581412901" x2="85.59640917076541" y1="94" y2="94" />
<line x1="71.77431581412901" x2="71.77431581412901" y1="88" y2="100" />
<line x1="85.59640917076541" x2="85.59640917076541" y1="88" y2="100" />
</g>
</g>
<text fill="hsl(80, 100%, 40%)" y="132">countdown.deep.10000.freer.5+5 1.38 ms</text>
<g>
<title>1.38 ms ±  92 μs</title>
<rect y="138" rx="5" height="22" width="74.61959426189249" fill="hsl(80, 100%, 80%)" stroke="hsl(80, 100%, 55%)" />
<g stroke="hsl(80, 100%, 40%)"><line x1="69.65484685951385" x2="79.58434166427112" y1="149" y2="149" />
<line x1="69.65484685951385" x2="69.65484685951385" y1="143" y2="155" />
<line x1="79.58434166427112" x2="79.58434166427112" y1="143" y2="155" />
</g>
</g>
<text fill="hsl(120, 100%, 40%)" y="187">countdown.deep.10000.polysemy.5+5 4.34 ms</text>
<g>
<title>4.34 ms ± 175 μs</title>
<rect y="193" rx="5" height="22" width="234.66586992003116" fill="hsl(120, 100%, 80%)" stroke="hsl(120, 100%, 55%)" />
<g stroke="hsl(120, 100%, 40%)"><line x1="225.23839812658173" x2="244.09334171348058" y1="204" y2="204" />
<line x1="225.23839812658173" x2="225.23839812658173" y1="198" y2="210" />
<line x1="244.09334171348058" x2="244.09334171348058" y1="198" y2="210" />
</g>
</g>
<g fill="hsl(160, 100%, 40%)">
<text y="242">countdown.deep.10000.fused.5+5</text>
<text y="242" x="871.5469510086589" text-anchor="end">16.1 ms</text>
</g>
<g>
<title>16.1 ms ± 1.3 ms</title>
<rect y="248" rx="5" height="22" width="871.5469510086589" fill="hsl(160, 100%, 80%)" stroke="hsl(160, 100%, 55%)" />
<g stroke="hsl(160, 100%, 40%)"><line x1="803.0939020173178" x2="940.0" y1="259" y2="259" />
<line x1="803.0939020173178" x2="803.0939020173178" y1="253" y2="265" />
<line x1="940.0" x2="940.0" y1="253" y2="265" />
</g>
</g>
<text fill="hsl(200, 100%, 40%)" y="297">countdown.deep.10000.effectful.5+5 261  μs</text>
<g>
<title>261  μs ±  12 μs</title>
<rect y="303" rx="5" height="22" width="14.113603749556903" fill="hsl(200, 100%, 80%)" stroke="hsl(200, 100%, 55%)" />
<g stroke="hsl(200, 100%, 40%)"><line x1="13.439391759999758" x2="14.787815739114048" y1="314" y2="314" />
<line x1="13.439391759999758" x2="13.439391759999758" y1="308" y2="320" />
<line x1="14.787815739114048" x2="14.787815739114048" y1="308" y2="320" />
</g>
</g>
<text fill="hsl(240, 100%, 40%)" y="352">countdown.deep.10000.eff.5+5 550  μs</text>
<g>
<title>550  μs ±  53 μs</title>
<rect y="358" rx="5" height="22" width="29.689764406440442" fill="hsl(240, 100%, 80%)" stroke="hsl(240, 100%, 55%)" />
<g stroke="hsl(240, 100%, 40%)"><line x1="26.81703963448645" x2="32.562489178394436" y1="369" y2="369" />
<line x1="26.81703963448645" x2="26.81703963448645" y1="363" y2="375" />
<line x1="32.562489178394436" x2="32.562489178394436" y1="363" y2="375" />
</g>
</g>
<text fill="hsl(280, 100%, 40%)" y="407">countdown.deep.10000.ev.5+5 310  μs</text>
<g>
<title>310  μs ±  16 μs</title>
<rect y="413" rx="5" height="22" width="16.749576711182815" fill="hsl(280, 100%, 80%)" stroke="hsl(280, 100%, 55%)" />
<g stroke="hsl(280, 100%, 40%)"><line x1="15.905892925258026" x2="17.593260497107604" y1="424" y2="424" />
<line x1="15.905892925258026" x2="15.905892925258026" y1="418" y2="430" />
<line x1="17.593260497107604" x2="17.593260497107604" y1="418" y2="430" />
</g>
</g>
<g fill="hsl(320, 100%, 40%)">
<text y="462">countdown.deep.10000.mtl.5+5</text>
<text y="462" x="544.230267805932" text-anchor="end">10.1 ms</text>
</g>
<g>
<title>10.1 ms ± 672 μs</title>
<rect y="468" rx="5" height="22" width="544.230267805932" fill="hsl(320, 100%, 80%)" stroke="hsl(320, 100%, 55%)" />
<g stroke="hsl(320, 100%, 40%)"><line x1="507.9441554180926" x2="580.5163801937715" y1="479" y2="479" />
<line x1="507.9441554180926" x2="507.9441554180926" y1="473" y2="485" />
<line x1="580.5163801937715" x2="580.5163801937715" y1="473" y2="485" />
</g>
</g>
</g>
</svg>
