<svg xmlns="http://www.w3.org/2000/svg" height="502" width="960.0" font-size="16" font-family="sans-serif" stroke-width="2">
<g transform="translate(10.0 0)">
<text fill="hsl(0, 100%, 40%)" y="22">countdown.shallow.10000.heftia 459  μs</text>
<g>
<title>459  μs ±  35 μs</title>
<rect y="28" rx="5" height="22" width="147.34137364688763" fill="hsl(0, 100%, 80%)" stroke="hsl(0, 100%, 55%)" />
<g stroke="hsl(0, 100%, 40%)"><line x1="136.19438205995172" x2="158.48836523382354" y1="39" y2="39" />
<line x1="136.19438205995172" x2="136.19438205995172" y1="33" y2="45" />
<line x1="158.48836523382354" x2="158.48836523382354" y1="33" y2="45" />
</g>
</g>
<g fill="hsl(40, 100%, 40%)">
<text y="77">countdown.shallow.10000.heftia.ev</text>
<text y="77" x="333.923212175806" text-anchor="end">1.04 ms</text>
</g>
<g>
<title>1.04 ms ± 100 μs</title>
<rect y="83" rx="5" height="22" width="333.923212175806" fill="hsl(40, 100%, 80%)" stroke="hsl(40, 100%, 55%)" />
<g stroke="hsl(40, 100%, 40%)"><line x1="301.6468171805018" x2="366.1996071711102" y1="94" y2="94" />
<line x1="301.6468171805018" x2="301.6468171805018" y1="88" y2="100" />
<line x1="366.1996071711102" x2="366.1996071711102" y1="88" y2="100" />
</g>
</g>
<text fill="hsl(80, 100%, 40%)" y="132">countdown.shallow.10000.freer 493  μs</text>
<g>
<title>493  μs ±  45 μs</title>
<rect y="138" rx="5" height="22" width="158.37480644472362" fill="hsl(80, 100%, 80%)" stroke="hsl(80, 100%, 55%)" />
<g stroke="hsl(80, 100%, 40%)"><line x1="143.94699399473586" x2="172.80261889471137" y1="149" y2="149" />
<line x1="143.94699399473586" x2="143.94699399473586" y1="143" y2="155" />
<line x1="172.80261889471137" x2="172.80261889471137" y1="143" y2="155" />
</g>
</g>
<g fill="hsl(120, 100%, 40%)">
<text y="187">countdown.shallow.10000.polyemy</text>
<text y="187" x="864.60254078179" text-anchor="end">2.69 ms</text>
</g>
<g>
<title>2.69 ms ± 235 μs</title>
<rect y="193" rx="5" height="22" width="864.60254078179" fill="hsl(120, 100%, 80%)" stroke="hsl(120, 100%, 55%)" />
<g stroke="hsl(120, 100%, 40%)"><line x1="789.20508156358" x2="940.0" y1="204" y2="204" />
<line x1="789.20508156358" x2="789.20508156358" y1="198" y2="210" />
<line x1="940.0" x2="940.0" y1="198" y2="210" />
</g>
</g>
<g fill="hsl(160, 100%, 40%)">
<text y="242">countdown.shallow.10000.fused</text>
<text y="242" x="716.755560214168" text-anchor="end">2.23 ms</text>
</g>
<g>
<title>2.23 ms ± 198 μs</title>
<rect y="248" rx="5" height="22" width="716.755560214168" fill="hsl(160, 100%, 80%)" stroke="hsl(160, 100%, 55%)" />
<g stroke="hsl(160, 100%, 40%)"><line x1="653.2936600060689" x2="780.2174604222671" y1="259" y2="259" />
<line x1="653.2936600060689" x2="653.2936600060689" y1="253" y2="265" />
<line x1="780.2174604222671" x2="780.2174604222671" y1="253" y2="265" />
</g>
</g>
<text fill="hsl(200, 100%, 40%)" y="297">countdown.shallow.10000.effectful 270  μs</text>
<g>
<title>270  μs ±  17 μs</title>
<rect y="303" rx="5" height="22" width="86.71820579651828" fill="hsl(200, 100%, 80%)" stroke="hsl(200, 100%, 55%)" />
<g stroke="hsl(200, 100%, 40%)"><line x1="81.23236047620159" x2="92.20405111683496" y1="314" y2="314" />
<line x1="81.23236047620159" x2="81.23236047620159" y1="308" y2="320" />
<line x1="92.20405111683496" x2="92.20405111683496" y1="308" y2="320" />
</g>
</g>
<text fill="hsl(240, 100%, 40%)" y="352">countdown.shallow.10000.eff 555  μs</text>
<g>
<title>555  μs ±  31 μs</title>
<rect y="358" rx="5" height="22" width="178.40932589864084" fill="hsl(240, 100%, 80%)" stroke="hsl(240, 100%, 55%)" />
<g stroke="hsl(240, 100%, 40%)"><line x1="168.59574019295192" x2="188.22291160432977" y1="369" y2="369" />
<line x1="168.59574019295192" x2="168.59574019295192" y1="363" y2="375" />
<line x1="188.22291160432977" x2="188.22291160432977" y1="363" y2="375" />
</g>
</g>
<text fill="hsl(280, 100%, 40%)" y="407">countdown.shallow.10000.ev 316  μs</text>
<g>
<title>316  μs ±  16 μs</title>
<rect y="413" rx="5" height="22" width="101.35962373535533" fill="hsl(280, 100%, 80%)" stroke="hsl(280, 100%, 55%)" />
<g stroke="hsl(280, 100%, 40%)"><line x1="96.08646044234132" x2="106.63278702836934" y1="424" y2="424" />
<line x1="96.08646044234132" x2="96.08646044234132" y1="418" y2="430" />
<line x1="106.63278702836934" x2="106.63278702836934" y1="418" y2="430" />
</g>
</g>
<g fill="hsl(320, 100%, 40%)">
<text y="462">countdown.shallow.10000.mtl</text>
<text y="462" x="280.90522811363013" text-anchor="end">875  μs</text>
</g>
<g>
<title>875  μs ±  50 μs</title>
<rect y="468" rx="5" height="22" width="280.90522811363013" fill="hsl(320, 100%, 80%)" stroke="hsl(320, 100%, 55%)" />
<g stroke="hsl(320, 100%, 40%)"><line x1="264.73681559657985" x2="297.0736406306804" y1="479" y2="479" />
<line x1="264.73681559657985" x2="264.73681559657985" y1="473" y2="485" />
<line x1="297.0736406306804" x2="297.0736406306804" y1="473" y2="485" />
</g>
</g>
</g>
</svg>
