<svg xmlns="http://www.w3.org/2000/svg" height="887" width="960.0" font-size="16" font-family="sans-serif" stroke-width="2">
<g transform="translate(10.0 0)">
<text fill="hsl(0, 100%, 40%)" y="22">nondet.32.heftia.shallow 6.77 ms</text>
<g>
<title>6.77 ms ± 447 μs</title>
<rect y="28" rx="5" height="22" width="40.787540404792985" fill="hsl(0, 100%, 80%)" stroke="hsl(0, 100%, 55%)" />
<g stroke="hsl(0, 100%, 40%)"><line x1="38.092426889568095" x2="43.482653920017874" y1="39" y2="39" />
<line x1="38.092426889568095" x2="38.092426889568095" y1="33" y2="45" />
<line x1="43.482653920017874" x2="43.482653920017874" y1="33" y2="45" />
</g>
</g>
<text fill="hsl(22, 100%, 40%)" y="77">nondet.32.heftia.deep 11.7 ms</text>
<g>
<title>11.7 ms ± 836 μs</title>
<rect y="83" rx="5" height="22" width="70.45108449556919" fill="hsl(22, 100%, 80%)" stroke="hsl(22, 100%, 55%)" />
<g stroke="hsl(22, 100%, 40%)"><line x1="65.4114327350566" x2="75.49073625608179" y1="94" y2="94" />
<line x1="65.4114327350566" x2="65.4114327350566" y1="88" y2="100" />
<line x1="75.49073625608179" x2="75.49073625608179" y1="88" y2="100" />
</g>
</g>
<text fill="hsl(45, 100%, 40%)" y="132">nondet.32.freer.shallow 5.91 ms</text>
<g>
<title>5.91 ms ± 281 μs</title>
<rect y="138" rx="5" height="22" width="35.6320789267644" fill="hsl(45, 100%, 80%)" stroke="hsl(45, 100%, 55%)" />
<g stroke="hsl(45, 100%, 40%)"><line x1="33.93963852352916" x2="37.32451932999964" y1="149" y2="149" />
<line x1="33.93963852352916" x2="33.93963852352916" y1="143" y2="155" />
<line x1="37.32451932999964" x2="37.32451932999964" y1="143" y2="155" />
</g>
</g>
<text fill="hsl(67, 100%, 40%)" y="187">nondet.32.freer.deep 10.0 ms</text>
<g>
<title>10.0 ms ± 519 μs</title>
<rect y="193" rx="5" height="22" width="60.10800415540318" fill="hsl(67, 100%, 80%)" stroke="hsl(67, 100%, 55%)" />
<g stroke="hsl(67, 100%, 40%)"><line x1="56.98157192409119" x2="63.23443638671517" y1="204" y2="204" />
<line x1="56.98157192409119" x2="56.98157192409119" y1="198" y2="210" />
<line x1="63.23443638671517" x2="63.23443638671517" y1="198" y2="210" />
</g>
</g>
<text fill="hsl(90, 100%, 40%)" y="242">nondet.32.fused.shallow 1.53 ms</text>
<g>
<title>1.53 ms ± 108 μs</title>
<rect y="248" rx="5" height="22" width="9.217597455530766" fill="hsl(90, 100%, 80%)" stroke="hsl(90, 100%, 55%)" />
<g stroke="hsl(90, 100%, 40%)"><line x1="8.565826999982065" x2="9.869367911079468" y1="259" y2="259" />
<line x1="8.565826999982065" x2="8.565826999982065" y1="253" y2="265" />
<line x1="9.869367911079468" x2="9.869367911079468" y1="253" y2="265" />
</g>
</g>
<text fill="hsl(112, 100%, 40%)" y="297">nondet.32.fused.deep 13.3 ms</text>
<g>
<title>13.3 ms ± 813 μs</title>
<rect y="303" rx="5" height="22" width="80.38354825541543" fill="hsl(112, 100%, 80%)" stroke="hsl(112, 100%, 55%)" />
<g stroke="hsl(112, 100%, 40%)"><line x1="75.4854057816998" x2="85.28169072913107" y1="314" y2="314" />
<line x1="75.4854057816998" x2="75.4854057816998" y1="308" y2="320" />
<line x1="85.28169072913107" x2="85.28169072913107" y1="308" y2="320" />
</g>
</g>
<text fill="hsl(135, 100%, 40%)" y="352">nondet.32.ev.shallow 1.45 ms</text>
<g>
<title>1.45 ms ± 110 μs</title>
<rect y="358" rx="5" height="22" width="8.746334499593065" fill="hsl(135, 100%, 80%)" stroke="hsl(135, 100%, 55%)" />
<g stroke="hsl(135, 100%, 40%)"><line x1="8.081033740350357" x2="9.411635258835773" y1="369" y2="369" />
<line x1="8.081033740350357" x2="8.081033740350357" y1="363" y2="375" />
<line x1="9.411635258835773" x2="9.411635258835773" y1="363" y2="375" />
</g>
</g>
<text fill="hsl(157, 100%, 40%)" y="407">nondet.32.ev.deep 2.71 ms</text>
<g>
<title>2.71 ms ± 182 μs</title>
<rect y="413" rx="5" height="22" width="16.313332282499232" fill="hsl(157, 100%, 80%)" stroke="hsl(157, 100%, 55%)" />
<g stroke="hsl(157, 100%, 40%)"><line x1="15.213205160077075" x2="17.413459404921387" y1="424" y2="424" />
<line x1="15.213205160077075" x2="15.213205160077075" y1="418" y2="430" />
<line x1="17.413459404921387" x2="17.413459404921387" y1="418" y2="430" />
</g>
</g>
<text fill="hsl(180, 100%, 40%)" y="462">nondet.32.mp.shallow 3.84 ms</text>
<g>
<title>3.84 ms ± 367 μs</title>
<rect y="468" rx="5" height="22" width="23.120077695660527" fill="hsl(180, 100%, 80%)" stroke="hsl(180, 100%, 55%)" />
<g stroke="hsl(180, 100%, 40%)"><line x1="20.90933860717687" x2="25.330816784144183" y1="479" y2="479" />
<line x1="20.90933860717687" x2="20.90933860717687" y1="473" y2="485" />
<line x1="25.330816784144183" x2="25.330816784144183" y1="473" y2="485" />
</g>
</g>
<text fill="hsl(202, 100%, 40%)" y="517">nondet.32.mp.deep 10.7 ms</text>
<g>
<title>10.7 ms ± 1.0 ms</title>
<rect y="523" rx="5" height="22" width="64.54053680803082" fill="hsl(202, 100%, 80%)" stroke="hsl(202, 100%, 55%)" />
<g stroke="hsl(202, 100%, 40%)"><line x1="58.449564965492044" x2="70.6315086505696" y1="534" y2="534" />
<line x1="58.449564965492044" x2="58.449564965492044" y1="528" y2="540" />
<line x1="70.6315086505696" x2="70.6315086505696" y1="528" y2="540" />
</g>
</g>
<text fill="hsl(225, 100%, 40%)" y="572">nondet.32.eff.shallow 33.9 ms</text>
<g>
<title>33.9 ms ± 1.7 ms</title>
<rect y="578" rx="5" height="22" width="204.44936776581415" fill="hsl(225, 100%, 80%)" stroke="hsl(225, 100%, 55%)" />
<g stroke="hsl(225, 100%, 40%)"><line x1="194.0199809527954" x2="214.87875457883288" y1="589" y2="589" />
<line x1="194.0199809527954" x2="194.0199809527954" y1="583" y2="595" />
<line x1="214.87875457883288" x2="214.87875457883288" y1="583" y2="595" />
</g>
</g>
<g fill="hsl(247, 100%, 40%)">
<text y="627">nondet.32.eff.deep</text>
<text y="627" x="434.56412303334605" text-anchor="end">72.1 ms</text>
</g>
<g>
<title>72.1 ms ± 4.9 ms</title>
<rect y="633" rx="5" height="22" width="434.56412303334605" fill="hsl(247, 100%, 80%)" stroke="hsl(247, 100%, 55%)" />
<g stroke="hsl(247, 100%, 40%)"><line x1="404.7278053357504" x2="464.4004407309417" y1="644" y2="644" />
<line x1="404.7278053357504" x2="404.7278053357504" y1="638" y2="650" />
<line x1="464.4004407309417" x2="464.4004407309417" y1="638" y2="650" />
</g>
</g>
<text fill="hsl(270, 100%, 40%)" y="682">nondet.32.mtl-logict.shallow 1.24 ms</text>
<g>
<title>1.24 ms ± 105 μs</title>
<rect y="688" rx="5" height="22" width="7.454271478407973" fill="hsl(270, 100%, 80%)" stroke="hsl(270, 100%, 55%)" />
<g stroke="hsl(270, 100%, 40%)"><line x1="6.823812322974798" x2="8.084730633841149" y1="699" y2="699" />
<line x1="6.823812322974798" x2="6.823812322974798" y1="693" y2="705" />
<line x1="8.084730633841149" x2="8.084730633841149" y1="693" y2="705" />
</g>
</g>
<text fill="hsl(292, 100%, 40%)" y="737">nondet.32.mtl-logict.deep 8.54 ms</text>
<g>
<title>8.54 ms ± 762 μs</title>
<rect y="743" rx="5" height="22" width="51.468115329636284" fill="hsl(292, 100%, 80%)" stroke="hsl(292, 100%, 55%)" />
<g stroke="hsl(292, 100%, 40%)"><line x1="46.87756007765394" x2="56.05867058161863" y1="754" y2="754" />
<line x1="46.87756007765394" x2="46.87756007765394" y1="748" y2="760" />
<line x1="56.05867058161863" x2="56.05867058161863" y1="748" y2="760" />
</g>
</g>
<text fill="hsl(315, 100%, 40%)" y="792">nondet.32.mtl-list-t.shallow 1.16 ms</text>
<g>
<title>1.16 ms ±  86 μs</title>
<rect y="798" rx="5" height="22" width="6.975777078444554" fill="hsl(315, 100%, 80%)" stroke="hsl(315, 100%, 55%)" />
<g stroke="hsl(315, 100%, 40%)"><line x1="6.459222951541496" x2="7.492331205347612" y1="809" y2="809" />
<line x1="6.459222951541496" x2="6.459222951541496" y1="803" y2="815" />
<line x1="7.492331205347612" x2="7.492331205347612" y1="803" y2="815" />
</g>
</g>
<g fill="hsl(337, 100%, 40%)">
<text y="847">nondet.32.mtl-list-t.deep</text>
<text y="847" x="904.7235429178166" text-anchor="end">150  ms</text>
</g>
<g>
<title>150  ms ± 5.9 ms</title>
<rect y="853" rx="5" height="22" width="904.7235429178166" fill="hsl(337, 100%, 80%)" stroke="hsl(337, 100%, 55%)" />
<g stroke="hsl(337, 100%, 40%)"><line x1="869.4470858356333" x2="940.0" y1="864" y2="864" />
<line x1="869.4470858356333" x2="869.4470858356333" y1="858" y2="870" />
<line x1="940.0" x2="940.0" y1="858" y2="870" />
</g>
</g>
</g>
</svg>
